<?xml version="1.0" encoding="utf-8"?>
<!-- Generator: Adobe Illustrator 18.0.0, SVG Export Plug-In . SVG Version: 6.00 Build 0)  -->
<!DOCTYPE svg PUBLIC "-//W3C//DTD SVG 1.1//EN" "http://www.w3.org/Graphics/SVG/1.1/DTD/svg11.dtd">
<svg version="1.1" xmlns="http://www.w3.org/2000/svg" xmlns:xlink="http://www.w3.org/1999/xlink" x="0px" y="0px"
	 viewBox="0 0 320 145" enable-background="new 0 0 320 145" xml:space="preserve">
<g id="Layer_1">
</g>
<g id="Logo">
	<g>
		<path fill="#8A8C8E" d="M26.6,97.3h7.9c0,2.6,0,5.3,0,7.9c-2.6,0-5.3,0-7.9,0V97.3L26.6,97.3z"/>
		<path fill="#A3A5A8" d="M35.3,97.3h7.9c0,2.6,0,5.3,0,7.9c-2.6,0-5.3,0-7.9,0C35.3,102.6,35.3,99.9,35.3,97.3L35.3,97.3z"/>
		<path fill="#777777" d="M98.1,100.3c0.7-0.5,1.7-0.5,2.5-0.3c0,0.5,0,1,0,1.5c-0.4-0.2-0.9-0.3-1.3-0.1c-0.3,0.1-0.5,0.5-0.6,0.8
			c-0.1,0.4,0,0.9,0,1.3c0.8,0,1.7,0,2.5,0c0-0.5,0-1.1,0-1.6c0.6-0.2,1.1-0.3,1.7-0.5c0,0.7,0,1.4,0,2.1c0.6,0,1.1,0,1.7,0v1.4
			c-0.6,0-1.1,0-1.7,0c0,0.8,0,1.6,0,2.4c0,0.4,0,0.9,0,1.3c0,0.3,0.1,0.5,0.4,0.7c0.4,0.2,0.9,0.1,1.3-0.1v1.4
			c-0.5,0.2-1,0.3-1.6,0.2c-0.5,0-1-0.2-1.4-0.6c-0.4-0.5-0.5-1.1-0.5-1.6c0-1.2,0-2.5,0-3.7c-0.8,0-1.7,0-2.5,0c0,1.9,0,3.9,0,5.8
			c-0.6,0-1.1,0-1.7,0c0-1.9,0-3.9,0-5.8c-0.4,0-0.8,0-1.2,0c0-0.5,0-0.9,0-1.4c0.4,0,0.8,0,1.2,0c0-0.6-0.1-1.2,0.1-1.8
			C97.3,101.1,97.7,100.6,98.1,100.3L98.1,100.3z"/>
		<path fill="#777777" d="M61.4,100.4c0.3-0.1,0.7,0.1,0.9,0.3c0.3,0.3,0.3,0.8,0.1,1.1c-0.2,0.4-0.7,0.6-1.1,0.5
			c-0.4-0.1-0.8-0.5-0.8-1C60.5,100.9,60.9,100.5,61.4,100.4L61.4,100.4z"/>
		<path fill="#777777" d="M48.2,100.6c0.8,0,1.7,0,2.5,0c0.8,2,1.6,3.9,2.3,5.9c0.2,0.5,0.4,1,0.6,1.5c1-2.5,2-4.9,3-7.4
			c0.8,0,1.6,0,2.4,0c0,3.3,0,6.7,0,10c-0.6,0-1.2,0-1.7,0c0-2.5,0-4.9,0-7.4c0-0.1,0-0.2,0-0.3c0,0.1-0.1,0.1-0.1,0.2
			c-1,2.5-2,5-3,7.6c-0.4,0-0.8,0-1.2,0c-1-2.5-2-5-3.1-7.6c0-0.1-0.1-0.1-0.1-0.2c0,1.1,0,2.2,0,3.2c0,1.5,0,3,0,4.5
			c-0.5,0-1.1,0-1.6,0C48.2,107.3,48.2,104,48.2,100.6L48.2,100.6z"/>
		<path fill="#777777" d="M66.1,103.5c0.8-0.2,1.7-0.2,2.5,0c0.2,0,0.3,0.1,0.5,0.2c0,0.5,0,1.1,0,1.6c-0.6-0.4-1.3-0.7-2-0.6
			c-0.6,0.1-1.1,0.3-1.4,0.8c-0.4,0.6-0.5,1.3-0.5,2c0.1,0.5,0.3,1.1,0.7,1.4c0.4,0.4,1,0.5,1.6,0.5c0.6-0.1,1.1-0.3,1.5-0.6
			c0,0.5,0,1,0,1.6c-0.7,0.4-1.5,0.5-2.3,0.5c-0.8,0-1.6-0.4-2.2-0.9c-0.6-0.6-1-1.5-1-2.4c0-0.9,0.1-1.9,0.7-2.7
			C64.6,104.1,65.3,103.7,66.1,103.5L66.1,103.5z"/>
		<path fill="#777777" d="M77.7,103.3c0.8-0.1,1.7-0.1,2.5,0.3c0.7,0.3,1.2,0.9,1.5,1.5c0.3,0.7,0.4,1.5,0.3,2.3
			c-0.1,0.7-0.3,1.5-0.8,2.1c-0.5,0.6-1.2,1.1-2,1.2c-0.7,0.1-1.3,0.1-2,0c-0.8-0.2-1.5-0.6-2-1.3c-0.5-0.8-0.7-1.8-0.6-2.7
			c0-0.8,0.3-1.6,0.8-2.2C76,103.8,76.9,103.4,77.7,103.3L77.7,103.3z"/>
		<path fill="#777777" d="M84.8,103.3c0.8-0.1,1.6,0,2.4,0.2c0,0.5,0,1.1,0,1.6c-0.5-0.4-1.2-0.6-1.8-0.5c-0.3,0-0.7,0.1-0.8,0.5
			c-0.1,0.3,0,0.7,0.2,0.9c0.5,0.3,1.1,0.5,1.6,0.8c0.4,0.2,0.8,0.5,1,0.9c0.4,0.8,0.2,1.8-0.4,2.4c-0.6,0.6-1.5,0.8-2.4,0.7
			c-0.6,0-1.2-0.2-1.7-0.4c0-0.6,0-1.1,0-1.7c0.5,0.3,1,0.6,1.6,0.7c0.4,0.1,0.8,0.1,1.2-0.1c0.3-0.2,0.4-0.7,0.2-1
			c-0.2-0.2-0.5-0.4-0.7-0.5c-0.5-0.2-1-0.4-1.5-0.8c-0.3-0.2-0.5-0.6-0.6-1c-0.1-0.6-0.1-1.2,0.2-1.7
			C83.5,103.8,84.2,103.5,84.8,103.3L84.8,103.3z"/>
		<path fill="#777777" d="M91.4,103.3c0.9-0.1,1.8,0,2.5,0.3c0.7,0.3,1.2,1,1.5,1.7c0.2,0.5,0.3,1.1,0.3,1.7c0,0.9-0.2,1.8-0.8,2.4
			c-0.5,0.7-1.3,1.1-2.1,1.2c-0.8,0.1-1.7,0.1-2.4-0.2c-0.8-0.3-1.4-0.9-1.7-1.7c-0.3-0.8-0.4-1.7-0.3-2.5c0.1-0.8,0.5-1.6,1.1-2.2
			C90,103.7,90.7,103.4,91.4,103.3L91.4,103.3z"/>
		<path fill="#777777" d="M60.7,103.5c0.6,0,1.1,0,1.7,0c0,2.4,0,4.8,0,7.2c-0.6,0-1.1,0-1.7,0C60.7,108.2,60.7,105.9,60.7,103.5
			L60.7,103.5z"/>
		<path fill="#FEFEFE" d="M78.2,104.7c0.5,0,1.1,0.1,1.4,0.5c0.4,0.4,0.6,1,0.6,1.5c0,0.6,0,1.2-0.2,1.8c-0.2,0.4-0.5,0.7-0.8,0.8
			c-0.4,0.2-0.9,0.2-1.4,0.1c-0.5-0.1-0.9-0.5-1.1-0.9c-0.3-0.6-0.3-1.2-0.3-1.8c0.1-0.6,0.2-1.1,0.7-1.5
			C77.4,104.9,77.8,104.7,78.2,104.7L78.2,104.7z"/>
		<path fill="#FEFEFE" d="M91.9,104.7c0.5,0,1,0.1,1.4,0.4c0.3,0.3,0.5,0.7,0.6,1.1c0.1,0.5,0.1,1,0,1.5c-0.1,0.4-0.2,0.8-0.4,1.1
			c-0.2,0.3-0.6,0.5-1,0.5c-0.4,0.1-0.8,0-1.2-0.1c-0.4-0.2-0.7-0.5-0.9-0.9c-0.2-0.5-0.2-1-0.2-1.6c0-0.5,0.2-1,0.5-1.4
			C90.9,104.9,91.4,104.7,91.9,104.7L91.9,104.7z"/>
		<path fill="#FEFEFE" d="M104.7,109.1c-0.4,0.3-0.9,0.4-1.3,0.1c-0.2-0.1-0.3-0.4-0.4-0.7c-0.1-0.4,0-0.9,0-1.3c0-0.8,0-1.6,0-2.4
			l0,0c0.6,0,1.1,0,1.7,0"/>
		<path fill="#77787B" d="M26.6,106c2.6,0,5.3,0,7.9,0c0,2.6,0,5.3,0,7.9h-7.9V106L26.6,106z"/>
		<path fill="#CDCFD0" d="M35.3,106c2.6,0,5.3,0,7.9,0c0,2.6,0,5.3,0,7.9h-7.9C35.3,111.3,35.3,108.7,35.3,106L35.3,106z"/>
		<g>
			<path fill="#777777" d="M37,56.5c-1.9,0-3.1-1.4-3.1-3.1v-6.8c0-1.6,1.3-3.1,3.1-3.1c1.9,0,3.1,1.5,3.1,3.1v6.8
				C40,55,38.8,56.5,37,56.5z M38.6,46.6c0-0.9-0.6-1.7-1.7-1.7c-1,0-1.7,0.9-1.7,1.7v6.8c0,0.9,0.6,1.7,1.7,1.7
				c1.1,0,1.7-0.9,1.7-1.7V46.6z"/>
			<path fill="#777777" d="M45.6,56.5c-0.7,0-1.2-0.2-1.5-0.3c-0.1-0.1-0.2,0-0.2,0.2v3.3c0,0.1-0.1,0.2-0.2,0.2h-1
				c-0.1,0-0.2-0.1-0.2-0.2v-9.2c0-1.6,1.3-3.1,3.1-3.1c1.8,0,3.1,1.5,3.1,3.1v3C48.7,55,47.5,56.5,45.6,56.5z M47.2,50.4
				c0-0.9-0.6-1.7-1.7-1.7c-1.1,0-1.7,0.9-1.7,1.7v3c0,0.9,0.6,1.7,1.7,1.7c1.1,0,1.7-0.9,1.7-1.7V50.4z"/>
			<path fill="#777777" d="M56.6,52.5h-4.1c-0.1,0-0.2,0.1-0.2,0.2v0.6c0,0.9,0.6,1.7,1.7,1.7c1.1,0,1.6-0.8,1.9-1.2
				c0.1-0.1,0.2-0.1,0.3-0.1l0.6,0.4c0.2,0.2,0.2,0.3,0.2,0.4c-0.3,0.5-1.2,1.8-3,1.8c-1.9,0-3.1-1.4-3.1-3.1v-3
				c0-1.6,1.3-3.1,3.1-3.1c1.9,0,3.1,1.5,3.1,3.1v1.7C57,52.3,56.8,52.5,56.6,52.5z M52.3,50.4V51c0,0.1,0.1,0.2,0.2,0.2h2.8
				c0.1,0,0.2-0.1,0.2-0.2v-0.6c0-0.9-0.6-1.7-1.7-1.7C52.9,48.7,52.3,49.5,52.3,50.4z"/>
			<path fill="#777777" d="M65.3,56.3h-0.9c-0.1,0-0.3-0.1-0.3-0.2v-5.6c0-0.9-0.6-1.7-1.7-1.7c-1,0-1.7,0.9-1.7,1.7V56
				c0,0.1-0.1,0.2-0.2,0.2h-0.9c-0.1,0-0.3-0.1-0.3-0.2v-8.3c0-0.1,0.1-0.2,0.2-0.2h0.8c0.3,0,0.2,0.4,0.4,0.3
				c0.5-0.3,1.1-0.5,1.6-0.5c1.9,0,3.1,1.5,3.1,3.1V56C65.5,56.2,65.4,56.3,65.3,56.3z"/>
			<path fill="#777777" d="M72.3,45.1h-1.9c-0.1,0-0.2,0.1-0.2,0.3V56c0,0.1-0.1,0.2-0.3,0.2h-0.9c-0.1,0-0.2-0.1-0.2-0.2V45.3
				c0-0.1-0.1-0.2-0.2-0.2h-1.9c-0.1,0-0.2-0.1-0.2-0.3V44c0-0.1,0.1-0.2,0.2-0.2h5.7c0.1,0,0.2,0.1,0.2,0.2v0.8
				C72.5,44.9,72.4,45.1,72.3,45.1z"/>
			<path fill="#777777" d="M90.6,43.8h-0.9c-0.1,0-0.2,0.1-0.2,0.2v12c0,0.1,0.1,0.2,0.2,0.2h0.9c0.1,0,0.3-0.1,0.3-0.2v-12
				C90.9,43.9,90.7,43.8,90.6,43.8z"/>
			<path fill="#777777" d="M78.4,56.3h-0.8c-0.3,0-0.2-0.4-0.5-0.2c0,0-0.6,0.4-1.6,0.4c-1.8,0-3.1-1.3-3.1-3.1
				c0-1.8,1.4-3.1,3.1-3.1c0.5,0,1,0.2,1.4,0.3c0.2,0.1,0.2-0.1,0.2-0.3c0-0.9-0.7-1.7-1.6-1.7c-0.7,0-1.2,0.2-1.6,0.4
				c-0.2,0.1-0.3,0.1-0.4-0.1l-0.4-0.7c-0.1-0.2,0-0.3,0.1-0.4c0.8-0.4,1.5-0.6,2.3-0.6c1.8,0,3.1,1.4,3.1,3.1V56
				C78.7,56.2,78.6,56.3,78.4,56.3z M75.6,51.7c-1.1,0-1.7,0.9-1.7,1.7c0,0.9,0.7,1.7,1.7,1.7c1.1,0,1.6-0.9,1.6-1.7
				C77.2,52.6,76.6,51.7,75.6,51.7z"/>
			<path fill="#777777" d="M84.2,47.3c-0.6,0-1.2,0.2-1.7,0.5V44c0-0.1-0.1-0.2-0.2-0.2h-1c-0.1,0-0.2,0.1-0.2,0.2v9.4
				c0,1.6,1.3,3.1,3.1,3.1h0c0,0,0,0,0,0c0,0,0,0,0,0c0,0,0.1,0,0.1,0c0,0,0,0,0.1,0c0,0,0.1,0,0.1,0c0,0,0,0,0,0
				c0.3,0,0.5-0.1,0.8-0.2c0,0,0,0,0,0c0,0,0.1,0,0.1,0c1.1-0.5,1.9-1.6,1.9-2.8v-3C87.2,48.8,86,47.3,84.2,47.3z M82.5,50.4
				c0-0.9,0.6-1.7,1.7-1.7c1.1,0,1.7,0.9,1.7,1.7v3c0,0.4-0.1,0.8-0.4,1.1c0,0-0.1,0.1-0.1,0.1c-0.1,0.1-0.2,0.2-0.3,0.3
				c-0.2,0.1-0.4,0.2-0.6,0.2c0,0,0,0,0,0c0,0,0,0-0.1,0c0,0,0,0-0.1,0c0,0,0,0,0,0c0,0-0.1,0-0.1,0c-1,0-1.7-0.9-1.7-1.7V50.4z"/>
			<path fill="#777777" d="M98.9,52.5h-4.1c-0.1,0-0.2,0.1-0.2,0.2v0.6c0,0.9,0.6,1.7,1.7,1.7c1.1,0,1.6-0.8,1.9-1.2
				c0.1-0.1,0.2-0.1,0.3-0.1l0.6,0.4c0.2,0.2,0.2,0.3,0.2,0.4c-0.3,0.5-1.2,1.8-3,1.8c-1.9,0-3.1-1.4-3.1-3.1v-3
				c0-1.6,1.3-3.1,3.1-3.1c1.9,0,3.1,1.5,3.1,3.1v1.7C99.3,52.3,99.1,52.5,98.9,52.5z M94.6,50.4V51c0,0.1,0.1,0.2,0.2,0.2h2.8
				c0.1,0,0.2-0.1,0.2-0.2v-0.6c0-0.9-0.6-1.7-1.7-1.7C95.2,48.7,94.6,49.5,94.6,50.4z"/>
			<g>
				<g>
					<g>
						<path fill="#777777" d="M99.8,47.2V47l0.9,0v0.2l-0.4,0l0,0.9l-0.2,0l0-0.9H99.8z M101.5,47l0.3,0.8L102,47l0.3,0l0,1.1
							l-0.2,0l0-0.9l-0.3,0.9h-0.2l-0.3-0.9l0,0.9l-0.2,0l0-1.1L101.5,47z"/>
					</g>
				</g>
			</g>
			<path fill="#777777" d="M62.7,28C62.7,28,62.7,28,62.7,28L62.7,28c-0.1-1.2-3.4-2.1-7.5-2.1c-4.1,0-7.4,0.9-7.5,2.1h0v0
				c0,0,0,0.1,0,0.1v1.2c0,0,0,0,0,0c0,1.2,3.4,2.1,7.5,2.1c4.2,0,7.5-0.9,7.5-2.1c0,0,0,0,0,0V28z"/>
			<path fill="#C1C1C1" d="M43.8,30.4C43.8,30.4,43.8,30.4,43.8,30.4c0-1.5-4-2.8-9-2.8c-4.9,0-9,1.2-9,2.7c0,0,0,0,0,0h0v1.5h0
				c0,1.5,4,2.7,9,2.7c4.9,0,8.9-1.2,9-2.7h0L43.8,30.4L43.8,30.4z"/>
			<path fill="#C1C1C1" d="M64.1,37.7c0,0,0-0.1,0-0.1c-0.1-2.2-5.3-4-11.6-4c-6.3,0-11.5,1.8-11.6,4h0c0,0,0,0.1,0,0.1v1.8h0
				c0.1,2.2,5.3,4,11.6,4c6.3,0,11.5-1.8,11.6-4h0c0,0,0-0.1,0-0.1V37.7z"/>
			<path fill="#C1C1C1" d="M47.3,23.8c-0.1-0.8-2.9-1.4-6.4-1.4c-3.5,0-6.3,0.6-6.4,1.4h0v0.8h0c0.1,0.8,2.9,1.4,6.4,1.4
				c3.5,0,6.3-0.6,6.4-1.4h0L47.3,23.8L47.3,23.8z"/>
			<path fill="#3A3A3A" d="M62.7,29.2V28c-0.1,1.1-3.4,2.1-7.5,2.1c-4.1,0-7.4-0.9-7.5-2.1v1.1c0,0,0,0,0,0c0,1.2,3.4,2.1,7.5,2.1
				C59.3,31.3,62.7,30.4,62.7,29.2C62.7,29.2,62.7,29.2,62.7,29.2z"/>
			<path fill="#8E8D8D" d="M43.8,30.4c0,1.5-4,2.7-9,2.7c-4.9,0-8.9-1.2-9-2.7h0v1.5h0c0,1.5,4,2.7,9,2.7c4.9,0,8.9-1.2,9-2.7h0
				L43.8,30.4L43.8,30.4z"/>
			<path fill="#8E8D8D" d="M64.1,37.7c0,2.2-5.2,4.1-11.6,4.1c-6.4,0-11.6-1.8-11.6-4c0,0,0,1.7,0,1.7v0h0c0.1,2.2,5.3,4,11.6,4
				c6.3,0,11.5-1.8,11.6-4h0V37.7z"/>
			<path fill="#8E8D8D" d="M40.9,25.3c-3.5,0-6.4-0.6-6.4-1.4v0.8h0c0.1,0.8,2.9,1.4,6.4,1.4c3.5,0,6.3-0.6,6.4-1.4h0v-0.8
				C47.3,24.6,44.4,25.3,40.9,25.3z"/>
		</g>
		<path fill="#777777" d="M73.4,103.6c0.5-0.3,1.1-0.3,1.6-0.1c0,0.6,0,1.1,0,1.7c-0.3-0.2-0.8-0.3-1.2-0.3
			c-0.5,0.1-0.9,0.4-1.1,0.9c-0.2,0.5-0.3,1-0.2,1.5c0,1.1,0,2.3,0,3.4c-0.6,0-1.1,0-1.7,0c0-2.4,0-4.8,0-7.2c0.6,0,1.1,0,1.7,0
			c0,0.4,0,0.8,0,1.2C72.7,104.2,73,103.8,73.4,103.6L73.4,103.6z"/>
		<g>
			<g>
				<path fill-rule="evenodd" clip-rule="evenodd" fill="#B3B5B8" d="M161.3,113.4c-2.8,2-6.8,3.1-10.3,3.1c-4.9,0-9.2-1.8-12.5-4.8
					c-0.3-0.2,0-0.6,0.3-0.4c3.6,2.1,8,3.3,12.5,3.3c3.1,0,6.5-0.6,9.6-2C161.3,112.6,161.7,113.1,161.3,113.4z"/>
				<path fill-rule="evenodd" clip-rule="evenodd" fill="#B3B5B8" d="M162.4,112.1c-0.4-0.5-2.3-0.2-3.2-0.1c-0.3,0-0.3-0.2-0.1-0.4
					c1.6-1.1,4.2-0.8,4.5-0.4c0.3,0.4-0.1,3-1.6,4.2c-0.2,0.2-0.4,0.1-0.3-0.2C162,114.5,162.8,112.6,162.4,112.1z"/>
			</g>
			<g>
				<path fill-rule="evenodd" clip-rule="evenodd" fill="#777777" d="M159.3,103.8v-1.1c0-0.2,0.1-0.3,0.3-0.3l4.9,0
					c0.2,0,0.3,0.1,0.3,0.3l0,0.9c0,0.2-0.1,0.4-0.4,0.7l-2.5,3.6c0.9,0,1.9,0.1,2.8,0.6c0.2,0.1,0.2,0.3,0.3,0.4v1.2
					c0,0.2-0.2,0.3-0.4,0.2c-1.5-0.8-3.5-0.9-5.1,0c-0.2,0.1-0.3-0.1-0.3-0.3V109c0-0.2,0-0.5,0.2-0.7l2.9-4.2l-2.5,0
					C159.4,104,159.3,103.9,159.3,103.8z"/>
				<path fill-rule="evenodd" clip-rule="evenodd" fill="#777777" d="M141.5,110.5h-1.5c-0.1,0-0.3-0.1-0.3-0.2l0-7.6
					c0-0.2,0.1-0.3,0.3-0.3l1.4,0c0.1,0,0.3,0.1,0.3,0.3v1h0c0.4-1,1-1.4,1.9-1.4c0.9,0,1.5,0.4,1.9,1.4c0.4-1,1.2-1.4,2-1.4
					c0.6,0,1.3,0.3,1.7,0.8c0.5,0.6,0.4,1.6,0.4,2.4l0,4.8c0,0.2-0.1,0.3-0.3,0.3H148c-0.1,0-0.3-0.1-0.3-0.3l0-4c0-0.3,0-1.1,0-1.4
					c-0.1-0.5-0.4-0.7-0.9-0.7c-0.4,0-0.7,0.2-0.9,0.6c-0.2,0.4-0.1,1-0.1,1.5v4c0,0.2-0.1,0.3-0.3,0.3H144c-0.1,0-0.3-0.1-0.3-0.3
					l0-4c0-0.8,0.1-2.1-0.9-2.1c-1.1,0-1,1.2-1,2.1l0,4C141.8,110.4,141.7,110.5,141.5,110.5z"/>
				<path fill-rule="evenodd" clip-rule="evenodd" fill="#777777" d="M168.9,102.3c2.2,0,3.4,1.9,3.4,4.3c0,2.3-1.3,4.2-3.4,4.2
					c-2.2,0-3.3-1.9-3.3-4.2C165.5,104.1,166.7,102.3,168.9,102.3z M168.9,103.8c-1.1,0-1.2,1.5-1.2,2.4c0,0.9,0,2.9,1.1,2.9
					c1.1,0,1.2-1.6,1.2-2.6c0-0.6,0-1.4-0.2-2C169.7,104,169.3,103.8,168.9,103.8z"/>
				<path fill-rule="evenodd" clip-rule="evenodd" fill="#777777" d="M175.1,110.5h-1.5c-0.1,0-0.3-0.1-0.3-0.3l0-7.6
					c0-0.1,0.1-0.2,0.3-0.2l1.4,0c0.1,0,0.2,0.1,0.3,0.2v1.2h0c0.4-1,1-1.5,2-1.5c0.7,0,1.3,0.2,1.7,0.9c0.4,0.6,0.4,1.6,0.4,2.4
					v4.8c0,0.1-0.1,0.2-0.3,0.2h-1.5c-0.1,0-0.2-0.1-0.3-0.2v-4.1c0-0.8,0.1-2-0.9-2c-0.4,0-0.7,0.2-0.9,0.6
					c-0.2,0.5-0.2,0.9-0.2,1.4v4.1C175.4,110.4,175.2,110.5,175.1,110.5z"/>
				<ellipse fill-rule="evenodd" clip-rule="evenodd" fill="#777777" cx="181.1" cy="109.9" rx="0.7" ry="0.7"/>
				<path fill="#777777" d="M196,110.5c-0.2,0-0.3-0.1-0.3-0.3v-7.6c0-0.1,0.1-0.2,0.3-0.2l0.5,0c0.1,0,0.3,0.1,0.3,0.2v1.1
					c0.4-0.9,1.1-1.6,2-1.6l0.1,0l0.1,0c1,0,1.7,0.7,1.9,1.7c0.4-1,1.2-1.7,2.2-1.7l0.1,0l0.1,0c0.7,0,1.4,0.5,1.8,1.2
					c0.3,0.7,0.3,1.6,0.3,2.3l0,4.6c0,0.1-0.1,0.3-0.3,0.3h-0.6c-0.1,0-0.3-0.1-0.3-0.2v-4.6c0-0.5,0-1.1-0.2-1.6
					c-0.2-0.5-0.7-0.8-1.1-0.8c-0.5,0-1,0.4-1.3,0.9c-0.4,0.7-0.4,1.2-0.4,2v4.1c0,0.1-0.1,0.2-0.3,0.2h-0.6c-0.2,0-0.3-0.1-0.3-0.3
					l0-4.9c0-0.4,0-1-0.2-1.4c-0.2-0.5-0.7-0.8-1.1-0.8c-0.5,0-0.9,0.4-1.2,0.8c-0.4,0.5-0.4,1.2-0.4,1.9l0,4.4
					c0,0.1-0.1,0.3-0.3,0.3H196z"/>
				<path fill="#777777" d="M191.5,110.7c-2.1,0-3-2.1-3-4.3c0-2.3,1.1-4.2,3.2-4.2l0.1,0l0.1,0c2.1,0,3.1,2.1,3.1,4.2
					c0,2.3-1.1,4.3-3.3,4.3H191.5L191.5,110.7z M191.7,109.7c0.7,0,1.2-0.4,1.6-1.2c0.3-0.6,0.3-1.4,0.3-2.1c0-0.8-0.1-1.6-0.4-2.2
					c-0.3-0.6-0.9-0.9-1.5-1c-0.7,0-1.2,0.5-1.5,1.1c-0.3,0.6-0.3,1.4-0.3,2c0,0.7,0.1,1.6,0.4,2.2
					C190.5,109.2,191.1,109.6,191.7,109.7z"/>
				<path fill="#777777" d="M185,109.6c0.9,0,1.4-0.8,1.6-1.8c0-0.1,0.1-0.2,0.3-0.2l0.6,0c0.1,0,0.3,0.1,0.3,0.3
					c-0.3,1.7-1.3,2.8-2.7,2.8l-0.1,0l-0.1,0c-2.1,0-3-2.1-3-4.2c0-2.1,0.9-4.3,3-4.3l0.1,0l0.1,0c1.4,0,2.5,1.1,2.7,2.8
					c0,0.1-0.1,0.2-0.3,0.2l-0.7,0c-0.1,0-0.2-0.1-0.2-0.3c-0.2-0.9-0.7-1.7-1.6-1.7c-1.4,0-1.8,1.8-1.8,3.1
					C183.2,107.7,183.6,109.6,185,109.6z"/>
				<path fill-rule="evenodd" clip-rule="evenodd" fill="#777777" d="M155.4,106.9c0,0.6,0,1.1-0.3,1.6c-0.2,0.4-0.6,0.7-1,0.7
					c-0.6,0-0.9-0.4-0.9-1.1c0-1.3,1.1-1.5,2.2-1.5V106.9z M156.9,110.5c-0.1,0.1-0.2,0.1-0.3,0c-0.5-0.4-0.6-0.6-0.8-1
					c-0.8,0.8-1.4,1.1-2.4,1.1c-1.2,0-2.2-0.8-2.2-2.3c0-1.2,0.6-2,1.6-2.4c0.8-0.4,1.9-0.4,2.8-0.5v-0.2c0-0.4,0-0.8-0.2-1.1
					c-0.2-0.3-0.5-0.4-0.8-0.4c-0.6,0-1.1,0.3-1.2,0.9c0,0.1-0.1,0.3-0.3,0.3l-1.4-0.2c-0.1,0-0.3-0.1-0.2-0.3
					c0.3-1.7,1.9-2.3,3.3-2.3c0.7,0,1.7,0.2,2.2,0.7c0.7,0.7,0.6,1.6,0.6,2.5v2.3c0,0.7,0.3,1,0.6,1.4c0.1,0.1,0.1,0.3,0,0.4
					C157.7,109.8,157.2,110.3,156.9,110.5L156.9,110.5z"/>
				<path fill-rule="evenodd" clip-rule="evenodd" fill="#777777" d="M136,106.9c0,0.6,0,1.1-0.3,1.6c-0.2,0.4-0.6,0.7-1,0.7
					c-0.6,0-0.9-0.4-0.9-1.1c0-1.3,1.1-1.5,2.2-1.5V106.9z M137.5,110.5c-0.1,0.1-0.2,0.1-0.3,0c-0.5-0.4-0.6-0.6-0.8-1
					c-0.8,0.8-1.4,1.1-2.4,1.1c-1.2,0-2.2-0.8-2.2-2.3c0-1.2,0.6-2,1.6-2.4c0.8-0.4,1.9-0.4,2.8-0.5v-0.2c0-0.4,0-0.8-0.2-1.1
					c-0.2-0.3-0.5-0.4-0.8-0.4c-0.6,0-1.1,0.3-1.2,0.9c0,0.1-0.1,0.3-0.3,0.3l-1.4-0.2c-0.1,0-0.3-0.1-0.2-0.3
					c0.3-1.7,1.9-2.3,3.3-2.3c0.7,0,1.7,0.2,2.2,0.7c0.7,0.7,0.6,1.6,0.6,2.5v2.3c0,0.7,0.3,1,0.6,1.4c0.1,0.1,0.1,0.3,0,0.4
					C138.3,109.8,137.8,110.3,137.5,110.5L137.5,110.5z"/>
			</g>
		</g>
		<g>
			<path fill-rule="evenodd" clip-rule="evenodd" fill="#777777" d="M254.3,96c0,0-7.8-4.3-14.5-2.3c0,0-0.4,0-0.8,0.5
				c-0.4,0.5-0.7,0.9-0.5,1.3c0.2,0.4,1.2,0.6,2.1,0.4c0,0,0.4-0.3-0.1-0.4c-0.5-0.2-0.8-0.2-0.8-0.2s-0.3-0.1,0-0.2
				c0.3-0.1,3.3-1,8.5,0.5c5.3,1.5,12.3,6,12,10.4c-0.3,4.4-7.3,4.4-7.3,4.4s-1.4,0-3.3-0.4c0-1.5,0-4,0.1-5.5
				c2.6,0,5.1,0.4,5.6,1.3c0,0,0.2,0.2-0.5,0.6c-0.5,0.3-1,0.4-0.5,0.7c0,0,0.7,0.4,1.1,0.3c0.4-0.1,1.5-0.5,1.7-1.7
				c0.1-1.2-1.3-2.4-3.3-2.8c-1.6-0.3-2.5-0.5-3.9-0.5c0-1.3-0.1-3-0.4-3.4c-0.4-0.5-0.7-1.2-1.1-0.5c-0.3,0.7-0.6,2.1-0.7,4
				c-2.3,0.3-4.8,1.2-5.5,2.1c-0.8,1,0,1.9,0,2c0.1,0.1,1.6,2.5,5.1,4.2c0,0.6,0.1,1.3,0.4,1.7c0.5,0.8,1.5,0.3,1.7,0.1
				c0.1-0.1,0.2-0.4,0.2-1c1.6,0.4,4.4,1,7.5,0.1c4.7-1.3,5.4-4.1,5.6-5.8C262.8,104.4,261.7,99.9,254.3,96L254.3,96z M242.6,106.2
				c0,0-0.5-0.6,0.3-0.9c0.7-0.3,2.1-0.7,4.7-0.8c0,0.8-0.1,2.4-0.3,4.8C245.7,108.8,244,107.8,242.6,106.2L242.6,106.2z"/>
			<path fill-rule="evenodd" clip-rule="evenodd" fill="#777777" d="M268.5,96.2C268.4,96.2,268.4,96.2,268.5,96.2
				c-0.3-0.9-2-0.8-2-0.8c-3.5,0.2-4.7,2.5-4.8,3.2c-0.2,0.6-0.1,1.4,0.5,2c-0.2,0.5-0.1,0.8,0,0.9c0.1,0.2,0.4,0.7,0.7,0.7
				c0.2,0,0.4-0.2,0.7-0.7c0.7,0.3,1.5,0.5,2.7,0.1c1.9-0.6,3.7-2.3,3.8-3.8C270.1,96.3,268.5,96.2,268.5,96.2L268.5,96.2z
				 M263.1,98.2c0.5-0.7,1.2-1,2-1.1c-1.1,0.7-1.9,1.6-2.3,2.2C262.7,99.1,262.8,98.8,263.1,98.2L263.1,98.2z M268.7,98.4
				c-1,1.9-3.2,2-4.4,1.7c0.8-1.2,2.5-2.6,3.6-2.7C269.2,97.2,268.7,98.4,268.7,98.4L268.7,98.4z"/>
			<path fill-rule="evenodd" clip-rule="evenodd" fill="#777777" d="M265.4,108.1c0,0,0.1,2.8-0.3,3.1c-0.4,0.3-1.3,0.1-1.5-0.2
				c-0.2-0.3-0.3-1.5-0.2-3.4c0.1-1.9,0.2-4.2,0.6-4.6c0.4-0.4,0.7,0,0.9,0.2c0.2,0.3,0.4,0.6,0.4,1.1c0,0.6,0.1,3.5,0.1,3.5
				L265.4,108.1L265.4,108.1z"/>
			<path fill-rule="evenodd" clip-rule="evenodd" fill="#777777" d="M273.1,104.7c-1.6,0.1-4.7,0.2-5.1,0.5c0,0-0.2,0.2,0.1,0.3
				c0.3,0.1,1.6,0.3,2.3,0.3c0.6,0.1,2.9,0.1,3.7,1.1c0,0,0.5,0.5,0.4,1.6c0,1.1-0.2,1.5-0.7,1.9c-0.5,0.4-4.4,2-6.9-0.7
				c0,0-1.1-1.3,0.5-2.3c0,0,1.2-0.7,4,0.2c0,0,0.9,0.3,0.8,0.7c0,0.3-0.7,0.7-1.7,0.6c-1,0-1.6-0.6-1.6-0.6s-0.9-0.4-1.2-0.1
				c-0.3,0.4-0.2,0.6,0.1,0.8c0.3,0.2,1.5,0.3,1.5,0.3s3.2-0.1,3.8-0.9c0,0,0.4-0.5-0.2-0.8c-0.6-0.4-2.3-0.6-3-0.7
				c-0.7-0.1-3.1-0.1-3.4-0.7c0,0-0.3-0.4,0.1-1.7c0.4-1.2,3.3-1.7,4.5-1.8c0,0,3.3,0,3.9,0.7c0,0,0.1,0.1,0,0.4
				c-0.1,0.3-0.2,0.6-0.8,0.7L273.1,104.7L273.1,104.7z"/>
			<path fill-rule="evenodd" clip-rule="evenodd" fill="#777777" d="M279.1,106.7c0,0,1,1.7,1.1,1.7c0,0,0.1,0.1,0.2,0
				c0.1,0,0.1-0.6,0.1-0.6s-0.2-1.8-1-5c0,0-0.1-0.4,0-0.7c0.1-0.4,0.5-0.2,0.5-0.2s1.4,0.8,2,3.1c0.6,2.3,0.1,4.4-0.2,5.1
				c-0.3,0.6-1,1.3-1.9,0.8c-0.9-0.4-2.2-3.3-2.2-3.3s-0.5-1.1-0.6-1.1c0,0-0.1-0.2-0.2,0.9c-0.1,1.1-0.1,3.4-0.5,3.7
				c-0.5,0.3-1,0.2-1.2-0.2c-0.2-0.4-0.3-1.4-0.1-3.1c0.2-1.7,0.6-3.5,1.2-4c0.5-0.5,0.9-0.1,1.1,0c0,0,0.6,0.6,1.7,2.5L279.1,106.7
				L279.1,106.7z"/>
			<path fill-rule="evenodd" clip-rule="evenodd" fill="#777777" d="M286,105.5l-0.3,1.1c0,0,1.3-0.1,2.3,0c0,0,0.3,0,0.3,0.4
				c0,0.4,0,0.8,0,0.8s0,0.2-0.4,0.3c-0.4,0.1-2.8,0.1-2.8,0.1l-0.4,1.3c0,0-0.2,0.3,0.2,0.2c0.3-0.1,3-0.5,3.3-0.4
				c0.4,0.1,0.7,0.6,0.6,1c-0.2,0.6-2.8,2.1-4.4,2c0,0-0.9,0.1-1.5-1.1c-0.6-1.2-0.1-1.9,0-2.4c0.1-0.4,0.3-0.7,0.3-0.7
				s-0.4-1-0.1-1.3c0,0,0.2-0.2,0.7-0.2l0.7-1.3c0,0-0.7,0-1.1-0.5c-0.4-0.5-0.4-0.8-0.1-0.9c0.3-0.1,3.3-0.6,5.5-0.5
				c0,0,0.7-0.1,1.3,1.2c0,0,0.3,0.5-0.2,0.6c-0.5,0.1-2.3,0.3-3.5,0.3L286,105.5L286,105.5z"/>
			<path fill-rule="evenodd" clip-rule="evenodd" fill="#777777" d="M296.9,104.4c-0.8-0.6-1.6,0-1.6,0c-1.5,0.8-3.3,3-4.3,4.3
				c-0.1-1,0.5-2.1,0.5-2.1l0.2-0.3c0.8-1.4,0.9-1.5,1.1-1.8c0.2-0.4,0.3-1.1,0.1-1.2c-0.2-0.1-0.4,0.2-0.4,0.2
				c-2.4,2-2.8,4.3-2.8,4.3c-0.2,1.2,0,2.1,0.3,2.7c-1.4,2.8-1.9,5.6-1.9,6.6c0,1.1,0.9,1.9,1.3,2.1c0.5,0.2,0.6-0.4,0.6-0.4
				c0.5-2.9,1.2-4.9,2-6.8c2.4,0.7,4.4-1.9,5-2.8c0.7-1.1,0.7-2.5,0.7-2.5C297.8,106.4,297.8,105,296.9,104.4L296.9,104.4z
				 M295.2,109.1c-0.3,0.3-1.2,0.7-2.2,0.8c1-1.7,2.1-3,2.8-3.7c0.8-0.8,0.9,0,0.9,0C296.8,107.6,295.7,108.6,295.2,109.1
				L295.2,109.1z"/>
		</g>
		<g>
			<path fill="#787878" d="M282,34.9c0.1,1,1.7,2.4,2.1,2.3c0.3,0,0.4-1.3,0.4-2.3c0-0.6,0-1-0.3-1.1C283.7,34.8,282.5,35,282,34.9
				L282,34.9z M282.1,34.5c1.1,0,2.1-0.9,2.1-1.7c0-0.4-0.2-0.7-0.6-0.7c0.1,0.1,0.1,0.2,0.1,0.3c0,0.6-0.9,1.2-1.9,1.2
				c-0.4,0-0.5,0.2-0.5,0.4C281.4,34.4,281.7,34.5,282.1,34.5L282.1,34.5z M281.9,33.3c-0.1,0-0.4,0-0.5-0.2
				c-0.1-0.2-0.1-0.5-0.2-0.6c0.2,0.1,0.4,0.1,0.5,0.1c0.5,0,0.9-0.3,1.3-0.3c0.2,0,0.3,0.1,0.3,0.3
				C283.3,32.9,282.3,33.3,281.9,33.3L281.9,33.3z M258.2,41.6c0.4,0,0.3-2.2,0.9-2.2c0.1,0,0.2,0.1,0.2,0.3c0,0.5-0.2,1.2-0.2,1.6
				c0,0.2,0.1,0.3,0.1,0.3c0.3,0,0.7-2.4,1.1-2.4c0.1,0,0.2,0.1,0.2,0.3c0,0.5-0.6,2-0.6,2.4c0,0.1,0,0.1,0.1,0.1
				c0.3,0,0.8-1.1,1-1.7c0.1-0.3,0.2-0.5,0.3-0.5c0.1,0,0.2,0.1,0.2,0.4c0,0.6-0.5,1.9-1,2.8c-0.4,0.7-0.9,1.7-0.9,2.3
				c0,0.3,0.1,0.6,0.5,0.9c-0.7,0-1-0.1-1.2-0.6c-1.1,2.3,2.1,2,1,4c-0.2-0.4-1.8-0.7-1.8-2.8c0-1.8,1.6-2.9,1.6-3.6
				c0-0.1-0.1-0.3-0.2-0.4c-0.4-0.3-0.4-0.5-0.6-0.5c-0.2,0-0.4,0.5-0.2,0.9c0.1,0.1,0.2,0.2,0.2,0.4c0,0.3-0.5,1.1-0.8,1.1
				c-0.3,0-0.6-0.8-0.6-2.1c0-1.2,0.3-2.3,0.6-2.3c0.1,0,0.1,0.1,0.1,0.1c0,0.1,0,0.4,0,0.9C258,41.6,258.1,41.6,258.2,41.6
				L258.2,41.6z M274.4,31.2c0.2,0,0.2,0.4,0.2,0.7c0,0.1,0,0.1,0.1,0.1c0.1,0,0.3-0.5,0.5-0.5c0.2,0,0.7,0.6,1.6,0.6
				c1.3,0,2.5-0.9,2.5-2.5c0-1.5-1.1-2.4-2.6-2.4c-0.7,0-1.2,0.4-1.5,0.4c-0.2,0-0.4-0.4-0.6-0.4c-0.1,0-0.1,0.1-0.1,0.3
				c0,0.1,0,0.5-0.1,0.5c-0.3,0-1.2-0.7-1.2-0.5c0,0.2,0.7,1,0.7,1.2c0,0.2-0.6,0.4-0.6,0.5c0,0.2,0.7,0.3,0.7,0.6
				c0,0.3-0.7,0.5-0.7,0.8c0,0.2,0.7,0.1,0.7,0.3c0,0.2-0.5,1-0.5,1.2c0,0.1,0,0.1,0.1,0.1C273.7,31.9,274.3,31.2,274.4,31.2
				L274.4,31.2z M260.8,46.9c0-0.2,0.1-0.4,0.4-0.4c0.2,0,0.4,0.1,0.4,0.4c0,0.2-0.1,0.4-0.4,0.4C261,47.2,260.8,47.1,260.8,46.9
				L260.8,46.9z M259.6,47.2c0,0.4,0.4,0.6,0.8,0.6c0.1,0,0.3-0.1,0.4-0.1c0.1,0.3,0.3,0.6,0.7,0.5c0.4,0,0.7-0.4,0.6-0.8
				c0-0.1,0-0.2-0.1-0.2l0.1,0c0.4,0,0.7-0.4,0.6-0.8c0-0.4-0.4-0.7-0.8-0.6c-0.1,0-0.3,0.1-0.3,0.1c-0.1-0.3-0.4-0.6-0.8-0.5
				c-0.4,0-0.7,0.4-0.6,0.8c0,0.1,0,0.1,0.1,0.2l-0.1,0C259.9,46.5,259.6,46.8,259.6,47.2L259.6,47.2z M283.3,27.7
				c0,0.1,0.1,0.3,0.3,0.3c0.1,0,0.3-0.1,0.3-0.3c0-0.1-0.1-0.3-0.3-0.3C283.4,27.5,283.3,27.6,283.3,27.7L283.3,27.7z M277.4,37.8
				c0,0.2,0.2,0.4,0.4,0.4c0.2,0,0.4-0.2,0.4-0.4c0-0.2-0.2-0.4-0.4-0.4C277.6,37.3,277.4,37.5,277.4,37.8L277.4,37.8z M277.4,39.1
				c0,0.3,0.2,0.5,0.5,0.5c0.3,0,0.5-0.2,0.5-0.5c0-0.3-0.2-0.5-0.5-0.5C277.6,38.6,277.4,38.9,277.4,39.1L277.4,39.1z M275.9,40
				c0,0.4,0.3,0.7,0.7,0.7c0.4,0,0.7-0.3,0.7-0.7c0-0.4-0.3-0.7-0.7-0.7C276.2,39.3,275.9,39.6,275.9,40L275.9,40z M276.2,38.5
				c0,0.2,0.2,0.4,0.4,0.4c0.2,0,0.4-0.2,0.4-0.4c0-0.2-0.2-0.4-0.4-0.4C276.4,38.1,276.2,38.3,276.2,38.5L276.2,38.5z M274.9,39.4
				c0,0.2,0.2,0.4,0.4,0.4c0.2,0,0.4-0.2,0.4-0.4c0-0.2-0.2-0.4-0.4-0.4C275,39,274.9,39.1,274.9,39.4L274.9,39.4z M275.9,36.9
				c0,0.4,0.3,0.7,0.7,0.7c0.4,0,0.7-0.3,0.7-0.7c0-0.4-0.3-0.7-0.7-0.7C276.3,36.2,275.9,36.5,275.9,36.9L275.9,36.9z M276.7,35.6
				c0,0.2,0.2,0.4,0.4,0.4c0.2,0,0.4-0.2,0.4-0.4c0-0.2-0.2-0.4-0.4-0.4C276.9,35.2,276.7,35.4,276.7,35.6L276.7,35.6z M274.8,36.6
				c0,0.2,0.2,0.4,0.4,0.4c0.2,0,0.4-0.2,0.4-0.4c0-0.2-0.2-0.4-0.4-0.4C275,36.2,274.8,36.4,274.8,36.6L274.8,36.6z M274.8,38
				c0,0.4,0.3,0.6,0.6,0.6c0.4,0,0.6-0.3,0.6-0.6c0-0.4-0.3-0.6-0.6-0.6C275.1,37.3,274.8,37.6,274.8,38L274.8,38z M273.4,38.7
				c0,0.3,0.3,0.6,0.6,0.6c0.3,0,0.6-0.3,0.6-0.6c0-0.3-0.3-0.6-0.6-0.6C273.7,38.1,273.4,38.3,273.4,38.7L273.4,38.7z M273.8,37.2
				c0,0.2,0.2,0.4,0.4,0.4c0.2,0,0.4-0.2,0.4-0.4c0-0.2-0.2-0.4-0.4-0.4C274,36.8,273.8,36.9,273.8,37.2L273.8,37.2z M272.4,52.8
				c0,0.2,0.2,0.4,0.4,0.4c0.2,0,0.4-0.2,0.4-0.4c0-0.2-0.2-0.4-0.4-0.4C272.6,52.4,272.4,52.6,272.4,52.8L272.4,52.8z M261,35.2
				c0,0.2,0.2,0.4,0.4,0.4c0.2,0,0.4-0.2,0.4-0.4c0-0.2-0.2-0.4-0.4-0.4C261.2,34.8,261,35,261,35.2L261,35.2z M260.4,34.3
				c0,0.2,0.2,0.4,0.4,0.4c0.2,0,0.4-0.2,0.4-0.4c0-0.2-0.2-0.4-0.4-0.4C260.6,33.9,260.4,34,260.4,34.3L260.4,34.3z M260.9,44.7
				c0.4,0,0.8-0.3,0.8-1.1v-1.1c0-0.4,0-0.9,0.3-1.2c0,0.1,0,0.3,0,0.4c0,0.9,0.5,1.5,0.5,2.4c0,0.3-0.1,0.5-0.3,0.5
				c-0.2,0-0.2-0.2-0.3-0.2c0,0-0.1,0.1-0.1,0.3c0,0.2,0.2,0.6,0.6,0.6c0.4,0,0.7-0.4,0.7-0.7c0-1-0.7-2-0.7-3c0-0.4,0.1-0.7,0.2-1
				c0,2.1,1.8,3.6,1.8,4.5c0,0.2-0.1,0.4-0.4,0.4c-0.2,0-0.4-0.2-0.4-0.3c0-0.1,0-0.1,0-0.1c-0.1,0-0.3,0.2-0.3,0.5
				c0,0.3,0.3,0.8,0.8,0.8c0.6,0,0.9-0.5,0.9-1c0-1.1-2.2-2.8-2.2-4.6c0-0.3,0.1-0.8,0.3-1.2c-1.4,0.9-1.8,2.1-1.8,3.2
				c0,0.9,0,1.4-0.5,1.4c-0.2,0-0.3-0.2-0.4-0.2c-0.1,0-0.1,0.2-0.1,0.2C260.3,44.5,260.6,44.7,260.9,44.7L260.9,44.7z M279.3,34.1
				c0.5,0,0.8-0.2,0.8-0.3c0,0-0.1-0.1-0.2-0.1c-0.1,0-0.4,0-0.9-0.1c-0.4-0.1-0.8-0.2-0.9-0.2c0,0-0.1,0-0.1,0.1
				C278,33.7,278.5,34.1,279.3,34.1L279.3,34.1z M276.9,32.8c0.1-0.1,0.7,0.1,1.5-0.3c0.1-0.1,0.2-0.1,0.3-0.1
				c0.4,0,0.3,0.4,0.6,0.4c0.3,0,0.6-0.2,0.8-0.2c0.3,0,0.8,1,0.8,1.5c0,0.5-0.8,0.9-1.8,0.9c-1.4,0-2.3-1.2-2.3-2
				C276.9,32.8,276.9,32.8,276.9,32.8L276.9,32.8z M261.1,48.7c-0.3,0.1-0.9,0.6-0.9,1.5c0,1,1.1,2.6,2.9,2.6c1.5,0,1.9-1.1,1.9-1.8
				c0-1.6-1-2.7-2.3-2.7c-0.7,0-1.3,0.5-1.3,1.3c0,0.7,0.5,1.8,1.8,1.8c0.6,0,0.9-0.4,0.9-0.9c0-0.5-0.4-1.1-1.1-1.1
				c-0.2,0-0.3,0.1-0.3,0.3c0,0.3,0.4,0.5,0.8,0.5c0.1,0,0.2,0,0.2,0c0,0,0,0.1,0,0.1c0,0.2-0.2,0.4-0.6,0.4c-0.5,0-1.1-0.4-1.1-1
				c0-0.4,0.3-0.7,0.8-0.7c0.9,0,1.5,0.8,1.5,1.7c0,0.8-0.4,1.2-1.3,1.2C261.6,51.8,260.7,50.3,261.1,48.7L261.1,48.7z M260,37.2
				c-0.2,0.1-0.8,0.4-0.8,0.9c0,0.4,0.3,0.6,0.7,0.6c0.2,0,0.3,0,0.4-0.1c-0.3-0.3-0.4-0.6-0.4-0.9C260,37.5,260,37.3,260,37.2
				L260,37.2z M257.4,37.3c0,0.1,0,0.1,0,0.2c0,0.5,0.3,0.8,0.6,0.8c0.3,0,0.6-0.2,0.8-0.5c-0.1,0-0.3,0-0.4,0
				C258.1,37.8,257.7,37.7,257.4,37.3L257.4,37.3z M257.1,38.3c0,0.8,0.2,1.2,0.7,1.2c0.3,0,0.8-0.2,1.3-0.7c-0.4,0.1-0.7,0.2-1,0.2
				C257.7,38.9,257.4,38.8,257.1,38.3L257.1,38.3z M273.2,54.9c0.5,0,0.5,0,0.6,0c0.2,0,0.2,0.1,0.2,0.2c0,0.2-0.5,0.5-1.4,0.5
				c-0.5,0-0.9-0.3-1-0.6c-0.5,0.3-1.3,0.6-2.1,0.6c-2.2,0-2.7-0.9-3.4-1.3c-0.5-0.2-1.3,0.2-2.4-1c0.1,0,0.3,0,0.5,0
				c1,0,1.5-0.5,1.5-1.2c0-0.1,0-0.2,0-0.3c0.3,0.1,1,0.6,1.1,1.5c0,0.1,0.5,0.2,0.7,0.2c0.4,0,0.9-0.2,0.9-0.8
				c1.3-0.1,2.1-0.9,2.3-1.8c0.5,0.1,1,0.6,1.1,0.8c0.2-0.1,0.4-0.1,0.6-0.1c0.3,0,0.7,0.1,1.2,0.2c0-0.1,0-0.3,0.3-0.3
				c0.3,0,0.2,0.4,0.3,0.6c0.1,0.1,0.3,0.2,0.3,0.4c0,0.2-0.2,0.3-0.3,0.3c0,0-0.1,0-0.1,0c-0.2,0.1-0.2,1.6-1.1,1.6
				c-0.7,0-1.3-0.5-1.5-1.2c-0.1-0.2-0.2-0.3-0.4-0.3c-0.2,0-0.3,0-0.5,0.3c-0.6,0.6-1.5,1.2-2.7,1.2c-0.4,0-0.6,0-0.7,0
				c0,0,0,0,0,0c0,0.1,0.4,0.4,1.1,0.4c1.9,0,2.3-1.1,2.6-1.1c0,0,0.2,0,0.2,0.2C271.7,54.7,272.6,54.9,273.2,54.9L273.2,54.9
				L273.2,54.9z M267.2,33.6c0.7,0,1,0.6,1,1.3c0,0.3-0.1,0.7-0.2,0.7c-0.1,0-0.1-0.2-0.1-0.5c0-0.3-0.1-0.3-0.2-0.3
				c-0.2,0-0.3,0.4-0.3,0.8c0,0.2,0,0.5,0.2,0.5c0.1,0,0.2-0.1,0.3-0.1c0,0.5-0.4,0.9-0.9,0.9c-0.9,0-1.3-1.1-1.4-1.7
				c-0.6,0.6-1.1,1-2,1c-0.9,0-1.3-0.6-1.3-1.2c0-0.2,0.1-0.6,0.3-0.6c0.3,0,0,0.9,0.6,0.9c0.1,0,0.4-0.1,0.5-0.5
				c0.1-0.2,0.1-0.4,0.1-0.6c0-0.3-0.1-0.5-0.3-0.5c-0.2,0-0.4,0.1-0.5,0.2c0.3-0.8,0.9-1.2,1.5-1.2c0.8,0,1.3,0.7,1.3,1.6
				c0,0.1,0,0.2,0,0.4C266.1,34.1,266.6,33.6,267.2,33.6L267.2,33.6z M264.5,27.3c0-0.1-0.3-0.1-0.8-0.1c-0.7,0-0.6,0.6-1.1,0.6
				c-0.6,0-0.4-0.6-1.1-0.6c-0.4,0-0.8,0.1-0.8,0.2c0,0.1,0.5,0.1,0.5,0.4c0,0.4-1.1,0.5-1.1,0.7c0,0.1,0.1,0.1,0.2,0.1
				c0.2,0,0.6-0.1,0.9-0.1c0.1,0,0.3,0,0.3,0.2c0,0.3-0.6,0.7-0.6,1c0,0.1,0.1,0.1,0.1,0.1c0.2,0,0.6-0.5,0.9-0.5
				c0.6,0,0.2,1.2,0.5,1.2c0.3,0,0.2-1.2,0.6-1.2c0.4,0,0.6,0.8,0.9,0.8c0.1,0,0.1-0.1,0.1-0.1c0-0.2-0.3-0.7-0.3-1
				c0-0.2,0.1-0.3,0.3-0.3c0.2,0,0.6,0.1,0.8,0.1c0.1,0,0.1,0,0.1-0.1c0-0.3-0.9-0.5-0.9-0.9C264,27.4,264.5,27.4,264.5,27.3
				L264.5,27.3z M279.6,48.2c-0.2,0-1.5,1.6-2.2,1.6c-0.2,0-0.4-0.4-0.4-0.6c0-0.1,0.1-0.3,0.4-0.3c1.8-0.4,1.4-1.8,3-1.8
				c0.9,0,1.8,0.6,1.8,1.9c0,1.4-2,3.1-2.3,3.1c-0.2,0-0.5-0.4-0.5-0.6c0-0.1,0-0.2,0.2-0.3c1-0.4,1.6-1.3,1.6-1.8
				c0-0.1-0.1-0.2-0.2-0.2c-0.2,0-1,1.8-1.8,1.8c-0.6,0-1.2-0.5-1.2-0.8c0-0.4,1.7-1.2,1.7-1.8C279.8,48.2,279.7,48.2,279.6,48.2
				L279.6,48.2z M280.8,47.5c-0.1,0-0.3,0.1-0.3,0.4c0,0.3,0.2,0.5,0.4,0.6c0.1,0,0.2,0.1,0.3,0.1c0.3,0,0.6-0.1,0.6-0.3
				C281.7,47.9,281.2,47.5,280.8,47.5L280.8,47.5z M267,28.4c0,0.2,0.7,0.6,1,0.6c0.2,0,0.2-0.2,0.2-0.5c0-0.3-0.1-0.3-0.4-0.3
				C267.5,28.1,267,28.2,267,28.4L267,28.4z M268.1,30.5c0-0.6-1.7-1.8-1.7-2.3c0,0,0,0,0-0.1c0.1-0.4,1.6-0.6,1.6-0.9
				c0-0.1-0.3-0.1-0.4-0.1c-1,0-2.4,0.4-2.4,0.7c0,0.4,1.3,1.2,1.3,1.7c0,0.1-0.1,0.2-0.2,0.2c-0.4,0-1.1-0.4-1.5-0.4
				c-0.2,0-0.2,0.1-0.2,0.3c0,0.5,0.6,1.5,0.6,1.8c0,0,0,0.1-0.1,0.1c-0.2,0-1.1-1.1-1.4-1.1c-0.1,0-0.1,0.2-0.1,0.4V31
				c0,0.2,0,0.4-0.1,0.4c-0.3,0-0.4-0.8-0.7-0.8c-0.3,0-0.3,1.4-0.6,1.4c-0.3,0,0-1.5-0.3-1.5c-0.3,0-0.7,1-0.9,1
				c-0.1,0-0.1-0.1-0.1-0.2c0-0.3,0.2-0.8,0.2-1.1c0-0.1,0-0.2-0.2-0.2c-0.3,0-1,0.5-1.3,0.5c0,0-0.1,0-0.1-0.1
				c0-0.3,1.2-1.1,1.2-1.4c0-0.4-1.6-0.1-1.6-0.5c0-0.3,1.1-0.7,1.1-1c0-0.3-1.3-0.4-1.9-0.4c-0.6,0-1,0.1-1,0.3
				c0,0.3,1.4,0.4,1.4,0.6c0,0.2-1.5,0.9-1.5,1.2c0,0.3,2.1,0,2.1,0.4c0,0.4-1.8,1.9-1.8,2.4c0,0.1,0.1,0.2,0.2,0.2
				c0.6,0,2-1.1,2.4-1.1c0.1,0,0.1,0.2,0.1,0.3c0,0.3-0.1,0.7-0.1,1c0,0.2,0.1,0.4,0.3,0.4c0.4,0,0.8-0.7,1-0.7c0.3,0,0.1,2,0.6,2
				c0.4,0,0.6-2.1,0.9-2.1c0.3,0,0.5,0.6,0.8,0.6c0.3,0,0.2-1.1,0.5-1.1c0.4,0,1.4,1.3,1.9,1.3c0.1,0,0.2-0.1,0.2-0.3
				c0-0.6-0.8-1.8-0.8-2.2c0-0.1,0-0.1,0.1-0.1c0.4,0,1.6,0.6,2.2,0.6C268,30.7,268.1,30.6,268.1,30.5L268.1,30.5z M282.6,42.7
				c0.2-0.5,0.4-0.9,0.7-1.5c-0.3-0.2-1.3-0.6-1.3-1.2c0-0.7,0.9-1.3,1.1-1.3c0.1,0,0.1,0.1,0.1,0.2c0,0.4-0.2,1-0.2,1.3
				c0,0.3,0.2,0.6,0.4,0.6c0.2,0,0.7-0.6,0.7-1.3c0-1.1-1-1.5-1.3-1.5c-0.3,0-0.8,0.5-2,0.5c-2.3,0-2.8-2.3-2.8-3.2c0,0,0-0.1,0-0.1
				c0.1,0,0.3,0.3,1,0.3c0.4,0,0.7-0.1,1.3-0.1c1.3,0,1.8,0.9,2.6,2c0.5,0.3,1.6,0.8,1.6,2.1c0,1.2-1.3,1.8-1.6,3.1
				c0.5-0.1,0.8-0.9,1.3-0.9c0.3,0,0.4,0.2,0.4,0.5c0,0.5-0.3,1.2-0.8,1.6c0,0,0-0.1,0-0.2c0-0.3-0.1-0.7-0.5-0.7
				c-0.5,0-0.7,0.6-1,1.1c-0.3-1.1-0.7-2.1-1.5-2.7c-0.8-0.6-2-0.3-2-1.4c0-0.3,0.2-0.7,0.2-1.1c0-0.1,0-0.2-0.1-0.3
				c1,0.4,0.7,1.1,1.3,1.8c0.4,0.4,1.5,0.9,2.1,2.7c0-0.1,0-0.2,0-0.3c0-1.6-2.1-3.1-2.3-3.7c1.2,0.1,1.4,0.4,2,2
				C282.2,41.5,282.6,42.3,282.6,42.7L282.6,42.7z M259.8,34c0.1-0.2,0.1-0.4,0.1-0.6c0-0.5-0.2-1.3-1-1.3c-0.4,0-0.7,0.3-0.7,0.7
				C258.2,33.7,259.1,34,259.8,34L259.8,34z M258.9,36.7c-0.4,0-0.7-0.4-0.7-0.8c0-0.2,0.2-0.5,0.3-0.5c0,0,0.1,0,0.1,0.1
				c0.1,0.5,0.4,0.8,0.7,1c0,0,0.1,0,0.1,0.1C259.3,36.6,259.1,36.7,258.9,36.7L258.9,36.7z M260.2,35.7c0,0.1-0.1,0.3-0.3,0.3
				c-0.4,0-0.7-0.6-0.7-0.9c0-0.2,0.1-0.2,0.3-0.2c0.1,0,0.1,0,0.2,0c0.1,0.1,0.1,0.3,0.2,0.4C260,35.5,260.2,35.6,260.2,35.7
				L260.2,35.7z M259.8,34.6c-0.1,0-0.1,0-0.2,0c-0.4,0-0.8,0.1-1.2,0.3c-0.9,0.6-0.8,1.6-0.9,1.8c0,0,0,0.1,0,0.1
				c0,0.1,0.1,0.2,0.2,0.2c0.1,0,0.1,0,0.2,0c0.3,0,0.5,0.2,1,0.2c0.2,0,0.5-0.1,0.9-0.3c0.8-0.4,1.1-1.3,1.1-1.5
				c0-0.2-0.2-0.2-0.3-0.4c-0.1-0.2-0.1-0.3-0.2-0.4C260.1,34.6,260,34.6,259.8,34.6L259.8,34.6z M260.9,36.3
				c-0.2,0.3-0.5,0.7-0.5,1.2c0,0.6,0.4,1,0.9,1c0.5,0,0.8-0.4,0.8-0.9C262.1,37,261.4,36.5,260.9,36.3L260.9,36.3z M258.6,34.3
				c0,0-0.3,0.2-0.7,0.2c-0.5,0-0.8-0.3-0.8-0.8c0-0.3,0.2-0.7,0.6-0.8c0,0.1,0,0.1,0,0.2C257.7,33.6,258,34.1,258.6,34.3
				L258.6,34.3z M277.5,40.4c0-0.2,0.2-0.4,0.4-0.4c0.2,0,0.4,0.2,0.4,0.4c0,0.2-0.2,0.4-0.4,0.4C277.7,40.9,277.5,40.7,277.5,40.4
				L277.5,40.4z M277.8,52.6c0.1,0,0.1,0,0.1,0.2c0,0.2-0.1,0.5-0.5,0.8c-0.3,0.2-0.6,0.3-1.2,0.3c0.1-0.3,0.1-0.5,0.1-0.8
				c0-0.1,0-0.1,0-0.2h0.1C277.4,53,277.7,52.6,277.8,52.6L277.8,52.6z M277.9,51.6c0.1-0.1,0.1-0.2,0.1-0.3V51
				c0-0.3-0.5-0.5-1.1-0.5c-0.8,0-1.2,0.4-1.2,0.5v0.5c0,0.2,0.5,0.4,1,0.4C277.2,51.9,277.6,51.8,277.9,51.6L277.9,51.6z
				 M278.4,51.7c-0.3,0.2-0.9,0.7-2,0.7c-0.6,0-0.8-0.2-0.9-0.2c-0.1,0-0.2,0.1-0.3,0.2c-0.3,0.3-0.6,0.8-0.6,1.5
				c0,0.4,0.3,0.8,0.9,0.8c2,0,3.5-1.2,3.5-2.2C279,51.9,278.7,51.7,278.4,51.7L278.4,51.7z M278.8,42.8c0,0.3,0.1,0.6,0.4,0.6
				c0.2,0,0.4-0.3,0.4-0.7c0-0.4-0.1-0.8-0.1-0.9c0-0.1,0-0.1,0.1-0.1c0.2,0,0.3,0.4,0.5,0.4c0.2,0,0.5-0.4,0.6-0.4c0,0,0,0,0,0.1
				c0,0.2-0.2,0.5-0.2,0.6c0,0.1,0.6,0.1,0.6,0.2c0,0.2-0.6,0.2-1,0.3c-0.3,0.1-0.5,0.3-0.5,0.5c0,0.2,0.2,0.3,0.5,0.3
				c0.7,0,1.2-0.4,1.4-0.4c0,0,0.1,0,0.1,0.1c0,0.1-0.4,0.5-0.4,0.6c0,0.2,0.7,0.4,0.6,0.5c0,0-0.1,0-0.1,0c-0.1,0-0.3,0-0.4,0
				c-0.1,0-0.2,0-0.2,0.1c-0.1,0.1,0,0.6-0.1,0.6c-0.1,0-0.5-1.3-1.3-1.3c-0.1,0-0.2,0.1-0.2,0.3c0,0.4,0.4,0.9,0.8,1.1
				c0.2,0.1,0.5,0.2,0.5,0.3c0,0.1-0.7,0-0.7,0.2c0,0.2,0.1,0.5,0.1,0.6c0,0.1,0,0.1-0.1,0.1c-0.1,0-0.4-0.6-0.6-0.6
				c-0.1,0-0.4,0.3-0.5,0.3c0,0-0.1,0-0.1-0.1c0-0.2,0.4-0.8,0.4-1.3c0-0.3,0-0.8-0.3-0.8c-0.3,0-0.5,0.4-0.7,0.8
				c-0.1,0.2,0,1.1-0.2,1.1c-0.2,0-0.1-0.6-0.3-0.6c-0.2,0-0.5,0.3-0.6,0.3c0,0,0,0,0,0c0-0.1,0.3-0.5,0.3-0.6
				c0-0.2-0.7-0.2-0.7-0.3c0-0.1,0.3-0.1,0.5-0.2c0.5-0.1,1.3-0.5,1.3-1c0-0.6-0.6-0.9-1-1.1c-0.2-0.1-0.4-0.2-0.4-0.3
				c0-0.1,0.3-0.1,0.4-0.1c0.2,0,0.3,0,0.3-0.1c0-0.1,0-0.3,0-0.4c0-0.1,0-0.2,0.1-0.2c0.2,0,0.4,0.5,0.5,0.5c0.2,0,0.4-0.4,0.6-0.4
				c0.1,0,0.1,0,0.1,0.1C279,42,278.8,42.4,278.8,42.8L278.8,42.8z M273.7,39.7c0.1,0.9,1.3,0.4,1.3,1.5c0,0.2,0,0.4,0,0.6
				c0,0.2,0,0.4,0.2,0.4c0.2,0,0.2-0.1,0.2-0.3c0-0.2,0-0.4,0-0.5c0-0.4,0.3-0.5,0.4-0.5c0.4,0,0.7,0.4,1.3,0.4
				c-0.1,0.7-1.5,0.5-1.5,1.2c0,0.4,0.4,0.5,0.6,0.5c0.2,0,0.3,0,0.3-0.2c0-0.1,0-0.2,0-0.3c0,0,0-0.1,0.1-0.1
				c0.2,0,1.4,0.9,1.4,1.1c0,0.2-1.2,0.5-1.6,0.5c-0.1,0-0.1-0.1-0.1-0.1c0-0.1,0.2-0.3,0.2-0.4c0-0.1-0.2-0.2-0.6-0.2
				c-0.2,0-0.4,0-0.4,0.2c0,0.3,0.5,0.6,0.5,0.9c0,0.2-0.1,0.3-0.5,0.3c-0.3,0-0.7-0.2-0.7-0.6c0-0.3,0.3-0.6,0.3-0.8
				c0-0.1,0-0.1-0.2-0.1c-0.4,0-0.5,1-1.9,1.2c0.2-0.2,0.4-0.4,0.4-0.9c0-0.2-0.1-0.4-0.1-0.6c0-0.3,0.1-0.5,0.4-0.5
				c0.4,0,0.6,0.6,0.8,0.6c0.1,0,0.3-0.1,0.3-0.3c0-0.8-1.5-0.7-1.5-1.8C273.4,40.6,273.5,40.2,273.7,39.7L273.7,39.7z M275.8,46.6
				c0,0.1,0.1,0.3,0.3,0.3c0.2,0,0.3-0.1,0.3-0.3c0-0.2-0.2-0.5-0.4-0.5c-0.1,0-0.1,0.1-0.1,0.3C275.8,46.4,275.8,46.5,275.8,46.6
				L275.8,46.6z M275.2,45.2c1.1,0.2,1.7,1.1,1.7,1.8c0,0.5-0.3,1-0.9,1c-0.5,0-0.9-0.4-0.9-1c0-0.4,0.4-0.9,0.4-1.4
				C275.4,45.5,275.4,45.3,275.2,45.2L275.2,45.2z M273.8,47c0.1,0.1,0.1,0.2,0.1,0.3c0,0.2-0.1,0.3-0.1,0.5c0,0.3,0.2,0.5,0.5,0.5
				c0.3,0,0.5-0.2,0.5-0.5C274.8,47.4,274.4,47,273.8,47L273.8,47z M277.3,46.3c0.1,0.1,0.1,0.2,0.1,0.3c0,0.3-0.2,0.6-0.2,0.9
				c0,0.3,0.3,0.6,0.7,0.6c0.4,0,0.7-0.4,0.7-0.8C278.6,46.8,278.1,46.3,277.3,46.3L277.3,46.3z M274.1,45.7
				c0.5,0.1,0.6,0.2,0.6,0.4c0,0.2-0.2,0.3-0.4,0.3c-0.1,0-0.3,0-0.5,0c-0.2,0-0.5,0.1-0.7,0.3c0.1,0,0.3,0.1,0.3,0.3
				c0,0.6-1.7,0.1-1.7,1.7c0,0.8,0.9,1.7,2.2,1.7c0.7,0,1.1-0.2,1.1-0.5c0-0.2-0.4-0.1-0.4-0.2c0-0.1,0.1-0.2,0.1-0.3
				c0-0.1,0-0.1-0.1-0.1c-0.2,0-0.6,0.3-1.3,0.3c-0.6,0-1.1-0.3-1.1-0.8c0-0.1,0-0.1,0.1-0.1c0.1,0,0.1,0,0.2,0c0.1,0,0.1,0,0.1-0.2
				c0-0.1,0-0.4,0.2-0.4c0.2,0,0.6,0.7,2,0.7c0.5,0,1.4-0.1,1.8-0.4c0,1.2-0.9,2.7-2.8,2.7c-2,0-3-1.6-3-3.1c0-1.6,1.3-3.1,3.1-3.1
				c0.5,0,0.9,0.2,0.9,0.4C274.8,45.6,274.1,45.4,274.1,45.7L274.1,45.7z M266.4,34.9c0-0.2,0-0.2-0.1-0.2c-0.1,0-0.2,0.1-0.4,0.4
				c0,0.4,0.1,0.6,0.2,0.6C266.2,35.6,266.4,35.2,266.4,34.9L266.4,34.9z M264.9,35.3c0.1,0,0.3-0.1,0.5-0.4c0-0.1,0-0.3,0-0.4
				c0-0.2-0.1-0.4-0.2-0.4c-0.3,0-0.5,0.8-0.5,1.1C264.8,35.2,264.9,35.3,264.9,35.3L264.9,35.3z M266.6,36.2c0.3,0,0.6-1,0.6-1.7
				c0-0.1,0-0.3-0.1-0.3c-0.2,0-0.6,1-0.6,1.6C266.5,36.1,266.6,36.2,266.6,36.2L266.6,36.2z M264,35.7c0.4,0,0.8-2,0.8-2.3
				c0-0.1,0-0.1-0.1-0.1c-0.3,0-0.8,1.9-0.8,2.3C263.9,35.6,264,35.7,264,35.7L264,35.7z M265.2,36.5c-0.5,0-0.5,0.6-0.5,1.7
				c-0.3-0.7-0.9-1.5-1.6-1.5c-0.4,0-0.6,0.3-0.6,0.8c0,0.1,0,0.3,0,0.4c0.1-0.2,0.2-0.3,0.4-0.3c0.5,0,1,0.3,1.4,0.8
				c-0.4-0.1-0.8-0.1-1.2-0.1c-0.2,0-0.4,0-0.6,0.1c-0.3,0.1-0.7,0.6-0.7,1.3c0,0.1,0,0.2,0,0.3c0.4-0.8,1.4-1.2,2-1.2
				c0.1,0,0.2,0,0.3,0c-0.3,0.3-0.4,0.8-0.4,1.2c0,0.2-0.1,0.2-0.2,0.2c0,0.3,0.3,0.9,0.3,1.1c0,0.1-0.1,0.2-0.1,0.2
				c0,0.5,0.5,0.8,0.5,1.1c0,0.1,0,0.1-0.1,0.2c0,0.2,0.5,0.5,0.6,0.7c0.1,0.2,0.2,0.2,0.2,0.2c0.2,0,0.5-0.2,0.5-0.4
				c0-0.1-0.1-0.1-0.1-0.2c-0.2-0.1-0.3-0.5-0.4-0.7c-0.1,0-0.2,0-0.2-0.1c0-0.1-0.1-0.6-0.1-0.9c-0.1,0-0.2-0.1-0.2-0.4
				c0-0.1,0.1-0.7,0.1-0.9c-0.1,0-0.1,0-0.1-0.2c0-0.3,0.3-0.6,0.4-1c0.6,0.4,0.8,0.9,0.8,1.3c0,0.2,0,0.4-0.1,0.6
				c0.4-0.2,1.1-0.6,1.1-1.2c0-0.4-0.2-0.8-1.4-1c0.4-0.1,0.8-0.2,1.2-0.2c0.7,0,1.1,0.2,1.2,0.7c0.1-0.2,0.2-0.5,0.2-0.7
				c0-0.5-0.4-0.9-1-0.9c-0.6,0-1.2,0.3-1.8,0.8c0.3-0.6,0.5-0.9,0.8-0.9c0.1,0,0.1,0,0.2,0C265.9,36.9,265.5,36.5,265.2,36.5
				L265.2,36.5z M258.4,29.9c0,0.2-0.8,0.9-1.1,0.9c-0.1,0-0.1-0.1-0.1-0.2c0-0.2,0.1-0.5,0.2-0.6c0.1-0.1,0.5-0.2,0.7-0.2
				C258.3,29.7,258.4,29.8,258.4,29.9L258.4,29.9z M283.1,44.1c0.5,0,1,0.7,1,1.5c0,0.9-0.4,1.8-1.1,2.4c0-1.4-1.8-1-1.8-2
				c0-0.4,0.3-0.7,0.7-0.7c0.3,0,0.6,0.1,0.8,0.3c-0.2-0.2-0.3-0.4-0.3-0.7C282.4,44.5,282.6,44.1,283.1,44.1L283.1,44.1z
				 M275.2,33.3c-0.1-0.1-0.4-0.2-0.6-0.2c-0.5,0-0.8,0.3-0.8,0.6c0-0.1-0.1-0.2-0.1-0.4c0-0.5,0.3-1,1.1-1c0.7,0,0.9,0.4,1,0.4
				c0.1,0,0.2-0.1,0.3-0.1c0.1,0,0.1,0.2,0.1,0.3c0,0.4-0.2,1.2-0.7,1.4c-0.1-0.2-0.3-0.4-0.5-0.5c-0.1,0-0.1-0.1-0.1-0.2
				C275,33.5,275.1,33.3,275.2,33.3L275.2,33.3z M273.6,34c0.3,0.3,0.5,0.4,0.8,0.4c0.1,0,0.3,0,0.3,0c0.1,0,0.2,0,0.2,0.1
				c0,0.1-0.1,0.3-0.2,0.4c0.1,0.1,0.3,0.1,0.4,0.1c0.6,0,1.3-0.4,1.3-1.3c0.1,0.2,0.2,0.5,0.2,0.7c0,1.2-0.8,1.6-1.6,1.6
				c-0.5,0-0.8-0.2-0.8-0.2c-0.2,0-0.2,0.4-0.3,0.4c-0.2,0-0.5-0.6-0.5-1.2C273.3,34.7,273.4,34.3,273.6,34L273.6,34z M266.2,30.9
				c0,0.4,1.3,2.2,1.6,2.2c0.2,0,0.4-0.4,0.4-0.7c0-0.1,0-0.2-0.1-0.2C267.9,31.9,266.6,30.9,266.2,30.9
				C266.3,30.9,266.2,30.9,266.2,30.9L266.2,30.9z M281.5,30.1c0-0.8-1.8-0.9-1.8-1.1c0-0.1,1-0.4,1.5-0.4c-0.8-1-1.9-0.9-1.9-1.1
				c0-0.1,0.8-0.3,1.6-0.3c0.7,0,1.3,0.1,1.3,0.6c0,0.3-0.2,0.6-0.2,1c0,0.2,0.1,0.4,0.4,0.4c0.3,0,0.4-0.4,0.4-0.7
				c0-0.3-0.1-0.5-0.1-0.7c0-0.4,0.3-0.7,0.7-0.7c0.4,0,0.4,0.2,1,0.2c-0.3,0.2-0.4,0.5-0.4,0.6c0,0.4,0.3,0.8,0.3,1.7
				c0,1.7-1.6,2.3-3.5,2.3c-0.5,0-1.1,0-1.6-0.1c-0.1,0-0.1,0-0.1-0.1c0-0.1,0.8-0.2,0.8-0.9c0-0.3-0.1-0.5-0.1-0.6
				c0-0.1,0-0.1,0.1-0.1c0.2,0,0.5,0.6,1.1,0.6C281.1,30.6,281.5,30.6,281.5,30.1L281.5,30.1z M283.3,29c0,0.9-0.7,1.7-1.9,1.9
				c0.1,0,0.3,0,0.4,0c1.5,0,2-0.7,2-1.2C283.8,29.4,283.6,29.1,283.3,29L283.3,29z M282.3,37.5c0-0.2-0.6-0.2-0.6-0.9
				c0-0.1,0-0.3-0.2-0.3c-0.2,0,0,0.6-0.3,0.6c-0.5,0-0.6-1-0.8-1c0,0-0.1,0-0.1,0.2c0,0.1,0,0.2,0,0.3c0,0.1,0,0.2-0.2,0.2
				c-0.3,0-0.5-0.7-0.8-0.7c-0.1,0-0.1,0-0.1,0.1c0,0.1,0.2,0.4,0.2,0.5c0,0.3-0.7,0.1-0.7,0.3c0,0.1,0.1,0.1,0.2,0.1
				c0.2,0,0.6-0.1,0.8-0.1c0.1,0,0.3,0,0.3,0.2c0,0.1-0.4,0.3-0.4,0.5c0,0.1,0.1,0.1,0.1,0.1c0.3,0,0.8-0.5,1.2-0.5
				c0.1,0,0.2,0,0.2,0.1c0,0.1-0.4,0.4-0.4,0.6c0,0.1,0,0.1,0.1,0.1c0.2,0,0.4-0.5,0.8-0.5c0.1,0,0.3,0.1,0.4,0.1
				C282.3,37.6,282.3,37.6,282.3,37.5L282.3,37.5z M274.7,29.4c0-0.1-0.4-0.3-0.4-0.5c0,0,0,0,0.1,0c0.1,0,0.3,0,0.5,0
				c0.1,0,0.2-0.6,0.3-0.6c0.1,0,0.2,0.6,0.3,0.6c0.1,0,0.4-0.2,0.5-0.2c0,0,0,0,0,0c0,0.1-0.3,0.4-0.3,0.4c0,0.1,0.6,0.2,0.6,0.3
				c0,0.1-0.6,0.1-0.6,0.2c0,0.1,0.2,0.4,0.2,0.5c0,0,0,0,0,0c-0.1,0-0.4-0.1-0.5-0.1c-0.1,0-0.3,0.4-0.4,0.4c0,0-0.1,0-0.1-0.1
				l0-0.4c0,0,0-0.1-0.1-0.1c-0.1,0-0.4,0-0.4,0c-0.1,0-0.1,0-0.1,0C274.3,29.8,274.7,29.5,274.7,29.4L274.7,29.4z M276.8,31.5
				c-0.7,0-1.2-0.4-1.2-0.6c0-0.1,0.1-0.2,0.1-0.2c0.2,0,0.7,0.4,0.9,0.4c0,0,0.1,0,0.1-0.1c0-0.2-0.2-0.5-0.2-0.7
				c0,0,0-0.1,0.1-0.1c0.3,0,0.7,0.1,0.9,0.1c0.1,0,0.1,0,0.1-0.1c0-0.2-0.7-0.7-0.7-0.8c0-0.1,0.9-0.3,0.9-0.5
				c0-0.2-1.2-0.1-1.2-0.3c0-0.1,0.2-0.4,0.2-0.5c0-0.1,0-0.1-0.1-0.1c-0.1,0-0.6,0.2-0.8,0.2c-0.1,0-0.2,0-0.2-0.2
				c0-0.2,0.4-0.5,1.1-0.5c1,0,1.7,0.7,1.7,1.9C278.4,31.1,277.4,31.5,276.8,31.5L276.8,31.5z M269.6,49.8c0,0.1,0,0.2-0.1,0.3
				c-0.1-0.2-0.4-0.3-0.6-0.3c-1.1,0-0.7,1.6-1.8,1.6c-0.5,0-0.5-0.1-0.7-0.1c-0.1,0-0.1,0-0.1,0.1c0,0.3,0.4,1,1.5,1
				c1.1,0,2.1-0.7,2.1-1.5c0-0.1,0-0.3-0.1-0.4c0-0.1,0.1-0.1,0.2-0.1c0.2,0,0.3,0.2,0.4,0.2c0.2,0,0.3-0.1,0.3-0.3
				c0-0.1-0.1-0.2-0.2-0.3c0.1-0.1,0.1-0.2,0.1-0.3c0-0.2-0.1-0.4-0.3-0.4c-0.1,0-0.2,0-0.2,0.1c0-0.2-0.1-0.4-0.3-0.4
				c-0.2,0-0.3,0.1-0.3,0.3C269.5,49.5,269.6,49.6,269.6,49.8L269.6,49.8z M266.8,50.2c-0.3,0-0.8-0.3-0.8-0.5
				c0-0.2,0.1-0.2,0.3-0.2c0.3,0,0.7,0.3,0.7,0.6C267,50.1,266.9,50.2,266.8,50.2L266.8,50.2z M263.8,47.8c0.8,0.2,1.3,0.7,1.4,1.2
				c0.1,0.5,0.2,0.9,0.4,1.2c0.3,0.3,0.8,0.6,1.2,0.6c0.4,0,0.7-0.1,0.7-0.5c0-0.4-0.5-1.2-1.3-1.2c-0.1,0-0.2,0-0.3,0
				c-0.1,0-0.2,0-0.3-0.1c-0.2-0.1-0.2-0.9-0.5-1.4c-0.3-0.5-0.7-0.7-1.3-0.7c-0.4,0-0.8,0.2-0.8,0.5
				C263,47.5,263.1,47.7,263.8,47.8L263.8,47.8z M269.1,46.5c0-0.5-1-0.5-1-1.2c0-0.2,0.1-0.5,0.4-0.8c0.1,0.6,0.3,0.8,0.8,1
				c0.9,0.3,1.1,0.9,1.1,1.4c0,1-0.7,2.1-2.4,2.1c-1.4,0-2.4-1.2-2.4-2.3c0-0.3,0.1-0.6,0.3-0.6c0.2,0,0.2,0.1,0.3,0.3
				c0.5,0.5,1,0.6,1.8,0.6C268.6,47.1,269.1,46.8,269.1,46.5L269.1,46.5z M269.2,47.3c-0.4,0.1-0.5,0.1-0.5,0.5c0,0.1,0,0.3,0,0.4
				c0,0.1,0,0.2,0.2,0.2c0.4,0,1-0.6,1-1.2c0-0.1-0.1-0.2-0.2-0.2C269.5,47,269.4,47.2,269.2,47.3L269.2,47.3z M265.8,41.9
				c0-0.7,1.6-1,1.6-1.9c0-0.1-0.1-0.4-0.1-0.6c0.6,0.3,1,0.8,1,1.3c0,0.7-0.8,1.1-0.8,1.5c0,0.5,0.8,0.6,0.8,1.3
				c0,0.5-0.8,1.2-0.8,1.9c0,0.5,0.4,1,1,1.1c-0.2,0-0.4,0.1-0.5,0.1c-1.1,0-2.2-0.9-2.2-1.9c0-0.5,0.2-1,0.6-1.3
				c0.3,0.3,0.6,0.4,0.8,0.4c0.2,0,0.2-0.1,0.2-0.2C267.3,43.1,265.8,42.8,265.8,41.9L265.8,41.9z"/>
			<path fill="#787878" d="M268,64.6c0.3,0,0.8-0.1,1.2-0.7c-0.2-0.5-0.4-1.6-0.4-1.9c-0.1-1.9,0.6-3.8,1.4-3.8
				c0.6,0,1.1,0.5,1.1,1.4c0.1,2.4-0.7,3.4-1.1,4.3c0.1,0.3,0.6,0.9,1.2,0.9c0.2,0,0.4-0.1,0.5-0.2c0-0.1-0.1-0.3-0.1-0.6
				c0-1.4,0.9-2.6,1.7-2.6c0.6,0,1,0.8,1,1.4c0,0.6-0.5,1.2-1.3,1.7c0.1,0.1,0.4,0.2,0.6,0.2c1.1,0,1.7-1.4,2.2-2.6
				c0.1-0.2,0.2-0.6,0.5-0.6c0.5,0,0.7,3.2,1.5,3.2c0.3,0,0.6-0.7,0.6-1.2c0-0.4-0.1-0.4-0.1-1c0-0.6,0.3-1.2,0.8-1.2
				c0.3,0,0.4,0.3,0.4,0.6c0,1.3-0.9,3.7-2.3,3.7c-1,0-0.9-1.8-1.3-1.8c-0.4,0-1,1.8-2.9,1.8c-0.3,0-0.7-0.2-0.9-0.5
				c-0.5,0.3-0.9,0.5-1.3,0.5c-0.7,0-1.1-0.8-1.4-0.8c-0.4,0-0.8,0.8-2,0.8c-1,0-1.1-1.3-1.5-1.3c-0.3,0-0.8,1.3-1.3,1.3
				c-0.8,0-1-2.2-1.8-2.2c-0.6,0-2.4,2.3-2.9,2.2c-0.2,0-0.3-0.2-0.3-0.4c0-0.3,0.3-1,0.4-1.4c0.2-0.6,0.3-1.3,0.4-1.5
				c0.1-0.2,0.3-0.4,0.5-0.4c0.1,0,0.1,0.2,0.1,0.3c0.1,0.5,0.2,1,0.4,1c0.3,0,1.2-1.8,1.7-1.8c0.7,0,0.7,2.8,1.6,2.8
				c0.3,0,0.5-0.4,0.7-0.8c0-0.7,0.2-1.8,0.8-1.8c0.4,0,0.6,0.9,0.3,1.8C266.9,64.4,267.6,64.6,268,64.6L268,64.6z M282.9,62.8
				c0-0.5-0.5-1.2-1.1-1.2c-0.9,0-1.8,1-1.8,2.3c0,1.2,0.8,1.6,1.5,1.6c1.3,0,2.1-1.1,2.5-2c0.2,0.6,0.3,2,0.8,2
				c0.2,0,0.3-0.1,0.6-0.6c0.6-1.3,1.2-2.9,2-2.9c0.3,0,0.1,0.5,0.8,0.5c0.3,0,0.6-0.3,0.6-0.6c0-0.5-0.4-0.8-1.1-0.8
				c-1.9,0-2.3,2.8-2.6,2.8c-0.5,0-0.3-2.3-0.7-2.3c-0.3,0-0.5,0.4-0.5,0.6c-0.3,1-1,2.5-2.1,2.5c-0.3,0-0.7-0.1-0.7-0.4
				C281.1,64.1,282.9,64.1,282.9,62.8L282.9,62.8z M270.7,60.1c0-0.6-0.2-0.8-0.5-0.8c-0.4,0-0.6,1.3-0.5,2.6c0.1,0.9,0.2,1,0.3,1
				C270.3,62.9,270.8,61.4,270.7,60.1L270.7,60.1z M267.5,59c0-0.3-0.3-0.5-0.6-0.5c-0.4,0-0.7,0.4-0.7,0.9c0,0.3,0.2,0.6,0.6,0.6
				C267.2,59.9,267.5,59.4,267.5,59L267.5,59z M273.7,63c0-0.3-0.2-0.6-0.4-0.6c-0.2,0-0.6,0.2-0.6,0.8c0,0.5,0.2,0.7,0.3,0.8
				C273.5,63.9,273.7,63.4,273.7,63L273.7,63z M281.5,62.4c0.4,0,0.5,0.5,0.4,0.8c-0.1,0.3-0.5,0.6-1,0.7
				C280.8,63.6,280.7,62.4,281.5,62.4L281.5,62.4z M254,62.7c0-0.8,0-1.6,0.4-2.8c0.2-0.6,0.3-0.8,0.9-1c0.4-0.1,0.4,0.4,0.3,0.9
				c-0.2,1.2-0.3,1.8-0.2,3.1c0.1,1.4,0.7,2,1.5,2c1.1,0,1.6-0.9,1.8-2.2c0.2-1,0-1.5-0.1-1.9c-0.1-0.2-0.2-0.6-0.3-0.9
				c-0.1-0.8,0.3-1.1,0.6-1.2c0.4-0.1,0.5,0.1,0.6,0.5c0.2,0.6,0.2,1.5,0.1,2.7c-0.1,1.6-0.9,3.6-2.9,3.6
				C254.9,65.6,254.1,64.4,254,62.7L254,62.7z"/>
		</g>
		<g>
			<path fill="#787878" d="M148.3,46.3c0.8,0,1.6-0.7,1.7-1.5c0.2-0.8-0.4-1.5-1.2-1.5c-0.8,0-1.6,0.7-1.7,1.5
				C147,45.6,147.5,46.3,148.3,46.3z"/>
			<path fill="#787878" d="M203.8,48.8c0,0,1.8,0,1.8,0c0.3,0,0.4-0.1,0.5-0.3c0.1-0.3,0.2-0.9,0.3-1.1c0.1-0.2-0.1-0.4-0.3-0.4
				c-0.1,0-0.9,0-1.8,0c0.1-0.5,0.6-2.2,0.6-3.3c0-2.2-1.9-4-4.5-4c-3,0-4.9,2-4.9,4.8c0,0.8,0.3,1.8,0.7,2.4c-0.2,0-0.3,0-0.5,0
				c-2.3,0-3.7,1.2-3.7,3c0,1.7,1.3,2.3,2.6,2.8c1.1,0.4,2.1,0.6,2.1,1.4c0,0.6-0.6,0.9-1.7,0.9c-1.3,0-2-0.6-2.2-0.8
				c0.1-0.1,0.3-0.3,0.3-0.7c0-0.5-0.4-1-1.1-1c-0.6,0-1.1,0.5-1.2,1.1c-1,0.8-2,1.3-3.5,1.3c-1.4,0-2.2-0.8-2.2-2.4
				c0.3,0.1,1.2,0.2,1.8,0.2c2.5,0,4.1-1.1,4.1-3.3c0-1.2-1.1-2.5-3.1-2.5h0c-2.7,0-4.3,1.7-4.9,3.6c-0.2,0-0.4-0.1-0.6-0.1
				c0.2-0.4,0.3-0.9,0.3-1.5c0-0.9-0.6-2.1-2.1-2.1c-1.1,0-2.1,0.7-2.8,1.8c0.2-0.7,0.3-1.2,0.3-1.2c0-0.2,0-0.4-0.3-0.4
				c-0.4,0-1.6,0-1.6,0c-0.2,0-0.4,0.1-0.5,0.3c0,0.2-0.6,2.3-1.1,4.4c-0.3,1.3-2.1,2.9-4.3,2.9c-1.4,0-2.2-0.8-2.2-2.4
				c0.4,0.2,1.2,0.3,1.8,0.3c2.6,0,4.1-1.1,4.1-3.3c0-1.2-1.1-2.5-3.1-2.5h0c-3.1,0-5,2.4-5.3,5.1c-0.1,1.1-1.1,2.7-2.1,2.7
				c-0.5,0-0.8-0.3-0.8-0.9c0-0.5,0.3-1.6,0.7-3c0.1-0.5,0.3-1.2,0.5-2c0.9,0,1.6,0,1.7,0c0.2,0,0.4-0.1,0.5-0.3
				c0.1-0.3,0.2-0.9,0.3-1.1c0.1-0.2-0.1-0.4-0.3-0.4c-0.1,0-1.7,0-1.7,0s0.8-3,0.8-3.1c0.1-0.3-0.2-0.5-0.5-0.4
				c0,0-1.3,0.2-1.5,0.3c-0.2,0-0.4,0.2-0.5,0.5c0,0-0.7,2.7-0.7,2.7s-1.3,0-1.3,0c-0.2,0-0.4,0.1-0.5,0.3c-0.1,0.3-0.2,0.9-0.3,1.1
				c-0.1,0.2,0.1,0.4,0.3,0.4c0,0,0.6,0,1.3,0c0,0-0.5,1.8-0.8,3.4c-0.2,0.8-0.8,2.5-1.7,2.5c-0.6,0-0.8-0.3-0.8-0.9
				c0-1,1-3.4,1-4.5c0-1.5-0.8-2.3-2.4-2.3c-1,0-2.1,0.7-2.5,1.2c0,0,0.1-0.5,0.2-0.7c0.1-0.2-0.1-0.4-0.3-0.4c-0.4,0-1.2,0-1.6,0
				c-0.3,0-0.4,0.2-0.5,0.4c0,0.1-0.6,2.3-1.1,4.5c-0.4,1.5-1.3,2.7-2.3,2.7c-0.5,0-0.7-0.3-0.7-0.9c0-0.5,0.3-1.6,0.7-3
				c0.4-1.7,0.8-3.2,0.9-3.3c0.1-0.2,0-0.4-0.3-0.4c-0.3,0-1.2,0-1.6,0c-0.3,0-0.4,0.2-0.5,0.4c0,0-0.5,1.7-0.9,3.6
				c-0.3,1.4-0.7,2.8-0.7,3.4c0,1.2,0.5,2.1,2,2.1c1.1,0,2-0.6,2.7-1.3c-0.1,0.4-0.2,0.6-0.2,0.7c-0.1,0.2,0,0.4,0.3,0.4
				c0.4,0,1.3,0,1.6,0c0.3,0,0.4-0.1,0.5-0.4c0.1-0.2,1.3-5.1,1.3-5.1c0.3-1.3,1.1-2.2,2.3-2.2c0.5,0,1,0.4,0.9,1
				c-0.1,0.8-1,3.5-1,4.7c0,0.9,0.3,2.1,2,2.1c1.2,0,2-0.6,2.6-1.3c0.2,0.8,0.8,1.3,1.9,1.3c1.8,0,2.9-1.1,3.6-2.2
				c0.5,1.3,1.8,2.2,3.7,2.2c1.9,0,3.3-0.8,4.4-1.9c-0.2,0.7-0.3,1.2-0.3,1.3c-0.1,0.2,0,0.4,0.3,0.4c0.4,0,1.5,0,1.6,0
				c0.2,0,0.4-0.1,0.4-0.3c0-0.1,0.3-1,0.6-2.3c0.6-2.5,1.7-5,3.2-5c0.5,0,0.8,0.3,0.8,0.8c0,0.2-0.1,0.4-0.1,0.5
				c-0.7-0.1-1.3,0.2-1.3,1c0,0.5,0.5,1,1.3,1c0.6,0,1-0.1,1.4-0.4c0.3,0.1,0.7,0.2,1.1,0.2c-0.1,0.4-0.1,0.7-0.1,1.1
				c0,2,1.4,3.7,3.9,3.7c2,0,3.3-0.7,4.5-1.7c0.6,0.9,2,1.7,3.9,1.7c2.6,0,4-1.3,4-3.1c0-1.6-1.3-2.2-2.7-2.7c-1.1-0.4-2-0.6-2-1.4
				c0-0.6,0.5-0.9,1.4-0.9c0.6,0,1,0.1,1.2,0.2c0.2,0.6,0.7,1.2,1.5,1.2c0.7,0,1-0.5,1-1c0-1.4-2.3-1.5-2.3-4.5c0-1.8,1-3.3,3.2-3.3
				c1.5,0,2.5,0.9,2.5,2.5c0,1.3-0.8,3.5-0.8,3.5s-1.3,0-1.3,0c-0.2,0-0.4,0.1-0.5,0.3c-0.1,0.3-0.2,0.9-0.3,1.1
				c-0.1,0.2,0.1,0.4,0.3,0.4c0,0,1.3,0,1.3,0s-1.3,4.8-1.3,5.7c0,1.2,0.7,2.1,2.1,2.1c2.1,0,3.3-1.3,3.9-3.3c0-0.2,0-0.3-0.2-0.3
				c-0.3,0-0.7,0-0.8,0c-0.2,0-0.2,0.1-0.3,0.2c-0.2,0.7-0.6,1.4-1.5,1.4c-0.5,0-0.8-0.3-0.8-0.9c0-0.5,0.3-1.6,0.7-3
				C203.5,50.1,203.8,48.8,203.8,48.8z M187.5,48.7c0.7,0,1.1,0.5,1.1,1.1c0,1-0.8,1.6-1.9,1.6c-0.4,0-1-0.1-1.4-0.2
				C185.4,50.2,186.1,48.7,187.5,48.7z M170.4,48.7c0.8,0,1.1,0.5,1.1,1.1c0,1-0.8,1.6-1.9,1.6c-0.4,0-1-0.1-1.4-0.2
				C168.3,50.2,168.9,48.7,170.4,48.7z"/>
			<path fill="#787878" d="M138.9,39.6c-5.2,0-7.8,3.7-7.8,6.8c0,1.9,0.7,3.6,2.2,4.2c0.3,0.1,0.5,0,0.5-0.3
				c0.1-0.2,0.2-0.7,0.2-0.9c0.1-0.3,0-0.4-0.2-0.6c-0.4-0.5-0.7-1.2-0.7-2.1c0-2.8,2.1-5.2,5.4-5.2c2.9,0,4.6,1.8,4.6,4.2
				c0,3.2-1.4,5.8-3.5,5.8c-1.1,0-2-0.9-1.7-2.1c0.3-1.4,1-2.9,1-3.9c0-0.9-0.5-1.6-1.5-1.6c-1.2,0-2.1,1.2-2.1,2.8
				c0,1,0.3,1.7,0.3,1.7s-1.2,5.1-1.4,6c-0.4,1.8-0.1,3.9,0,4.2c0,0.1,0.2,0.2,0.3,0.1c0.1-0.1,1.5-1.9,2-3.6c0.1-0.5,0.8-3,0.8-3
				c0.4,0.7,1.5,1.4,2.7,1.4c3.5,0,5.9-3.2,5.9-7.5C145.8,42.6,143,39.6,138.9,39.6z"/>
		</g>
	</g>
</g>
</svg>
