<?xml version="1.0" encoding="utf-8"?>
<!-- Generator: Adobe Illustrator 18.1.0, SVG Export Plug-In . SVG Version: 6.00 Build 0)  -->
<svg version="1.1" id="Layer_1" xmlns="http://www.w3.org/2000/svg" xmlns:xlink="http://www.w3.org/1999/xlink" x="0px" y="0px"
	 viewBox="1310 795.5 135 27" enable-background="new 1310 795.5 135 27" xml:space="preserve">
<g id="Layer_1_1_">
	<g>
		<g>
			<path fill="#B3B5B8" d="M1364.4,816.6c-5.1,3.8-12.5,5.9-18.9,5.9c-8.9,0-16.9-3.4-23-8.9c-0.5-0.5,0-1,0.6-0.7
				c6.6,3.9,14.7,6.3,23,6.3c5.7,0,11.8-1.2,17.5-3.7C1364.5,815,1365.3,815.9,1364.4,816.6z"/>
			<path fill="#B3B5B8" d="M1366.5,814c-0.7-0.8-4.3-0.3-5.9-0.2c-0.5,0-0.6-0.3-0.1-0.7c3-2.1,7.7-1.5,8.3-0.8s-0.1,5.6-2.8,7.9
				c-0.5,0.3-0.8,0.2-0.7-0.3C1365.9,818.4,1367.2,815,1366.5,814z"/>
		</g>
		<g>
			<path fill="#787878" d="M1360.7,798.4v-2.1c0-0.3,0.2-0.5,0.5-0.5h8.9c0.3,0,0.6,0.2,0.6,0.5v1.7c0,0.3-0.2,0.7-0.7,1.3l-4.7,6.7
				c1.7,0,3.5,0.2,5.1,1.2c0.3,0.2,0.5,0.5,0.5,0.8v2.2c0,0.3-0.3,0.7-0.7,0.5c-2.7-1.5-6.4-1.6-9.4,0c-0.3,0.2-0.7-0.2-0.7-0.5
				v-2.1c0-0.3,0-0.9,0.3-1.4l5.3-7.8h-4.7C1361,799,1360.7,798.7,1360.7,798.4z"/>
			<path fill="#787878" d="M1328.2,811.1h-2.7c-0.2,0-0.5-0.2-0.5-0.5v-14.1c0-0.2,0.2-0.5,0.6-0.5h2.5c0.2,0,0.5,0.2,0.5,0.5v1.9
				l0,0c0.7-1.7,1.9-2.7,3.5-2.7c1.7,0,2.7,0.8,3.5,2.7c0.7-1.7,2.2-2.7,3.8-2.7c1.1,0,2.4,0.5,3.2,1.5c0.9,1.2,0.7,2.9,0.7,4.4v8.9
				c0,0.2-0.2,0.5-0.6,0.5h-2.7c-0.2,0-0.5-0.2-0.5-0.5V803c0-0.6,0-2.1-0.1-2.7c-0.2-0.9-0.8-1.3-1.6-1.3c-0.7,0-1.4,0.5-1.6,1.2
				c-0.2,0.7-0.2,1.9-0.2,2.7v7.5c0,0.2-0.2,0.5-0.6,0.5h-2.7c-0.2,0-0.5-0.2-0.5-0.5v-7.5c0-1.6,0.2-3.9-1.7-3.9s-1.8,2.2-1.8,3.9
				v7.5C1328.7,810.9,1328.4,811.1,1328.2,811.1z"/>
			<path fill="#787878" d="M1378.4,795.6c4,0,6.3,3.5,6.3,8c0,4.3-2.4,7.8-6.3,7.8c-4,0-6.1-3.5-6.1-7.9S1374.4,795.6,1378.4,795.6z
				 M1378.4,798.5c-2,0-2.2,2.8-2.2,4.5c0,1.7,0,5.4,2,5.4c2,0,2.2-3,2.2-4.9c0-1.2,0-2.7-0.3-3.7
				C1379.8,798.9,1379.2,798.5,1378.4,798.5z"/>
			<path fill="#787878" d="M1389.7,811.1h-2.7c-0.2,0-0.5-0.2-0.5-0.5v-14.3c0-0.2,0.2-0.5,0.6-0.5h2.5c0.2,0,0.5,0.2,0.5,0.3v2.2
				l0,0c0.8-2,1.8-2.9,3.6-2.9c1.3,0,2.4,0.5,3.2,1.7c0.7,1.2,0.7,3,0.7,4.4v8.9c0,0.2-0.2,0.5-0.6,0.5h-2.7c-0.2,0-0.5-0.2-0.5-0.5
				v-7.8c0-1.5,0.2-3.8-1.7-3.8c-0.7,0-1.3,0.5-1.6,1.2c-0.3,0.8-0.5,1.7-0.5,2.7v7.6C1390.3,810.9,1390,811.1,1389.7,811.1z"/>
			<ellipse fill="#787878" cx="1400.8" cy="810" rx="1.4" ry="1.3"/>
			<path fill="#787878" d="M1428.1,811.1c-0.2,0-0.6-0.2-0.6-0.5v-14.3c0-0.2,0.2-0.5,0.5-0.5h1c0.2,0,0.5,0.2,0.6,0.5v2.1
				c0.7-1.6,2-2.9,3.6-2.9h0.1h0.1c1.8,0,3.1,1.3,3.5,3.2c0.7-1.9,2.2-3.2,4-3.2h0.1h0.1c1.3,0,2.6,0.9,3.3,2.2
				c0.7,1.3,0.6,2.9,0.6,4.3v8.6c0,0.2-0.2,0.5-0.5,0.5h-1.1c-0.2,0-0.5-0.2-0.5-0.5v-8.6c0-1,0-2.1-0.3-3c-0.5-0.9-1.3-1.5-2-1.6
				c-0.9,0-1.8,0.7-2.4,1.7c-0.7,1.3-0.7,2.3-0.7,3.7v7.8c0,0.2-0.2,0.5-0.5,0.5h-1.1c-0.2,0-0.6-0.2-0.6-0.5v-9.2
				c0-0.8,0-1.9-0.5-2.5c-0.5-0.8-1.3-1.4-2-1.5c-0.9,0-1.7,0.7-2.3,1.5c-0.7,0.9-0.8,2.2-0.8,3.5v8.2c0,0.2-0.2,0.5-0.5,0.5H1428.1
				z"/>
			<path fill="#787878" d="M1420,811.4c-3.9,0-5.6-3.9-5.6-8c0-4.2,2-7.9,5.9-7.9h0.1h0.1c3.8,0,5.7,3.9,5.7,7.9c0,4.3-2,8-6,8H1420
				L1420,811.4z M1420.2,809.4c1.3,0,2.3-0.8,2.8-2.2c0.6-1.2,0.7-2.5,0.7-3.9s-0.1-2.9-0.8-4.2c-0.6-1-1.6-1.7-2.7-1.7
				c-1.3,0-2.3,0.9-2.8,2.2c-0.5,1.2-0.7,2.5-0.7,3.8c0,1.4,0.2,3,0.7,4.2C1418.1,808.7,1419.1,809.4,1420.2,809.4z"/>
			<path fill="#787878" d="M1407.9,809.4c1.7,0,2.6-1.5,3-3.2c0.1-0.2,0.2-0.3,0.5-0.3h1.1c0.2,0,0.6,0.2,0.5,0.5
				c-0.6,3.1-2.4,5.2-5,5.2l0,0h-0.1c-3.9,0-5.5-3.9-5.5-7.9c0-3.9,1.7-8,5.5-8h0.1h0.1c2.6,0,4.5,2.1,5,5.2c0,0.2-0.2,0.5-0.5,0.5
				h-1.3c-0.2,0-0.5-0.2-0.5-0.5c-0.3-1.7-1.3-3.1-3-3.1c-2.6,0.1-3.3,3.4-3.3,5.8C1404.6,805.8,1405.3,809.3,1407.9,809.4z"/>
			<path fill="#787878" d="M1358.4,808.5c-0.6-0.7-1-1.3-1-2.5v-4.3c0-1.9,0.1-3.5-1.1-4.8c-1-1-2.7-1.4-4.1-1.4
				c-2.6,0-5.5,0.9-6,4.3c-0.1,0.3,0.2,0.6,0.3,0.6l2.6,0.3c0.2,0,0.5-0.2,0.5-0.5c0.2-1.2,1.1-1.6,2.2-1.6c0.6,0,1.3,0.2,1.5,0.7
				c0.3,0.6,0.3,1.4,0.3,2v0.3c-1.6,0.2-3.6,0.3-5.1,0.9c-1.7,0.7-2.8,2.3-2.8,4.5c0,2.9,1.8,4.3,4.1,4.3c1.9,0,3-0.5,4.4-2
				c0.5,0.7,0.7,1,1.6,1.9c0.2,0.1,0.5,0.1,0.7-0.1c0.6-0.5,1.5-1.4,2-1.9C1358.6,809.1,1358.6,808.7,1358.4,808.5z M1353.1,807.3
				c-0.5,0.8-1.1,1.3-1.8,1.3c-1,0-1.7-0.8-1.7-2c0-2.3,2-2.8,4.1-2.8v0.6l0,0C1353.6,805.5,1353.6,806.3,1353.1,807.3z"/>
			<path fill="#787878" d="M1322.9,808.5c-0.6-0.7-1-1.3-1-2.5v-4.3c0-1.9,0.1-3.5-1.1-4.8c-1-1-2.7-1.4-4.1-1.4
				c-2.6,0-5.5,0.9-6,4.2c-0.1,0.3,0.2,0.6,0.3,0.6l2.6,0.3c0.2,0,0.5-0.2,0.5-0.5c0.2-1.2,1.1-1.6,2.2-1.6c0.6,0,1.3,0.2,1.5,0.7
				c0.3,0.6,0.3,1.4,0.3,2v0.3c-1.6,0.2-3.6,0.3-5.1,0.9c-1.7,0.7-2.8,2.3-2.8,4.5c0,2.9,1.8,4.3,4.1,4.3c1.9,0,3-0.5,4.4-2
				c0.5,0.7,0.7,1,1.6,1.9c0.2,0.1,0.5,0.1,0.7-0.1c0.6-0.5,1.5-1.4,2-1.9C1323.1,809.1,1323.1,808.8,1322.9,808.5z M1317.5,807.3
				c-0.5,0.8-1.1,1.3-1.8,1.3c-1,0-1.7-0.8-1.7-2c0-2.3,2-2.8,4.1-2.8v0.6C1318,805.5,1318.1,806.3,1317.5,807.3z"/>
		</g>
	</g>
</g>
<g id="Logo">
</g>
</svg>
