<?xml version="1.0" encoding="utf-8"?>
<!-- Generator: Adobe Illustrator 18.0.0, SVG Export Plug-In . SVG Version: 6.00 Build 0)  -->
<!DOCTYPE svg PUBLIC "-//W3C//DTD SVG 1.1//EN" "http://www.w3.org/Graphics/SVG/1.1/DTD/svg11.dtd">
<svg version="1.1" xmlns="http://www.w3.org/2000/svg" xmlns:xlink="http://www.w3.org/1999/xlink" x="0px" y="0px"
	 viewBox="0 0 587.4 44.2" enable-background="new 0 0 587.4 44.2" xml:space="preserve">
<g id="Layer_1">
</g>
<g id="art">
	<g>
		<g>
			<path fill="#FFFFFF" d="M579.8,0.7h-1.5V0h3.7v0.7h-1.5v3.8h-0.8V0.7z"/>
			<path fill="#FFFFFF" d="M582.9,0h0.9l1.4,2.2l1.4-2.2h0.9v4.6h-0.8V1.3l-1.4,2.2h0l-1.4-2.1v3.3h-0.8V0z"/>
		</g>
		<g>
			<path fill="#FFFFFF" d="M0,1.8h15.1c9.2,0,15.5,4.7,15.5,12.7v0.1c0,8.8-7.6,13.3-16.3,13.3H3.1v15.5H0V1.8z M14.5,25.1
				c7.7,0,13-4,13-10.2v-0.1c0-6.6-5.1-10.1-12.6-10.1H3.1v20.4H14.5z"/>
			<path fill="#FFFFFF" d="M39.1,13.1H42v8.6c2.4-5.4,7.4-9.3,13.5-9.1v3.2h-0.3c-7,0-13.2,5.3-13.2,15.2v12.4h-2.9V13.1z"/>
			<path fill="#FFFFFF" d="M63,1.2h3.6v4H63V1.2z M63.3,13.1h2.9v30.4h-2.9V13.1z"/>
			<path fill="#FFFFFF" d="M74.7,13.1h3.4l11.5,27.1l11.6-27.1h3.3L90.8,43.7h-2.5L74.7,13.1z"/>
			<path fill="#FFFFFF" d="M108.4,34.6v-0.1c0-6.3,5.4-9.9,13.3-9.9c4.2,0,7.1,0.5,10.1,1.3v-1.3c0-6.1-3.8-9.3-10-9.3
				c-3.7,0-6.7,1-9.5,2.4l-1.1-2.6c3.3-1.5,6.6-2.6,10.8-2.6c4.1,0,7.4,1.1,9.6,3.3c2,2,3.1,4.8,3.1,8.6v18.9h-2.9v-5.1
				c-2.1,2.9-5.8,5.8-11.6,5.8C114.5,44.2,108.4,41,108.4,34.6z M131.8,32.1v-3.5c-2.6-0.7-6-1.4-10.3-1.4c-6.4,0-10,2.9-10,7.1v0.1
				c0,4.4,4.2,7,8.8,7C126.5,41.4,131.8,37.6,131.8,32.1z"/>
			<path fill="#FFFFFF" d="M146.4,35.7V15.8H142v-2.7h4.4V3.4h2.9v9.7H160v2.7h-10.7v19.6c0,4.3,2.6,5.9,6.1,5.9
				c1.5,0,2.7-0.3,4.5-1.1v2.7c-1.5,0.7-3,1.1-4.9,1.1C150.2,44,146.4,41.4,146.4,35.7z"/>
			<path fill="#FFFFFF" d="M165.6,28.3v-0.1c0-8.8,6.2-15.8,14.4-15.8c8.5,0,13.9,6.9,13.9,15.9c0,0.5,0,0.7-0.1,1.2h-25.2
				c0.5,7.6,6,12,11.9,12c4.7,0,7.9-2.1,10.4-4.8l2,1.8c-3.1,3.3-6.7,5.7-12.6,5.7C172.5,44.2,165.6,37.8,165.6,28.3z M190.8,26.8
				c-0.4-6.1-3.9-11.8-10.9-11.8c-6,0-10.7,5.1-11.2,11.8H190.8z"/>
			<path fill="#FFFFFF" d="M232.5,4.6H218V1.8h32.1v2.9h-14.5v38.8h-3.1V4.6z"/>
			<path fill="#FFFFFF" d="M248.4,34.6v-0.1c0-6.3,5.4-9.9,13.3-9.9c4.2,0,7.1,0.5,10.1,1.3v-1.3c0-6.1-3.8-9.3-10-9.3
				c-3.7,0-6.7,1-9.5,2.4l-1.1-2.6c3.3-1.5,6.6-2.6,10.8-2.6c4.1,0,7.4,1.1,9.6,3.3c2,2,3.1,4.8,3.1,8.6v18.9h-2.9v-5.1
				c-2.1,2.9-5.8,5.8-11.6,5.8C254.4,44.2,248.4,41,248.4,34.6z M271.8,32.1v-3.5c-2.6-0.7-6-1.4-10.3-1.4c-6.4,0-10,2.9-10,7.1v0.1
				c0,4.4,4.2,7,8.8,7C266.5,41.4,271.8,37.6,271.8,32.1z"/>
			<path fill="#FFFFFF" d="M285.5,0h2.9v43.5h-2.9V0z"/>
			<path fill="#FFFFFF" d="M297.8,28.3v-0.1c0-8.8,6.2-15.8,14.4-15.8c8.5,0,13.9,6.9,13.9,15.9c0,0.5,0,0.7-0.1,1.2h-25.2
				c0.5,7.6,6,12,11.9,12c4.7,0,7.9-2.1,10.4-4.8l2,1.8c-3.1,3.3-6.7,5.7-12.6,5.7C304.7,44.2,297.8,37.8,297.8,28.3z M323,26.8
				c-0.4-6.1-3.9-11.8-10.9-11.8c-6,0-10.7,5.1-11.2,11.8H323z"/>
			<path fill="#FFFFFF" d="M334.6,13.1h2.9v5.7c2-3.6,5.4-6.4,11-6.4c7.7,0,12.1,5.2,12.1,12.5v18.6h-2.9v-18
				c0-6.3-3.5-10.4-9.6-10.4c-6,0-10.5,4.5-10.5,10.8v17.6h-2.9V13.1z"/>
			<path fill="#FFFFFF" d="M372.7,35.7V15.8h-4.4v-2.7h4.4V3.4h2.9v9.7h10.7v2.7h-10.7v19.6c0,4.3,2.6,5.9,6.1,5.9
				c1.5,0,2.7-0.3,4.5-1.1v2.7c-1.5,0.7-3,1.1-4.9,1.1C376.6,44,372.7,41.4,372.7,35.7z"/>
			<path fill="#FFFFFF" d="M411.6,22.7v-0.1c0-11.8,8.8-21.5,20.8-21.5c7.4,0,11.9,2.7,16.2,6.7l-2.2,2.3c-3.6-3.5-7.8-6.1-14-6.1
				c-10,0-17.6,8.2-17.6,18.6v0.1c0,10.5,7.7,18.8,17.6,18.8c6,0,10.1-2.3,14.3-6.5l2.1,2c-4.4,4.3-9.2,7.3-16.5,7.3
				C420.4,44.2,411.6,34.7,411.6,22.7z"/>
			<path fill="#FFFFFF" d="M457.2,0h2.9v43.5h-2.9V0z"/>
			<path fill="#FFFFFF" d="M469.5,28.4v-0.1c0-8.5,6.6-15.9,15.7-15.9c9,0,15.5,7.3,15.5,15.8v0.1c0,8.5-6.6,15.9-15.7,15.9
				C476,44.2,469.5,36.9,469.5,28.4z M497.5,28.4v-0.1c0-7.3-5.5-13.2-12.5-13.2c-7.2,0-12.4,5.9-12.4,13v0.1
				c0,7.3,5.5,13.2,12.5,13.2C492.3,41.4,497.5,35.5,497.5,28.4z"/>
			<path fill="#FFFFFF" d="M509.1,31.7V13.1h2.9v18c0,6.3,3.5,10.4,9.6,10.4c6,0,10.5-4.5,10.5-10.8V13.1h2.9v30.4h-2.9v-5.7
				c-2,3.6-5.4,6.4-11,6.4C513.5,44.2,509.1,38.9,509.1,31.7z"/>
			<path fill="#FFFFFF" d="M544.2,28.4v-0.1c0-9.9,7.4-15.9,14.8-15.9c6.1,0,10,3.5,12.5,7.3V0h2.9v43.5h-2.9v-6.8
				c-2.6,4-6.5,7.5-12.5,7.5C551.6,44.2,544.2,38.3,544.2,28.4z M571.6,28.3v-0.1c0-7.8-6.1-13-12.4-13c-6.6,0-11.9,4.8-11.9,13v0.1
				c0,8,5.5,13.1,11.9,13.1C565.6,41.4,571.6,36.1,571.6,28.3z"/>
		</g>
	</g>
</g>
</svg>
