<?xml version="1.0" encoding="utf-8"?>
<!-- Generator: Adobe Illustrator 18.1.0, SVG Export Plug-In . SVG Version: 6.00 Build 0)  -->
<svg version="1.1" id="Layer_1" xmlns="http://www.w3.org/2000/svg" xmlns:xlink="http://www.w3.org/1999/xlink" x="0px" y="0px"
	 viewBox="1306.2 791.8 136 29" enable-background="new 1306.2 791.8 136 29" xml:space="preserve">
<g id="Layer_1_1_">
	<g>
		<path fill="#8A8C8E" d="M1306.2,791.8h13.8c0,4.6,0,9.2,0,13.8c-4.6,0-9.2,0-13.8,0V791.8L1306.2,791.8z"/>
		<path fill="#A3A5A8" d="M1321.5,791.8h13.8c0,4.6,0,9.2,0,13.8c-4.6,0-9.2,0-13.8,0C1321.5,801,1321.5,796.4,1321.5,791.8
			L1321.5,791.8z"/>
		<path fill="#787878" d="M1430.8,797.1c1.3-0.8,3-0.8,4.3-0.5c0,0.8,0,1.7,0,2.5c-0.6-0.3-1.5-0.5-2.2-0.2c-0.5,0.2-0.8,0.8-1,1.4
			c-0.1,0.7,0,1.5,0,2.2c1.5,0,3,0,4.3,0c0-1,0-1.9,0-2.9c1-0.3,2-0.6,3-0.8c0,1.3,0,2.4,0,3.7c1,0,2,0,3,0v2.4c-1,0-2,0-3,0
			c0,1.4,0,2.8,0,4.2c0,0.7,0,1.6,0,2.3c0,0.4,0.2,1,0.6,1.2c0.7,0.4,1.6,0.2,2.2-0.2v2.4c-0.8,0.4-1.8,0.4-2.8,0.4
			c-0.8-0.1-1.8-0.4-2.3-1.1c-0.6-0.7-0.8-1.8-0.8-2.9c0-2.1,0-4.2,0-6.5c-1.5,0-3,0-4.3,0c0,3.4,0,6.7,0,10.1c-1,0-2,0-3,0
			c0-3.4,0-6.7,0-10.1c-0.6,0-1.4,0-2.1,0c0-0.8,0-1.6,0-2.4c0.6,0,1.4,0,2,0c0-1.1-0.1-2.1,0.2-3.2
			C1429.4,798.5,1429.9,797.6,1430.8,797.1L1430.8,797.1z"/>
		<path fill="#787878" d="M1366.8,797.2c0.6-0.1,1.3,0.1,1.7,0.6c0.4,0.5,0.5,1.4,0.2,1.9c-0.4,0.6-1.3,1-2,0.8
			c-0.7-0.1-1.4-0.8-1.4-1.7C1365.2,798,1366,797.3,1366.8,797.2L1366.8,797.2z"/>
		<path fill="#787878" d="M1343.9,797.6c1.5,0,2.9,0,4.3,0c1.4,3.4,2.8,6.9,4,10.3c0.3,0.8,0.6,1.7,1.1,2.5
			c1.7-4.2,3.5-8.6,5.2-12.8c1.4,0,2.8,0,4.1,0c0,5.8,0,11.6,0,17.4c-1,0-2,0-3,0c0-4.2,0-8.6,0-12.8c0-0.2,0-0.4,0-0.5
			c0,0.1-0.1,0.2-0.2,0.3c-1.7,4.3-3.5,8.8-5.2,13.1c-0.7,0-1.4,0-2.1,0c-1.8-4.3-3.5-8.8-5.3-13.1c0-0.1-0.1-0.2-0.1-0.2
			c0,1.9,0,3.7,0,5.6c0,2.6,0,5.2,0,7.8c-1,0-1.9,0-2.9,0C1343.9,809.2,1343.9,803.4,1343.9,797.6L1343.9,797.6z"/>
		<path fill="#787878" d="M1375,802.5c1.5-0.4,3-0.4,4.5,0c0.3,0.1,0.6,0.2,0.8,0.3c0,1,0,1.9,0,2.9c-1-0.7-2.2-1.2-3.4-1.1
			c-1,0.1-1.9,0.6-2.4,1.4c-0.7,1-1,2.2-0.7,3.5c0.1,1,0.4,1.9,1.2,2.4c0.7,0.6,1.8,0.8,2.8,0.8c1-0.1,1.9-0.5,2.7-1.1
			c0,0.8,0,1.8,0,2.6c-1.3,0.7-2.7,1-4,0.8c-1.4-0.1-2.9-0.6-3.9-1.6c-1.2-1.1-1.7-2.6-1.8-4.1c-0.1-1.6,0.2-3.3,1.2-4.7
			C1372.5,803.8,1373.7,802.9,1375,802.5L1375,802.5z"/>
		<path fill="#787878" d="M1407.6,802.4c1.4-0.2,2.9-0.1,4.1,0.4c0,1,0,1.8,0,2.8c-1-0.6-2-1-3.2-1c-0.5,0-1.2,0.2-1.4,0.7
			c-0.2,0.5-0.1,1.2,0.4,1.5c0.8,0.5,1.8,0.8,2.8,1.3c0.6,0.4,1.4,0.8,1.7,1.6c0.6,1.4,0.4,3.2-0.7,4.2c-1.2,1.1-2.7,1.4-4.1,1.3
			c-1.1-0.1-2.1-0.2-3.1-0.6c0-1,0-1.9,0-2.9c0.8,0.6,1.7,1,2.7,1.2c0.6,0.1,1.4,0.1,2-0.2s0.7-1.2,0.3-1.7
			c-0.3-0.4-0.8-0.6-1.3-0.8c-0.8-0.4-1.8-0.7-2.5-1.4c-0.5-0.4-1-1.1-1.2-1.7c-0.2-1-0.2-2.1,0.4-3
			C1405.3,803.1,1406.5,802.6,1407.6,802.4L1407.6,802.4z"/>
		<path fill="#787878" d="M1387,802.7c0.8-0.5,1.9-0.5,2.8-0.2c0,1,0,2,0,3c-0.6-0.4-1.4-0.5-2-0.4c-0.8,0.1-1.5,0.7-1.9,1.5
			c-0.4,0.7-0.4,1.7-0.4,2.5c0,2,0,4,0,5.9c-1,0-2,0-3,0c0-4.1,0-8.4,0-12.5c1,0,2,0,3,0c0,0.7,0,1.4,0,2.1
			C1385.7,803.9,1386.2,803.1,1387,802.7L1387,802.7z"/>
		<path fill="#787878" d="M1365.6,802.5c1,0,2,0,3,0c0,4.1,0,8.4,0,12.5c-1,0-2,0-3,0C1365.6,810.9,1365.6,806.7,1365.6,802.5
			L1365.6,802.5z"/>
		<path fill="#787878" d="M1395.2,802.3c1.4-0.2,3-0.1,4.2,0.5c1.2,0.5,2.1,1.5,2.7,2.6c0.5,1.3,0.6,2.6,0.6,3.9
			c-0.1,1.3-0.5,2.6-1.3,3.6c-0.8,1.1-2.1,1.8-3.4,2.1c-1.2,0.2-2.3,0.2-3.5,0c-1.4-0.3-2.7-1.1-3.5-2.2c-1-1.4-1.2-3.1-1.1-4.7
			c0.1-1.4,0.5-2.8,1.4-3.8C1392.3,803.2,1393.8,802.5,1395.2,802.3L1395.2,802.3z M1396.1,804.7c-0.7,0-1.5,0.3-2,0.7
			c-0.7,0.6-1.1,1.6-1.2,2.6c-0.1,1.1,0,2.1,0.4,3.2c0.4,0.7,1.1,1.4,1.9,1.6c0.8,0.2,1.7,0.2,2.4-0.1c0.6-0.2,1.2-0.8,1.5-1.5
			c0.4-1,0.4-2,0.4-3.1c-0.1-1-0.3-1.9-1.1-2.6C1398,804.8,1397,804.6,1396.1,804.7L1396.1,804.7z"/>
		<path fill="#787878" d="M1419.1,802.3c1.5-0.2,3.1-0.1,4.5,0.6c1.2,0.6,2.1,1.7,2.5,3c0.3,1,0.4,2,0.4,3c0,1.5-0.4,3.1-1.4,4.2
			c-0.8,1.2-2.2,1.9-3.7,2.1c-1.4,0.2-2.9,0.2-4.2-0.3c-1.4-0.5-2.4-1.6-3.1-3c-0.6-1.4-0.6-2.9-0.4-4.3c0.2-1.5,0.8-2.9,2-3.8
			C1416.7,802.9,1417.8,802.5,1419.1,802.3L1419.1,802.3z M1419.8,804.7c-0.8,0-1.6,0.4-2.2,1.1s-0.8,1.6-0.8,2.4
			c-0.1,1,0,1.9,0.3,2.8c0.3,0.7,0.8,1.4,1.6,1.7c0.6,0.3,1.4,0.3,2.1,0.2c0.6-0.1,1.3-0.4,1.8-1c0.4-0.5,0.6-1.2,0.7-1.8
			c0.1-0.8,0.1-1.8,0-2.6c-0.1-0.7-0.4-1.5-1.1-2C1421.6,804.8,1420.7,804.6,1419.8,804.7L1419.8,804.7z"/>
		<path fill="#77787B" d="M1306.2,807c4.6,0,9.2,0,13.8,0c0,4.6,0,9.2,0,13.8h-13.8V807L1306.2,807z"/>
		<path fill="#CDCFD0" d="M1321.5,807c4.6,0,9.2,0,13.8,0c0,4.6,0,9.2,0,13.8h-13.8C1321.5,816.2,1321.5,811.6,1321.5,807
			L1321.5,807z"/>
	</g>
</g>
<g id="Logo">
</g>
</svg>
