<?xml version="1.0" encoding="utf-8"?>
<!-- Generator: Adobe Illustrator 18.1.0, SVG Export Plug-In . SVG Version: 6.00 Build 0)  -->
<svg version="1.1" id="Layer_1" xmlns="http://www.w3.org/2000/svg" xmlns:xlink="http://www.w3.org/1999/xlink" x="0px" y="0px"
	 viewBox="1346.3 773.7 97 48" enable-background="new 1346.3 773.7 97 48" xml:space="preserve">
<g>
	<path fill="#777777" d="M1360.4,817.4c-2.3,0-4-1.9-4-3.9v-8.8c0-2.1,1.6-3.9,4-3.9s3.9,1.9,3.9,3.9v8.8
		C1364.2,815.5,1362.7,817.4,1360.4,817.4z M1362.4,804.7c0-1.1-0.7-2.3-2.1-2.3c-1.3,0-2.1,1.1-2.1,2.3v8.8c0,1.1,0.8,2.3,2.1,2.3
		c1.3,0,2.1-1.1,2.1-2.3V804.7L1362.4,804.7z"/>
	<path fill="#777777" d="M1371.3,817.4c-0.9,0-1.4-0.2-1.8-0.4c-0.2-0.1-0.3,0-0.3,0.2v4.2c0,0.2-0.2,0.3-0.3,0.3h-1.3
		c-0.2,0-0.3-0.2-0.3-0.3v-11.8c0-2.1,1.6-3.9,4-3.9c2.3,0,3.9,1.9,3.9,3.9v3.8C1375.1,815.4,1373.6,817.4,1371.3,817.4z
		 M1373.3,809.5c0-1.1-0.7-2.3-2.1-2.3c-1.3,0-2.1,1.1-2.1,2.3v3.8c0,1.1,0.8,2.3,2.1,2.3c1.4,0,2.1-1.1,2.1-2.3V809.5L1373.3,809.5
		z"/>
	<path fill="#777777" d="M1385.2,812.3h-5.2c-0.2,0-0.3,0.2-0.3,0.3v0.8c0,1.1,0.8,2.3,2.1,2.3s2-1,2.4-1.5c0.1-0.2,0.3-0.2,0.4-0.1
		l0.8,0.6c0.3,0.2,0.2,0.4,0.2,0.5c-0.3,0.7-1.5,2.4-3.9,2.4c-2.3,0-4-1.9-4-3.9v-3.8c0-2.1,1.6-3.9,4-3.9s3.9,1.9,3.9,3.9v2.2
		C1385.7,812,1385.5,812.3,1385.2,812.3z M1379.7,809.5v0.8c0,0.2,0.2,0.3,0.3,0.3h3.7c0.2,0,0.3-0.2,0.3-0.3v-0.8
		c0-1.1-0.7-2.3-2.1-2.3C1380.5,807.4,1379.7,808.5,1379.7,809.5z"/>
	<path fill="#777777" d="M1396.2,817.1h-1.1c-0.2,0-0.3-0.2-0.3-0.3v-7.2c0-1.1-0.7-2.3-2.1-2.3c-1.3,0-2.1,1.1-2.1,2.3v7.2
		c0,0.2-0.2,0.3-0.3,0.3h-1.2c-0.2,0-0.3-0.1-0.3-0.3v-10.6c0-0.2,0.1-0.3,0.3-0.3h1c0.4,0,0.3,0.5,0.6,0.3c0.6-0.4,1.3-0.6,2.1-0.6
		c2.3,0,3.9,1.9,3.9,3.9v7.2C1396.5,817,1396.3,817.1,1396.2,817.1z"/>
	<path fill="#777777" d="M1405.1,802.7h-2.3c-0.2,0-0.3,0.2-0.3,0.3v13.7c0,0.2-0.2,0.3-0.3,0.3h-1.2c-0.2,0-0.3-0.2-0.3-0.3V803
		c0-0.2-0.2-0.3-0.3-0.3h-2.4c-0.2,0-0.3-0.2-0.3-0.3v-1c0-0.2,0.2-0.3,0.3-0.3h7.2c0.2,0,0.3,0.2,0.3,0.3v1
		C1405.4,802.6,1405.3,802.7,1405.1,802.7z"/>
	<path fill="#777777" d="M1428.3,801.1h-1.2c-0.2,0-0.3,0.2-0.3,0.3v15.4c0,0.2,0.2,0.3,0.3,0.3h1.2c0.2,0,0.3-0.2,0.3-0.3v-15.4
		C1428.7,801.3,1428.5,801.1,1428.3,801.1z"/>
	<path fill="#777777" d="M1412.9,817.1h-1c-0.4,0-0.2-0.6-0.6-0.3c0,0-0.7,0.5-1.9,0.5c-2.2,0-4-1.8-4-3.9c0-2.3,1.7-3.9,4-3.9
		c0.6,0,1.2,0.2,1.8,0.4c0.2,0.1,0.3-0.2,0.3-0.3c0-1.1-0.8-2.3-2.1-2.3c-0.9,0-1.5,0.2-2,0.5c-0.2,0.1-0.4,0.1-0.5-0.1l-0.5-0.9
		c-0.1-0.2,0-0.4,0.1-0.5c1-0.5,1.9-0.8,3-0.8c2.2,0,3.9,1.8,3.9,3.9v7.2C1413.3,817,1413,817.1,1412.9,817.1z M1409.3,811.2
		c-1.4,0-2.1,1.1-2.1,2.3c0,1.1,0.8,2.3,2.1,2.3c1.3,0,2.1-1.1,2.1-2.3S1410.6,811.2,1409.3,811.2z"/>
	<path fill="#777777" d="M1420.2,805.6c-0.8,0-1.5,0.2-2.1,0.6v-4.9c0-0.2-0.2-0.3-0.3-0.3h-1.2c-0.2,0-0.3,0.2-0.3,0.3v12.1
		c0,2.1,1.6,3.9,4,3.9l0,0l0,0l0,0c0.1,0,0.1,0,0.2,0h0.1c0.1,0,0.1,0,0.1,0s0,0,0.1,0c0.4,0,0.7-0.1,1-0.2l0,0c0.1,0,0.1,0,0.1-0.1
		c1.4-0.6,2.3-2.1,2.3-3.6v-3.8C1424.1,807.5,1422.5,805.6,1420.2,805.6z M1418,809.5c0-1.1,0.8-2.3,2.1-2.3c1.4,0,2.1,1.1,2.1,2.3
		v3.8c0,0.5-0.2,1-0.5,1.4c-0.1,0-0.1,0.1-0.1,0.1c-0.1,0.1-0.2,0.2-0.4,0.4c-0.2,0.2-0.5,0.3-0.8,0.3l0,0h-0.1h-0.1c0,0,0,0-0.1,0
		c-0.1,0-0.1,0-0.2,0c-1.3,0-2.1-1.1-2.1-2.3v-3.8H1418z"/>
	<path fill="#777777" d="M1438.8,812.3h-5.2c-0.2,0-0.3,0.2-0.3,0.3v0.8c0,1.1,0.8,2.3,2.1,2.3c1.3,0,2-1,2.4-1.5
		c0.1-0.2,0.3-0.2,0.4-0.1l0.8,0.6c0.3,0.2,0.2,0.4,0.2,0.5c-0.3,0.7-1.5,2.4-3.9,2.4s-4-1.9-4-3.9v-3.8c0-2.1,1.6-3.9,4-3.9
		s3.9,1.9,3.9,3.9v2.2C1439.4,812,1439.1,812.3,1438.8,812.3z M1433.3,809.5v0.8c0,0.2,0.2,0.3,0.3,0.3h3.6c0.2,0,0.3-0.2,0.3-0.3
		v-0.8c0-1.1-0.7-2.3-2.1-2.3C1434.1,807.4,1433.3,808.5,1433.3,809.5z"/>
	<g>
		<g>
			<g>
				<path fill="#777777" d="M1440,805.4v-0.2h1.2v0.2h-0.5v1.1h-0.3v-1.1H1440z M1442.1,805.2l0.4,1l0.4-1h0.4v1.4h-0.3v-1.1
					l-0.4,1.1h-0.2l-0.4-1.1v1.1h-0.3v-1.4H1442.1z"/>
			</g>
		</g>
	</g>
	<path fill="#777777" d="M1393,780.8v-0.1l0,0c-0.1-1.4-4.4-2.7-9.6-2.7c-5.2,0-9.5,1.2-9.6,2.7l0,0l0,0v0.1v1.4c0,0,0,0,0,0.1
		c0,1.5,4.3,2.7,9.6,2.7s9.6-1.2,9.6-2.7l0,0V780.8z"/>
	<path fill="#C1C1C1" d="M1368.9,783.8L1368.9,783.8c0-2-5.1-3.5-11.3-3.5s-11.3,1.5-11.3,3.5l0,0l0,0v2l0,0c0.1,2,5.1,3.5,11.3,3.5
		s11.3-1.5,11.3-3.5l0,0V783.8L1368.9,783.8z"/>
	<path fill="#C1C1C1" d="M1394.7,793.2V793c-0.2-2.9-6.7-5.2-14.8-5.2c-8,0-14.6,2.3-14.8,5.2l0,0v0.2v2.3l0,0
		c0.2,2.9,6.7,5.2,14.8,5.2c8,0,14.6-2.3,14.8-5.2l0,0v-0.2V793.2z"/>
	<path fill="#C1C1C1" d="M1373.4,775.5c-0.1-1-3.7-1.8-8.2-1.8c-4.5,0-8,0.8-8.2,1.8l0,0v1l0,0c0.1,1,3.7,1.8,8.2,1.8
		c4.5,0,8-0.8,8.2-1.8l0,0V775.5L1373.4,775.5z"/>
	<path fill="#3A3A3A" d="M1393,782.4v-1.5c-0.1,1.4-4.3,2.7-9.5,2.7s-9.4-1.2-9.5-2.7v1.4c0,0,0,0,0,0.1c0,1.5,4.3,2.7,9.5,2.7
		S1393,783.8,1393,782.4L1393,782.4z"/>
	<path fill="#8E8D8D" d="M1368.9,783.8c0,2-5.1,3.5-11.3,3.5s-11.3-1.5-11.3-3.5l0,0v2l0,0c0.1,2,5.1,3.5,11.3,3.5
		s11.3-1.5,11.3-3.5l0,0V783.8L1368.9,783.8z"/>
	<path fill="#8E8D8D" d="M1394.7,793.2c-0.1,2.9-6.6,5.2-14.8,5.2s-14.7-2.3-14.8-5.2c0,0,0,2.2,0,2.3v0.1l0,0
		c0.2,2.9,6.7,5.2,14.8,5.2c8,0,14.6-2.3,14.8-5.2l0,0V793.2z"/>
	<path fill="#8E8D8D" d="M1365.3,777.2c-4.5,0-8.2-0.8-8.2-1.9v1l0,0c0.1,1,3.7,1.8,8.2,1.8c4.5,0,8-0.8,8.2-1.8l0,0v-1
		C1373.4,776.5,1369.7,777.2,1365.3,777.2z"/>
</g>
</svg>
