<?xml version="1.0" encoding="utf-8"?>
<!-- Generator: Adobe Illustrator 18.1.0, SVG Export Plug-In . SVG Version: 6.00 Build 0)  -->
<svg version="1.1" id="Logo" xmlns="http://www.w3.org/2000/svg" xmlns:xlink="http://www.w3.org/1999/xlink" x="0px" y="0px"
	 viewBox="1327.8 1008.5 113 29" enable-background="new 1327.8 1008.5 113 29" xml:space="preserve">
<g>
	<path fill="#787878" d="M1353.6,1018.7c1.2,0,2.4-1,2.6-2.3c0.2-1.2-0.6-2.3-1.8-2.3c-1.2,0-2.4,1-2.6,2.3
		C1351.6,1017.6,1352.3,1018.7,1353.6,1018.7z"/>
	<path fill="#787878" d="M1436.6,1022.3c0,0,2.7,0,2.8,0c0.4,0,0.6-0.1,0.7-0.5c0.1-0.5,0.3-1.4,0.4-1.6c0.1-0.3-0.1-0.6-0.5-0.6
		c-0.1,0-1.4,0-2.7,0c0.2-0.8,1-3.3,1-5c0-3.3-2.8-6.1-6.7-6.1c-4.4,0-7.3,3-7.3,7.3c0,1.2,0.5,2.7,1,3.6c-0.2,0-0.5,0-0.7,0
		c-3.4,0-5.5,1.9-5.5,4.6c0,2.5,2,3.5,3.8,4.2c1.7,0.6,3.2,0.8,3.2,2.2c0,0.9-0.8,1.4-2.5,1.4c-2,0-3.1-0.9-3.3-1.3
		c0.2-0.1,0.5-0.5,0.5-1.1c0-0.8-0.6-1.5-1.6-1.5c-0.9,0-1.7,0.7-1.8,1.7c-1.4,1.2-3,1.9-5.2,1.9c-2.2,0-3.3-1.1-3.3-3.6
		c0.5,0.1,1.9,0.3,2.7,0.3c3.7,0,6.2-1.7,6.2-5.1c0-1.8-1.6-3.7-4.7-3.7l0,0c-4.1,0-6.4,2.6-7.4,5.5c-0.3-0.1-0.6-0.1-0.8-0.2
		c0.2-0.6,0.4-1.4,0.4-2.2c0-1.4-0.9-3.1-3.3-3.1c-1.7,0-3.2,1.1-4.2,2.7c0.3-1,0.4-1.8,0.5-1.8c0.1-0.3,0-0.6-0.5-0.6
		c-0.6,0-2.4,0-2.4,0c-0.3,0-0.6,0.1-0.7,0.5c-0.1,0.3-0.9,3.5-1.7,6.7c-0.5,2-3.2,4.5-6.4,4.5c-2.2,0-3.3-1.2-3.3-3.7
		c0.6,0.2,1.9,0.4,2.7,0.4c3.8,0,6.2-1.7,6.2-5.1c0-1.8-1.6-3.7-4.7-3.7l0,0c-4.6,0-7.5,3.6-7.9,7.8c-0.2,1.7-1.6,4.1-3.2,4.1
		c-0.8,0-1.2-0.5-1.2-1.3c0-0.7,0.5-2.4,1-4.6c0.2-0.7,0.5-1.8,0.8-3c1.4,0,2.5,0,2.5,0c0.4,0,0.6-0.1,0.7-0.5
		c0.1-0.5,0.3-1.4,0.4-1.6c0.1-0.3-0.1-0.6-0.5-0.6c-0.1,0-2.5,0-2.5,0s1.2-4.6,1.2-4.7c0.1-0.5-0.3-0.7-0.7-0.6
		c0,0-1.9,0.4-2.3,0.5s-0.6,0.3-0.8,0.8c0,0.1-1,4.1-1,4.1h-2c-0.4,0-0.6,0.1-0.7,0.5c-0.1,0.5-0.3,1.4-0.4,1.6
		c-0.1,0.3,0.1,0.6,0.5,0.6c0.1,0,0.9,0,2,0c0,0.1-0.7,2.7-1.3,5.1c-0.3,1.1-1.2,3.8-2.6,3.8c-0.9,0-1.2-0.4-1.2-1.4
		c0-1.5,1.5-5.2,1.5-6.9c0-2.2-1.2-3.6-3.7-3.6c-1.6,0-3.2,1-3.8,1.9c0,0,0.2-0.7,0.3-1s-0.1-0.6-0.5-0.6c-0.6,0-1.9,0-2.4,0
		c-0.5,0-0.7,0.3-0.7,0.6c0,0.1-0.9,3.5-1.7,6.8c-0.6,2.2-2,4.1-3.4,4.1c-0.8,0-1.1-0.5-1.1-1.3c0-0.7,0.5-2.4,1-4.6
		c0.7-2.6,1.2-4.8,1.3-5c0.1-0.3-0.1-0.6-0.5-0.6c-0.5,0-1.9,0-2.4,0c-0.4,0-0.6,0.2-0.7,0.6c0,0-0.7,2.6-1.4,5.5
		c-0.5,2.1-1.1,4.2-1.1,5.2c0,1.8,0.8,3.1,3,3.1c1.7,0,3.1-0.9,4-2c-0.1,0.6-0.2,1-0.3,1c-0.1,0.3,0,0.6,0.4,0.6c0.6,0,2,0,2.5,0
		c0.4,0,0.6-0.2,0.7-0.6c0.1-0.4,2-7.7,2-7.7c0.5-2,1.7-3.3,3.4-3.3c0.8,0,1.5,0.5,1.4,1.6s-1.5,5.3-1.5,7.1c0,1.4,0.5,3.2,3.1,3.2
		c1.8,0,3.1-0.8,3.9-1.9c0.3,1.2,1.3,1.9,2.9,1.9c2.8,0,4.4-1.7,5.4-3.3c0.8,1.9,2.7,3.3,5.5,3.3s5-1.2,6.6-2.9
		c-0.3,1.1-0.5,1.9-0.5,1.9c-0.1,0.3,0.1,0.6,0.5,0.6c0.5,0,2.2,0,2.5,0c0.3,0,0.6-0.2,0.7-0.5c0-0.2,0.4-1.5,0.9-3.5
		c1-3.7,2.5-7.6,4.7-7.6c0.8,0,1.2,0.5,1.2,1.2c0,0.3-0.1,0.6-0.2,0.8c-1.1-0.2-2,0.3-2,1.5c0,0.8,0.8,1.5,1.9,1.5
		c0.8,0,1.5-0.2,2.1-0.6c0.5,0.1,1.1,0.2,1.7,0.4c-0.1,0.6-0.1,1.1-0.1,1.6c0,3,2.1,5.6,5.9,5.6c3,0,5-1.1,6.8-2.5
		c0.9,1.4,3,2.5,5.8,2.5c3.8,0,6-2,6-4.7c0-2.4-2-3.3-3.9-4.1c-1.7-0.6-3.1-0.9-3.1-2.1c0-1,0.8-1.4,2.1-1.4c0.8,0,1.5,0.2,1.8,0.3
		c0.3,0.8,1,1.8,2.2,1.8c1,0,1.5-0.8,1.5-1.5c0-2.1-3.5-2.3-3.5-6.8c0-2.8,1.6-5.1,4.7-5.1c2.3,0,3.7,1.4,3.7,3.7
		c0,1.9-1.2,5.3-1.2,5.3s-1.9,0-2,0c-0.4,0-0.6,0.1-0.7,0.5c-0.1,0.5-0.3,1.4-0.4,1.6c-0.1,0.3,0.1,0.6,0.5,0.6c0.1,0,1.9,0,1.9,0
		s-2,7.3-2,8.7c0,1.8,1,3.1,3.2,3.1c3.1,0,5-2,5.8-5c0.1-0.2-0.1-0.4-0.3-0.4c-0.4,0-1,0-1.2,0s-0.4,0.1-0.4,0.4
		c-0.3,1-0.9,2.2-2.2,2.2c-0.8,0-1.2-0.5-1.2-1.3c0-0.7,0.5-2.4,1-4.6C1436.1,1024.3,1436.6,1022.3,1436.6,1022.3z M1412.3,1022.2
		c1.1,0,1.6,0.7,1.6,1.6c0,1.5-1.1,2.4-2.9,2.4c-0.6,0-1.5-0.1-2.1-0.3C1409.2,1024.5,1410.2,1022.2,1412.3,1022.2z M1386.7,1022.2
		c1.2,0,1.6,0.7,1.6,1.6c0,1.5-1.1,2.4-2.9,2.4c-0.6,0-1.5-0.1-2.1-0.3C1383.5,1024.5,1384.4,1022.2,1386.7,1022.2z"/>
	<path fill="#787878" d="M1339.5,1008.5c-7.8,0-11.7,5.7-11.7,10.4c0,2.9,1.1,5.4,3.4,6.3c0.4,0.1,0.7,0,0.8-0.4
		c0.1-0.3,0.3-1,0.3-1.3c0.1-0.4,0.1-0.6-0.2-0.9c-0.6-0.8-1.1-1.8-1.1-3.3c0-4.2,3.1-7.9,8.1-7.9c4.4,0,6.8,2.7,6.8,6.4
		c0,4.8-2.1,8.8-5.2,8.8c-1.7,0-3-1.4-2.6-3.2c0.5-2.1,1.5-4.4,1.5-5.9c0-1.4-0.7-2.5-2.2-2.5c-1.8,0-3.2,1.8-3.2,4.3
		c0,1.6,0.5,2.6,0.5,2.6s-1.8,7.7-2.1,9.1c-0.6,2.7-0.1,6,0,6.3c0,0.2,0.3,0.2,0.4,0.1c0.2-0.2,2.3-2.8,3-5.4
		c0.2-0.7,1.2-4.6,1.2-4.6c0.6,1.1,2.3,2.1,4,2.1c5.2,0,8.9-4.9,8.9-11.4C1349.9,1013.1,1345.7,1008.5,1339.5,1008.5z"/>
</g>
</svg>
