<?xml version="1.0" encoding="utf-8"?>
<!-- Generator: Adobe Illustrator 18.1.0, SVG Export Plug-In . SVG Version: 6.00 Build 0)  -->
<svg version="1.1" id="Layer_1" xmlns="http://www.w3.org/2000/svg" xmlns:xlink="http://www.w3.org/1999/xlink" x="0px" y="0px"
	 viewBox="1392 765.5 49 55" enable-background="new 1392 765.5 49 55" xml:space="preserve">
<g id="Layer_1_1_">
	<g>
		<path fill="#787878" d="M1431.4,776.8c0.2,1.4,2.3,3.4,2.9,3.3c0.4,0,0.5-1.9,0.5-3.3c0-0.8,0-1.4-0.4-1.7
			C1433.9,776.5,1432,776.9,1431.4,776.8L1431.4,776.8z M1431.5,776.1c1.5,0,3-1.2,3-2.4c0-0.5-0.2-0.9-0.8-1
			c0.1,0.1,0.1,0.2,0.1,0.5c0,0.8-1.2,1.8-2.7,1.8c-0.5,0-0.6,0.3-0.6,0.5C1430.6,775.9,1431,776.1,1431.5,776.1L1431.5,776.1z
			 M1431.2,774.5c-0.2,0-0.5,0-0.7-0.3c-0.1-0.3-0.1-0.7-0.3-0.9c0.2,0.1,0.5,0.1,0.7,0.1c0.7,0,1.3-0.5,1.8-0.5
			c0.3,0,0.4,0.2,0.4,0.4C1433.2,773.9,1431.8,774.5,1431.2,774.5L1431.2,774.5z M1397.9,786.3c0.5,0,0.4-3.1,1.2-3.1
			c0.2,0,0.2,0.2,0.2,0.4c0,0.7-0.3,1.8-0.3,2.3c0,0.3,0.1,0.4,0.2,0.4c0.4,0,1-3.4,1.6-3.4c0.2,0,0.3,0.2,0.3,0.4
			c0,0.7-0.9,2.8-0.9,3.4c0,0.1,0,0.2,0.1,0.2c0.4,0,1.1-1.7,1.3-2.5c0.1-0.4,0.3-0.6,0.5-0.6c0.2,0,0.3,0.2,0.3,0.5
			c0,0.8-0.7,2.7-1.4,4c-0.5,1-1.3,2.4-1.3,3.2c0,0.4,0.1,0.8,0.7,1.3c-0.9,0-1.3-0.1-1.7-0.9c-1.6,3.2,3,2.9,1.4,5.8
			c-0.3-0.5-2.6-1-2.6-4c0-2.6,2.2-4.1,2.2-5.2c0-0.2-0.1-0.4-0.3-0.5c-0.5-0.4-0.5-0.7-0.9-0.7c-0.3,0-0.6,0.7-0.3,1.2
			c0.1,0.2,0.2,0.3,0.2,0.5c0,0.4-0.7,1.6-1.1,1.6c-0.5,0-0.8-1.1-0.8-3c0-1.7,0.4-3.3,0.8-3.3c0.1,0,0.2,0.1,0.2,0.2
			c0,0.2,0,0.6,0,1.2C1397.6,786.2,1397.8,786.3,1397.9,786.3L1397.9,786.3z M1420.7,771.5c0.2,0,0.3,0.6,0.3,0.9
			c0,0.2,0,0.2,0.1,0.2c0.2,0,0.5-0.7,0.7-0.7c0.3,0,1,0.8,2.3,0.8c1.8,0,3.5-1.2,3.5-3.5c0-2.2-1.5-3.5-3.6-3.5
			c-1,0-1.7,0.5-2.1,0.5c-0.2,0-0.6-0.6-0.7-0.6c-0.1,0-0.1,0.1-0.1,0.4c0,0.2,0,0.7-0.2,0.7c-0.3,0-1.7-1-1.7-0.7s0.9,1.4,0.9,1.7
			c0,0.2-0.9,0.5-0.9,0.7c0,0.3,0.9,0.4,0.9,0.8c0,0.4-1,0.7-1,1c0,0.2,1,0.1,1,0.4s-0.7,1.3-0.7,1.7c0,0.1,0,0.1,0.1,0.1
			C1419.7,772.4,1420.6,771.5,1420.7,771.5L1420.7,771.5z M1401.6,793.7c0-0.3,0.2-0.6,0.5-0.6c0.3,0,0.6,0.2,0.6,0.5
			c0,0.3-0.2,0.6-0.5,0.6C1401.9,794.3,1401.7,794,1401.6,793.7L1401.6,793.7z M1400,794.2c0,0.5,0.5,0.9,1,0.8
			c0.2,0,0.4-0.1,0.5-0.1c0.1,0.5,0.5,0.7,1,0.7c0.5,0,0.9-0.5,0.9-1c0-0.1,0-0.2-0.1-0.3h0.1c0.5,0,0.9-0.5,0.9-1
			c0-0.5-0.5-0.9-1-0.9c-0.2,0-0.4,0.1-0.5,0.2c-0.1-0.4-0.5-0.8-1.1-0.7c-0.5,0-0.9,0.5-0.8,1.1c0,0.1,0,0.2,0.1,0.3h-0.1
			C1400.3,793.2,1400,793.6,1400,794.2L1400,794.2z M1433.2,766.5c0,0.2,0.2,0.4,0.4,0.4s0.4-0.2,0.4-0.4c0-0.2-0.2-0.4-0.4-0.4
			S1433.2,766.3,1433.2,766.5L1433.2,766.5z M1424.9,780.8c0,0.3,0.3,0.6,0.6,0.6c0.3,0,0.6-0.3,0.6-0.6c0-0.3-0.3-0.6-0.6-0.6
			C1425.1,780.2,1424.9,780.5,1424.9,780.8L1424.9,780.8z M1424.9,782.8c0,0.4,0.3,0.7,0.7,0.7c0.4,0,0.7-0.3,0.7-0.7
			c0-0.4-0.3-0.7-0.7-0.7C1425.2,782,1424.9,782.3,1424.9,782.8L1424.9,782.8z M1422.8,784c0,0.6,0.5,1,1,1c0.6,0,1-0.5,1-1
			c0-0.6-0.5-1-1-1S1422.8,783.5,1422.8,784L1422.8,784z M1423.4,781.9c0,0.3,0.3,0.6,0.6,0.6c0.3,0,0.6-0.3,0.6-0.6
			s-0.3-0.6-0.6-0.6C1423.7,781.3,1423.4,781.5,1423.4,781.9L1423.4,781.9z M1421.3,783.1c0,0.3,0.3,0.6,0.6,0.6
			c0.3,0,0.6-0.3,0.6-0.6s-0.3-0.6-0.6-0.6C1421.6,782.4,1421.3,782.8,1421.3,783.1L1421.3,783.1z M1422.9,779.5
			c0,0.5,0.4,0.9,0.9,0.9c0.5,0,0.9-0.4,0.9-0.9s-0.4-0.9-0.9-0.9C1423.4,778.6,1422.9,779,1422.9,779.5L1422.9,779.5z M1424,777.7
			c0,0.3,0.2,0.6,0.6,0.6c0.3,0,0.6-0.2,0.6-0.6c0-0.4-0.2-0.6-0.6-0.6C1424.3,777.2,1424,777.4,1424,777.7L1424,777.7z
			 M1421.3,779.1c0,0.3,0.2,0.6,0.6,0.6c0.4,0,0.6-0.2,0.6-0.6c0-0.3-0.2-0.6-0.6-0.6C1421.5,778.5,1421.3,778.8,1421.3,779.1
			L1421.3,779.1z M1421.2,781.1c0,0.5,0.4,0.9,0.9,0.9s0.9-0.4,0.9-0.9c0-0.5-0.4-0.9-0.9-0.9S1421.2,780.6,1421.2,781.1
			L1421.2,781.1z M1419.4,782.1c0,0.5,0.4,0.8,0.8,0.8c0.5,0,0.8-0.4,0.8-0.8c0-0.5-0.4-0.8-0.8-0.8
			C1419.8,781.2,1419.4,781.6,1419.4,782.1L1419.4,782.1z M1419.9,780c0,0.3,0.3,0.6,0.6,0.6c0.3,0,0.6-0.3,0.6-0.6
			s-0.3-0.6-0.6-0.6C1420.2,779.3,1419.9,779.6,1419.9,780L1419.9,780z M1417.9,802.2c0,0.3,0.3,0.6,0.6,0.6s0.6-0.3,0.6-0.6
			s-0.3-0.6-0.6-0.6C1418.2,801.6,1417.9,801.9,1417.9,802.2L1417.9,802.2z M1401.8,777.2c0,0.3,0.3,0.6,0.6,0.6s0.6-0.3,0.6-0.6
			s-0.3-0.6-0.6-0.6S1401.8,776.9,1401.8,777.2L1401.8,777.2z M1401.1,775.8c0,0.3,0.3,0.6,0.6,0.6c0.3,0,0.6-0.3,0.6-0.6
			c0-0.3-0.3-0.6-0.6-0.6C1401.4,775.2,1401.1,775.5,1401.1,775.8L1401.1,775.8z M1401.7,790.7c0.6,0,1.1-0.5,1.1-1.4v-1.6
			c0-0.6,0-1.2,0.4-1.8c0,0.2,0,0.4,0,0.6c0,1.3,0.7,2.2,0.7,3.4c0,0.5-0.1,0.7-0.5,0.7c-0.3,0-0.3-0.3-0.4-0.3c0,0-0.1,0.2-0.1,0.4
			c0,0.3,0.2,0.8,0.8,0.8c0.5,0,0.9-0.5,0.9-1c0-1.3-1-2.9-1-4.3c0-0.6,0.2-1,0.3-1.4c0,3,2.6,5.2,2.6,6.4c0,0.3-0.2,0.5-0.5,0.5
			c-0.3,0-0.5-0.3-0.5-0.5c0-0.1,0-0.1,0-0.1c-0.1,0-0.4,0.3-0.4,0.7c0,0.5,0.4,1.1,1.1,1.1c0.8,0,1.3-0.7,1.3-1.3
			c0-1.6-3.1-4-3.1-6.5c0-0.4,0.1-1.1,0.4-1.7c-1.9,1.2-2.6,3-2.6,4.4c0,1.3,0,2-0.7,2c-0.3,0-0.4-0.3-0.5-0.3
			c-0.1,0-0.1,0.3-0.1,0.3C1400.9,790.4,1401.3,790.7,1401.7,790.7L1401.7,790.7z M1427.6,775.6c0.7,0,1.1-0.3,1.1-0.5
			c0,0-0.1-0.1-0.3-0.1s-0.6,0-1.3-0.1c-0.6-0.1-1.1-0.3-1.3-0.3c0,0-0.1,0-0.1,0.1C1425.7,775,1426.4,775.6,1427.6,775.6
			L1427.6,775.6z M1424.3,773.8c0.2-0.1,1,0.1,2.1-0.5c0.1-0.1,0.3-0.1,0.4-0.1c0.5,0,0.4,0.6,0.8,0.6s0.8-0.3,1.1-0.3
			c0.4,0,1.1,1.4,1.1,2.1c0,0.7-1.1,1.2-2.6,1.2c-1.9,0-3.2-1.8-3.2-2.9C1424.2,773.8,1424.3,773.8,1424.3,773.8L1424.3,773.8z
			 M1402,796.4c-0.5,0.1-1.3,0.9-1.3,2.2c0,1.4,1.5,3.7,4.2,3.7c2.1,0,2.8-1.6,2.8-2.6c0-2.3-1.4-3.8-3.2-3.8c-1,0-1.8,0.7-1.8,1.8
			c0,1,0.7,2.5,2.6,2.5c0.8,0,1.3-0.6,1.3-1.3c0-0.7-0.6-1.7-1.5-1.7c-0.3,0-0.5,0.2-0.5,0.5s0.5,0.7,1.1,0.7c0.1,0,0.3,0,0.3,0
			s0,0.1,0,0.2c0,0.3-0.3,0.5-0.8,0.5c-0.7,0-1.4-0.6-1.4-1.4c0-0.5,0.5-0.9,1.1-0.9c1.3,0,2.1,1.2,2.1,2.4c0,1-0.6,1.7-1.7,1.7
			C1402.6,800.7,1401.5,798.6,1402,796.4L1402,796.4z M1400.6,780c-0.3,0.1-1,0.5-1,1.2c0,0.5,0.4,0.9,0.9,0.9c0.3,0,0.5,0,0.6-0.1
			c-0.4-0.4-0.6-0.8-0.6-1.3C1400.4,780.4,1400.5,780.2,1400.6,780L1400.6,780z M1396.9,780.2c0,0.1,0,0.1,0,0.2
			c0,0.7,0.4,1.1,0.8,1.1s0.8-0.2,1.2-0.7c-0.2,0-0.3,0-0.5,0C1397.8,780.8,1397.2,780.7,1396.9,780.2L1396.9,780.2z M1396.4,781.5
			c0,1.1,0.3,1.7,0.9,1.7c0.5,0,1.1-0.3,1.8-1c-0.6,0.1-1,0.2-1.4,0.2C1397.2,782.4,1396.8,782.2,1396.4,781.5L1396.4,781.5z
			 M1419.1,805.2c0.7,0,0.7,0,0.9,0c0.2,0,0.2,0.1,0.2,0.2c0,0.3-0.7,0.7-2,0.7c-0.7,0-1.2-0.4-1.3-0.8c-0.7,0.5-1.8,0.9-3,0.9
			c-3.1,0-3.8-1.3-4.8-1.8c-0.7-0.3-1.8,0.3-3.4-1.4c0.2,0,0.5,0,0.7,0c1.4,0,2.1-0.7,2.1-1.8c0-0.1,0-0.3,0-0.4
			c0.4,0.2,1.4,0.9,1.6,2.2c0,0.1,0.6,0.3,1,0.3c0.5,0,1.2-0.2,1.3-1.1c1.8-0.1,3-1.2,3.3-2.6c0.6,0.2,1.4,0.8,1.5,1.1
			c0.2-0.1,0.5-0.1,0.9-0.1c0.5,0,1,0.1,1.6,0.3c0-0.2,0-0.4,0.4-0.4c0.4,0,0.3,0.5,0.5,0.7c0.1,0.1,0.4,0.2,0.4,0.5
			s-0.2,0.4-0.4,0.4c0,0-0.1,0-0.2,0c-0.3,0.1-0.3,2.3-1.5,2.3c-0.9,0-1.7-0.7-2.1-1.8c-0.1-0.3-0.3-0.5-0.5-0.5
			c-0.2,0-0.4,0-0.7,0.3c-0.8,0.9-2.1,1.7-3.8,1.7c-0.5,0-0.9,0-1,0l0,0c0,0.1,0.5,0.5,1.6,0.5c2.7,0,3.3-1.4,3.7-1.4
			c0,0,0.2,0,0.3,0.2C1416.9,804.9,1418.3,805.2,1419.1,805.2L1419.1,805.2L1419.1,805.2z M1410.6,774.9c1,0,1.4,0.8,1.4,1.9
			c0,0.4-0.1,1-0.3,1s-0.2-0.3-0.2-0.7c0-0.4-0.1-0.5-0.2-0.5c-0.2,0-0.4,0.6-0.4,1.1c0,0.3,0,0.7,0.3,0.7c0.1,0,0.3-0.1,0.4-0.2
			c0,0.7-0.6,1.3-1.3,1.3c-1.3,0-1.8-1.6-1.9-2.5c-0.8,0.8-1.5,1.4-2.9,1.4c-1.2,0-1.7-0.9-1.7-1.8c0-0.2,0.1-0.9,0.4-0.9
			c0.4,0,0,1.2,0.7,1.2c0.2,0,0.5-0.1,0.7-0.6c0.1-0.3,0.2-0.6,0.2-0.9c0-0.4-0.1-0.7-0.4-0.7c-0.2,0-0.6,0.2-0.7,0.3
			c0.4-1.1,1.2-1.7,2.1-1.7c1.2,0,1.8,1,1.8,2.2c0,0.2,0,0.3,0,0.5C1409.2,775.5,1409.8,774.9,1410.6,774.9L1410.6,774.9z
			 M1406.8,765.9c0-0.1-0.4-0.2-1-0.2c-0.9,0-0.8,0.8-1.5,0.8s-0.6-0.8-1.5-0.8c-0.6,0-1.1,0.1-1.1,0.2c0,0.2,0.7,0.1,0.7,0.6
			c0,0.5-1.5,0.7-1.5,1c0,0.1,0.1,0.1,0.3,0.1c0.3,0,0.8-0.1,1.2-0.1c0.2,0,0.4,0,0.4,0.2c0,0.4-0.8,1-0.8,1.3
			c0,0.1,0.1,0.1,0.1,0.1c0.3,0,0.8-0.7,1.3-0.7c0.8,0,0.3,1.7,0.7,1.7s0.2-1.7,0.9-1.7c0.5,0,0.9,1.1,1.2,1.1
			c0.1,0,0.2-0.1,0.2-0.2c0-0.3-0.4-0.9-0.4-1.4c0-0.2,0.2-0.4,0.4-0.4c0.3,0,0.8,0.2,1,0.2c0.1,0,0.2,0,0.2-0.1
			c0-0.4-1.3-0.7-1.3-1.2C1406.1,766.1,1406.8,766.1,1406.8,765.9L1406.8,765.9z M1428.1,795.6c-0.3,0-2,2.4-3.2,2.4
			c-0.3,0-0.5-0.5-0.5-0.9c0-0.2,0.1-0.4,0.6-0.5c2.6-0.6,2-2.6,4.2-2.6c1.2,0,2.6,0.8,2.6,2.7c0,2-2.9,4.4-3.3,4.4
			c-0.3,0-0.7-0.5-0.7-0.8c0-0.1,0-0.2,0.3-0.4c1.4-0.6,2.2-1.9,2.2-2.6c0-0.1-0.1-0.3-0.3-0.3c-0.2,0-1.3,2.5-2.6,2.5
			c-0.8,0-1.6-0.7-1.6-1.1c0-0.6,2.5-1.8,2.5-2.6C1428.4,795.7,1428.2,795.6,1428.1,795.6L1428.1,795.6z M1429.7,794.6
			c-0.2,0-0.4,0.2-0.4,0.6c0,0.4,0.3,0.7,0.5,0.8c0.1,0,0.3,0.1,0.4,0.1c0.4,0,0.7-0.1,0.7-0.5
			C1431,795.3,1430.3,794.6,1429.7,794.6L1429.7,794.6z M1410.4,767.5c0,0.3,0.9,0.8,1.4,0.8c0.2,0,0.3-0.3,0.3-0.7
			s-0.2-0.5-0.6-0.5C1411,767.1,1410.4,767.2,1410.4,767.5L1410.4,767.5z M1411.9,770.4c0-0.9-2.4-2.6-2.4-3.3c0,0,0,0,0-0.1
			c0.2-0.5,2.1-0.8,2.1-1.2c0-0.2-0.3-0.2-0.5-0.2c-1.4,0-3.4,0.5-3.4,1s1.8,1.8,1.8,2.4c0,0.2-0.1,0.2-0.3,0.2
			c-0.5,0-1.6-0.6-2.1-0.6c-0.2,0-0.3,0.2-0.3,0.4c0,0.7,0.8,2.1,0.8,2.5c0,0,0,0.1-0.1,0.1c-0.3,0-1.5-1.4-1.9-1.4
			c-0.2,0-0.2,0.2-0.2,0.5v0.5c0,0.3,0,0.5-0.2,0.5c-0.4,0-0.6-1.1-0.9-1.1c-0.4,0-0.5,2-0.8,2c-0.4,0,0-2.2-0.5-2.2
			c-0.5,0-1,1.4-1.3,1.4c-0.1,0-0.1-0.1-0.1-0.2c0-0.4,0.2-1.1,0.2-1.6c0-0.2,0-0.3-0.2-0.3c-0.5,0-1.4,0.7-1.8,0.7
			c0,0-0.1,0-0.1-0.1c0-0.4,1.6-1.4,1.6-2.1c0-0.5-2.2-0.2-2.2-0.7s1.6-0.9,1.6-1.4c0-0.4-1.9-0.6-2.7-0.6c-0.9,0-1.3,0.1-1.3,0.3
			c0,0.4,2,0.5,2,0.8s-2,1.2-2,1.8c0,0.4,2.9,0,2.9,0.5c0,0.5-2.6,2.7-2.6,3.5c0,0.2,0.1,0.2,0.3,0.2c0.7,0,2.8-1.4,3.4-1.4
			c0.2,0,0.2,0.2,0.2,0.4c0,0.4-0.1,1-0.1,1.4c0,0.3,0.1,0.6,0.4,0.6c0.5,0,1-0.9,1.4-0.9c0.5,0,0.2,2.8,0.9,2.8c0.6,0,0.8-3,1.2-3
			s0.7,0.8,1,0.8c0.4,0,0.2-1.6,0.7-1.6c0.5,0,2,1.9,2.7,1.9c0.2,0,0.3-0.2,0.3-0.4c0-0.8-1.1-2.6-1.1-3.2c0-0.1,0-0.2,0.2-0.2
			c0.6,0,2.2,0.8,3.1,0.8C1411.7,770.8,1411.9,770.7,1411.9,770.4L1411.9,770.4z M1432.2,787.8c0.2-0.7,0.5-1.2,1-2.1
			c-0.5-0.2-1.7-0.8-1.7-1.7c0-1,1.3-1.9,1.5-1.9c0.1,0,0.1,0.1,0.1,0.3c0,0.5-0.2,1.4-0.2,1.9c0,0.4,0.3,0.8,0.5,0.8
			c0.2,0,0.9-0.9,0.9-1.8c0-1.6-1.4-2.1-1.8-2.1s-1.1,0.7-2.9,0.7c-3.2,0-4-3.2-4-4.7v-0.1c0.1,0,0.4,0.4,1.4,0.4
			c0.5,0,1-0.1,1.7-0.1c1.7,0,2.6,1.2,3.7,2.9c0.7,0.4,2.2,1.1,2.2,3c0,1.7-1.7,2.6-2.1,4.4c0.7-0.1,1.1-1.3,1.7-1.3
			c0.4,0,0.5,0.3,0.5,0.7c0,0.7-0.4,1.7-1.1,2.3c0,0,0-0.1,0-0.2c0-0.4-0.2-1-0.6-1c-0.7,0-1,0.8-1.4,1.4c-0.4-1.6-1-2.9-2-3.7
			c-1-0.8-2.9-0.4-2.9-2c0-0.4,0.3-1,0.3-1.4c0-0.2,0-0.3-0.1-0.4c1.4,0.5,0.9,1.4,1.8,2.5c0.5,0.6,2,1.2,3,3.8c0-0.1,0-0.3,0-0.4
			c0-2.2-2.9-4.4-3.2-5.3c1.7,0.2,2,0.6,2.9,2.9C1431.7,786.1,1432.2,787.2,1432.2,787.8L1432.2,787.8z M1400.3,775.5
			c0.1-0.2,0.1-0.5,0.1-0.8c0-0.7-0.3-1.9-1.3-1.9c-0.6,0-1,0.5-1,1C1398.1,775,1399.2,775.5,1400.3,775.5L1400.3,775.5z
			 M1399,779.3c-0.5,0-1-0.6-1-1.1c0-0.3,0.2-0.7,0.4-0.7c0,0,0.1,0,0.1,0.1c0.1,0.7,0.6,1.1,1,1.3c0,0,0.1,0,0.1,0.1
			C1399.6,779.1,1399.3,779.3,1399,779.3L1399,779.3z M1400.7,777.9c0,0.2-0.1,0.5-0.4,0.5c-0.5,0-0.9-0.8-0.9-1.2
			c0-0.3,0.2-0.3,0.4-0.3c0.1,0,0.1,0,0.2,0c0.1,0.1,0.1,0.4,0.3,0.6C1400.4,777.6,1400.7,777.8,1400.7,777.9L1400.7,777.9z
			 M1400.2,776.2c-0.1,0-0.2,0-0.3,0c-0.5,0-1.1,0.1-1.7,0.5c-1.3,0.8-1.1,2.2-1.3,2.6c0,0,0,0.1,0,0.2s0.1,0.3,0.3,0.3
			c0.2,0,0.2,0,0.2,0c0.4,0,0.7,0.2,1.3,0.2c0.3,0,0.7-0.1,1.2-0.4c1.1-0.5,1.4-1.9,1.4-2.2s-0.2-0.2-0.4-0.5
			c-0.2-0.3-0.1-0.4-0.2-0.6C1400.7,776.3,1400.5,776.3,1400.2,776.2L1400.2,776.2z M1401.8,778.7c-0.3,0.4-0.7,1-0.7,1.8
			c0,0.8,0.5,1.4,1.2,1.4s1.1-0.6,1.1-1.2C1403.5,779.6,1402.5,778.9,1401.8,778.7L1401.8,778.7z M1398.6,775.8c0,0-0.4,0.3-0.9,0.3
			c-0.6,0-1.1-0.5-1.1-1.1c0-0.5,0.2-0.9,0.8-1.2c0,0.1,0,0.2,0,0.2C1397.2,774.9,1397.7,775.5,1398.6,775.8L1398.6,775.8z
			 M1425.1,784.6c0-0.3,0.3-0.5,0.6-0.5c0.3,0,0.6,0.2,0.6,0.5s-0.2,0.6-0.6,0.6C1425.4,785.2,1425.1,784.9,1425.1,784.6
			L1425.1,784.6z M1425.5,802c0.1,0,0.2,0,0.2,0.3s-0.1,0.7-0.7,1.1c-0.4,0.2-0.9,0.5-1.6,0.5c0.1-0.4,0.2-0.7,0.2-1.1
			c0-0.1,0-0.2,0-0.3h0.2C1424.9,802.4,1425.4,802,1425.5,802L1425.5,802z M1425.6,800.4c0.1-0.1,0.1-0.3,0.1-0.4v-0.3
			c0-0.4-0.7-0.7-1.5-0.7c-1.1,0-1.6,0.5-1.6,0.7v0.7c0,0.3,0.7,0.6,1.4,0.6C1424.7,800.9,1425.2,800.8,1425.6,800.4L1425.6,800.4z
			 M1426.3,800.6c-0.4,0.3-1.3,0.9-2.9,0.9c-0.8,0-1.1-0.2-1.3-0.2c-0.1,0-0.3,0.1-0.5,0.3c-0.4,0.4-0.8,1.2-0.8,2.1
			c0,0.6,0.5,1.2,1.3,1.2c2.8,0,4.9-1.8,4.9-3.2C1427.2,800.9,1426.7,800.6,1426.3,800.6L1426.3,800.6z M1426.9,787.9
			c0,0.4,0.1,0.8,0.5,0.8c0.3,0,0.6-0.5,0.6-1c0-0.6-0.1-1-0.1-1.3c0-0.1,0-0.1,0.1-0.1c0.2,0,0.4,0.6,0.7,0.6
			c0.3,0,0.7-0.5,0.8-0.5c0,0,0,0,0,0.1c0,0.2-0.3,0.7-0.3,0.9s0.8,0.2,0.8,0.3c0,0.2-0.9,0.2-1.3,0.4c-0.4,0.2-0.7,0.4-0.7,0.7
			s0.3,0.4,0.7,0.4c1,0,1.7-0.5,1.9-0.5c0,0,0.1,0,0.1,0.1c0,0.1-0.5,0.6-0.5,0.8s0.9,0.5,0.9,0.7c0,0-0.1,0-0.2,0
			c-0.2,0-0.4,0-0.6,0c-0.1,0-0.2,0-0.3,0.1s0,0.9-0.2,0.9c-0.2,0-0.7-1.8-1.8-1.8c-0.2,0-0.3,0.1-0.3,0.4c0,0.6,0.6,1.3,1.1,1.7
			c0.2,0.2,0.7,0.3,0.7,0.4c0,0.2-0.9,0-0.9,0.3s0.1,0.7,0.1,0.9c0,0.1,0,0.2-0.1,0.2c-0.2,0-0.6-0.8-0.8-0.8
			c-0.2,0-0.6,0.5-0.7,0.5c0,0-0.1,0-0.1-0.1c0-0.3,0.5-1.1,0.5-1.9c0-0.4,0-1.1-0.5-1.1c-0.4,0-0.7,0.6-0.9,1.1
			c-0.1,0.3,0,1.7-0.3,1.7c-0.2,0-0.2-0.8-0.5-0.8c-0.2,0-0.7,0.4-0.8,0.4l0,0c0-0.2,0.4-0.7,0.4-0.9s-1-0.2-1-0.4
			c0-0.1,0.4-0.2,0.7-0.2c0.7-0.1,1.8-0.7,1.8-1.4c0-0.8-0.8-1.2-1.4-1.7c-0.3-0.2-0.6-0.3-0.6-0.4c0-0.1,0.4-0.1,0.5-0.1
			c0.2,0,0.4,0,0.4-0.2c0-0.1,0-0.4,0-0.6c0-0.1,0-0.3,0.1-0.3c0.2,0,0.5,0.7,0.7,0.7s0.6-0.6,0.8-0.6c0.1,0,0.1,0,0.1,0.2
			C1427.1,786.8,1426.9,787.4,1426.9,787.9L1426.9,787.9z M1419.8,783.5c0.2,1.2,1.8,0.6,1.8,2.2c0,0.2,0,0.5,0,0.8s0,0.6,0.3,0.6
			c0.3,0,0.3-0.2,0.3-0.4c0-0.2,0-0.5,0-0.7c0-0.5,0.4-0.6,0.6-0.6c0.6,0,1,0.6,1.8,0.6c-0.2,0.9-2.1,0.7-2.1,1.8
			c0,0.5,0.5,0.6,0.8,0.6c0.3,0,0.4,0,0.4-0.3c0-0.1,0-0.3,0-0.4c0,0,0-0.1,0.1-0.1c0.3,0,1.9,1.2,1.9,1.7c0,0.3-1.7,0.7-2.1,0.7
			c-0.1,0-0.2-0.1-0.2-0.2c0-0.1,0.2-0.4,0.2-0.6c0-0.1-0.2-0.2-0.8-0.2c-0.3,0-0.5,0-0.5,0.2c0,0.4,0.7,0.9,0.7,1.2
			s-0.2,0.5-0.7,0.5c-0.4,0-1-0.3-1-0.8c0-0.4,0.4-0.8,0.4-1.1c0-0.1,0-0.2-0.2-0.2c-0.5,0-0.7,1.4-2.7,1.7c0.3-0.3,0.6-0.6,0.6-1.2
			c0-0.3-0.1-0.6-0.1-0.9c0-0.4,0.2-0.7,0.5-0.7c0.5,0,0.8,0.7,1.2,0.7c0.2,0,0.4-0.2,0.4-0.4c0-1.1-2.1-0.9-2.1-2.6
			C1419.3,784.8,1419.4,784.3,1419.8,783.5L1419.8,783.5z M1422.7,793.3c0,0.2,0.1,0.4,0.3,0.4s0.4-0.2,0.4-0.4
			c0-0.3-0.3-0.7-0.5-0.7c-0.1,0-0.1,0.2-0.1,0.4C1422.8,793,1422.7,793.2,1422.7,793.3L1422.7,793.3z M1421.8,791.3
			c1.5,0.3,2.5,1.4,2.5,2.6c0,0.7-0.5,1.4-1.3,1.4c-0.7,0-1.3-0.5-1.3-1.3c0-0.6,0.5-1.3,0.5-2
			C1422.1,791.8,1422,791.5,1421.8,791.3L1421.8,791.3z M1419.9,793.9c0.1,0.1,0.2,0.3,0.2,0.4c0,0.2-0.1,0.5-0.1,0.7
			c0,0.3,0.3,0.7,0.7,0.7c0.4,0,0.7-0.3,0.7-0.7C1421.3,794.4,1420.7,793.9,1419.9,793.9L1419.9,793.9z M1424.8,792.9
			c0.1,0.2,0.1,0.3,0.1,0.5c0,0.4-0.3,0.8-0.3,1.2c0,0.5,0.4,0.9,0.9,0.9c0.6,0,1-0.5,1-1C1426.6,793.7,1425.9,793,1424.8,792.9
			L1424.8,792.9z M1420.2,792.2c0.7,0.1,0.8,0.3,0.8,0.5c0,0.3-0.3,0.4-0.6,0.4c-0.2,0-0.4,0-0.7,0c-0.3,0-0.7,0.1-0.9,0.4
			c0.2,0,0.5,0.2,0.5,0.5c0,0.8-2.3,0.1-2.3,2.4c0,1.2,1.2,2.5,3.1,2.5c0.9,0,1.5-0.3,1.5-0.7c0-0.3-0.5-0.1-0.5-0.3
			c0-0.1,0.2-0.3,0.2-0.5c0-0.1,0-0.2-0.2-0.2c-0.3,0-0.7,0.4-1.8,0.4c-0.8,0-1.6-0.5-1.6-1.1c0-0.1,0-0.2,0.1-0.2s0.2,0,0.3,0
			s0.1,0,0.1-0.2c0-0.2,0-0.6,0.3-0.6c0.3,0,0.8,1,2.9,1c0.7,0,2-0.1,2.6-0.6c0,1.7-1.3,3.8-4,3.8c-2.8,0-4.3-2.3-4.3-4.3
			c0-2.3,1.8-4.3,4.4-4.3c0.7,0,1.2,0.2,1.2,0.5C1421.3,791.8,1420.3,791.6,1420.2,792.2L1420.2,792.2z M1409.5,776.7
			c0-0.2,0-0.3-0.1-0.3c-0.1,0-0.3,0.2-0.5,0.6c0,0.5,0.1,0.7,0.3,0.7C1409.2,777.7,1409.5,777.2,1409.5,776.7L1409.5,776.7z
			 M1407.4,777.3c0.2,0,0.4-0.2,0.7-0.6c0-0.2,0-0.4,0-0.6c0-0.3-0.1-0.6-0.3-0.6c-0.4,0-0.7,1.2-0.7,1.6
			C1407.2,777.2,1407.3,777.3,1407.4,777.3L1407.4,777.3z M1409.8,778.6c0.4,0,0.8-1.4,0.8-2.4c0-0.2,0-0.4-0.1-0.4
			c-0.3,0-0.8,1.4-0.8,2.3C1409.7,778.5,1409.7,778.6,1409.8,778.6L1409.8,778.6z M1406.2,777.8c0.5,0,1.1-2.8,1.1-3.2
			c0-0.1,0-0.2-0.1-0.2c-0.5,0-1.1,2.7-1.1,3.2C1406,777.7,1406.1,777.8,1406.2,777.8L1406.2,777.8z M1407.9,778.9
			c-0.6,0-0.7,0.7-0.7,2.4c-0.5-1-1.2-2.2-2.1-2.2c-0.6,0-0.8,0.4-0.8,1.1c0,0.1,0,0.4,0,0.5c0.1-0.2,0.3-0.3,0.6-0.3
			c0.6,0,1.4,0.5,1.9,1.1c-0.6-0.1-1.1-0.2-1.6-0.2c-0.3,0-0.6,0-0.8,0.1c-0.4,0.2-1,0.8-1,1.9c0,0.1,0,0.3,0,0.5
			c0.5-1.1,1.9-1.7,2.9-1.7c0.2,0,0.3,0,0.4,0c-0.5,0.4-0.6,1.1-0.6,1.7c0,0.2-0.1,0.2-0.3,0.2c0,0.5,0.4,1.2,0.4,1.7
			c0,0.1-0.1,0.2-0.1,0.3c0,0.7,0.7,1.1,0.7,1.6c0,0.1,0,0.2-0.1,0.2c0,0.3,0.7,0.7,0.8,0.9c0.1,0.3,0.2,0.3,0.3,0.3
			c0.2,0,0.7-0.3,0.7-0.6c0-0.1-0.1-0.2-0.1-0.2c-0.3-0.2-0.4-0.7-0.5-0.9c-0.1,0-0.2,0-0.3-0.2c0-0.2-0.1-0.9-0.2-1.2
			c-0.2,0-0.3-0.1-0.3-0.5c0-0.2,0.1-0.9,0.1-1.2c-0.1,0-0.2,0-0.2-0.2c0-0.5,0.5-0.8,0.6-1.4c0.8,0.6,1,1.2,1,1.9
			c0,0.3,0,0.6-0.1,0.8c0.6-0.3,1.5-0.7,1.5-1.8c0-0.5-0.2-1.1-1.9-1.4c0.5-0.2,1.2-0.3,1.7-0.3c0.9,0,1.5,0.3,1.6,0.9
			c0.2-0.3,0.3-0.6,0.3-0.9c0-0.7-0.6-1.2-1.4-1.2c-0.9,0-1.7,0.5-2.6,1c0.4-0.8,0.7-1.3,1.1-1.3c0.1,0,0.1,0,0.2,0
			C1408.9,779.6,1408.2,778.9,1407.9,778.9L1407.9,778.9z M1398.3,769.5c0,0.3-1.1,1.3-1.5,1.3c-0.1,0-0.2-0.2-0.2-0.3
			c0-0.3,0.1-0.7,0.3-0.8c0.2-0.2,0.6-0.3,1-0.3C1398.1,769.4,1398.3,769.4,1398.3,769.5L1398.3,769.5z M1432.9,789.9
			c0.7,0,1.3,0.9,1.3,2.2c0,1.2-0.6,2.6-1.5,3.4c0-2.1-2.4-1.4-2.4-2.9c0-0.6,0.4-1,1-1c0.5,0,0.8,0.1,1.1,0.4
			c-0.3-0.2-0.4-0.6-0.4-0.9C1431.9,790.4,1432.2,789.9,1432.9,789.9L1432.9,789.9z M1421.8,774.4c-0.1-0.2-0.6-0.3-0.7-0.3
			c-0.7,0-1.1,0.5-1.2,0.9c0-0.1-0.1-0.3-0.1-0.5c0-0.7,0.4-1.4,1.5-1.4c0.9,0,1.3,0.5,1.4,0.5c0.1,0,0.3-0.1,0.4-0.1
			c0.2,0,0.2,0.2,0.2,0.4c0,0.6-0.3,1.7-0.9,2.1c-0.1-0.2-0.3-0.5-0.7-0.7c-0.1,0-0.1-0.1-0.1-0.2
			C1421.5,774.7,1421.6,774.5,1421.8,774.4L1421.8,774.4z M1419.6,775.5c0.4,0.4,0.7,0.5,1.1,0.5c0.2,0,0.4,0,0.5,0s0.2,0,0.2,0.2
			s-0.1,0.4-0.3,0.6c0.2,0.1,0.4,0.1,0.6,0.1c0.8,0,1.8-0.5,1.8-1.9c0.2,0.2,0.3,0.7,0.3,0.9c0,1.7-1.2,2.3-2.2,2.3
			c-0.7,0-1.1-0.2-1.1-0.2c-0.3,0-0.3,0.6-0.5,0.5c-0.3,0-0.7-0.8-0.7-1.7C1419.2,776.3,1419.4,775.9,1419.6,775.5L1419.6,775.5z
			 M1409.3,771.1c0,0.5,1.8,3.1,2.2,3.1c0.3,0,0.5-0.5,0.5-0.9c0-0.1,0-0.2-0.1-0.3C1411.6,772.5,1409.7,771.1,1409.3,771.1
			L1409.3,771.1L1409.3,771.1z M1430.7,769.8c0-1-2.6-1.3-2.6-1.6c0-0.2,1.4-0.5,2.1-0.5c-1.1-1.4-2.8-1.3-2.8-1.6
			c0-0.1,1.2-0.4,2.2-0.4c0.9,0,1.8,0.2,1.8,0.9c0,0.4-0.3,0.8-0.3,1.4c0,0.3,0.2,0.6,0.6,0.6c0.5,0,0.6-0.5,0.6-1
			c0-0.4-0.1-0.7-0.1-0.9c0-0.6,0.4-1,1-1c0.5,0,0.6,0.2,1.4,0.2c-0.4,0.2-0.5,0.7-0.5,0.9c0,0.6,0.4,1,0.4,2.4
			c0,2.4-2.1,3.2-4.9,3.2c-0.7,0-1.5,0-2.3-0.2c-0.1,0-0.1,0-0.1-0.1c0-0.2,1-0.3,1-1.2c0-0.4-0.1-0.7-0.1-0.8s0-0.1,0.1-0.1
			c0.2,0,0.7,0.8,1.5,0.8C1430.2,770.7,1430.7,770.6,1430.7,769.8L1430.7,769.8z M1433.3,768.4c0,1.3-0.9,2.4-2.8,2.7
			c0.2,0,0.4,0,0.5,0c2,0,2.8-0.9,2.8-1.8C1433.9,768.9,1433.7,768.5,1433.3,768.4L1433.3,768.4z M1431.8,780.5
			c0-0.3-0.8-0.3-0.8-1.2c0-0.1,0-0.4-0.2-0.4c-0.3,0,0,0.8-0.3,0.8c-0.7,0-0.9-1.3-1.1-1.3c0,0-0.1,0-0.1,0.2c0,0.2,0,0.3,0,0.5
			c0,0.2,0,0.3-0.2,0.3c-0.4,0-0.7-0.9-1.1-0.9c-0.1,0-0.1,0-0.1,0.1c0,0.2,0.3,0.5,0.3,0.7c0,0.4-0.9,0.2-0.9,0.5
			c0,0.1,0.1,0.2,0.3,0.2c0.3,0,0.8-0.1,1-0.1c0.1,0,0.4,0,0.4,0.2s-0.5,0.5-0.5,0.7c0,0.1,0.1,0.1,0.2,0.1c0.4,0,1.1-0.7,1.6-0.7
			c0.1,0,0.3,0,0.3,0.2s-0.5,0.5-0.5,0.8c0,0.1,0,0.2,0.1,0.2c0.3,0,0.6-0.7,1.1-0.7c0.2,0,0.5,0.1,0.6,0.1
			C1431.8,780.6,1431.8,780.6,1431.8,780.5L1431.8,780.5z M1421.2,769c0-0.2-0.6-0.5-0.6-0.7c0,0,0,0,0.1,0c0.2,0,0.4,0,0.7,0
			c0.2,0,0.2-0.8,0.4-0.8c0.1,0,0.3,0.8,0.4,0.8c0.2,0,0.5-0.2,0.7-0.2l0,0c0,0.1-0.4,0.5-0.4,0.6s0.8,0.3,0.8,0.4s-0.8,0.1-0.8,0.3
			c0,0.1,0.3,0.5,0.3,0.7l0,0c-0.1,0-0.6-0.2-0.7-0.2c-0.2,0-0.4,0.6-0.6,0.6c0,0-0.1,0-0.1-0.1v-0.6c0,0,0-0.1-0.1-0.1
			c-0.2,0-0.5,0-0.6,0s-0.1,0-0.1,0C1420.6,769.5,1421.2,769.1,1421.2,769L1421.2,769z M1424.1,771.8c-1,0-1.7-0.5-1.7-0.8
			c0-0.1,0.1-0.2,0.2-0.2c0.3,0,1,0.5,1.3,0.5c0,0,0.1,0,0.1-0.1c0-0.3-0.2-0.7-0.2-0.9c0,0,0-0.1,0.1-0.1c0.4,0,1,0.2,1.3,0.2
			c0.1,0,0.1,0,0.1-0.1c0-0.3-0.9-0.9-0.9-1.1s1.2-0.4,1.2-0.7s-1.6-0.1-1.6-0.4c0-0.2,0.3-0.6,0.3-0.7c0-0.1,0-0.1-0.2-0.1
			c-0.2,0-0.8,0.3-1.1,0.3c-0.1,0-0.3,0-0.3-0.2c0-0.3,0.6-0.7,1.4-0.7c1.4,0,2.3,1,2.3,2.8C1426.4,771.3,1424.9,771.8,1424.1,771.8
			L1424.1,771.8z M1414,797.9c0,0.1,0,0.3-0.2,0.4c-0.2-0.3-0.6-0.4-0.8-0.4c-1.5,0-0.9,2.3-2.6,2.3c-0.7,0-0.7-0.1-1-0.1
			c-0.1,0-0.2,0-0.2,0.1c0,0.4,0.5,1.3,2.1,1.3c1.5,0,3-0.9,3-2.2c0-0.2,0-0.4-0.1-0.6c0-0.1,0.2-0.1,0.3-0.1c0.2,0,0.4,0.3,0.6,0.3
			c0.2,0,0.4-0.2,0.4-0.4c0-0.2-0.1-0.3-0.3-0.4c0.1-0.1,0.2-0.2,0.2-0.4c0-0.2-0.2-0.5-0.5-0.5c-0.1,0-0.2,0-0.3,0.1
			c0-0.3-0.2-0.5-0.5-0.5c-0.2,0-0.4,0.2-0.4,0.4C1413.9,797.4,1414,797.6,1414,797.9L1414,797.9z M1410,798.5
			c-0.4,0-1.1-0.5-1.1-0.7c0-0.2,0.2-0.3,0.4-0.3c0.4,0,1,0.5,1,0.8C1410.3,798.4,1410.2,798.5,1410,798.5L1410,798.5z
			 M1405.8,795.2c1.2,0.3,1.8,0.9,1.9,1.8c0.1,0.7,0.3,1.3,0.5,1.7c0.4,0.4,1.1,0.8,1.7,0.8c0.5,0,0.9-0.2,0.9-0.7s-0.7-1.8-1.8-1.8
			c-0.1,0-0.2,0-0.4,0c-0.1,0-0.3,0-0.4-0.1c-0.2-0.2-0.3-1.3-0.7-2.1c-0.5-0.7-1-0.9-1.7-0.9c-0.5,0-1.1,0.3-1.1,0.7
			C1404.8,794.7,1404.9,794.8,1405.8,795.2L1405.8,795.2z M1413.4,793.3c0-0.7-1.4-0.7-1.4-1.8c0-0.2,0.2-0.7,0.5-1.1
			c0.1,0.7,0.4,1.2,1.1,1.4c1.3,0.5,1.5,1.2,1.5,2.1c0,1.3-0.9,3-3.4,3c-1.9,0-3.4-1.8-3.4-3.2c0-0.4,0.1-0.8,0.4-0.8
			c0.2,0,0.3,0.2,0.5,0.4c0.7,0.7,1.4,0.8,2.5,0.8C1412.6,794.1,1413.4,793.7,1413.4,793.3L1413.4,793.3z M1413.4,794.3
			c-0.5,0.2-0.7,0.2-0.7,0.7c0,0.2,0,0.4,0,0.6s0,0.3,0.2,0.3c0.5,0,1.4-0.9,1.4-1.7c0-0.2-0.1-0.3-0.2-0.3
			C1414,794,1413.8,794.2,1413.4,794.3L1413.4,794.3z M1408.7,786.8c0-0.9,2.2-1.4,2.2-2.7c0-0.2-0.1-0.5-0.2-0.8
			c0.8,0.4,1.4,1.1,1.4,1.8c0,1-1,1.6-1,2.2c0,0.7,1.1,0.8,1.1,1.9c0,0.7-1.1,1.7-1.1,2.7c0,0.7,0.5,1.4,1.3,1.4
			c-0.3,0-0.5,0.1-0.7,0.1c-1.5,0-3.1-1.2-3.1-2.8c0-0.7,0.3-1.4,0.8-1.9c0.4,0.4,0.8,0.6,1.1,0.6c0.2,0,0.3-0.1,0.3-0.3
			C1410.8,788.4,1408.7,787.9,1408.7,786.8L1408.7,786.8z"/>
		<path fill="#787878" d="M1411.7,819c0.4,0,1.1-0.1,1.7-1c-0.3-0.7-0.6-2.2-0.6-2.8c-0.2-2.8,0.9-5.4,2-5.4c0.8,0,1.5,0.7,1.6,2.1
			c0.2,3.4-0.9,4.9-1.4,6.1c0.1,0.5,0.9,1.3,1.6,1.3c0.3,0,0.6-0.1,0.7-0.2c0-0.2-0.1-0.4-0.1-0.8c0-2,1.2-3.6,2.3-3.6
			c0.8,0,1.4,1.1,1.4,2c0,0.9-0.7,1.7-1.8,2.4c0.2,0.2,0.6,0.3,0.8,0.3c1.6,0,2.4-2,3.1-3.7c0.1-0.3,0.3-0.8,0.7-0.8
			c0.7,0,0.9,4.4,2,4.4c0.5,0,0.8-1,0.8-1.8c0-0.6-0.2-0.6-0.2-1.4c0-0.9,0.5-1.7,1.1-1.7c0.4,0,0.5,0.4,0.5,0.8
			c0,1.9-1.3,5.2-3.2,5.2c-1.4,0-1.3-2.5-1.8-2.5c-0.6,0-1.3,2.5-4.1,2.5c-0.4,0-0.9-0.2-1.3-0.7c-0.7,0.4-1.2,0.6-1.8,0.6
			c-1,0-1.4-1-1.9-1c-0.5,0-1,1.1-2.8,1.1c-1.3,0-1.5-1.9-2-1.9c-0.4,0-1,1.9-1.7,1.9c-1.2,0-1.4-3.1-2.4-3.1
			c-0.8,0-3.4,3.2-4.1,3.1c-0.3,0-0.4-0.2-0.4-0.5c0-0.4,0.4-1.4,0.5-2c0.2-0.8,0.4-1.9,0.5-2.2c0.1-0.3,0.4-0.5,0.7-0.5
			c0.1,0,0.2,0.2,0.2,0.4c0.1,0.7,0.3,1.4,0.6,1.4c0.4,0,1.7-2.5,2.5-2.5c0.9,0,1,3.9,2.2,3.9c0.4,0,0.7-0.5,1-1.1
			c0-1,0.3-2.6,1.1-2.6c0.6,0,0.8,1.3,0.4,2.5C1410.2,818.6,1411.1,819,1411.7,819L1411.7,819z M1432.7,816.3c0-0.7-0.6-1.7-1.6-1.7
			c-1.2,0-2.4,1.4-2.4,3.3c0,1.8,1,2.3,2.1,2.3c1.8,0,3-1.6,3.6-2.8c0.3,0.8,0.4,2.8,1.1,2.8c0.3,0,0.5-0.1,0.8-0.9
			c0.8-1.9,1.6-4.1,2.8-4.1c0.4,0,0.2,0.7,1.2,0.7c0.5,0,0.8-0.4,0.8-0.8c0-0.6-0.6-1.1-1.4-1.1c-2.7,0-3.2,4-3.6,4
			c-0.7,0-0.5-3.2-1-3.2c-0.4,0-0.7,0.5-0.7,0.8c-0.4,1.4-1.4,3.6-3,3.6c-0.4,0-1-0.1-1-0.5C1430.2,818.3,1432.7,818.2,1432.7,816.3
			L1432.7,816.3z M1415.5,812.6c0-0.8-0.2-1.1-0.7-1.1c-0.6,0-0.8,1.9-0.7,3.7c0.1,1.2,0.2,1.4,0.4,1.4
			C1414.9,816.6,1415.6,814.4,1415.5,812.6L1415.5,812.6z M1411,811c0-0.4-0.4-0.7-0.8-0.7c-0.5,0-1,0.6-1,1.2
			c0,0.4,0.3,0.8,0.8,0.8C1410.6,812.3,1411,811.6,1411,811L1411,811z M1419.7,816.8c0-0.5-0.2-0.8-0.6-0.8c-0.2,0-0.8,0.3-0.8,1.2
			c0,0.7,0.2,1,0.4,1.2C1419.5,818,1419.7,817.3,1419.7,816.8L1419.7,816.8z M1430.7,815.7c0.6,0,0.7,0.7,0.6,1.1
			c-0.1,0.4-0.6,0.9-1.4,1C1429.7,817.6,1429.6,815.7,1430.7,815.7L1430.7,815.7z M1392,816.2c0-1.1,0-2.3,0.5-3.9
			c0.2-0.8,0.5-1.2,1.2-1.3c0.6-0.1,0.6,0.5,0.4,1.3c-0.3,1.7-0.4,2.5-0.3,4.4c0.1,2.1,1,2.9,2,2.9c1.5,0,2.1-1.2,2.4-3.1
			c0.2-1.4,0-2.2-0.1-2.7c-0.1-0.2-0.3-0.8-0.4-1.2c-0.1-1,0.4-1.6,0.8-1.8c0.5-0.1,0.7,0.1,0.9,0.7c0.2,0.9,0.3,2.1,0.2,3.8
			c-0.1,2.3-1.2,5.2-4.1,5.1C1393.3,820.4,1392.2,818.7,1392,816.2L1392,816.2z"/>
	</g>
</g>
<g id="Logo">
</g>
</svg>
