<svg xmlns="http://www.w3.org/2000/svg" xmlns:xlink="http://www.w3.org/1999/xlink" preserveAspectRatio="xMidYMid" width="100" height="100" viewBox="0 0 100 100">
  <defs>
    <style>

      .cls-2 {
        fill: #00f6ff;
      }
    </style>
  </defs>
  <path d="M50.000,100.000 C22.429,100.000 0.000,77.570 0.000,50.000 C0.000,22.431 22.429,0.000 50.000,0.000 C77.570,0.000 100.000,22.431 100.000,50.000 C100.000,77.570 77.570,100.000 50.000,100.000 ZM50.000,2.222 C23.656,2.222 2.222,23.655 2.222,50.000 C2.222,76.346 23.656,97.778 50.000,97.778 C76.344,97.778 97.778,76.346 97.778,50.000 C97.778,23.655 76.344,2.222 50.000,2.222 ZM71.719,72.826 C71.719,72.826 28.290,72.826 28.290,72.826 C26.320,72.826 24.718,71.224 24.718,69.256 C24.718,69.256 24.718,38.941 24.718,38.941 C24.718,36.973 26.320,35.371 28.290,35.371 C28.290,35.371 39.978,35.371 39.978,35.371 C39.978,35.371 39.978,30.742 39.978,30.742 C39.978,28.776 41.581,27.174 43.550,27.174 C43.550,27.174 56.450,27.174 56.450,27.174 C58.419,27.174 60.022,28.776 60.022,30.742 C60.022,30.742 60.022,35.371 60.022,35.371 C60.022,35.371 71.719,35.371 71.719,35.371 C73.684,35.371 75.282,36.973 75.282,38.941 C75.282,38.941 75.282,69.256 75.282,69.256 C75.282,71.224 73.684,72.826 71.719,72.826 ZM57.799,30.742 C57.799,30.000 57.194,29.397 56.450,29.397 C56.450,29.397 43.550,29.397 43.550,29.397 C42.806,29.397 42.200,30.000 42.200,30.742 C42.200,30.742 42.200,35.371 42.200,35.371 C42.200,35.371 57.799,35.371 57.799,35.371 C57.799,35.371 57.799,30.742 57.799,30.742 ZM73.060,38.941 C73.060,38.199 72.459,37.593 71.719,37.593 C71.719,37.593 28.290,37.593 28.290,37.593 C27.545,37.593 26.940,38.199 26.940,38.941 C26.940,38.941 26.940,49.909 26.940,49.909 C26.940,49.909 45.191,49.909 45.191,49.909 C45.430,49.909 45.639,50.001 45.820,50.129 C45.820,50.129 45.820,47.947 45.820,47.947 C45.820,47.333 46.317,46.836 46.931,46.836 C46.931,46.836 53.077,46.836 53.077,46.836 C53.691,46.836 54.188,47.333 54.188,47.947 C54.188,47.947 54.188,49.909 54.188,49.909 C54.188,49.909 72.487,49.909 72.487,49.909 C72.701,49.909 72.890,49.986 73.060,50.091 C73.060,50.091 73.060,38.941 73.060,38.941 ZM48.042,49.058 C48.042,49.058 48.042,56.055 48.042,56.055 C48.042,56.055 51.966,56.055 51.966,56.055 C51.966,56.055 51.966,49.058 51.966,49.058 C51.966,49.058 48.042,49.058 48.042,49.058 ZM73.060,51.950 C72.890,52.055 72.701,52.131 72.487,52.131 C72.487,52.131 54.188,52.131 54.188,52.131 C54.188,52.131 54.188,57.166 54.188,57.166 C54.188,57.780 53.691,58.277 53.077,58.277 C53.077,58.277 46.931,58.277 46.931,58.277 C46.317,58.277 45.820,57.780 45.820,57.166 C45.820,57.166 45.820,51.912 45.820,51.912 C45.639,52.040 45.430,52.131 45.191,52.131 C45.191,52.131 26.940,52.131 26.940,52.131 C26.940,52.131 26.940,69.256 26.940,69.256 C26.940,69.998 27.545,70.603 28.290,70.603 C28.290,70.603 71.719,70.603 71.719,70.603 C72.459,70.603 73.060,69.998 73.060,69.256 C73.060,69.256 73.060,51.950 73.060,51.950 Z" id="path-1" class="cls-2" fill-rule="evenodd"/>
</svg>
