<svg xmlns="http://www.w3.org/2000/svg" xmlns:xlink="http://www.w3.org/1999/xlink" preserveAspectRatio="xMidYMid" width="100" height="100" viewBox="0 0 100 100">
  <defs>
    <style>

      .cls-2 {
        fill: #00f6ff;
      }
    </style>
  </defs>
  <path d="M50.000,100.000 C22.431,100.000 0.000,77.570 0.000,50.000 C0.000,22.430 22.431,-0.000 50.000,-0.000 C77.569,-0.000 100.000,22.430 100.000,50.000 C100.000,77.570 77.569,100.000 50.000,100.000 ZM50.000,2.222 C23.654,2.222 2.222,23.656 2.222,50.000 C2.222,76.346 23.654,97.778 50.000,97.778 C76.345,97.778 97.778,76.346 97.778,50.000 C97.778,23.656 76.345,2.222 50.000,2.222 ZM65.556,75.556 C65.556,75.556 34.445,75.556 34.445,75.556 C33.830,75.556 33.333,75.059 33.333,74.445 C33.333,74.445 33.333,25.556 33.333,25.556 C33.333,24.941 33.830,24.444 34.445,24.444 C34.445,24.444 65.556,24.444 65.556,24.444 C66.170,24.444 66.667,24.941 66.667,25.556 C66.667,25.556 66.667,74.445 66.667,74.445 C66.667,75.059 66.170,75.556 65.556,75.556 ZM64.445,26.667 C64.445,26.667 35.556,26.667 35.556,26.667 C35.556,26.667 35.556,73.333 35.556,73.333 C35.556,73.333 64.445,73.333 64.445,73.333 C64.445,73.333 64.445,26.667 64.445,26.667 ZM38.889,31.853 C38.889,31.853 61.111,31.853 61.111,31.853 C61.725,31.853 62.222,32.350 62.222,32.965 C62.222,32.965 62.222,61.109 62.222,61.109 C62.222,61.723 61.725,62.220 61.111,62.220 C61.111,62.220 38.889,62.220 38.889,62.220 C38.275,62.220 37.778,61.723 37.778,61.109 C37.778,61.109 37.778,32.965 37.778,32.965 C37.778,32.350 38.275,31.853 38.889,31.853 ZM40.000,59.998 C40.000,59.998 60.000,59.998 60.000,59.998 C60.000,59.998 60.000,34.076 60.000,34.076 C60.000,34.076 40.000,34.076 40.000,34.076 C40.000,34.076 40.000,59.998 40.000,59.998 ZM50.000,64.538 C51.454,64.538 52.639,65.721 52.639,67.177 C52.639,68.633 51.454,69.816 50.000,69.816 C48.542,69.816 47.361,68.633 47.361,67.177 C47.361,65.721 48.542,64.538 50.000,64.538 Z" id="path-1" class="cls-2" fill-rule="evenodd"/>
</svg>
