<svg xmlns="http://www.w3.org/2000/svg" xmlns:xlink="http://www.w3.org/1999/xlink" preserveAspectRatio="xMidYMid" width="100" height="100" viewBox="0 0 100 100">
  <defs>
    <style>

      .cls-2 {
        fill: #00f6ff;
      }
    </style>
  </defs>
  <path d="M50.000,100.000 C22.429,100.000 0.000,77.570 0.000,50.000 C0.000,22.431 22.429,-0.000 50.000,-0.000 C77.570,-0.000 100.000,22.431 100.000,50.000 C100.000,77.570 77.570,100.000 50.000,100.000 ZM50.000,2.222 C23.656,2.222 2.222,23.655 2.222,50.000 C2.222,76.346 23.656,97.778 50.000,97.778 C76.345,97.778 97.778,76.346 97.778,50.000 C97.778,23.655 76.345,2.222 50.000,2.222 ZM73.563,73.186 C73.563,73.186 48.746,73.186 48.746,73.186 C48.132,73.186 47.635,72.689 47.635,72.075 C47.635,71.461 48.132,70.964 48.746,70.964 C48.746,70.964 73.563,70.964 73.563,70.964 C74.178,70.964 74.675,71.461 74.675,72.075 C74.675,72.689 74.178,73.186 73.563,73.186 ZM38.503,72.554 C38.310,72.748 38.055,72.862 37.782,72.878 C37.782,72.878 26.502,73.542 26.502,73.542 C26.480,73.544 26.458,73.544 26.437,73.544 C26.143,73.544 25.859,73.427 25.651,73.219 C25.426,72.995 25.309,72.685 25.328,72.368 C25.328,72.368 25.994,61.081 25.994,61.081 C26.010,60.810 26.125,60.554 26.317,60.361 C26.317,60.361 59.952,26.725 59.952,26.725 C60.161,26.517 60.443,26.400 60.738,26.400 C61.033,26.400 61.316,26.517 61.524,26.725 C61.524,26.725 72.140,37.342 72.140,37.342 C72.348,37.550 72.465,37.832 72.465,38.127 C72.465,38.422 72.348,38.704 72.140,38.913 C72.140,38.913 38.503,72.554 38.503,72.554 ZM28.187,61.632 C28.187,61.632 27.875,66.926 27.875,66.926 C30.167,67.014 31.812,68.692 31.863,71.000 C31.863,71.000 37.230,70.684 37.230,70.684 C37.230,70.684 64.328,43.582 64.328,43.582 C64.328,43.582 60.594,39.847 60.594,39.847 C60.594,39.847 34.952,65.489 34.952,65.489 C34.735,65.705 34.451,65.814 34.167,65.814 C33.882,65.814 33.598,65.705 33.381,65.489 C32.947,65.054 32.947,64.351 33.381,63.917 C33.381,63.917 59.022,38.276 59.022,38.276 C59.022,38.276 55.283,34.537 55.283,34.537 C55.283,34.537 28.187,61.632 28.187,61.632 ZM60.738,29.082 C60.738,29.082 56.854,32.966 56.854,32.966 C56.854,32.966 65.899,42.011 65.899,42.011 C65.899,42.011 69.782,38.127 69.782,38.127 C69.782,38.127 60.738,29.082 60.738,29.082 Z" id="path-1" class="cls-2" fill-rule="evenodd"/>
</svg>
