<?xml version="1.0" encoding="utf-8"?>
<!-- Generator: Adobe Illustrator 18.1.0, SVG Export Plug-In . SVG Version: 6.00 Build 0)  -->
<svg version="1.1" id="Layer_1" xmlns="http://www.w3.org/2000/svg" xmlns:xlink="http://www.w3.org/1999/xlink" x="0px" y="0px"
	 viewBox="0 0 100 100" enable-background="new 0 0 100 100" xml:space="preserve">
<g id="Layer_4">
	<g>
		<g>
			<path fill="#7BD454" d="M50,100C22.4,100,0,77.6,0,50C0,22.4,22.4,0,50,0s50,22.4,50,50C100,77.6,77.6,100,50,100L50,100z
				 M50,2.2C23.7,2.2,2.2,23.7,2.2,50c0,26.3,21.4,47.8,47.8,47.8S97.8,76.3,97.8,50C97.8,23.7,76.3,2.2,50,2.2L50,2.2z"/>
		</g>
	</g>
</g>
<g id="Layer_3">
	<g>
		<g>
			<path fill="#7BD454" d="M65.6,75.6H34.4c-0.6,0-1.1-0.5-1.1-1.1V25.6c0-0.6,0.5-1.1,1.1-1.1h31.1c0.6,0,1.1,0.5,1.1,1.1v48.9
				C66.7,75.1,66.2,75.6,65.6,75.6L65.6,75.6z M35.6,73.3h28.9V26.7H35.6V73.3L35.6,73.3z"/>
		</g>
		<g>
			<path fill="#7BD454" d="M61.1,62.2H38.9c-0.6,0-1.1-0.5-1.1-1.1V33c0-0.6,0.5-1.1,1.1-1.1h22.2c0.6,0,1.1,0.5,1.1,1.1v28.1
				C62.2,61.7,61.7,62.2,61.1,62.2L61.1,62.2z M40,60h20V34.1H40V60L40,60z"/>
		</g>
		<path fill="#7BD454" d="M52.6,67.2c0,1.5-1.2,2.6-2.6,2.6c-1.5,0-2.6-1.2-2.6-2.6s1.2-2.6,2.6-2.6C51.5,64.5,52.6,65.7,52.6,67.2z
			"/>
	</g>
</g>
<g>
	<path fill="#7BD454" d="M56,49.7h-6.4c-0.6,0-1,0.4-1,1s0.4,1,1,1H56c0.6,0,1-0.4,1-1S56.6,49.7,56,49.7z"/>
	<path fill="#7BD454" d="M48.3,46.3l-3.6-3.6c-0.4-0.4-1-0.4-1.4,0c-0.4,0.4-0.4,1,0,1.4l2.9,2.9L43.3,50c-0.4,0.4-0.4,1,0,1.4
		c0.2,0.2,0.4,0.3,0.7,0.3s0.5-0.1,0.7-0.3l3.6-3.6C48.7,47.4,48.7,46.7,48.3,46.3z"/>
</g>
</svg>
