<?xml version="1.0" encoding="utf-8"?>
<!-- Generator: Adobe Illustrator 18.1.0, SVG Export Plug-In . SVG Version: 6.00 Build 0)  -->
<svg version="1.1" id="Layer_1" xmlns="http://www.w3.org/2000/svg" xmlns:xlink="http://www.w3.org/1999/xlink" x="0px" y="0px"
	 viewBox="-1.3 -0.2 100 100" enable-background="new -1.3 -0.2 100 100" xml:space="preserve">
<g>
	<g>
		<path fill="#7BD454" d="M48.7,99.8c-27.6,0-50-22.4-50-50s22.4-50,50-50s50,22.4,50,50S76.3,99.8,48.7,99.8L48.7,99.8z M48.7,2
			C22.4,2,1,23.4,1,49.8c0,26.3,21.4,47.8,47.8,47.8s47.8-21.4,47.8-47.8C96.5,23.4,75.1,2,48.7,2L48.7,2z"/>
	</g>
</g>
<path fill="#7BD454" d="M48.7,76.6c-10.6,0-16-2-16-6V29c0-2.9,3.4-7.7,16-7.7c11,0,16,4,16,7.7v41.7C64.7,73.4,61.9,76.6,48.7,76.6
	z M48.7,23.3c-10.2,0-14,3.5-14,5.7v41.6c0,2.5,5.2,4,14,4c10.3,0,14-2,14-3.9V29C62.7,26.8,58.9,23.3,48.7,23.3z"/>
<path fill="#7BD454" d="M59.7,69.2h-22c-0.5,0-0.9-0.4-0.9-0.9V30.6c0-0.5,0.4-0.9,0.9-0.9h22c0.5,0,0.9,0.4,0.9,0.9v37.7
	C60.6,68.8,60.2,69.2,59.7,69.2z M38.6,67.4h20.2V31.5H38.6V67.4z"/>
<circle fill="#7BD454" cx="44.7" cy="25.5" r="0.8"/>
<circle fill="#7BD454" cx="42.7" cy="25.5" r="0.8"/>
<path fill="#7BD454" d="M53.7,26H47c-0.3,0-0.5-0.2-0.5-0.5S46.7,25,47,25h6.7c0.3,0,0.5,0.2,0.5,0.5S54,26,53.7,26z"/>
<path fill="#7BD454" d="M52.5,73H45c-0.7,0-1.2-0.5-1.2-1.3v-0.3c0-0.7,0.5-1.3,1.2-1.3h7.5c0.6,0,1.3,0.5,1.3,1.3v0.3
	C53.6,72.5,53.1,73,52.5,73z M45,71.1c-0.1,0-0.2,0.1-0.2,0.3v0.3c0,0.2,0.1,0.3,0.2,0.3h7.5c0.2,0,0.3-0.2,0.3-0.4l0-0.2
	c0-0.2-0.2-0.3-0.3-0.3H45z"/>
</svg>
