<?xml version="1.0" encoding="utf-8"?>
<!-- Generator: Adobe Illustrator 16.0.4, SVG Export Plug-In . SVG Version: 6.00 Build 0)  -->
<!DOCTYPE svg PUBLIC "-//W3C//DTD SVG 1.1//EN" "http://www.w3.org/Graphics/SVG/1.1/DTD/svg11.dtd">
<svg version="1.1" id="Layer_1" xmlns="http://www.w3.org/2000/svg" xmlns:xlink="http://www.w3.org/1999/xlink" x="0px" y="0px"
	 width="110px" height="64px" viewBox="0 0 110 64" enable-background="new 0 0 110 64" xml:space="preserve">
<g>
	<path fill="#888888" d="M15.95,54.13c-2.687,0-4.479-2.079-4.479-4.437v-9.85c0-2.299,1.792-4.435,4.479-4.435
		c2.661,0,4.4,2.136,4.4,4.435v9.85C20.351,52.048,18.584,54.13,15.95,54.13 M18.312,39.844c0-1.232-0.842-2.494-2.389-2.494
		c-1.495,0-2.389,1.262-2.389,2.494v9.85c0,1.229,0.924,2.49,2.416,2.49c1.521,0,2.363-1.262,2.363-2.49L18.312,39.844
		L18.312,39.844z"/>
	<path fill="#888888" d="M28.277,54.13c-1.058,0-1.655-0.275-2.09-0.492c-0.189-0.084-0.327,0.026-0.327,0.217v4.788
		c0,0.194-0.165,0.357-0.326,0.357h-1.411c-0.192,0-0.329-0.163-0.329-0.357V45.366c0-2.355,1.85-4.439,4.482-4.439
		c2.634,0,4.4,2.11,4.4,4.439v4.327C32.677,51.994,30.967,54.13,28.277,54.13 M30.642,45.366c0-1.233-0.843-2.495-2.364-2.495
		c-1.522,0-2.417,1.262-2.417,2.495v4.327c0,1.229,0.895,2.49,2.39,2.49c1.549,0,2.392-1.262,2.392-2.49L30.642,45.366
		L30.642,45.366z"/>
	<path fill="#888888" d="M44.057,48.434h-5.838c-0.19,0-0.353,0.163-0.353,0.354v0.906c0,1.229,0.92,2.49,2.416,2.49
		c1.52,0,2.337-1.15,2.77-1.776c0.111-0.167,0.327-0.192,0.462-0.11l0.897,0.625c0.354,0.252,0.271,0.442,0.218,0.58
		c-0.381,0.765-1.713,2.628-4.346,2.628c-2.691,0-4.479-2.079-4.479-4.437v-4.327c0-2.302,1.789-4.439,4.479-4.439
		c2.661,0,4.4,2.138,4.4,4.439v2.436C44.682,48.13,44.355,48.434,44.057,48.434 M37.867,45.366v0.904
		c0,0.191,0.162,0.355,0.353,0.355h4.071c0.191,0,0.354-0.164,0.354-0.355v-0.904c0-1.233-0.842-2.495-2.389-2.495
		C38.759,42.871,37.867,44.133,37.867,45.366z"/>
	<path fill="#888888" d="M56.443,53.854h-1.3c-0.192,0-0.383-0.167-0.383-0.353v-8.136c0-1.233-0.84-2.494-2.39-2.494
		c-1.492,0-2.391,1.261-2.391,2.494v8.136c0,0.186-0.188,0.353-0.354,0.353h-1.329c-0.189,0-0.378-0.109-0.378-0.353V41.559
		c0-0.193,0.132-0.357,0.326-0.357h1.168c0.403,0,0.351,0.55,0.623,0.383c0.705-0.438,1.519-0.657,2.359-0.657
		c2.663,0,4.401,2.138,4.401,4.439v8.135C56.797,53.687,56.609,53.854,56.443,53.854z"/>
	<path fill="#888888" d="M66.473,37.697h-2.691c-0.19,0-0.354,0.19-0.354,0.381v15.423c0,0.186-0.19,0.353-0.377,0.353h-1.33
		c-0.165,0-0.354-0.167-0.354-0.353v-15.45c0-0.192-0.19-0.354-0.354-0.354H58.27c-0.189,0-0.354-0.193-0.354-0.385V36.19
		c0-0.164,0.164-0.354,0.354-0.354h8.203c0.188,0,0.351,0.189,0.351,0.354v1.122C66.822,37.504,66.659,37.697,66.473,37.697z"/>
	<path fill="#888888" d="M92.77,35.869h-1.332c-0.166,0-0.352,0.167-0.352,0.358v17.273c0,0.187,0.186,0.354,0.352,0.354h1.332
		c0.188,0,0.379-0.167,0.379-0.354V36.228C93.148,36.036,92.957,35.869,92.77,35.869z"/>
	<path fill="#888888" d="M75.32,53.854h-1.165c-0.41,0-0.247-0.629-0.681-0.325c0,0-0.791,0.6-2.225,0.6
		c-2.525,0-4.48-1.945-4.48-4.435c0-2.604,1.955-4.438,4.48-4.438c0.704,0,1.411,0.273,2.035,0.494
		c0.246,0.079,0.326-0.166,0.326-0.385c0-1.314-0.95-2.492-2.361-2.492c-1.061,0-1.77,0.273-2.338,0.604
		c-0.217,0.135-0.462,0.08-0.567-0.111l-0.573-1.015c-0.108-0.218,0-0.438,0.136-0.518c1.088-0.603,2.147-0.906,3.343-0.906
		c2.521,0,4.398,2.003,4.398,4.439v8.135C75.648,53.687,75.512,53.854,75.32,53.854 M71.25,47.2c-1.578,0-2.417,1.317-2.417,2.493
		c0,1.256,0.95,2.49,2.417,2.49c1.52,0,2.361-1.234,2.361-2.49C73.611,48.514,72.686,47.2,71.25,47.2z"/>
	<path fill="#888888" d="M83.532,40.927c-0.929,0-1.75,0.256-2.429,0.684v-5.474c0-0.192-0.164-0.356-0.326-0.356h-1.411
		c-0.162,0-0.326,0.164-0.326,0.356v13.557c0,2.357,1.793,4.437,4.481,4.437h0.004c0,0,0.004,0,0.007,0c0.01,0,0.022,0,0.032,0
		c0.061,0,0.121-0.005,0.18-0.005c0.027,0,0.055-0.005,0.081-0.005c0.052-0.002,0.104-0.008,0.153-0.012
		c0.021-0.003,0.041-0.008,0.061-0.008c0.406-0.04,0.766-0.13,1.081-0.251c0.003-0.003,0.01-0.003,0.016-0.005
		c0.05-0.018,0.095-0.038,0.146-0.061c1.635-0.682,2.65-2.308,2.65-4.091v-4.328C87.932,43.064,86.191,40.927,83.532,40.927
		 M81.115,45.366c0-1.233,0.895-2.495,2.392-2.495c1.543,0,2.388,1.262,2.388,2.495v4.327c0,0.559-0.177,1.126-0.508,1.573
		c-0.047,0.04-0.091,0.082-0.128,0.125c-0.082,0.105-0.217,0.266-0.433,0.413c-0.249,0.171-0.543,0.292-0.875,0.346
		c-0.006,0-0.012,0-0.016,0c-0.031,0.007-0.062,0.009-0.088,0.016c-0.035,0.003-0.067,0.006-0.104,0.011
		c-0.016,0-0.03,0-0.044,0.002c-0.056,0.004-0.115,0.005-0.175,0.005c-1.488-0.005-2.41-1.262-2.41-2.49V45.366L81.115,45.366z"/>
	<path fill="#888888" d="M104.6,48.434h-5.839c-0.19,0-0.355,0.163-0.355,0.354v0.906c0,1.229,0.925,2.49,2.419,2.49
		c1.519,0,2.337-1.15,2.77-1.776c0.106-0.167,0.326-0.192,0.461-0.11l0.896,0.625c0.354,0.252,0.274,0.442,0.218,0.58
		c-0.378,0.765-1.711,2.628-4.343,2.628c-2.688,0-4.483-2.079-4.483-4.437v-4.327c0-2.302,1.793-4.439,4.483-4.439
		c2.657,0,4.399,2.138,4.399,4.439v2.436C105.225,48.13,104.895,48.434,104.6,48.434 M98.406,45.366v0.904
		c0,0.191,0.164,0.355,0.355,0.355h4.073c0.188,0,0.351-0.164,0.351-0.355v-0.904c0-1.233-0.843-2.495-2.39-2.495
		C99.302,42.871,98.406,44.133,98.406,45.366z"/>
	<path fill="#888888" d="M107.99,41.074c0.345,0,0.674,0.088,0.992,0.262c0.314,0.171,0.563,0.42,0.746,0.745
		c0.182,0.322,0.271,0.662,0.271,1.017c0,0.351-0.09,0.686-0.268,1.008c-0.178,0.318-0.424,0.563-0.743,0.747
		c-0.316,0.176-0.649,0.266-1,0.266s-0.683-0.09-0.999-0.266c-0.319-0.184-0.567-0.429-0.745-0.747
		c-0.177-0.322-0.265-0.657-0.265-1.008c0-0.354,0.09-0.694,0.269-1.018c0.183-0.324,0.433-0.575,0.749-0.744
		C107.314,41.161,107.646,41.074,107.99,41.074 M107.986,41.479c-0.272,0-0.535,0.071-0.788,0.206
		c-0.255,0.139-0.451,0.339-0.599,0.596c-0.146,0.263-0.22,0.532-0.22,0.813c0,0.282,0.072,0.551,0.213,0.81
		c0.142,0.254,0.343,0.449,0.595,0.597c0.254,0.143,0.521,0.214,0.799,0.214c0.281,0,0.551-0.071,0.8-0.214
		c0.254-0.147,0.454-0.343,0.596-0.597c0.142-0.261,0.214-0.527,0.214-0.81c0-0.281-0.072-0.551-0.217-0.813
		c-0.146-0.257-0.344-0.457-0.598-0.596C108.527,41.55,108.264,41.479,107.986,41.479 M107.083,44.168v-2.124h0.428
		c0.408,0,0.634,0.005,0.683,0.008c0.141,0.012,0.252,0.038,0.332,0.083c0.078,0.045,0.145,0.112,0.195,0.208
		c0.055,0.087,0.082,0.19,0.082,0.301c0,0.153-0.052,0.285-0.15,0.394c-0.098,0.107-0.235,0.176-0.416,0.204
		c0.065,0.021,0.117,0.051,0.152,0.078c0.033,0.026,0.084,0.084,0.143,0.163c0.018,0.022,0.068,0.109,0.156,0.26l0.242,0.429h-0.535
		l-0.172-0.347c-0.119-0.229-0.215-0.372-0.293-0.433c-0.08-0.062-0.18-0.09-0.3-0.09h-0.11v0.866H107.083 M107.52,42.962h0.17
		c0.246,0,0.399-0.008,0.459-0.028c0.06-0.02,0.107-0.051,0.141-0.099c0.035-0.048,0.052-0.102,0.052-0.163
		c0-0.058-0.018-0.108-0.052-0.154c-0.032-0.044-0.081-0.078-0.143-0.1c-0.062-0.019-0.215-0.027-0.457-0.027h-0.17V42.962z"/>
	<path fill="#888888" d="M52.848,13.082c0.002-0.015,0-0.11,0-0.11h-0.002c-0.128-1.656-4.912-2.985-10.797-2.985
		c-5.88,0-10.664,1.33-10.792,2.985h-0.002v0.01c0,0.022,0,0.097,0,0.117v1.66c0,0.019-0.004,0.038-0.004,0.057
		c0,1.687,4.837,3.056,10.799,3.056c5.968,0,10.801-1.37,10.801-3.056c0-0.015,0-0.026-0.002-0.042L52.848,13.082L52.848,13.082z"/>
	<path fill="#CBCBCB" d="M25.653,16.512c0-0.006,0.003-0.015,0.003-0.023c0-2.189-5.742-3.964-12.83-3.964
		C5.744,12.524,0,14.299,0,16.487c0,0.009,0.002,0.018,0.002,0.023H0v2.209h0.002c0.046,2.176,5.77,3.937,12.824,3.937
		c7.058,0,12.78-1.761,12.827-3.937h0.005v-2.209L25.653,16.512L25.653,16.512z"/>
	<path fill="#CBCBCB" d="M54.81,27.003c0-0.017-0.008-0.188-0.008-0.188c-0.212-3.201-7.594-5.771-16.676-5.771
		c-9.083,0-16.465,2.571-16.678,5.771h-0.006c0,0-0.002,0.192,0,0.216v2.574h0.006c0.202,3.198,7.59,5.774,16.678,5.774
		s16.475-2.576,16.676-5.774h0.008c0,0,0-0.167,0-0.182V27.003z"/>
	<path fill="#CBCBCB" d="M30.666,7.008C30.58,5.896,26.514,5,21.514,5c-5.002,0-9.063,0.895-9.151,2.008h-0.005v1.176h0.005
		c0.099,1.111,4.158,2.003,9.151,2.003c4.994,0,9.05-0.891,9.149-2.003h0.005V7.008H30.666z"/>
	<path fill="#545454" d="M52.794,14.775v-1.683c-0.079,1.66-4.858,2.998-10.745,2.998c-5.866,0-10.632-1.329-10.741-2.982v1.652
		c0,0.019-0.005,0.038-0.005,0.057c0,1.678,4.812,3.041,10.745,3.041c5.939,0,10.748-1.362,10.748-3.041
		C52.796,14.803,52.796,14.791,52.794,14.775z"/>
	<path fill="#888888" d="M25.653,16.512c-0.042,2.181-5.767,3.944-12.827,3.944c-7.058,0-12.781-1.763-12.825-3.944H0v2.21h0.001
		c0.046,2.175,5.77,3.937,12.825,3.937c7.058,0,12.78-1.761,12.827-3.937h0.005v-2.21H25.653L25.653,16.512z"/>
	<path fill="#888888" d="M54.81,27.003c-0.07,3.243-7.511,5.864-16.684,5.864c-9.145,0-16.568-2.604-16.684-5.835
		c0,0-0.002,2.486,0,2.512v0.062h0.006c0.202,3.198,7.59,5.774,16.678,5.774s16.475-2.576,16.676-5.774h0.008V27.003L54.81,27.003z"
		/>
	<path fill="#888888" d="M21.514,9.087c-5.057,0-9.156-0.916-9.156-2.042v1.139h0.005c0.099,1.111,4.158,2.003,9.151,2.003
		c4.994,0,9.05-0.891,9.149-2.003h0.005V7.045C30.668,8.171,26.57,9.087,21.514,9.087z"/>
</g>
</svg>
