<?xml version="1.0" encoding="utf-8"?>
<!-- Generator: Adobe Illustrator 18.1.0, SVG Export Plug-In . SVG Version: 6.00 Build 0)  -->
<svg version="1.1" id="Layer_1" xmlns="http://www.w3.org/2000/svg" xmlns:xlink="http://www.w3.org/1999/xlink" x="0px" y="0px"
	 viewBox="0 0 100 100" enable-background="new 0 0 100 100" xml:space="preserve">
<g id="Layer_4">
	<g>
		<g>
			<path fill="#7BD454" d="M49.8,100c-27.6,0-50-22.4-50-50c0-27.6,22.4-50,50-50s50,22.4,50,50C99.8,77.6,77.4,100,49.8,100
				L49.8,100z M49.8,2.2C23.5,2.2,2.1,23.7,2.1,50c0,26.3,21.4,47.8,47.8,47.8S97.6,76.3,97.6,50C97.6,23.7,76.2,2.2,49.8,2.2
				L49.8,2.2z"/>
		</g>
	</g>
</g>
<g>
	<path fill="#7BD454" d="M60.2,78.7H39.5c-0.4,0-0.7-0.3-0.7-0.7V45.3c0-0.4,0.3-0.7,0.7-0.7h20.7c0.4,0,0.7,0.3,0.7,0.7v32.6
		C60.9,78.3,60.6,78.7,60.2,78.7L60.2,78.7z M40.2,77.2h19.3V46.1H40.2V77.2L40.2,77.2z"/>
	<path fill="#7BD454" d="M57.2,69.8H42.4c-0.4,0-0.7-0.3-0.7-0.7V50.3c0-0.4,0.3-0.7,0.7-0.7h14.8c0.4,0,0.7,0.3,0.7,0.7V69
		C58,69.4,57.7,69.8,57.2,69.8L57.2,69.8z M43.2,68.3h13.3V51H43.2V68.3L43.2,68.3z"/>
	<path fill="#7BD454" d="M51.6,73.1c0,1-0.8,1.8-1.8,1.8c-1,0-1.8-0.8-1.8-1.8c0-1,0.8-1.8,1.8-1.8C50.8,71.3,51.6,72.1,51.6,73.1z"
		/>
</g>
<g>
	<path fill="#7BD454" d="M73.9,25.1c-0.4,0-0.8-0.3-0.8-0.8v-3.2H25.8v3.2c0,0.4-0.3,0.8-0.8,0.8s-0.7-0.4-0.7-0.8v-4
		c0-0.4,0.3-0.8,0.8-0.8H74c0.4,0,0.8,0.3,0.8,0.8v4C74.7,24.7,74.3,25.1,73.9,25.1z"/>
	<g>
		<line fill="none" x1="50.3" y1="24.3" x2="50.3" y2="20.3"/>
		<path fill="#7BD454" d="M50.3,25.1c-0.4,0-0.8-0.3-0.8-0.8v-4c0-0.4,0.3-0.8,0.8-0.8s0.8,0.3,0.8,0.8v4
			C51.1,24.7,50.7,25.1,50.3,25.1z"/>
	</g>
	<path fill="#7BD454" d="M25.1,38.4c-2.4,0-4.4-2-4.4-4.4s2-4.4,4.4-4.4s4.4,2,4.4,4.4S27.6,38.4,25.1,38.4z M25.1,31.1
		c-1.6,0-2.9,1.3-2.9,2.9s1.3,2.9,2.9,2.9S28,35.6,28,34S26.8,31.1,25.1,31.1z"/>
	<path fill="#7BD454" d="M50.3,38.4c-2.4,0-4.4-2-4.4-4.4s2-4.4,4.4-4.4s4.4,2,4.4,4.4S52.7,38.4,50.3,38.4z M50.3,31.1
		c-1.6,0-2.9,1.3-2.9,2.9s1.3,2.9,2.9,2.9c1.6,0,2.9-1.3,2.9-2.9S51.9,31.1,50.3,31.1z"/>
	<path fill="#7BD454" d="M74.5,38.4c-2.4,0-4.4-2-4.4-4.4s2-4.4,4.4-4.4s4.4,2,4.4,4.4S76.9,38.4,74.5,38.4z M74.5,31.1
		c-1.6,0-2.9,1.3-2.9,2.9s1.3,2.9,2.9,2.9s2.9-1.3,2.9-2.9S76.1,31.1,74.5,31.1z"/>
</g>
</svg>
