<?xml version="1.0" encoding="utf-8"?>
<!-- Generator: Adobe Illustrator 18.1.0, SVG Export Plug-In . SVG Version: 6.00 Build 0)  -->
<svg version="1.1" id="Layer_1" xmlns="http://www.w3.org/2000/svg" xmlns:xlink="http://www.w3.org/1999/xlink" x="0px" y="0px"
	 viewBox="0 0 100 100" enable-background="new 0 0 100 100" xml:space="preserve">
<g>
	<g>
		<g>
			<path fill="#7BD454" d="M50,99.8c-27.6,0-50-22.4-50-50s22.4-50,50-50s50,22.4,50,50S77.6,99.8,50,99.8L50,99.8z M50,2
				C23.7,2,2.2,23.4,2.2,49.8c0,26.3,21.4,47.8,47.8,47.8s47.8-21.4,47.8-47.8S76.3,2,50,2L50,2z"/>
		</g>
	</g>
	<path fill="#7BD454" d="M60,76.6H40c-3.4,0-6-2.6-6-6V29c0-3.4,2.6-6,6-6h20c3.4,0,6,2.6,6,6v41.7C66,74,63.3,76.6,60,76.6z M40,25
		c-2.2,0-4,1.8-4,4v41.6c0,2.2,1.8,4,4,4h20c2.2,0,4-1.8,4-3.9V29c0-2.2-1.8-4-4-4H40z"/>
	<path fill="#7BD454" d="M61,66.8H39c-0.5,0-0.9-0.4-0.9-0.9V30.6c0-0.5,0.4-0.9,0.9-0.9h22c0.5,0,0.9,0.4,0.9,0.9v35.3
		C61.9,66.4,61.5,66.8,61,66.8z M39.9,65h20.2V31.5H39.9V65z"/>
	<path fill="#7BD454" d="M50,73.5c-1.5,0-2.7-1.2-2.7-2.7s1.2-2.7,2.7-2.7c1.5,0,2.7,1.2,2.7,2.7S51.5,73.5,50,73.5z M50,69.1
		c-0.9,0-1.7,0.8-1.7,1.7s0.8,1.7,1.7,1.7s1.7-0.8,1.7-1.7S50.9,69.1,50,69.1z"/>
	<circle fill="#7BD454" cx="50" cy="26.3" r="0.8"/>
	<path fill="#7BD454" d="M52.1,28.9h-4.2c-0.4,0-0.6-0.3-0.6-0.6s0.3-0.6,0.6-0.6h4.2c0.4,0,0.7,0.3,0.7,0.6S52.5,28.9,52.1,28.9z"
		/>
</g>
</svg>
