<?xml version="1.0" encoding="utf-8"?>
<!-- Generator: Adobe Illustrator 18.1.0, SVG Export Plug-In . SVG Version: 6.00 Build 0)  -->
<svg version="1.1" id="Layer_1" xmlns="http://www.w3.org/2000/svg" xmlns:xlink="http://www.w3.org/1999/xlink" x="0px" y="0px"
	 viewBox="-0.9 0 100 100" enable-background="new -0.9 0 100 100" xml:space="preserve">
<g>
	<path fill="#7BD454" d="M48.7-0.8c-27.6,0-50,22.4-50,50s22.4,50,50,50s50-22.4,50-50S76.3-0.8,48.7-0.8z M48.7,97
		C22.3,97,0.9,75.5,0.9,49.2S22.4,1.4,48.7,1.4s47.8,21.5,47.8,47.8S75.1,97,48.7,97z"/>
	<path fill="#7BD454" d="M66.5,36.1H53.1v-3.6h-2.9v-4c0-3.4-2.6-6-6-6h-9.9c-0.6,0-1,0.4-1,1s0.4,1,1,1h9.9c2.2,0,4,1.8,4,4v4h-2.9
		v3.6H31c-3.9,0-7.1,3.2-7.1,7.1v20.2c0,3.9,3.2,7.1,7.1,7.1c0.4,0,0.7-0.2,0.9-0.5l7.9-13.5h18.4L65.5,70c0.2,0.3,0.5,0.5,0.9,0.5
		c4,0,7.2-3.2,7.2-7.1V43.2C73.6,39.3,70.4,36.1,66.5,36.1z M47.3,34.5h3.8V36h-3.8V34.5z M71.6,63.4c0,2.6-2,4.8-4.6,5.1l-7.3-13.4
		c-0.2-0.3-0.5-0.5-0.9-0.5H39.2c-0.4,0-0.7,0.2-0.9,0.5l-7.9,13.5c-2.6-0.3-4.5-2.4-4.5-5.1V43.2c0-2.8,2.3-5.1,5.1-5.1h35.5
		c2.8,0,5.1,2.3,5.1,5.1C71.6,43.2,71.6,63.4,71.6,63.4z"/>
	<polygon fill="#7BD454" points="37.5,42.1 35.3,42.1 35.3,46.4 31.2,46.4 31.2,48.5 35.3,48.5 35.3,52.8 37.5,52.8 37.5,48.5 
		41.6,48.5 41.6,46.4 37.5,46.4 	"/>
	<circle fill="#7BD454" cx="58" cy="47.4" r="2.3"/>
	<circle fill="#7BD454" cx="66.2" cy="47.4" r="2.3"/>
	<circle fill="#7BD454" cx="62.1" cy="43.3" r="2.3"/>
	<circle fill="#7BD454" cx="62.1" cy="51.5" r="2.3"/>
	<rect x="43.8" y="50" fill="#7BD454" width="4.5" height="2.7"/>
	<rect x="49.8" y="50" fill="#7BD454" width="4.5" height="2.7"/>
</g>
</svg>
