<?xml version="1.0" encoding="utf-8"?>
<!-- Generator: Adobe Illustrator 18.1.0, SVG Export Plug-In . SVG Version: 6.00 Build 0)  -->
<svg version="1.1" id="Layer_1" xmlns="http://www.w3.org/2000/svg" xmlns:xlink="http://www.w3.org/1999/xlink" x="0px" y="0px"
	 viewBox="0.4 0 100 100" enable-background="new 0.4 0 100 100" xml:space="preserve">
<g id="Layer_4">
	<g>
		<g>
			<path fill="#7BD454" d="M50.4,100c-27.6,0-50-22.4-50-50s22.4-50,50-50s50,22.4,50,50S78,100,50.4,100L50.4,100z M50.4,2.2
				C24.1,2.2,2.6,23.6,2.6,50c0,26.3,21.4,47.8,47.8,47.8S98.2,76.4,98.2,50C98.2,23.7,76.7,2.2,50.4,2.2L50.4,2.2z"/>
		</g>
	</g>
</g>
<g id="Layer_3">
	<g>
		<g>
			<g>
				<path fill="#7BD454" d="M74.6,75.3H26.2c-0.6,0-1.1-0.5-1.1-1.1V25.8c0-0.6,0.5-1.1,1.1-1.1h48.4c0.6,0,1.1,0.5,1.1,1.1v48.4
					C75.7,74.8,75.2,75.3,74.6,75.3L74.6,75.3z M27.3,73.1h46.2V26.9H27.3V73.1L27.3,73.1z"/>
			</g>
			<g>
				<path fill="#7BD454" d="M73.8,39.9H27c-0.6,0-1.1-0.5-1.1-1.1s0.5-1.1,1.1-1.1h46.8c0.6,0,1.1,0.5,1.1,1.1S74.4,39.9,73.8,39.9
					L73.8,39.9z"/>
			</g>
			<path fill="#7BD454" d="M32.7,29.8c-1.4,0-2.5,1.1-2.5,2.5c0,1.4,1.1,2.5,2.5,2.5c1.4,0,2.5-1.1,2.5-2.5S34.1,29.8,32.7,29.8
				L32.7,29.8z"/>
			<path fill="#7BD454" d="M39.8,29.8c-1.4,0-2.5,1.1-2.5,2.5c0,1.4,1.1,2.5,2.5,2.5s2.5-1.1,2.5-2.5C42.2,30.9,41.1,29.8,39.8,29.8
				L39.8,29.8z"/>
			<path fill="#7BD454" d="M46.8,29.8c-1.4,0-2.5,1.1-2.5,2.5c0,1.4,1.1,2.5,2.5,2.5s2.5-1.1,2.5-2.5S48.2,29.8,46.8,29.8L46.8,29.8
				z"/>
		</g>
	</g>
</g>
<g enable-background="new    ">
	<path fill="#7BD454" d="M45.7,66.4v-1.5l2.9-0.2c0.4,0,0.4-0.1,0.4-0.6v-16h-4.3c-0.3,0-0.4,0-0.4,0.3l-0.4,2.4H42v-4.7h16.8v4.7
		h-1.9l-0.4-2.4c-0.1-0.3-0.1-0.3-0.4-0.3h-4.3v16c0,0.4,0,0.5,0.4,0.5l3.1,0.2v1.5L45.7,66.4L45.7,66.4z"/>
</g>
</svg>
