<?xml version="1.0" encoding="utf-8"?>
<!-- Generator: Adobe Illustrator 18.1.0, SVG Export Plug-In . SVG Version: 6.00 Build 0)  -->
<svg version="1.1" id="Layer_1" xmlns="http://www.w3.org/2000/svg" xmlns:xlink="http://www.w3.org/1999/xlink" x="0px" y="0px"
	 viewBox="3.1 -0.8 100 100" enable-background="new 3.1 -0.8 100 100" xml:space="preserve">
<g>
	<g>
		<path fill="#7BD454" d="M53.1,99.2c-27.6,0-50-22.4-50-50c0-27.6,22.4-50,50-50c27.6,0,50,22.4,50,50
			C103.1,76.7,80.7,99.2,53.1,99.2L53.1,99.2z M53.1,1.4C26.8,1.4,5.3,22.8,5.3,49.2c0,26.3,21.4,47.8,47.8,47.8
			s47.8-21.4,47.8-47.8C100.9,22.8,79.5,1.4,53.1,1.4L53.1,1.4z"/>
	</g>
</g>
<g>
	<g>
		<g>
			<path fill="#7BD454" d="M76.5,24.2c0.3,0,0.6,0.1,0.8,0.3c0.2,0.2,0.3,0.5,0.3,0.9l-0.6,9.8c0,0.3-0.1,0.5-0.3,0.7L47.6,65
				c-0.2,0.2-0.5,0.3-0.8,0.3l0,0c-0.3,0-0.6-0.1-0.8-0.3l-9.2-9.2c-0.2-0.2-0.3-0.5-0.3-0.8c0-0.3,0.1-0.6,0.3-0.8L66,25.1
				c0.2-0.2,0.4-0.3,0.7-0.3L76.5,24.2C76.5,24.2,76.5,24.2,76.5,24.2L76.5,24.2z M74.9,34.6l0.5-8.1l-8.1,0.5L39.2,55l7.6,7.6
				L74.9,34.6L74.9,34.6z"/>
		</g>
		<g>
			<path fill="#7BD454" d="M42.8,49.6c0.3,0,0.6,0.1,0.8,0.3l8.3,8.3c0.4,0.4,0.4,1.1,0,1.6c-0.4,0.4-1.1,0.4-1.6,0L42,51.5
				c-0.4-0.4-0.4-1.1,0-1.6C42.2,49.7,42.5,49.6,42.8,49.6L42.8,49.6z"/>
		</g>
		<g>
			<path fill="#7BD454" d="M71.9,24.6c0.1,0,0.2,0,0.2,0c0.6,0.1,1,0.7,0.9,1.3l0,0.1c0,0.1-0.1,0.2-0.1,0.4c-0.1,0.8,0.2,1.5,0.7,2
				c0.5,0.5,1.2,0.7,2.1,0.7l0.3-0.1c0.6-0.1,1.2,0.3,1.3,0.9c0.1,0.6-0.3,1.2-0.9,1.3c-0.2,0-0.3,0.1-0.4,0.1
				c-1.5,0.1-2.9-0.3-3.9-1.3c-1-1-1.4-2.3-1.3-3.8c0-0.2,0.1-0.4,0.1-0.6C70.9,24.9,71.4,24.6,71.9,24.6L71.9,24.6z"/>
		</g>
	</g>
	<g>
		<path fill="#7BD454" d="M77.4,74.5H28.9c-0.6,0-1.1-0.5-1.1-1.1V24.9c0-0.6,0.5-1.1,1.1-1.1h24.1c0.6,0,1.1,0.5,1.1,1.1
			c0,0.6-0.5,1.1-1.1,1.1H30v46.3h46.3v-23c0-0.6,0.5-1.1,1.1-1.1c0.6,0,1.1,0.5,1.1,1.1v24.1C78.5,74,78,74.5,77.4,74.5L77.4,74.5z
			"/>
	</g>
</g>
</svg>
