<?xml version="1.0" encoding="utf-8"?>
<!-- Generator: Adobe Illustrator 18.1.0, SVG Export Plug-In . SVG Version: 6.00 Build 0)  -->
<svg version="1.1" id="Layer_1" xmlns="http://www.w3.org/2000/svg" xmlns:xlink="http://www.w3.org/1999/xlink" x="0px" y="0px"
	 viewBox="2.3 0.5 100 100" enable-background="new 2.3 0.5 100 100" xml:space="preserve">
<g>
	<g>
		<path fill="#7BD454" d="M52.3,100.5c-27.6,0-50-22.4-50-50s22.4-50,50-50s50,22.4,50,50S79.9,100.5,52.3,100.5L52.3,100.5z
			 M52.3,2.7C26,2.7,4.5,24.2,4.5,50.5s21.4,47.8,47.8,47.8c26.3,0,47.8-21.4,47.8-47.8C100.1,24.2,78.7,2.7,52.3,2.7L52.3,2.7z"/>
	</g>
</g>
<g>
	<g>
		<path fill="#7BD454" d="M69.6,76H29.2V40.9l12.7-12.7h26.6c0.6,0,1.1,0.5,1.1,1.1s-0.5,1.1-1.1,1.1H42.8L31.5,41.8v31.9h35.9V45.6
			c0-0.6,0.5-1.1,1.1-1.1s1.1-0.5,1.1,0.1V76L69.6,76z"/>
	</g>
	<g>
		<path fill="#7BD454" d="M43.5,42.5H30.3c-0.6,0-1.1-0.5-1.1-1.1s0.5-1.1,1.1-1.1h10.9v-11c0-0.6,0.5-1.1,1.1-1.1s1.1,0.5,1.1,1.1
			v13.2C43.4,42.5,43.5,42.5,43.5,42.5z"/>
	</g>
</g>
<g>
	<path fill="#7BD454" d="M53.4,61L53.4,61c-0.3,0-0.5-0.1-0.7-0.3l-5-5c-0.4-0.4-0.4-1,0-1.4l18-18c0.4-0.4,1-0.4,1.4,0l5,5
		c0.4,0.4,0.4,1,0,1.4l-18,18C53.9,60.9,53.6,61,53.4,61z M49.7,55l3.6,3.6L70,42l-3.6-3.6L49.7,55z"/>
	<path fill="#7BD454" d="M60.6,38.7c-0.3,0-0.5-0.1-0.7-0.3c-0.4-0.4-0.4-1,0-1.4L70,26.9c0.9-0.9,2-1.4,3.2-1.4
		c1.2,0,2.4,0.5,3.2,1.4c0.4,0.4,0.4,1,0,1.4s-1,0.4-1.4,0c-1-1-2.6-1-3.6,0L61.3,38.4C61.1,38.6,60.8,38.7,60.6,38.7z"/>
	<path fill="#7BD454" d="M71.4,43c-0.3,0-0.5-0.1-0.7-0.3l-5-5c-0.2-0.2-0.3-0.4-0.3-0.7s0.1-0.5,0.3-0.7l10.8-10.8
		c0.4-0.4,1-0.4,1.4,0l5,5c0.2,0.2,0.3,0.4,0.3,0.7s-0.1,0.5-0.3,0.7L72.1,42.7C71.9,42.9,71.7,43,71.4,43z M67.8,37l3.6,3.6
		l9.4-9.4l-3.6-3.6L67.8,37z"/>
	<path fill="#7BD454" d="M40.4,69c-0.3,0-0.5-0.1-0.7-0.3c-0.2-0.2-0.3-0.6-0.3-0.9c0.2-0.9,1.8-8.5,3.9-10.6c2.3-2.3,5.6-2.3,7.9,0
		c2.4,2.4,2.4,5.5,0,7.9c-2.1,2.1-9.7,3.7-10.6,3.9C40.5,69,40.5,69,40.4,69z M47.3,57.4c-0.9,0-1.8,0.4-2.5,1.2
		c-1.1,1.1-2.3,5-3,8.1c3-0.7,7-1.9,8.1-3c1.6-1.6,1.6-3.5,0-5.1C49,57.8,48.1,57.4,47.3,57.4z"/>
	<path fill="#7BD454" d="M40.4,69c-0.3,0-0.5-0.1-0.7-0.3c-0.4-0.4-0.4-1,0-1.4l5.8-5.8c0.4-0.4,1-0.4,1.4,0s0.4,1,0,1.4l-5.8,5.8
		C40.9,68.9,40.7,69,40.4,69z"/>
</g>
</svg>
