<?xml version="1.0" encoding="utf-8"?>
<!-- Generator: Adobe Illustrator 18.1.0, SVG Export Plug-In . SVG Version: 6.00 Build 0)  -->
<svg version="1.1" id="Layer_1" xmlns="http://www.w3.org/2000/svg" xmlns:xlink="http://www.w3.org/1999/xlink" x="0px" y="0px"
	 viewBox="-0.9 -1.2 100 100" enable-background="new -0.9 -1.2 100 100" xml:space="preserve">
<g enable-background="new    ">
	<path fill="#7BD454" d="M52.8,68.2V66l4-0.3c0.5,0,0.6-0.2,0.6-0.8V42.6h-6.1c-0.4,0-0.5,0-0.6,0.4l-0.6,3.4h-2.6v-6.6h23.5v6.6
		h-2.6l-0.6-3.4c-0.1-0.4-0.2-0.4-0.6-0.4H61V65c0,0.5,0,0.7,0.6,0.7l4.3,0.3v2.2H52.8z"/>
</g>
<g>
	<g>
		<path fill="#7BD454" d="M49.1,98.8c-27.6,0-50-22.4-50-50c0-27.6,22.4-50,50-50c27.6,0,50,22.4,50,50
			C99.1,76.4,76.6,98.8,49.1,98.8L49.1,98.8z M49.1,1.1C22.7,1.1,1.3,22.5,1.3,48.8c0,26.3,21.4,47.8,47.8,47.8s47.8-21.4,47.8-47.8
			C96.9,22.5,75.4,1.1,49.1,1.1L49.1,1.1z"/>
	</g>
</g>
<g>
	<g>
		<path fill="#7BD454" d="M70.9,27.2H24c-0.6,0-1.1-0.5-1.1-1.1c0-0.6,0.5-1.1,1.1-1.1h46.9c0.6,0,1.1,0.5,1.1,1.1
			C72.1,26.7,71.6,27.2,70.9,27.2L70.9,27.2z"/>
	</g>
	<g>
		<path fill="#7BD454" d="M70.9,33.6H24c-0.6,0-1.1-0.5-1.1-1.1c0-0.6,0.5-1.1,1.1-1.1h46.9c0.6,0,1.1,0.5,1.1,1.1
			C72.1,33.1,71.6,33.6,70.9,33.6L70.9,33.6z"/>
	</g>
	<g>
		<path fill="#7BD454" d="M42.9,68.5H24c-0.6,0-1.1-0.5-1.1-1.1c0-0.6,0.5-1.1,1.1-1.1h18.9c0.6,0,1.1,0.5,1.1,1.1
			C44,68,43.5,68.5,42.9,68.5L42.9,68.5z"/>
	</g>
	<g>
		<path fill="#7BD454" d="M36.9,40.9H24c-0.6,0-1.1-0.5-1.1-1.1c0-0.6,0.5-1.1,1.1-1.1h12.9c0.6,0,1.1,0.5,1.1,1.1
			C38,40.4,37.5,40.9,36.9,40.9L36.9,40.9z"/>
	</g>
	<g>
		<path fill="#7BD454" d="M36.9,47.8H24c-0.6,0-1.1-0.5-1.1-1.1c0-0.6,0.5-1.1,1.1-1.1h12.9c0.6,0,1.1,0.5,1.1,1.1
			C38,47.3,37.5,47.8,36.9,47.8L36.9,47.8z"/>
	</g>
	<g>
		<path fill="#7BD454" d="M42.9,54.7H24c-0.6,0-1.1-0.5-1.1-1.1c0-0.6,0.5-1.1,1.1-1.1h18.9c0.6,0,1.1,0.5,1.1,1.1
			C44,54.2,43.5,54.7,42.9,54.7L42.9,54.7z"/>
	</g>
	<g>
		<path fill="#7BD454" d="M42.9,61.6H24c-0.6,0-1.1-0.5-1.1-1.1c0-0.6,0.5-1.1,1.1-1.1h18.9c0.6,0,1.1,0.5,1.1,1.1
			C44,61.1,43.5,61.6,42.9,61.6L42.9,61.6z"/>
	</g>
</g>
</svg>
