<?xml version="1.0" encoding="utf-8"?>
<!-- Generator: Adobe Illustrator 16.0.4, SVG Export Plug-In . SVG Version: 6.00 Build 0)  -->
<!DOCTYPE svg PUBLIC "-//W3C//DTD SVG 1.1//EN" "http://www.w3.org/Graphics/SVG/1.1/DTD/svg11.dtd">
<svg version="1.1" xmlns="http://www.w3.org/2000/svg" xmlns:xlink="http://www.w3.org/1999/xlink" x="0px" y="0px" width="100px"
	 height="100px" viewBox="0 0 100 100" enable-background="new 0 0 100 100" xml:space="preserve">
<g id="Layer_4">
	<g>
		<g>
			<path fill="#7BD454" d="M50,100C22.431,100,0,77.569,0,50S22.431,0,50,0s50,22.431,50,50S77.569,100,50,100L50,100z M50,2.223
				C23.654,2.223,2.223,23.654,2.223,50S23.654,97.777,50,97.777S97.777,76.346,97.777,50S76.346,2.223,50,2.223L50,2.223z"/>
		</g>
	</g>
</g>
<g id="Layer_3">
	<g>
		<path fill="#7BD454" d="M39.184,59.273l1.932-1.596c2.704,3.429,6.085,5.408,10.525,5.408c4.54,0,8.355-3.04,8.355-7.484
			c0-0.048,0-0.096,0-0.096c0-4.731-4.445-7.34-10.525-7.34h-1.836l-0.63-1.399l11.637-13.425H40.92v-2.365h21.15v1.786
			L50.629,45.849c6.42,0.386,11.976,3.381,11.976,9.562c0,0,0,0.048,0,0.096c0,5.89-5.17,9.85-11.012,9.85
			C46.09,65.355,41.936,62.845,39.184,59.273z"/>
	</g>
</g>
</svg>
