<?xml version="1.0" encoding="utf-8"?>
<!-- Generator: Adobe Illustrator 18.1.0, SVG Export Plug-In . SVG Version: 6.00 Build 0)  -->
<svg version="1.1" id="Layer_1" xmlns="http://www.w3.org/2000/svg" xmlns:xlink="http://www.w3.org/1999/xlink" x="0px" y="0px"
	 viewBox="2.7 0.2 100 100" enable-background="new 2.7 0.2 100 100" xml:space="preserve">
<g>
	<g>
		<path fill="#7BD454" d="M52.7,100.2c-27.6,0-50-22.4-50-50c0-27.6,22.4-50,50-50c27.6,0,50,22.4,50,50
			C102.7,77.8,80.3,100.2,52.7,100.2L52.7,100.2z M52.7,2.4C26.4,2.4,5,23.8,5,50.2C5,76.5,26.4,98,52.7,98s47.8-21.4,47.8-47.8
			C100.5,23.8,79.1,2.4,52.7,2.4L52.7,2.4z"/>
	</g>
</g>
<g>
	<g>
		<path fill="#7BD454" d="M57.5,74.1c-0.6,0-1.1-0.5-1.1-1.1V59.7c0-0.6,0.5-1.1,1.1-1.1h13.3c0.6,0,1.1,0.5,1.1,1.1
			c0,0.6-0.5,1.1-1.1,1.1H58.7V73C58.7,73.6,58.2,74.1,57.5,74.1L57.5,74.1z"/>
	</g>
	<g>
		<path fill="#7BD454" d="M57.5,74.1h-23c-0.6,0-1.1-0.5-1.1-1.1V27.4c0-0.6,0.5-1.1,1.1-1.1h36.3c0.6,0,1.1,0.5,1.1,1.1v32.3
			c0,0.3-0.1,0.6-0.3,0.8L58.3,73.8C58.1,74,57.8,74.1,57.5,74.1L57.5,74.1z M35.7,71.9h21.4l12.7-12.7V28.5H35.7V71.9L35.7,71.9z"
			/>
	</g>
	<g>
		<path fill="#7BD454" d="M55.1,36.9H42.1c-0.6,0-1.1-0.5-1.1-1.1c0-0.6,0.5-1.1,1.1-1.1h13.1c0.6,0,1.1,0.5,1.1,1.1
			C56.3,36.4,55.8,36.9,55.1,36.9L55.1,36.9z"/>
	</g>
	<g>
		<path fill="#7BD454" d="M63.8,42.3H42.1c-0.6,0-1.1-0.5-1.1-1.1c0-0.6,0.5-1.1,1.1-1.1h21.7c0.6,0,1.1,0.5,1.1,1.1
			C64.9,41.8,64.4,42.3,63.8,42.3L63.8,42.3z"/>
	</g>
	<g>
		<path fill="#7BD454" d="M63.8,47.7H42.1c-0.6,0-1.1-0.5-1.1-1.1c0-0.6,0.5-1.1,1.1-1.1h21.7c0.6,0,1.1,0.5,1.1,1.1
			C64.9,47.2,64.4,47.7,63.8,47.7L63.8,47.7z"/>
	</g>
	<g>
		<path fill="#7BD454" d="M51.2,53h-9.1c-0.6,0-1.1-0.5-1.1-1.1c0-0.6,0.5-1.1,1.1-1.1h9.1c0.6,0,1.1,0.5,1.1,1.1
			C52.3,52.5,51.8,53,51.2,53L51.2,53z"/>
	</g>
</g>
</svg>
