<?xml version="1.0" encoding="utf-8"?>
<!-- Generator: Adobe Illustrator 18.1.0, SVG Export Plug-In . SVG Version: 6.00 Build 0)  -->
<svg version="1.1" id="Layer_1" xmlns="http://www.w3.org/2000/svg" xmlns:xlink="http://www.w3.org/1999/xlink" x="0px" y="0px"
	 viewBox="0 0 100 100" enable-background="new 0 0 100 100" xml:space="preserve">
<g>
	<g>
		<path fill="#7BD454" d="M50,100C22.4,100,0,77.6,0,50C0,22.4,22.4,0,50,0c27.6,0,50,22.4,50,50C100,77.6,77.6,100,50,100L50,100z
			 M50,2.2C23.7,2.2,2.2,23.7,2.2,50c0,26.3,21.4,47.8,47.8,47.8c26.3,0,47.8-21.4,47.8-47.8C97.8,23.7,76.3,2.2,50,2.2L50,2.2z"/>
	</g>
</g>
<g>
	<g>
		<path fill="#7BD454" d="M74.4,61.6H25.6c-0.6,0-1.1-0.5-1.1-1.1V29.4c0-0.6,0.5-1.1,1.1-1.1h48.9c0.6,0,1.1,0.5,1.1,1.1v31.1
			C75.6,61.1,75.1,61.6,74.4,61.6L74.4,61.6z M26.7,59.4h46.7V30.5H26.7V59.4L26.7,59.4z"/>
	</g>
	<g>
		<path fill="#7BD454" d="M70,57.2H30c-0.6,0-1.1-0.5-1.1-1.1V33.8c0-0.6,0.5-1.1,1.1-1.1h40c0.6,0,1.1,0.5,1.1,1.1v22.2
			C71.1,56.7,70.6,57.2,70,57.2L70,57.2z M31.1,55h37.8V35H31.1V55L31.1,55z"/>
	</g>
	<g>
		<path fill="#7BD454" d="M58.2,71.7H41.8c-0.6,0-1.1-0.5-1.1-1.1c0-0.6,0.5-1.1,1.1-1.1h16.4c0.6,0,1.1,0.5,1.1,1.1
			C59.3,71.2,58.8,71.7,58.2,71.7L58.2,71.7z"/>
	</g>
	<g>
		<g>
			<path fill="#7BD454" d="M44.3,71.1c-0.6,0-1.1-0.5-1.1-1.1v-9c0-0.6,0.5-1.1,1.1-1.1c0.6,0,1.1,0.5,1.1,1.1v9
				C45.5,70.6,45,71.1,44.3,71.1L44.3,71.1z"/>
		</g>
		<g>
			<path fill="#7BD454" d="M55.6,71.1c-0.6,0-1.1-0.5-1.1-1.1v-9c0-0.6,0.5-1.1,1.1-1.1c0.6,0,1.1,0.5,1.1,1.1v9
				C56.8,70.6,56.3,71.1,55.6,71.1L55.6,71.1z"/>
		</g>
	</g>
</g>
<path fill="#7BD454" d="M47.5,39.7H34.9c-0.4,0-0.8-0.3-0.8-0.8s0.3-0.8,0.8-0.8h12.6c0.4,0,0.8,0.3,0.8,0.8S47.9,39.7,47.5,39.7z"
	/>
<path fill="#7BD454" d="M47.5,43.4H34.9c-0.4,0-0.8-0.3-0.8-0.8s0.3-0.8,0.8-0.8h12.6c0.4,0,0.8,0.3,0.8,0.8S47.9,43.4,47.5,43.4z"
	/>
<path fill="#7BD454" d="M47.5,47.2H34.9c-0.4,0-0.8-0.3-0.8-0.8s0.3-0.8,0.8-0.8h12.6c0.4,0,0.8,0.3,0.8,0.8S47.9,47.2,47.5,47.2z"
	/>
<path fill="#7BD454" d="M47.5,50.9H34.9c-0.4,0-0.8-0.3-0.8-0.8s0.3-0.8,0.8-0.8h12.6c0.4,0,0.8,0.3,0.8,0.8S47.9,50.9,47.5,50.9z"
	/>
<path fill="#7BD454" d="M64.6,50.9H52c-0.4,0-0.8-0.3-0.8-0.8s0.3-0.8,0.8-0.8h12.6c0.4,0,0.8,0.3,0.8,0.8S65,50.9,64.6,50.9z"/>
<path fill="#7BD454" d="M64.6,47.2H52c-0.4,0-0.8-0.3-0.8-0.8v-7.5c0-0.4,0.3-0.8,0.8-0.8h12.6c0.4,0,0.8,0.3,0.8,0.8v7.5
	C65.4,46.8,65,47.2,64.6,47.2z M52.7,45.7h11.1v-6H52.7V45.7z"/>
</svg>
