<?xml version="1.0" encoding="utf-8"?>
<!-- Generator: Adobe Illustrator 18.1.0, SVG Export Plug-In . SVG Version: 6.00 Build 0)  -->
<svg version="1.1" id="Layer_1" xmlns="http://www.w3.org/2000/svg" xmlns:xlink="http://www.w3.org/1999/xlink" x="0px" y="0px"
	 viewBox="0 0 100 100" enable-background="new 0 0 100 100" xml:space="preserve">
<g>
	<g>
		<path fill="#7BD454" d="M50,100C22.4,100,0,77.6,0,50S22.4,0,50,0s50,22.4,50,50S77.6,100,50,100L50,100z M50,2.2
			C23.7,2.2,2.2,23.7,2.2,50S23.7,97.8,50,97.8S97.8,76.3,97.8,50S76.3,2.2,50,2.2L50,2.2z"/>
	</g>
</g>
<g>
	<g>
		<path fill="#7BD454" d="M78.3,66.6H21.7c-0.6,0-1.1-0.5-1.1-1.1V34.5c0-0.6,0.5-1.1,1.1-1.1h56.7c0.6,0,1.1,0.5,1.1,1.1v30.9
			C79.4,66.1,78.9,66.6,78.3,66.6L78.3,66.6z M22.8,64.4h54.4V35.6H22.8V64.4L22.8,64.4z"/>
	</g>
	<g>
		<polygon fill="#7BD454" points="31.8,39.8 26.9,39.8 26.9,44.7 31.8,44.7 		"/>
		<polygon fill="#7BD454" points="38.7,39.8 33.7,39.8 33.7,44.7 38.7,44.7 		"/>
		<polygon fill="#7BD454" points="45.5,39.8 40.6,39.8 40.6,44.7 45.5,44.7 		"/>
		<polygon fill="#7BD454" points="52.4,39.8 47.4,39.8 47.4,44.7 52.4,44.7 		"/>
		<polygon fill="#7BD454" points="59.2,39.8 54.3,39.8 54.3,44.7 59.2,44.7 		"/>
		<polygon fill="#7BD454" points="66.1,39.8 61.1,39.8 61.1,44.7 66.1,44.7 		"/>
		<polygon fill="#7BD454" points="72.9,39.8 68,39.8 68,44.7 72.9,44.7 		"/>
	</g>
	<g>
		<polygon fill="#7BD454" points="31.8,46.6 26.9,46.6 26.9,51.5 31.8,51.5 		"/>
		<polygon fill="#7BD454" points="38.7,46.6 33.7,46.6 33.7,51.5 38.7,51.5 		"/>
		<polygon fill="#7BD454" points="45.5,46.6 40.6,46.6 40.6,51.5 45.5,51.5 		"/>
		<polygon fill="#7BD454" points="52.4,46.6 47.4,46.6 47.4,51.5 52.4,51.5 		"/>
		<polygon fill="#7BD454" points="59.2,46.6 54.3,46.6 54.3,51.5 59.2,51.5 		"/>
		<polygon fill="#7BD454" points="66.1,46.6 61.1,46.6 61.1,51.5 66.1,51.5 		"/>
		<polygon fill="#7BD454" points="72.9,46.6 68,46.6 68,51.5 72.9,51.5 		"/>
	</g>
	<g>
		<polygon fill="#7BD454" points="31.8,53.4 26.9,53.4 26.9,58.4 31.8,58.4 		"/>
		<polygon fill="#7BD454" points="66.1,53.4 64,53.4 61.1,53.4 33.7,53.4 33.7,58.4 61.1,58.4 64,58.4 66.1,58.4 		"/>
		<polygon fill="#7BD454" points="72.9,53.4 68,53.4 68,58.4 72.9,58.4 		"/>
	</g>
</g>
</svg>
