<?xml version="1.0" encoding="utf-8"?>
<!-- Generator: Adobe Illustrator 16.0.4, SVG Export Plug-In . SVG Version: 6.00 Build 0)  -->
<!DOCTYPE svg PUBLIC "-//W3C//DTD SVG 1.1//EN" "http://www.w3.org/Graphics/SVG/1.1/DTD/svg11.dtd">
<svg version="1.1" id="Layer_1" xmlns="http://www.w3.org/2000/svg" xmlns:xlink="http://www.w3.org/1999/xlink" x="0px" y="0px"
	 width="55px" height="63px" viewBox="0 0 55 63" enable-background="new 0 0 55 63" xml:space="preserve">
<g>
	<path fill="#888888" d="M44.3,12.474c0.219,1.595,2.63,3.743,3.283,3.691c0.437,0,0.603-2.082,0.603-3.691
		c0-0.925,0.052-1.646-0.436-1.815C46.98,12.222,44.955,12.541,44.3,12.474L44.3,12.474z M44.437,11.768
		c1.739,0,3.332-1.394,3.332-2.62c0-0.57-0.269-1.039-0.956-1.125c0.117,0.152,0.168,0.269,0.168,0.537
		c0,0.922-1.405,1.947-2.933,1.947c-0.551,0-0.718,0.386-0.718,0.586C43.33,11.565,43.78,11.768,44.437,11.768L44.437,11.768z
		 M44.065,9.87c-0.233,0-0.568,0-0.752-0.37c-0.152-0.301-0.102-0.789-0.388-1.007c0.286,0.085,0.588,0.085,0.822,0.085
		c0.755,0,1.476-0.52,2.026-0.52c0.369,0,0.485,0.234,0.485,0.469C46.26,9.266,44.769,9.87,44.065,9.87L44.065,9.87z M6.604,23.03
		c0.567,0,0.451-3.491,1.373-3.491c0.217,0,0.284,0.22,0.284,0.487c0,0.79-0.385,1.946-0.385,2.586c0,0.317,0.083,0.418,0.233,0.418
		c0.402,0,1.105-3.845,1.793-3.845c0.217,0,0.319,0.221,0.319,0.439c0,0.804-1.022,3.122-1.022,3.775c0,0.1,0.033,0.185,0.114,0.185
		c0.421,0,1.258-1.813,1.526-2.721c0.15-0.469,0.352-0.722,0.537-0.722c0.165,0,0.315,0.186,0.315,0.57
		c0,0.907-0.836,3.038-1.573,4.466c-0.57,1.109-1.457,2.704-1.457,3.594c0,0.452,0.085,0.922,0.738,1.494
		C8.328,30.198,7.893,30.1,7.49,29.258c-1.79,3.575,3.301,3.226,1.559,6.396c-0.318-0.57-2.832-1.158-2.832-4.481
		c0-2.872,2.514-4.55,2.514-5.741c0-0.234-0.084-0.436-0.303-0.622c-0.551-0.469-0.566-0.856-1.004-0.856
		c-0.317,0-0.702,0.74-0.301,1.393c0.134,0.22,0.251,0.353,0.251,0.555c0,0.471-0.737,1.728-1.257,1.728
		c-0.518,0-0.921-1.292-0.921-3.372c0-1.847,0.418-3.709,0.939-3.709c0.148,0,0.2,0.1,0.2,0.234c0,0.219-0.067,0.654-0.067,1.394
		C6.269,22.963,6.452,23.03,6.604,23.03L6.604,23.03z M32.259,6.529c0.269,0,0.318,0.655,0.369,1.041
		c0.033,0.201,0.067,0.218,0.149,0.218c0.202,0,0.521-0.773,0.738-0.773c0.317,0,1.173,0.891,2.596,0.891
		c2.024,0,3.936-1.427,3.936-3.944c0-2.436-1.709-3.863-4.069-3.863c-1.123,0-1.942,0.554-2.378,0.554
		C33.331,0.671,32.929,0,32.728,0c-0.085,0-0.166,0.166-0.166,0.452c0,0.184,0,0.772-0.202,0.772c-0.402,0-1.959-1.158-1.959-0.739
		c0,0.387,1.038,1.562,1.038,1.863c0,0.303-1.021,0.587-1.021,0.789c0,0.37,1.09,0.438,1.09,0.908c0,0.47-1.142,0.839-1.142,1.191
		c0,0.287,1.142,0.084,1.142,0.436c0,0.354-0.838,1.528-0.838,1.864c0,0.086,0.017,0.086,0.084,0.086
		C31.071,7.623,32.025,6.529,32.259,6.529L32.259,6.529z M10.773,31.34c-0.018-0.335,0.218-0.653,0.57-0.688
		c0.35-0.049,0.67,0.218,0.703,0.57c0.035,0.353-0.219,0.656-0.57,0.706C11.126,31.946,10.808,31.692,10.773,31.34L10.773,31.34z
		 M8.915,31.861c0.068,0.571,0.604,1.006,1.205,0.938c0.218-0.018,0.419-0.083,0.554-0.169c0.134,0.54,0.551,0.875,1.172,0.808
		c0.619-0.051,1.056-0.571,0.989-1.189c0-0.169-0.052-0.27-0.102-0.388l0.117-0.018c0.586-0.066,1.038-0.604,0.986-1.191
		c-0.065-0.605-0.619-1.041-1.188-0.99c-0.218,0.049-0.403,0.115-0.535,0.234c-0.152-0.502-0.589-0.908-1.207-0.84
		c-0.586,0.035-1.039,0.605-0.971,1.225c0,0.086,0.034,0.222,0.083,0.338l-0.116,0.015C9.314,30.72,8.864,31.206,8.915,31.861
		L8.915,31.861z M46.227,1.075c0,0.234,0.184,0.419,0.419,0.419c0.234,0,0.419-0.185,0.419-0.419c0-0.236-0.185-0.421-0.419-0.421
		C46.41,0.654,46.227,0.839,46.227,1.075L46.227,1.075z M36.882,16.987c0,0.388,0.318,0.705,0.703,0.705
		c0.384,0,0.702-0.317,0.702-0.705c0-0.386-0.318-0.703-0.702-0.703C37.2,16.284,36.882,16.602,36.882,16.987L36.882,16.987z
		 M36.932,19.104c0,0.436,0.354,0.788,0.786,0.788c0.435,0,0.788-0.353,0.788-0.788s-0.354-0.789-0.788-0.789
		C37.286,18.314,36.932,18.668,36.932,19.104L36.932,19.104z M34.521,20.53c0,0.636,0.517,1.158,1.155,1.158
		c0.635,0,1.155-0.522,1.155-1.158c0-0.639-0.521-1.157-1.155-1.157C35.038,19.373,34.521,19.892,34.521,20.53L34.521,20.53z
		 M35.141,18.164c0,0.37,0.303,0.673,0.668,0.673c0.37,0,0.67-0.303,0.67-0.673s-0.3-0.672-0.67-0.672
		C35.443,17.492,35.141,17.794,35.141,18.164L35.141,18.164z M32.943,19.506c0,0.371,0.304,0.67,0.674,0.67
		c0.368,0,0.668-0.299,0.668-0.67c0-0.369-0.3-0.669-0.668-0.669C33.247,18.837,32.943,19.137,32.943,19.506L32.943,19.506z
		 M34.672,15.579c0,0.586,0.485,1.073,1.071,1.073c0.585,0,1.072-0.487,1.072-1.073c0-0.589-0.487-1.075-1.072-1.075
		C35.157,14.504,34.672,14.99,34.672,15.579L34.672,15.579z M35.928,13.513c0,0.354,0.283,0.639,0.637,0.639
		c0.352,0,0.636-0.285,0.636-0.639c0-0.353-0.284-0.638-0.636-0.638C36.211,12.875,35.928,13.16,35.928,13.513L35.928,13.513z
		 M32.896,15.123c0,0.353,0.284,0.641,0.636,0.641s0.637-0.288,0.637-0.641c0-0.351-0.285-0.637-0.637-0.637
		S32.896,14.772,32.896,15.123L32.896,15.123z M32.812,17.307c0,0.572,0.452,1.023,1.021,1.023c0.57,0,1.021-0.451,1.021-1.023
		c0-0.57-0.451-1.022-1.021-1.022C33.264,16.284,32.812,16.736,32.812,17.307L32.812,17.307z M30.703,18.381
		c0,0.522,0.435,0.958,0.953,0.958c0.52,0,0.955-0.436,0.955-0.958c0-0.52-0.436-0.955-0.955-0.955
		C31.138,17.426,30.703,17.861,30.703,18.381L30.703,18.381z M31.271,16.016c0,0.369,0.302,0.672,0.669,0.672
		c0.37,0,0.671-0.303,0.671-0.672c0-0.371-0.301-0.673-0.671-0.673C31.573,15.343,31.271,15.645,31.271,16.016L31.271,16.016z
		 M29.044,40.76c0,0.367,0.301,0.669,0.671,0.669c0.367,0,0.669-0.302,0.669-0.669c0-0.371-0.302-0.673-0.669-0.673
		C29.345,40.087,29.044,40.389,29.044,40.76L29.044,40.76z M11.024,12.942c0,0.369,0.302,0.672,0.669,0.672
		c0.369,0,0.672-0.303,0.672-0.672s-0.303-0.671-0.672-0.671C11.326,12.271,11.024,12.573,11.024,12.942L11.024,12.942z
		 M10.154,11.432c0,0.369,0.301,0.671,0.67,0.671c0.368,0,0.669-0.302,0.669-0.671s-0.301-0.672-0.669-0.672
		C10.455,10.76,10.154,11.062,10.154,11.432L10.154,11.432z M10.874,27.949c0.704,0,1.289-0.521,1.289-1.679V24.56
		c0-0.654,0.051-1.396,0.486-1.915c-0.05,0.218-0.05,0.452-0.05,0.671c0,1.444,0.802,2.436,0.802,3.829
		c0,0.519-0.149,0.805-0.551,0.805c-0.386,0-0.351-0.352-0.437-0.352c-0.065,0-0.168,0.217-0.168,0.451
		c0,0.355,0.254,0.906,0.957,0.906c0.603,0,1.088-0.551,1.088-1.174c0-1.511-1.173-3.188-1.173-4.801
		c0-0.706,0.184-1.177,0.335-1.545c0,3.341,2.83,5.777,2.83,7.169c0,0.318-0.234,0.571-0.587,0.571
		c-0.382,0-0.568-0.303-0.568-0.537c0-0.119-0.017-0.153-0.067-0.153c-0.1,0-0.401,0.337-0.401,0.772
		c0,0.554,0.452,1.225,1.289,1.225c0.955,0,1.476-0.806,1.476-1.527c0-1.761-3.434-4.431-3.434-7.284
		c0-0.487,0.081-1.275,0.435-1.879c-2.211,1.425-2.899,3.324-2.899,4.984c0,1.444-0.049,2.167-0.786,2.167
		c-0.384,0-0.485-0.354-0.619-0.354c-0.101,0-0.149,0.303-0.149,0.387C9.971,27.598,10.422,27.949,10.874,27.949L10.874,27.949z
		 M39.897,11.181c0.736,0,1.289-0.338,1.289-0.54c0-0.066-0.101-0.115-0.319-0.115c-0.216,0-0.652-0.018-1.473-0.151
		c-0.704-0.117-1.242-0.385-1.442-0.385c-0.067,0-0.1,0.033-0.1,0.083C37.853,10.508,38.655,11.181,39.897,11.181L39.897,11.181z
		 M36.245,9.047c0.217-0.133,1.154,0.084,2.378-0.52c0.151-0.083,0.301-0.116,0.435-0.116c0.589,0,0.438,0.669,0.974,0.669
		c0.418,0,0.954-0.353,1.272-0.353c0.501,0,1.222,1.579,1.222,2.319c0,0.854-1.289,1.375-2.813,1.375
		c-2.228,0-3.565-1.947-3.565-3.206C36.146,9.114,36.195,9.081,36.245,9.047L36.245,9.047z M11.225,34.277
		c-0.551,0.136-1.44,1.008-1.44,2.385c0,1.645,1.759,4.181,4.657,4.181c2.445,0,3.047-1.696,3.047-2.837
		c0-2.535-1.557-4.315-3.582-4.315c-1.105,0-2.095,0.806-2.095,1.998c0,1.108,0.838,2.77,2.829,2.77
		c0.939,0,1.493-0.672,1.493-1.443c0-0.755-0.688-1.798-1.692-1.798c-0.302,0-0.52,0.201-0.52,0.523c0,0.4,0.553,0.805,1.24,0.805
		c0.167,0,0.301-0.033,0.367-0.068c0.033,0.053,0.051,0.135,0.051,0.203c0,0.384-0.367,0.619-0.939,0.619
		c-0.852,0-1.674-0.637-1.674-1.645c0-0.604,0.519-1.04,1.274-1.04c1.489,0,2.377,1.325,2.377,2.65c0,1.193-0.653,1.882-1.993,1.882
		C11.945,39.146,10.64,36.73,11.225,34.277L11.225,34.277z M9.55,16.032c-0.384,0.099-1.188,0.569-1.188,1.409
		c0,0.604,0.47,0.992,1.055,0.992c0.303,0,0.521-0.068,0.654-0.17c-0.47-0.452-0.637-0.957-0.637-1.461
		C9.434,16.451,9.483,16.232,9.55,16.032L9.55,16.032z M5.449,16.267c-0.017,0.084-0.017,0.167-0.017,0.252
		c0,0.788,0.417,1.225,0.972,1.225c0.417,0,0.902-0.251,1.338-0.807c-0.184,0.033-0.402,0.051-0.602,0.051
		C6.521,16.987,5.85,16.82,5.449,16.267L5.449,16.267z M4.862,17.761c0,1.275,0.385,1.88,1.071,1.88
		c0.534,0,1.255-0.387,2.111-1.125c-0.653,0.152-1.156,0.252-1.608,0.252C5.834,18.768,5.364,18.534,4.862,17.761L4.862,17.761z
		 M30.351,44.115c0.803,0,0.753-0.066,1.006-0.066c0.251,0,0.267,0.152,0.267,0.252c0,0.371-0.82,0.822-2.278,0.822
		c-0.853,0-1.372-0.451-1.522-0.955c-0.838,0.536-2.109,1.022-3.365,1.022c-3.435,0-4.307-1.494-5.377-1.98
		c-0.819-0.37-2.076,0.351-3.833-1.613c0.232,0.051,0.549,0.066,0.802,0.066c1.541,0,2.361-0.754,2.361-1.962
		c0-0.152-0.016-0.319-0.034-0.471c0.47,0.186,1.542,0.989,1.793,2.417c0.034,0.169,0.72,0.318,1.155,0.318
		c0.603,0,1.373-0.252,1.49-1.241c2.01-0.166,3.365-1.359,3.648-2.871c0.721,0.235,1.542,0.89,1.744,1.226
		c0.285-0.102,0.619-0.151,1.004-0.151c0.537,0,1.14,0.101,1.86,0.319c0.032-0.219,0.066-0.488,0.402-0.488
		c0.501,0,0.367,0.556,0.535,0.875c0.084,0.168,0.501,0.269,0.501,0.604c0,0.32-0.269,0.436-0.435,0.436
		c-0.066,0-0.149-0.016-0.199-0.033c-0.336,0.119-0.355,2.535-1.761,2.535c-1.039,0-1.993-0.857-2.41-1.932
		c-0.117-0.318-0.368-0.52-0.603-0.52c-0.27,0-0.421,0.052-0.739,0.402c-0.903,0.99-2.409,1.847-4.268,1.847
		c-0.57,0-1.022-0.05-1.14-0.05c-0.067,0-0.067,0.018-0.067,0.034c0,0.116,0.569,0.569,1.809,0.569c2.946,0,3.666-1.663,4.136-1.663
		c0.067,0,0.27,0,0.385,0.27c0.687,1.612,2.179,1.981,3.115,1.981H30.351L30.351,44.115z M20.838,10.374
		c1.104,0,1.608,0.955,1.608,2.031c0,0.47-0.133,1.158-0.351,1.158c-0.219,0-0.186-0.386-0.219-0.74
		c-0.034-0.451-0.117-0.552-0.268-0.552c-0.285,0-0.469,0.671-0.469,1.292c0,0.385,0.065,0.822,0.367,0.822
		c0.167,0,0.319-0.084,0.419-0.185c-0.066,0.772-0.636,1.443-1.44,1.443c-1.474,0-2.025-1.729-2.194-2.735
		c-0.886,0.939-1.706,1.629-3.181,1.629c-1.373,0-1.993-1.007-1.993-1.965c0-0.286,0.1-1.024,0.452-1.024
		c0.42,0,0.05,1.377,0.871,1.377c0.199,0,0.57-0.169,0.771-0.722c0.116-0.336,0.183-0.688,0.183-0.99
		c0-0.454-0.099-0.739-0.435-0.739c-0.286,0-0.636,0.218-0.755,0.336c0.402-1.208,1.374-1.831,2.446-1.831
		c1.322,0,2.026,1.175,2.026,2.485c0,0.185-0.017,0.387-0.051,0.569C19.197,11.094,19.984,10.374,20.838,10.374L20.838,10.374z
		 M16.636,0.368c0-0.1-0.502-0.202-1.189-0.202c-1.089,0-0.938,0.909-1.776,0.909c-0.869,0-0.652-0.941-1.756-0.941
		c-0.673,0-1.29,0.118-1.29,0.269c0,0.203,0.787,0.117,0.787,0.673c0,0.586-1.692,0.754-1.692,1.107
		c0,0.118,0.132,0.167,0.301,0.167c0.369,0,0.954-0.167,1.372-0.167c0.236,0,0.454,0.051,0.454,0.268
		c0,0.42-0.903,1.176-0.903,1.513c0,0.1,0.082,0.133,0.165,0.133c0.336,0,0.906-0.855,1.441-0.855c0.888,0,0.302,1.897,0.788,1.897
		c0.5,0,0.283-1.863,1.002-1.863c0.588,0,1.024,1.292,1.424,1.292c0.101,0,0.186-0.084,0.186-0.202c0-0.352-0.502-1.074-0.502-1.546
		c0-0.284,0.2-0.419,0.469-0.419c0.386,0,0.904,0.236,1.19,0.236c0.099,0,0.199-0.034,0.199-0.151c0-0.403-1.489-0.839-1.489-1.359
		C15.815,0.604,16.636,0.604,16.636,0.368L16.636,0.368z M40.499,33.422c-0.353,0-2.294,2.604-3.55,2.604
		c-0.302,0-0.552-0.572-0.552-1.009c0-0.235,0.149-0.402,0.687-0.521c2.879-0.655,2.243-2.82,4.704-2.82
		c1.356,0,2.865,0.924,2.865,3.005c0,2.215-3.148,4.97-3.618,4.97c-0.384,0-0.805-0.555-0.805-0.925c0-0.116,0.05-0.268,0.388-0.402
		c1.604-0.638,2.526-2.114,2.526-2.87c0-0.168-0.082-0.335-0.301-0.335c-0.286,0-1.507,2.786-2.864,2.786
		c-0.939,0-1.893-0.856-1.893-1.259c0-0.673,2.715-1.915,2.715-2.855C40.802,33.438,40.634,33.422,40.499,33.422L40.499,33.422z
		 M42.308,32.382c-0.234,0-0.487,0.185-0.487,0.637c0,0.504,0.388,0.822,0.604,0.924c0.117,0.066,0.301,0.135,0.486,0.135
		c0.485,0,0.87-0.135,0.87-0.538C43.78,33.019,43.028,32.382,42.308,32.382L42.308,32.382z M20.57,2.081
		c0,0.302,1.057,0.957,1.54,0.957c0.285,0,0.371-0.386,0.371-0.789c0-0.503-0.22-0.52-0.654-0.52
		C21.273,1.729,20.57,1.88,20.57,2.081L20.57,2.081z M22.313,5.403c0-1.006-2.747-2.869-2.747-3.624c0-0.034,0-0.05,0.016-0.084
		c0.201-0.554,2.479-0.94,2.479-1.395c0-0.218-0.402-0.218-0.604-0.218c-1.556,0-3.834,0.571-3.834,1.125
		c0,0.572,2.042,1.965,2.042,2.653c0,0.185-0.117,0.251-0.301,0.251c-0.568,0-1.809-0.688-2.395-0.688
		c-0.269,0-0.369,0.184-0.369,0.453c0,0.806,0.955,2.336,0.955,2.788c0,0.051-0.018,0.117-0.084,0.117
		c-0.303,0-1.725-1.679-2.226-1.679c-0.187,0-0.203,0.251-0.203,0.621v0.572c0,0.385-0.016,0.619-0.201,0.619
		c-0.436,0-0.637-1.225-1.054-1.225c-0.438,0-0.52,2.183-0.938,2.183c-0.485,0-0.067-2.401-0.537-2.401
		c-0.518,0-1.105,1.595-1.473,1.595c-0.135,0-0.167-0.134-0.167-0.252c0-0.486,0.285-1.274,0.285-1.746
		c0-0.234-0.067-0.37-0.269-0.37c-0.52,0-1.656,0.841-2.095,0.841c-0.066,0-0.15-0.034-0.15-0.102c0-0.403,1.825-1.678,1.825-2.249
		c0-0.554-2.512-0.185-2.512-0.823c0-0.537,1.791-1.092,1.791-1.645c0-0.488-2.126-0.705-2.945-0.705
		c-0.99,0-1.525,0.117-1.525,0.402c0,0.437,2.245,0.571,2.245,0.958c0,0.369-2.329,1.358-2.329,1.93
		c0,0.503,3.284,0.034,3.284,0.554c0,0.57-2.864,3.037-2.864,3.861c0,0.185,0.133,0.267,0.318,0.267c0.871,0,3.131-1.661,3.75-1.661
		c0.218,0,0.235,0.268,0.235,0.502c0,0.436-0.151,1.109-0.151,1.597c0,0.385,0.101,0.653,0.437,0.653
		c0.62,0,1.188-1.057,1.608-1.057c0.535,0,0.216,3.105,1.022,3.105c0.685,0,0.968-3.357,1.405-3.357
		c0.435,0,0.786,0.973,1.189,0.973c0.501,0,0.266-1.695,0.802-1.695c0.587,0,2.261,2.015,3.017,2.015
		c0.233,0,0.317-0.186,0.317-0.419c0-0.89-1.239-2.905-1.239-3.542c0-0.168,0.049-0.218,0.233-0.218
		c0.653,0,2.563,0.907,3.468,0.907C22.128,5.792,22.313,5.623,22.313,5.403L22.313,5.403z M45.172,24.727
		c0.269-0.84,0.603-1.429,1.153-2.334c-0.551-0.284-2.007-0.891-2.007-1.879c0-1.159,1.439-2.064,1.739-2.064
		c0.134,0,0.169,0.118,0.169,0.334c0,0.605-0.285,1.579-0.285,2.1c0,0.468,0.301,0.921,0.569,0.921c0.285,0,1.072-1.005,1.072-1.995
		c0-1.781-1.56-2.316-2.041-2.316c-0.454,0-1.274,0.737-3.2,0.737c-3.602,0-4.422-3.575-4.422-5.137
		c0-0.068,0.017-0.084,0.032-0.084c0.085,0,0.437,0.438,1.575,0.438c0.586,0,1.124-0.152,1.978-0.152
		c2.009,0,2.896,1.394,4.137,3.174c0.752,0.469,2.544,1.225,2.544,3.358c0,1.877-1.994,2.921-2.478,4.934
		c0.77-0.084,1.222-1.462,2.009-1.462c0.403,0,0.587,0.32,0.587,0.823c0,0.741-0.419,1.847-1.224,2.535
		c0.02-0.066,0.02-0.151,0.02-0.25c0-0.472-0.188-1.144-0.723-1.144c-0.835,0-1.105,0.907-1.574,1.663
		c-0.484-1.713-1.14-3.257-2.31-4.197c-1.189-0.957-3.234-0.438-3.234-2.182c0-0.471,0.303-1.141,0.303-1.678
		c0-0.186-0.034-0.354-0.134-0.488c1.607,0.604,1.039,1.68,2.025,2.785c0.62,0.705,2.327,1.378,3.315,4.28
		c0.018-0.082,0.034-0.302,0.034-0.45c0-2.484-3.282-4.92-3.566-5.926c1.908,0.218,2.243,0.688,3.148,3.204
		C44.568,22.796,45.172,24.088,45.172,24.727L45.172,24.727z M9.2,11.047c0.082-0.271,0.149-0.606,0.149-0.975
		c0-0.807-0.366-2.032-1.506-2.032c-0.655,0-1.122,0.52-1.122,1.141C6.722,10.508,8.045,11.047,9.2,11.047L9.2,11.047z
		 M7.776,15.276c-0.554,0-1.155-0.689-1.155-1.31c0-0.335,0.252-0.756,0.435-0.756c0.067,0,0.101,0.05,0.116,0.168
		c0.101,0.822,0.638,1.291,1.14,1.527c0.05,0.033,0.084,0.051,0.084,0.084C8.396,15.107,8.078,15.276,7.776,15.276L7.776,15.276z
		 M9.752,13.698c0,0.233-0.135,0.536-0.402,0.536c-0.584,0-1.056-0.89-1.056-1.394c0-0.317,0.186-0.351,0.437-0.351
		c0.117,0,0.168,0.017,0.253,0.066c0.147,0.085,0.147,0.419,0.331,0.669C9.416,13.396,9.752,13.579,9.752,13.698L9.752,13.698z
		 M9.166,11.936c-0.1-0.017-0.233-0.017-0.367-0.017c-0.553,0-1.291,0.101-1.942,0.536C5.38,13.413,5.614,14.924,5.38,15.31
		c-0.033,0.05-0.05,0.116-0.05,0.187c0,0.148,0.168,0.316,0.317,0.316c0.135,0,0.22-0.032,0.286-0.032
		c0.402,0,0.854,0.285,1.505,0.285c0.389,0,0.841-0.118,1.409-0.403c1.207-0.604,1.675-2.099,1.675-2.351
		c0-0.319-0.252-0.269-0.468-0.571c-0.236-0.353-0.118-0.485-0.271-0.688C9.685,11.969,9.467,11.969,9.166,11.936L9.166,11.936z
		 M10.942,14.638c-0.37,0.437-0.755,1.175-0.755,1.932c0,0.906,0.552,1.66,1.407,1.66c0.819,0,1.206-0.705,1.206-1.427
		C12.801,15.678,11.779,14.889,10.942,14.638L10.942,14.638z M7.357,11.415c0,0-0.484,0.369-1.089,0.369
		c-0.721,0-1.289-0.536-1.289-1.292c0-0.52,0.268-1.057,0.888-1.327C5.85,9.266,5.85,9.35,5.85,9.449
		C5.85,10.407,6.387,11.129,7.357,11.415L7.357,11.415z M37.149,21.184c0-0.335,0.301-0.619,0.637-0.619
		c0.366,0,0.653,0.284,0.653,0.619c0,0.385-0.287,0.654-0.653,0.654C37.45,21.838,37.149,21.568,37.149,21.184L37.149,21.184z
		 M37.585,40.49c0.083,0,0.184,0.05,0.184,0.353c0,0.367-0.167,0.855-0.768,1.241c-0.421,0.284-0.989,0.519-1.828,0.537
		c0.134-0.403,0.235-0.821,0.235-1.226c0-0.135-0.018-0.236-0.034-0.385h0.219C36.916,41.011,37.484,40.49,37.585,40.49
		L37.585,40.49z M37.718,38.826c0.135-0.115,0.167-0.302,0.167-0.485v-0.386c0-0.487-0.735-0.773-1.738-0.773
		c-1.225,0-1.878,0.554-1.878,0.791v0.771c0,0.319,0.737,0.639,1.643,0.639C36.631,39.382,37.286,39.197,37.718,38.826
		L37.718,38.826z M38.588,39.013c-0.436,0.335-1.454,1.092-3.145,1.092c-0.906,0-1.309-0.287-1.441-0.287
		c-0.169,0-0.353,0.168-0.536,0.387c-0.402,0.47-0.922,1.343-0.922,2.3c0,0.672,0.52,1.344,1.491,1.344
		c3.13,0,5.476-1.965,5.476-3.56C39.511,39.382,38.976,39.013,38.588,39.013L38.588,39.013z M39.175,24.896
		c0,0.417,0.134,0.904,0.555,0.904c0.352,0,0.652-0.537,0.652-1.124c0-0.672-0.117-1.194-0.117-1.461
		c0-0.118,0.05-0.169,0.117-0.169c0.252,0.018,0.485,0.705,0.755,0.705c0.301,0,0.751-0.552,0.937-0.552
		c0.05,0,0.066,0.066,0.066,0.083c0,0.252-0.385,0.806-0.385,1.025c0,0.184,0.97,0.217,0.97,0.386c0,0.25-1.021,0.25-1.505,0.469
		c-0.468,0.202-0.753,0.453-0.753,0.789c0,0.337,0.335,0.402,0.802,0.402c1.122,0,1.91-0.603,2.161-0.603
		c0.05,0,0.084,0.034,0.084,0.084c0,0.168-0.57,0.723-0.57,0.973c0,0.286,1.039,0.621,1.023,0.79
		c-0.018,0.051-0.084,0.065-0.201,0.065c-0.185,0-0.469-0.049-0.688-0.049c-0.135,0-0.252,0.014-0.301,0.082
		c-0.12,0.134,0.032,1.025-0.201,1.025c-0.219,0-0.788-1.982-2.077-1.982c-0.185,0-0.318,0.153-0.318,0.405
		c0,0.67,0.653,1.441,1.272,1.811c0.285,0.188,0.755,0.371,0.755,0.473c0,0.201-1.071,0.017-1.071,0.35
		c0,0.303,0.132,0.758,0.132,1.025c0,0.085-0.015,0.187-0.115,0.187c-0.202,0-0.687-0.925-0.923-0.925
		c-0.199,0-0.635,0.555-0.82,0.555c-0.049,0-0.083-0.051-0.083-0.102c0-0.386,0.62-1.26,0.62-2.113c0-0.405-0.05-1.277-0.537-1.277
		c-0.401,0-0.854,0.637-1.056,1.277c-0.116,0.368-0.032,1.794-0.301,1.794c-0.251,0-0.187-0.957-0.52-0.957
		c-0.248,0-0.787,0.453-0.97,0.453c-0.033,0-0.067-0.018-0.067-0.05c0-0.2,0.486-0.855,0.486-0.99c0-0.25-1.105-0.284-1.105-0.486
		c0-0.119,0.434-0.202,0.837-0.271c0.854-0.148,2.109-0.771,2.109-1.644c0-0.974-0.939-1.392-1.557-1.797
		c-0.318-0.201-0.671-0.369-0.671-0.504s0.404-0.135,0.568-0.135c0.253,0,0.503-0.017,0.503-0.216c0-0.153-0.035-0.453-0.035-0.689
		c0-0.166,0.018-0.301,0.085-0.301c0.251,0,0.604,0.821,0.771,0.821c0.268,0,0.635-0.672,0.889-0.672
		c0.083,0,0.117,0.051,0.117,0.201C39.495,23.585,39.175,24.29,39.175,24.896L39.175,24.896z M31.188,19.976
		c0.185,1.427,2.094,0.704,2.094,2.434c0,0.252-0.069,0.621-0.069,0.939c0,0.369,0.034,0.689,0.319,0.689
		c0.284,0,0.352-0.201,0.352-0.471s-0.067-0.604-0.067-0.788c0-0.588,0.419-0.724,0.67-0.724c0.637,0,1.121,0.657,2.078,0.657
		c-0.219,1.072-2.43,0.787-2.43,1.963c0,0.587,0.586,0.721,0.973,0.721c0.351,0,0.468-0.051,0.468-0.351
		c0-0.169-0.033-0.353-0.033-0.471c0-0.068,0.051-0.135,0.135-0.135c0.367,0,2.176,1.378,2.176,1.797
		c0,0.386-1.907,0.772-2.462,0.772c-0.166,0-0.201-0.117-0.201-0.185c0-0.119,0.285-0.472,0.285-0.673
		c0-0.149-0.25-0.252-0.921-0.252c-0.318,0-0.552,0.034-0.552,0.287c0,0.451,0.736,1.007,0.736,1.427
		c0,0.335-0.201,0.536-0.736,0.536c-0.451,0-1.141-0.354-1.141-0.938c0-0.474,0.487-0.942,0.487-1.228
		c0-0.085-0.066-0.219-0.269-0.219c-0.62,0-0.786,1.646-2.981,1.831c0.353-0.318,0.654-0.672,0.654-1.395
		c0-0.353-0.084-0.638-0.084-1.024c0-0.503,0.235-0.756,0.568-0.756c0.621,0,0.921,0.873,1.324,0.873
		c0.216,0,0.451-0.199,0.451-0.502c0-1.277-2.446-1.091-2.446-2.889C30.566,21.419,30.735,20.816,31.188,19.976L31.188,19.976z
		 M34.369,30.888c0,0.234,0.168,0.419,0.4,0.419c0.269,0,0.438-0.234,0.438-0.504c0-0.353-0.318-0.839-0.622-0.839
		c-0.132,0-0.081,0.2-0.115,0.418C34.454,30.551,34.369,30.753,34.369,30.888L34.369,30.888z M33.498,28.654
		c1.759,0.334,2.713,1.662,2.713,2.905c0,0.856-0.534,1.645-1.473,1.645c-0.854,0-1.475-0.588-1.475-1.528
		c0-0.704,0.553-1.442,0.553-2.166C33.816,29.225,33.734,28.94,33.498,28.654L33.498,28.654z M31.271,31.509
		c0.167,0.167,0.218,0.335,0.218,0.504c0,0.252-0.116,0.519-0.116,0.805c0,0.401,0.299,0.754,0.736,0.754
		c0.468,0,0.787-0.367,0.787-0.805C32.896,32.13,32.241,31.509,31.271,31.509L31.271,31.509z M36.815,30.433
		c0.116,0.187,0.168,0.37,0.168,0.539c0,0.469-0.319,0.907-0.319,1.393c0,0.554,0.42,1.008,1.054,1.008
		c0.688,0,1.156-0.555,1.156-1.209C38.874,31.273,38.071,30.518,36.815,30.433L36.815,30.433z M31.672,29.544
		c0.771,0.101,0.956,0.369,0.956,0.588c0,0.371-0.334,0.487-0.653,0.487c-0.234,0-0.501-0.051-0.786-0.051
		c-0.371,0-0.737,0.084-1.039,0.437c0.216,0.034,0.536,0.186,0.536,0.521c0,0.973-2.697,0.166-2.697,2.668
		c0,1.327,1.374,2.77,3.45,2.77c1.071,0,1.759-0.353,1.759-0.755c0-0.319-0.569-0.102-0.569-0.369c0-0.117,0.201-0.336,0.201-0.521
		c0-0.083-0.066-0.235-0.201-0.235c-0.302,0-0.871,0.487-2.027,0.487c-0.903,0-1.791-0.521-1.791-1.227
		c0-0.15,0.065-0.235,0.168-0.235c0.099,0,0.233,0.069,0.352,0.069c0.101,0,0.116-0.069,0.116-0.253c0-0.186,0-0.707,0.318-0.707
		s0.922,1.178,3.232,1.178c0.771,0,2.261-0.152,2.812-0.656c-0.016,1.848-1.456,4.28-4.469,4.28c-3.133,0-4.808-2.517-4.808-4.834
		c0-2.567,2.094-4.901,4.957-4.901c0.736,0,1.356,0.252,1.356,0.57C32.846,29.291,31.757,29.023,31.672,29.544L31.672,29.544z
		 M19.549,12.354c0-0.286-0.065-0.353-0.134-0.353c-0.165,0-0.353,0.202-0.618,0.654c0.032,0.604,0.132,0.875,0.3,0.875
		C19.281,13.531,19.549,12.942,19.549,12.354L19.549,12.354z M17.254,13.043c0.185,0,0.419-0.202,0.854-0.688
		c0.032-0.219,0.032-0.419,0.032-0.671c0-0.337-0.134-0.705-0.333-0.705c-0.503,0-0.755,1.343-0.755,1.696
		C17.053,12.875,17.155,13.043,17.254,13.043L17.254,13.043z M19.984,14.538c0.42,0,0.888-1.612,0.888-2.619
		c0-0.22-0.034-0.454-0.135-0.454c-0.351,0-0.938,1.662-0.938,2.57C19.8,14.386,19.883,14.538,19.984,14.538L19.984,14.538z
		 M15.881,13.614c0.568,0,1.225-3.089,1.225-3.609c0-0.135-0.053-0.236-0.169-0.236c-0.519,0-1.24,2.938-1.24,3.592
		C15.696,13.479,15.73,13.614,15.881,13.614L15.881,13.614z M17.707,14.889c-0.721,0-0.754,0.875-0.754,2.636
		c-0.535-1.157-1.424-2.401-2.461-2.401c-0.703,0-0.973,0.472-0.973,1.295c0,0.167,0.018,0.419,0.051,0.569
		c0.084-0.284,0.352-0.402,0.688-0.402c0.721,0,1.59,0.554,2.159,1.31c-0.655-0.116-1.29-0.235-1.826-0.235
		c-0.333,0-0.636,0.033-0.888,0.152c-0.486,0.216-1.138,0.938-1.138,2.03c0,0.169,0.016,0.353,0.051,0.554
		c0.586-1.31,2.144-1.896,3.146-1.896c0.202,0,0.354,0.016,0.471,0.034c-0.52,0.469-0.637,1.292-0.671,1.843
		c-0.016,0.27-0.116,0.286-0.301,0.286c0,0.554,0.435,1.377,0.435,1.798c0,0.151-0.084,0.286-0.167,0.318
		c0,0.737,0.738,1.274,0.738,1.745c0,0.118-0.034,0.219-0.084,0.27c0.05,0.303,0.854,0.821,0.955,1.041
		c0.166,0.353,0.285,0.386,0.367,0.386c0.285,0,0.736-0.336,0.736-0.639c0-0.101-0.084-0.218-0.148-0.27
		c-0.32-0.233-0.487-0.737-0.621-1.073c-0.116,0-0.269-0.066-0.317-0.235c-0.067-0.219-0.103-1.009-0.236-1.392
		c-0.217-0.053-0.317-0.135-0.317-0.589c0-0.22,0.134-1.074,0.134-1.377c-0.1,0-0.234-0.066-0.234-0.27
		c0-0.535,0.536-0.956,0.686-1.644c0.954,0.705,1.189,1.428,1.189,2.065c0,0.334-0.049,0.654-0.115,0.957
		c0.703-0.354,1.756-0.873,1.756-1.93c0-0.623-0.283-1.311-2.176-1.579c0.586-0.22,1.323-0.335,1.942-0.335
		c1.072,0,1.691,0.335,1.826,1.091c0.218-0.335,0.385-0.723,0.385-1.075c0-0.822-0.686-1.358-1.558-1.358
		c-1.021,0-1.926,0.536-2.897,1.191c0.436-0.906,0.738-1.443,1.275-1.443c0.081,0,0.166,0.016,0.248,0.033
		C18.861,15.61,18.108,14.889,17.707,14.889L17.707,14.889z M7.021,4.431c0,0.334-1.274,1.461-1.724,1.461
		c-0.167,0-0.219-0.203-0.219-0.386c0-0.336,0.151-0.808,0.336-0.958c0.216-0.202,0.721-0.302,1.105-0.302
		C6.754,4.247,7.021,4.296,7.021,4.431L7.021,4.431z M45.925,26.993c0.837,0,1.507,1.091,1.507,2.366
		c0,1.36-0.636,2.837-1.772,3.845c-0.018-2.268-2.783-1.545-2.783-3.19c0-0.705,0.502-1.174,1.106-1.174
		c0.536,0,0.956,0.148,1.256,0.451c-0.3-0.283-0.452-0.687-0.452-1.073C44.786,27.58,45.189,26.993,45.925,26.993L45.925,26.993z
		 M33.498,9.82c-0.134-0.218-0.637-0.337-0.87-0.337c-0.736,0-1.239,0.522-1.341,0.992c-0.066-0.168-0.116-0.369-0.116-0.571
		c0-0.738,0.501-1.646,1.726-1.646c1.071,0,1.49,0.572,1.641,0.572c0.168,0,0.336-0.167,0.469-0.167
		c0.184,0,0.184,0.284,0.184,0.485c0,0.672-0.3,1.831-1.055,2.25c-0.133-0.285-0.4-0.603-0.837-0.807
		c-0.117-0.048-0.168-0.15-0.168-0.249C33.13,10.155,33.298,9.922,33.498,9.82L33.498,9.82z M30.97,11.047
		c0.437,0.418,0.821,0.603,1.289,0.603c0.184,0,0.402-0.051,0.519-0.051c0.151,0,0.254,0.067,0.254,0.186
		c0,0.185-0.17,0.487-0.37,0.655c0.2,0.084,0.419,0.117,0.654,0.117c0.953,0,2.041-0.604,2.041-2.116
		c0.203,0.267,0.32,0.823,0.32,1.075c0,1.829-1.343,2.534-2.581,2.534c-0.802,0-1.204-0.268-1.305-0.268
		c-0.317,0-0.302,0.637-0.52,0.621c-0.385-0.066-0.738-0.925-0.738-1.83C30.533,12.034,30.669,11.465,30.97,11.047L30.97,11.047z
		 M19.331,6.161c0,0.588,2.095,3.458,2.496,3.458c0.333,0,0.586-0.588,0.586-1.092c0-0.134-0.033-0.27-0.1-0.369
		c-0.303-0.419-2.431-2.1-2.898-2.1C19.365,6.059,19.331,6.109,19.331,6.161L19.331,6.161z M43.497,4.782
		c0-1.19-2.846-1.492-2.846-1.762c0-0.219,1.589-0.588,2.411-0.604c-1.258-1.611-3.049-1.442-3.049-1.728
		c0-0.17,1.341-0.505,2.579-0.505c1.036,0,2.011,0.236,2.011,1.025c0,0.437-0.353,0.891-0.353,1.561c0,0.369,0.186,0.689,0.67,0.689
		c0.52,0,0.637-0.555,0.637-1.142c0-0.487-0.085-0.855-0.085-1.091c0-0.706,0.485-1.175,1.173-1.175c0.568,0,0.702,0.251,1.54,0.251
		c-0.452,0.269-0.619,0.757-0.619,0.99c0,0.707,0.453,1.193,0.453,2.637c0,2.652-2.478,3.592-5.512,3.592
		c-0.838,0-1.723-0.066-2.595-0.202c-0.135-0.017-0.167-0.051-0.167-0.133c0-0.219,1.19-0.336,1.19-1.41
		c0-0.42-0.135-0.823-0.135-0.973c0-0.085,0.065-0.136,0.135-0.136c0.25,0,0.751,0.974,1.688,0.974
		C42.876,5.639,43.497,5.557,43.497,4.782L43.497,4.782z M46.325,3.088c0,1.494-1.087,2.635-3.046,2.954
		c0.218,0.016,0.419,0.016,0.62,0.016c2.292,0,3.131-1.041,3.131-1.913C47.03,3.66,46.762,3.223,46.325,3.088L46.325,3.088z
		 M44.737,16.585c0-0.353-0.89-0.386-0.972-1.377c-0.018-0.15-0.067-0.419-0.252-0.419c-0.302,0-0.068,0.923-0.402,0.923
		c-0.77,0-1.022-1.511-1.307-1.511c-0.066,0-0.152,0.051-0.152,0.252c0,0.185,0.035,0.303,0.035,0.521
		c0,0.217-0.051,0.369-0.25,0.369c-0.452,0-0.854-1.059-1.239-1.059c-0.085,0-0.167,0.053-0.167,0.135
		c0,0.202,0.336,0.571,0.336,0.754c0,0.406-1.092,0.187-1.092,0.522c0,0.15,0.152,0.202,0.354,0.202
		c0.351,0,0.902-0.152,1.188-0.152c0.169,0,0.42,0.035,0.42,0.253c0,0.234-0.603,0.536-0.603,0.756c0,0.101,0.101,0.149,0.183,0.149
		c0.452,0,1.257-0.787,1.823-0.787c0.104,0,0.355,0.049,0.355,0.201c0,0.217-0.571,0.604-0.571,0.923
		c0,0.084,0.052,0.186,0.152,0.186c0.3,0,0.703-0.791,1.271-0.791c0.218,0,0.537,0.086,0.705,0.086
		C44.688,16.721,44.737,16.635,44.737,16.585L44.737,16.585z M32.745,3.776c0-0.184-0.652-0.537-0.652-0.738
		c0-0.034,0.034-0.05,0.083-0.05c0.184,0,0.5,0.067,0.753,0.067c0.219,0,0.252-0.939,0.42-0.939c0.117,0,0.317,0.889,0.503,0.889
		c0.215,0,0.619-0.252,0.786-0.252c0.034,0,0.067,0.017,0.067,0.05c0,0.119-0.42,0.573-0.42,0.706c0,0.152,0.939,0.336,0.939,0.471
		c0,0.167-0.956,0.15-0.956,0.301c0,0.118,0.352,0.588,0.352,0.738c0,0.033-0.016,0.051-0.049,0.051
		c-0.134,0-0.653-0.234-0.805-0.234c-0.184,0-0.484,0.689-0.637,0.689c-0.05,0-0.083-0.07-0.083-0.154l-0.034-0.671
		c0-0.066-0.033-0.133-0.116-0.133c-0.201,0-0.586-0.017-0.703-0.017c-0.084,0-0.118-0.017-0.118-0.05
		C32.075,4.364,32.745,3.893,32.745,3.776L32.745,3.776z M36.012,6.966c-1.173,0-1.945-0.587-1.945-0.89
		c0-0.15,0.103-0.251,0.236-0.251c0.369,0,1.172,0.57,1.44,0.57c0.065,0,0.118-0.034,0.118-0.134c0-0.302-0.286-0.807-0.286-1.058
		c0-0.067,0.05-0.118,0.151-0.118c0.452,0,1.123,0.185,1.474,0.185c0.117,0,0.152-0.067,0.152-0.134c0-0.371-1.089-1.091-1.089-1.31
		c0-0.202,1.354-0.502,1.354-0.822c0-0.336-1.841-0.102-1.841-0.42c0-0.235,0.353-0.638,0.353-0.821
		c0-0.084-0.067-0.118-0.184-0.118c-0.152,0-0.956,0.318-1.292,0.318c-0.167,0-0.368-0.033-0.368-0.268
		c0-0.386,0.654-0.807,1.676-0.807c1.656,0,2.646,1.142,2.646,3.056C38.606,6.361,36.916,6.966,36.012,6.966L36.012,6.966z
		 M24.674,36.008c0,0.15-0.051,0.32-0.186,0.486c-0.182-0.336-0.703-0.504-0.936-0.504c-1.726,0-1.071,2.501-2.915,2.501
		c-0.771,0-0.838-0.101-1.12-0.101c-0.119,0-0.187,0.051-0.187,0.151c0,0.436,0.621,1.512,2.344,1.512
		c1.726,0,3.384-1.059,3.384-2.368c0-0.218-0.052-0.454-0.151-0.688c0.068-0.102,0.236-0.169,0.386-0.169
		c0.268,0,0.42,0.303,0.67,0.303c0.267,0,0.469-0.201,0.469-0.469c0-0.219-0.118-0.367-0.318-0.471
		c0.134-0.1,0.235-0.268,0.235-0.451c0-0.287-0.201-0.557-0.537-0.557c-0.151,0-0.251,0.053-0.367,0.169
		c-0.035-0.303-0.201-0.587-0.52-0.587c-0.251,0-0.437,0.184-0.437,0.471C24.488,35.504,24.674,35.723,24.674,36.008L24.674,36.008z
		 M20.169,36.646c-0.503,0-1.256-0.538-1.256-0.839c0-0.252,0.234-0.389,0.418-0.389c0.42,0,1.173,0.521,1.173,0.958
		C20.504,36.494,20.419,36.646,20.169,36.646L20.169,36.646z M15.495,32.884c1.342,0.335,2.011,1.059,2.144,1.915
		c0.135,0.823,0.301,1.496,0.622,1.829c0.418,0.469,1.239,0.891,1.958,0.891c0.603,0,1.09-0.203,1.09-0.755
		c0-0.605-0.822-1.965-2.027-1.965c-0.117,0-0.269,0.017-0.436,0.017c-0.15,0-0.369-0.034-0.504-0.15
		c-0.268-0.234-0.35-1.494-0.854-2.249c-0.552-0.841-1.153-1.076-1.976-1.076c-0.586,0-1.237,0.319-1.237,0.79
		C14.275,32.416,14.425,32.616,15.495,32.884L15.495,32.884z M23.904,30.836c0-0.756-1.557-0.771-1.557-1.913
		c0-0.284,0.183-0.772,0.551-1.295c0.151,0.875,0.502,1.327,1.256,1.613c1.489,0.554,1.692,1.393,1.692,2.285
		c0,1.508-1.056,3.39-3.769,3.39c-2.176,0-3.736-1.947-3.736-3.591c0-0.455,0.119-0.958,0.403-0.958c0.25,0,0.335,0.201,0.536,0.402
		c0.753,0.757,1.574,0.958,2.763,0.958C23.116,31.728,23.904,31.292,23.904,30.836L23.904,30.836z M23.971,32.048
		c-0.586,0.234-0.804,0.217-0.804,0.803c0,0.219-0.051,0.504-0.051,0.655c0,0.202,0.034,0.319,0.269,0.319
		c0.602,0,1.556-1.025,1.556-1.896c0-0.236-0.134-0.337-0.284-0.337C24.522,31.592,24.372,31.861,23.971,32.048L23.971,32.048z
		 M18.628,23.567c0-1.073,2.547-1.646,2.547-2.97c0-0.221-0.084-0.604-0.234-0.891c0.887,0.487,1.541,1.312,1.541,1.981
		c0,1.158-1.208,1.694-1.208,2.416c0,0.839,1.29,0.975,1.29,2.015c0,0.857-1.222,1.847-1.222,2.956c0,0.855,0.6,1.559,1.523,1.678
		c-0.302,0.068-0.57,0.117-0.854,0.117c-1.691,0-3.432-1.394-3.432-3.056c0-0.821,0.35-1.544,0.887-2.063
		c0.47,0.401,0.938,0.671,1.239,0.671c0.268,0,0.386-0.134,0.386-0.334C21.091,25.465,18.628,24.896,18.628,23.567L18.628,23.567z"
		/>
	<path fill="#888888" d="M22.083,59.481c0.472,0,1.284-0.154,1.927-1.185c-0.368-0.812-0.629-2.46-0.667-3.061
		c-0.187-3.065,0.991-5.949,2.282-6.027c0.945-0.058,1.703,0.84,1.789,2.291c0.232,3.822-1.037,5.418-1.672,6.791
		c0.107,0.536,1.009,1.443,1.863,1.443c0.313,0,0.694-0.158,0.789-0.285c-0.063-0.219-0.128-0.506-0.128-0.918
		c0-2.211,1.422-4.081,2.653-4.081c0.979,0,1.545,1.297,1.545,2.154c0,1.009-0.852,1.834-2.113,2.626
		c0.22,0.219,0.629,0.379,0.979,0.379c1.798,0,2.741-2.183,3.438-4.178c0.126-0.38,0.349-0.917,0.79-0.917
		c0.757,0,1.073,4.997,2.334,4.997c0.537,0,0.979-1.106,0.979-1.958c0-0.634-0.222-0.697-0.222-1.617
		c0-1.01,0.538-1.865,1.265-1.865c0.44,0,0.601,0.443,0.601,0.98c0,2.025-1.453,5.792-3.599,5.792c-1.61,0-1.485-2.789-2.05-2.789
		c-0.634,0-1.519,2.821-4.641,2.821c-0.508,0-1.044-0.254-1.485-0.764c-0.757,0.51-1.39,0.731-2.114,0.731
		c-1.167,0-1.673-1.205-2.145-1.205c-0.571,0-1.199,1.237-3.094,1.237c-1.518,0-1.769-2.026-2.304-2.026
		c-0.475,0-1.201,2.026-1.988,2.026c-1.33,0-1.61-3.514-2.779-3.514c-0.916,0-3.808,3.565-4.593,3.485
		c-0.314-0.033-0.448-0.27-0.416-0.587c0.045-0.438,0.421-1.608,0.574-2.166c0.255-0.959,0.49-2.014,0.62-2.352
		s0.48-0.58,0.762-0.554c0.142,0.013,0.184,0.278,0.229,0.495c0.159,0.786,0.384,1.582,0.634,1.582c0.443,0,1.908-2.816,2.759-2.816
		c1.043,0,1.168,4.431,2.588,4.431c0.474,0,0.823-0.571,1.137-1.268c0.032-1.172,0.348-2.846,1.294-2.846
		c0.665,0,0.98,1.484,0.505,2.786C20.409,59.102,21.42,59.481,22.083,59.481L22.083,59.481z M45.627,56.509
		c0-0.792-0.726-1.9-1.799-1.9c-1.42,0-2.807,1.551-2.807,3.701c0,1.929,1.195,2.566,2.396,2.566c2.083,0,3.348-1.713,4.009-3.135
		c0.316,0.949,0.503,3.135,1.294,3.135c0.315,0,0.537-0.161,0.918-1.017c0.944-2.118,1.859-4.555,3.124-4.555
		c0.471,0,0.187,0.854,1.323,0.854c0.536,0,0.915-0.442,0.915-0.951c0-0.728-0.664-1.297-1.673-1.297
		c-2.964,0-3.595,4.463-4.07,4.463c-0.79,0-0.537-3.574-1.105-3.574c-0.505,0-0.759,0.602-0.821,0.884
		c-0.41,1.646-1.578,4.021-3.345,4.021c-0.411,0-1.137-0.16-1.137-0.57C42.849,58.69,45.627,58.629,45.627,56.509L45.627,56.509z
		 M26.393,52.354c-0.056-0.882-0.269-1.28-0.741-1.248c-0.63,0.037-0.918,2.018-0.791,4.102c0.082,1.36,0.283,1.568,0.472,1.556
		C25.681,56.742,26.514,54.313,26.393,52.354L26.393,52.354z M21.26,50.498c-0.03-0.509-0.439-0.854-0.977-0.854
		c-0.599,0-1.168,0.631-1.104,1.422c0,0.475,0.349,0.95,0.948,0.95C20.82,52.017,21.326,51.227,21.26,50.498L21.26,50.498z
		 M31.077,56.95c0-0.536-0.284-0.981-0.631-0.981c-0.286,0-0.945,0.316-0.945,1.33c0,0.79,0.282,1.168,0.41,1.33
		C30.824,58.342,31.077,57.582,31.077,56.95L31.077,56.95z M43.417,55.877c0.663,0,0.854,0.787,0.695,1.264
		c-0.158,0.473-0.727,1.013-1.609,1.169C42.314,57.834,42.217,55.877,43.417,55.877L43.417,55.877z M0.007,56.382
		c-0.032-1.299,0.031-2.596,0.569-4.431c0.282-0.978,0.536-1.327,1.419-1.518c0.693-0.126,0.634,0.601,0.475,1.456
		c-0.347,1.896-0.507,2.813-0.38,4.967c0.125,2.277,1.17,3.163,2.304,3.163c1.705,0.032,2.464-1.391,2.776-3.448
		c0.253-1.645,0.064-2.437-0.095-2.941c-0.094-0.286-0.347-0.919-0.44-1.393c-0.127-1.203,0.44-1.771,0.915-1.93
		c0.568-0.158,0.791,0.126,1.011,0.793c0.284,1.011,0.314,2.338,0.221,4.234c-0.126,2.594-1.42,5.729-4.639,5.664
		C1.364,60.938,0.136,59.134,0.007,56.382L0.007,56.382z"/>
</g>
</svg>
