<?xml version="1.0" encoding="utf-8"?>
<!-- Generator: Adobe Illustrator 18.1.0, SVG Export Plug-In . SVG Version: 6.00 Build 0)  -->
<svg version="1.1" id="Layer_1" xmlns="http://www.w3.org/2000/svg" xmlns:xlink="http://www.w3.org/1999/xlink" x="0px" y="0px"
	 viewBox="0 0 100 100" enable-background="new 0 0 100 100" xml:space="preserve">
<g>
	<g>
		<path fill="#7BD454" d="M50,100C22.4,100,0,77.6,0,50C0,22.4,22.4,0,50,0c27.6,0,50,22.4,50,50C100,77.6,77.6,100,50,100L50,100z
			 M50,2.2C23.7,2.2,2.2,23.7,2.2,50c0,26.3,21.4,47.8,47.8,47.8c26.3,0,47.8-21.4,47.8-47.8C97.8,23.7,76.3,2.2,50,2.2L50,2.2z"/>
	</g>
</g>
<g>
	<g>
		<path fill="#7BD454" stroke="#83C558" stroke-width="0.25" stroke-miterlimit="10" d="M67.3,68.2c-0.2,0-0.4-0.1-0.6-0.3L54,55.2
			c-0.3-0.3-0.3-0.9,0-1.2c0.3-0.3,0.9-0.3,1.2,0l12.7,12.7c0.3,0.3,0.3,0.9,0,1.2C67.8,68.1,67.5,68.2,67.3,68.2L67.3,68.2z"/>
	</g>
	<g>
		<path fill="#7BD454" stroke="#83C558" stroke-width="0.25" stroke-miterlimit="10" d="M47.1,69.6c-0.4,0-0.7-0.2-0.8-0.5
			L30.5,31.6c-0.1-0.3-0.1-0.7,0.2-1c0.3-0.3,0.6-0.3,1-0.2l37.5,15.9c0.3,0.1,0.5,0.4,0.5,0.8c0,0.3-0.2,0.7-0.5,0.8l-14.7,6.4
			l-6.4,14.7C47.8,69.4,47.5,69.6,47.1,69.6L47.1,69.6z M32.9,32.9l14.2,33.6l5.8-13.2c0.1-0.2,0.2-0.4,0.4-0.4l13.2-5.8L32.9,32.9
			L32.9,32.9z"/>
	</g>
</g>
</svg>
