<?xml version="1.0" encoding="utf-8"?>
<!-- Generator: Adobe Illustrator 18.1.0, SVG Export Plug-In . SVG Version: 6.00 Build 0)  -->
<svg version="1.1" id="Layer_1" xmlns="http://www.w3.org/2000/svg" xmlns:xlink="http://www.w3.org/1999/xlink" x="0px" y="0px"
	 viewBox="0 0 100 100" enable-background="new 0 0 100 100" xml:space="preserve">
<g>
	<g>
		<path fill="#7BD454" d="M50,100C22.4,100,0,77.6,0,50S22.4,0,50,0c27.6,0,50,22.4,50,50S77.6,100,50,100L50,100z M50,2.2
			C23.7,2.2,2.2,23.7,2.2,50S23.7,97.8,50,97.8c26.3,0,47.8-21.4,47.8-47.8S76.3,2.2,50,2.2L50,2.2z"/>
	</g>
</g>
<g>
	<g>
		<path fill="#7BD454" d="M68.8,75.2H37.3c-0.6,0-1.1-0.5-1.1-1.1c0-0.6,0.5-1.1,1.1-1.1h31.4c0.7,0,1.3-0.6,1.3-1.3V28.3
			c0-0.7-0.6-1.3-1.3-1.3H37.3c-0.7,0-1.3,0.6-1.3,1.3v39c0,0.6-0.5,1.1-1.1,1.1s-1.1-0.5-1.1-1.1v-39c0-2,1.6-3.5,3.5-3.5h31.4
			c2,0,3.6,1.6,3.6,3.5v43.4C72.3,73.6,70.7,75.2,68.8,75.2L68.8,75.2z"/>
	</g>
	<g>
		<path fill="#7BD454" d="M50.7,45.2h-9.6c-0.6,0-1.1-0.5-1.1-1.1s0.5-1.1,1.1-1.1h9.6c0.6,0,1.1,0.5,1.1,1.1
			C51.8,44.7,51.3,45.2,50.7,45.2L50.7,45.2z"/>
	</g>
	<g>
		<path fill="#7BD454" d="M50.7,50.9h-9.6c-0.6,0-1.1-0.5-1.1-1.1s0.5-1.1,1.1-1.1h9.6c0.6,0,1.1,0.5,1.1,1.1S51.3,50.9,50.7,50.9
			L50.7,50.9z"/>
	</g>
	<g>
		<path fill="#7BD454" d="M50.7,56.7h-9.6c-0.6,0-1.1-0.5-1.1-1.1s0.5-1.1,1.1-1.1h9.6c0.6,0,1.1,0.5,1.1,1.1S51.3,56.7,50.7,56.7
			L50.7,56.7z"/>
	</g>
	<g>
		<path fill="#7BD454" d="M50.7,62.4h-9.6c-0.6,0-1.1-0.5-1.1-1.1s0.5-1.1,1.1-1.1h9.6c0.6,0,1.1,0.5,1.1,1.1S51.3,62.4,50.7,62.4
			L50.7,62.4z"/>
	</g>
	<g>
		<path fill="#7BD454" d="M50.7,68.1h-9.6c-0.6,0-1.1-0.5-1.1-1.1s0.5-1.1,1.1-1.1h9.6c0.6,0,1.1,0.5,1.1,1.1S51.3,68.1,50.7,68.1
			L50.7,68.1z"/>
	</g>
	<g>
		<path fill="#7BD454" d="M64.4,45.2h-9.6c-0.6,0-1.1-0.5-1.1-1.1s0.5-1.1,1.1-1.1h9.6c0.6,0,1.1,0.5,1.1,1.1
			C65.6,44.7,65.1,45.2,64.4,45.2L64.4,45.2z"/>
	</g>
	<g>
		<path fill="#7BD454" d="M64.4,50.9h-9.6c-0.6,0-1.1-0.5-1.1-1.1s0.5-1.1,1.1-1.1h9.6c0.6,0,1.1,0.5,1.1,1.1S65.1,50.9,64.4,50.9
			L64.4,50.9z"/>
	</g>
	<g>
		<path fill="#7BD454" d="M64.4,56.7h-9.6c-0.6,0-1.1-0.5-1.1-1.1s0.5-1.1,1.1-1.1h9.6c0.6,0,1.1,0.5,1.1,1.1S65.1,56.7,64.4,56.7
			L64.4,56.7z"/>
	</g>
	<g>
		<path fill="#7BD454" d="M64.4,62.4h-9.6c-0.6,0-1.1-0.5-1.1-1.1s0.5-1.1,1.1-1.1h9.6c0.6,0,1.1,0.5,1.1,1.1S65.1,62.4,64.4,62.4
			L64.4,62.4z"/>
	</g>
	<g>
		<path fill="#7BD454" d="M64.4,68.1h-9.6c-0.6,0-1.1-0.5-1.1-1.1s0.5-1.1,1.1-1.1h9.6c0.6,0,1.1,0.5,1.1,1.1S65.1,68.1,64.4,68.1
			L64.4,68.1z"/>
	</g>
	<g>
		<path fill="#7BD454" d="M49.9,75.2H31.2c-2,0-3.5-1.6-3.5-3.6V35.1c0-1,0.1-2,0.8-2.7c0.8-0.8,2-0.8,4.3-0.8l1.3,0c0,0,0,0,0,0
			c0.6,0,1.1,0.5,1.1,1.1c0,0.6-0.5,1.1-1.1,1.1l-1.3,0c-1.2,0-2.5,0-2.7,0.2c0,0-0.1,0.2-0.1,1.2v36.6c0,0.7,0.6,1.3,1.3,1.3h18.7
			c0.6,0,1.1,0.5,1.1,1.1C51,74.7,50.5,75.2,49.9,75.2L49.9,75.2z"/>
	</g>
	<g>
		<path fill="#7BD454" d="M64.4,39H41.2c-0.6,0-1.1-0.5-1.1-1.1v-6.1c0-0.6,0.5-1.1,1.1-1.1h23.2c0.6,0,1.1,0.5,1.1,1.1v6.1
			C65.6,38.5,65.1,39,64.4,39L64.4,39z M42.3,36.8h21V33h-21V36.8L42.3,36.8z"/>
	</g>
</g>
</svg>
