<?xml version="1.0" encoding="utf-8"?>
<!-- Generator: Adobe Illustrator 18.1.0, SVG Export Plug-In . SVG Version: 6.00 Build 0)  -->
<svg version="1.1" id="Layer_1" xmlns="http://www.w3.org/2000/svg" xmlns:xlink="http://www.w3.org/1999/xlink" x="0px" y="0px"
	 viewBox="0 0 100 100" enable-background="new 0 0 100 100" xml:space="preserve">
<g>
	<g>
		<path fill="#7BD454" d="M50,100C22.4,100,0,77.6,0,50C0,22.4,22.4,0,50,0c27.6,0,50,22.4,50,50C100,77.6,77.6,100,50,100L50,100z
			 M50,2.2C23.7,2.2,2.2,23.7,2.2,50c0,26.3,21.4,47.8,47.8,47.8S97.8,76.3,97.8,50C97.8,23.7,76.3,2.2,50,2.2L50,2.2z"/>
	</g>
</g>
<g>
	<g>
		<g>
			<path fill="#7BD454" d="M34.5,66.1c-0.3,0-0.6-0.1-0.8-0.3c-0.2-0.2-0.3-0.5-0.3-0.9l0.6-9.8c0-0.3,0.1-0.5,0.3-0.7l29.1-29.1
				c0.2-0.2,0.5-0.3,0.8-0.3l0,0c0.3,0,0.6,0.1,0.8,0.3l9.2,9.2c0.2,0.2,0.3,0.5,0.3,0.8c0,0.3-0.1,0.6-0.3,0.8L45.1,65.2
				c-0.2,0.2-0.4,0.3-0.7,0.3L34.5,66.1C34.6,66.1,34.5,66.1,34.5,66.1L34.5,66.1z M36.2,55.7l-0.5,8.1l8.1-0.5l28-28.1l-7.6-7.6
				L36.2,55.7L36.2,55.7z"/>
		</g>
		<g>
			<path fill="#7BD454" d="M68.2,40.7c-0.3,0-0.6-0.1-0.8-0.3l-8.3-8.3c-0.4-0.4-0.4-1.1,0-1.6c0.4-0.4,1.1-0.4,1.6,0l8.3,8.3
				c0.4,0.4,0.4,1.1,0,1.6C68.8,40.6,68.5,40.7,68.2,40.7L68.2,40.7z"/>
		</g>
		<g>
			<path fill="#7BD454" d="M39.2,65.8c-0.1,0-0.2,0-0.2,0c-0.6-0.1-1-0.7-0.9-1.3l0-0.1c0-0.1,0.1-0.2,0.1-0.4
				c0.1-0.8-0.2-1.5-0.7-2s-1.2-0.7-2.1-0.7l-0.3,0.1c-0.6,0.1-1.2-0.3-1.3-0.9c-0.1-0.6,0.3-1.2,0.9-1.3c0.2,0,0.3-0.1,0.4-0.1
				c1.5-0.1,2.9,0.3,3.9,1.3c1,1,1.4,2.3,1.3,3.8c0,0.2-0.1,0.4-0.1,0.6C40.1,65.4,39.7,65.8,39.2,65.8L39.2,65.8z"/>
		</g>
	</g>
	<g>
		<path fill="#7BD454" d="M74.3,75.4H25.7c-0.6,0-1.1-0.5-1.1-1.1V25.7c0-0.6,0.5-1.1,1.1-1.1h24.1c0.6,0,1.1,0.5,1.1,1.1
			s-0.5,1.1-1.1,1.1h-23v46.3h46.3v-23c0-0.6,0.5-1.1,1.1-1.1s1.1,0.5,1.1,1.1v24.1C75.4,74.9,74.9,75.4,74.3,75.4L74.3,75.4z"/>
	</g>
</g>
</svg>
