<?xml version="1.0" encoding="utf-8"?>
<!-- Generator: Adobe Illustrator 18.1.0, SVG Export Plug-In . SVG Version: 6.00 Build 0)  -->
<svg version="1.1" id="Layer_1" xmlns="http://www.w3.org/2000/svg" xmlns:xlink="http://www.w3.org/1999/xlink" x="0px" y="0px"
	 viewBox="0 0 100 100" enable-background="new 0 0 100 100" xml:space="preserve">
<g>
	<g>
		<path fill="#7BD454" d="M50,100C22.4,100,0,77.6,0,50S22.4,0,50,0s50,22.4,50,50S77.6,100,50,100L50,100z M50,2.2
			C23.7,2.2,2.2,23.7,2.2,50S23.7,97.8,50,97.8S97.8,76.3,97.8,50S76.3,2.2,50,2.2L50,2.2z"/>
	</g>
</g>
<g>
	<g>
		<g>
			<path fill="#7BD454" d="M33.4,74.4c-1.5,0-2.8-0.5-3.7-1.5c-1.2-1.2-1.6-2.8-1.4-4.6c0.2-1.7,1.1-3.4,2.5-4.8l10.9-10.9
				c0.4-0.4,1.1-0.4,1.6,0l6.7,6.7c0.2,0.2,0.3,0.5,0.3,0.8s-0.1,0.6-0.3,0.8L39.2,71.8C37.5,73.4,35.5,74.4,33.4,74.4L33.4,74.4z
				 M42.6,54.9L32.4,65.1c-1,1-1.7,2.3-1.9,3.5c-0.2,1.1,0.1,2.1,0.8,2.8c0.7,0.7,1.5,0.8,2.1,0.8c1.4,0,2.9-0.7,4.1-1.9l10.1-10.1
				L42.6,54.9L42.6,54.9z"/>
		</g>
		<g>
			<path fill="#7BD454" d="M69.9,37c-1.1,0-2.2-0.4-3-1.3c-1.7-1.7-1.7-4.4,0-6.1l3.7-3.7c0.4-0.4,1.1-0.4,1.6,0l4.5,4.5
				c0.4,0.4,0.4,1.1,0,1.6L73,35.8C72.1,36.6,71.1,37,69.9,37L69.9,37z M71.4,28.4l-2.9,2.9c-0.8,0.8-0.8,2.1,0,2.9
				c0.8,0.8,2.1,0.8,2.9,0l2.9-2.9L71.4,28.4L71.4,28.4z"/>
		</g>
		<g>
			<path fill="#7BD454" d="M55.5,48.3c-0.3,0-0.6-0.1-0.8-0.3c-0.4-0.4-0.4-1.1,0-1.6l12.2-12.2c0.4-0.4,1.1-0.4,1.6,0
				c0.4,0.4,0.4,1.1,0,1.6L56.3,48C56,48.2,55.8,48.3,55.5,48.3L55.5,48.3z"/>
		</g>
	</g>
	<g>
		<path fill="#7BD454" d="M66.2,75.3L66.2,75.3c-2,0-3.9-0.8-5.3-2.2L39.2,51.4c-4.4,0.9-9.1-0.5-12.3-3.7
			c-3.7-3.7-4.9-9.3-3.1-14.3c0.1-0.4,0.4-0.6,0.8-0.7c0.4-0.1,0.8,0,1,0.3l6.4,6.4l4.5-1.2l1.2-4.5l-6.4-6.4
			c-0.3-0.3-0.4-0.7-0.3-1c0.1-0.4,0.3-0.7,0.7-0.8c1.5-0.6,3.1-0.9,4.8-0.9c3.6,0,7,1.4,9.5,4c3.2,3.2,4.6,7.8,3.7,12.3l21.7,21.7
			c2.9,2.9,2.9,7.6,0,10.5C70,74.5,68.2,75.3,66.2,75.3L66.2,75.3z M39.6,49.1c0.3,0,0.6,0.1,0.8,0.3l22.1,22.1c1,1,2.3,1.5,3.7,1.5
			l0,0c1.4,0,2.7-0.5,3.7-1.5c2-2,2-5.3,0-7.4l-22.2-22c-0.3-0.3-0.4-0.7-0.3-1.1c1-3.9-0.1-7.9-2.9-10.8c-2.7-2.7-6.6-3.8-10.2-3.1
			l5.6,5.6c0.3,0.3,0.4,0.7,0.3,1.1l-1.5,5.7c-0.1,0.4-0.4,0.7-0.8,0.8l-5.7,1.5c-0.4,0.1-0.8,0-1.1-0.3L25.5,36
			c-0.7,3.7,0.4,7.5,3.1,10.2c2.8,2.8,6.9,3.9,10.8,2.9C39.4,49.1,39.5,49.1,39.6,49.1L39.6,49.1z"/>
	</g>
	<path fill="#7BD454" d="M65.8,65.5c-1,0-1.9,0.8-1.9,1.9c0,1,0.8,1.9,1.9,1.9c1,0,1.9-0.8,1.9-1.9C67.7,66.3,66.9,65.5,65.8,65.5
		L65.8,65.5z"/>
</g>
</svg>
