<?xml version="1.0" encoding="utf-8"?>
<!-- Generator: Adobe Illustrator 18.1.0, SVG Export Plug-In . SVG Version: 6.00 Build 0)  -->
<svg version="1.1" id="Layer_1" xmlns="http://www.w3.org/2000/svg" xmlns:xlink="http://www.w3.org/1999/xlink" x="0px" y="0px"
	 viewBox="0 0 100 100" enable-background="new 0 0 100 100" xml:space="preserve">
<g>
	<g>
		<path fill="#7BD454" d="M50,100C22.4,100,0,77.6,0,50S22.4,0,50,0s50,22.4,50,50S77.6,100,50,100L50,100z M50,2.2
			C23.7,2.2,2.2,23.7,2.2,50S23.7,97.8,50,97.8S97.8,76.3,97.8,50S76.3,2.2,50,2.2L50,2.2z"/>
	</g>
</g>
<g>
	<path fill="#7BD454" d="M77.8,73.8H24.4v-5.4c0-3.9,2.4-7.4,6.1-8.7l13.1-4.9v-6h2.2v7.5l-14.5,5.4c-2.8,1-4.6,3.6-4.6,6.6v3.1
		h48.9v-3.1c0-2.9-1.9-5.6-4.7-6.6l-14.5-5.4v-8h2.2v6.5l13,4.9c3.7,1.3,6.2,4.8,6.2,8.7V73.8z"/>
	<path fill="#7BD454" d="M50.7,51.7c-8,0-14.5-7.7-14.5-17.2s6.5-17.2,14.5-17.2S65.2,25,65.2,34.5C65.3,44,58.7,51.7,50.7,51.7z
		 M50.7,19.5c-6.8,0-12.3,6.7-12.3,15s5.5,15,12.3,15S63,42.8,63,34.5S57.5,19.5,50.7,19.5z"/>
	<path fill="#7BD454" d="M60.6,34.5c-3.2,0-5.7-1.5-7.9-4.5c-2.2,2.5-6.3,4.3-10.1,4.3c-2.1,0-3.9-0.4-5.7-1.4l1-2
		c1.5,0.8,2.9,1.1,4.7,1.1c3.6,0,7.9-2.1,9.1-4.6l0.9-1.8l1,1.8c2.4,4.1,4.8,5.4,8.9,4.6c0.3-0.1,0.6-0.1,0.9-0.1c0.1,0,0.3,0,0.4,0
		l0.3,2.2c-0.4,0.1-0.8,0-1.2,0.1C62.2,34.4,61.4,34.5,60.6,34.5z"/>
</g>
</svg>
