<?xml version="1.0" encoding="utf-8"?>
<!-- Generator: Adobe Illustrator 18.1.0, SVG Export Plug-In . SVG Version: 6.00 Build 0)  -->
<svg version="1.1" id="Layer_1" xmlns="http://www.w3.org/2000/svg" xmlns:xlink="http://www.w3.org/1999/xlink" x="0px" y="0px"
	 viewBox="0 0 100 100" enable-background="new 0 0 100 100" xml:space="preserve">
<g>
	<g>
		<path fill="#7BD454" d="M50,100C22.4,100,0,77.6,0,50S22.4,0,50,0s50,22.4,50,50S77.6,100,50,100L50,100z M50,2.2
			C23.7,2.2,2.2,23.7,2.2,50S23.7,97.8,50,97.8S97.8,76.3,97.8,50S76.3,2.2,50,2.2L50,2.2z"/>
	</g>
</g>
<g>
	<g>
		<path fill="#7BD454" d="M31.1,75.3c-0.2,0-0.3,0-0.5-0.1c-0.4-0.2-0.6-0.6-0.6-1V67h-3.2c-1.8,0-3.3-1.5-3.3-3.3V44.2
			c0-1.8,1.5-3.3,3.3-3.3h28.9c1.8,0,3.3,1.5,3.3,3.3v19.4c0,1.8-1.5,3.3-3.3,3.3H42L31.8,75C31.6,75.2,31.3,75.3,31.1,75.3
			L31.1,75.3z M26.8,43.1c-0.6,0-1.1,0.5-1.1,1.1v19.4c0,0.6,0.5,1.1,1.1,1.1h4.3c0.6,0,1.1,0.5,1.1,1.1v6l8.7-6.9
			c0.2-0.2,0.4-0.2,0.7-0.2h14c0.6,0,1.1-0.5,1.1-1.1V44.2c0-0.6-0.5-1.1-1.1-1.1L26.8,43.1L26.8,43.1z"/>
	</g>
	<g>
		<path fill="#7BD454" d="M68.9,59.2c-0.2,0-0.5-0.1-0.7-0.2l-10.5-8.3c-0.5-0.4-0.6-1.1-0.2-1.6c0.4-0.5,1.1-0.6,1.6-0.2l8.7,6.9
			v-6c0-0.6,0.5-1.1,1.1-1.1h4.3c0.6,0,1.1-0.5,1.1-1.1V28.1c0-0.6-0.5-1.1-1.1-1.1H44.4c-0.6,0-1.1,0.5-1.1,1.1v13.3
			c0,0.6-0.5,1.1-1.1,1.1s-1.1-0.5-1.1-1.1V28.1c0-1.8,1.5-3.3,3.3-3.3h28.9c1.8,0,3.3,1.5,3.3,3.3v19.4c0,1.8-1.5,3.3-3.3,3.3H70
			V58c0,0.4-0.2,0.8-0.6,1C69.3,59.1,69.1,59.2,68.9,59.2L68.9,59.2z"/>
	</g>
</g>
</svg>
