<?xml version="1.0" encoding="utf-8"?>
<!-- Generator: Adobe Illustrator 18.1.0, SVG Export Plug-In . SVG Version: 6.00 Build 0)  -->
<svg version="1.1" id="Layer_1" xmlns="http://www.w3.org/2000/svg" xmlns:xlink="http://www.w3.org/1999/xlink" x="0px" y="0px"
	 viewBox="0 0 100 100" enable-background="new 0 0 100 100" xml:space="preserve">
<g>
	<g>
		<path fill="#7BD454" d="M50,100C22.4,100,0,77.6,0,50S22.4,0,50,0s50,22.4,50,50S77.6,100,50,100L50,100z M50,2.2
			C23.7,2.2,2.2,23.7,2.2,50S23.7,97.8,50,97.8S97.8,76.3,97.8,50S76.3,2.2,50,2.2L50,2.2z"/>
	</g>
</g>
<path fill="#7BD454" d="M62,38.8l-6.7-2.5v-2.8c0.3-0.2,0.5-0.4,0.8-0.7c1.8-1.8,2.8-4.4,2.7-7.1c0-5.1-3.5-9.3-7.9-9.3
	S43,20.6,43,25.7c0,3.4,1.6,6.4,3.9,8v2.5l-6.8,2.5c-2,0.7-3.4,2.7-3.4,4.8v2.9c0,0.1,0.1,0.2,0.2,0.2h28.2c0.1,0,0.2-0.1,0.2-0.2
	v-2.9C65.5,41.5,64.1,39.5,62,38.8z M48.6,37.2v-2.6c0.7,0.3,1.5,0.4,2.3,0.4c0.9,0,1.9-0.2,2.8-0.6v2.8c0,0.1,0.1,0.2,0.2,0.2
	l7.7,2.9c1.4,0.5,2.3,1.8,2.3,3.3V45H38.5v-1.4c0-1.5,0.9-2.8,2.3-3.3l7.7-2.9C48.5,37.4,48.6,37.3,48.6,37.2z M44.6,25.6
	c0.6,0.2,1.2,0.3,2,0.3c1.9,0,4.1-0.9,5.3-2.1c1.2,1.5,2.5,2.2,4.2,2.2c0.4,0,0.7,0,1-0.1c-0.1,4.2-2.8,7.5-6.2,7.5
	s-6.2-3.4-6.2-7.7C44.6,25.7,44.6,25.6,44.6,25.6z M56,24.3c-1.4,0-2.4-0.7-3.4-2.4l-0.5-1c0-0.1-0.1-0.1-0.2-0.1l0,0
	c-0.1,0-0.2,0.1-0.2,0.1l-0.5,1c-0.6,1.2-2.8,2.3-4.6,2.3c-0.7,0-1.2-0.1-1.8-0.3c0.7-3.3,3.1-5.8,6.1-5.8s5.5,2.6,6.1,6.1
	C56.6,24.2,56.3,24.3,56,24.3z"/>
<g>
	<path fill="#7BD454" d="M74.6,59.1c-0.4,0-0.8-0.3-0.8-0.8v-3.2H26.5v3.2c0,0.4-0.3,0.8-0.8,0.8S25,58.7,25,58.3v-4
		c0-0.4,0.3-0.8,0.8-0.8h48.9c0.4,0,0.8,0.3,0.8,0.8v4C75.4,58.7,75,59.1,74.6,59.1z"/>
	<g>
		<line fill="none" x1="51" y1="58.3" x2="51" y2="54.3"/>
		<path fill="#7BD454" d="M51,59.1c-0.4,0-0.8-0.3-0.8-0.8v-4c0-0.4,0.3-0.8,0.8-0.8s0.8,0.3,0.8,0.8v4C51.8,58.7,51.4,59.1,51,59.1
			z"/>
	</g>
	<path fill="#7BD454" d="M25.8,72.4c-2.4,0-4.4-2-4.4-4.4s2-4.4,4.4-4.4s4.4,2,4.4,4.4S28.3,72.4,25.8,72.4z M25.8,65.1
		c-1.6,0-2.9,1.3-2.9,2.9s1.3,2.9,2.9,2.9s2.9-1.3,2.9-2.9S27.5,65.1,25.8,65.1z"/>
	<path fill="#7BD454" d="M51,72.4c-2.4,0-4.4-2-4.4-4.4s2-4.4,4.4-4.4s4.4,2,4.4,4.4S53.4,72.4,51,72.4z M51,65.1
		c-1.6,0-2.9,1.3-2.9,2.9s1.3,2.9,2.9,2.9c1.6,0,2.9-1.3,2.9-2.9S52.6,65.1,51,65.1z"/>
	<path fill="#7BD454" d="M75.2,72.4c-2.4,0-4.4-2-4.4-4.4s2-4.4,4.4-4.4s4.4,2,4.4,4.4S77.6,72.4,75.2,72.4z M75.2,65.1
		c-1.6,0-2.9,1.3-2.9,2.9s1.3,2.9,2.9,2.9s2.9-1.3,2.9-2.9S76.8,65.1,75.2,65.1z"/>
</g>
</svg>
