<?xml version="1.0" encoding="utf-8"?>
<!-- Generator: Adobe Illustrator 18.1.0, SVG Export Plug-In . SVG Version: 6.00 Build 0)  -->
<svg version="1.1" id="Layer_1" xmlns="http://www.w3.org/2000/svg" xmlns:xlink="http://www.w3.org/1999/xlink" x="0px" y="0px"
	 viewBox="0 0 100 100" enable-background="new 0 0 100 100" xml:space="preserve">
<g>
	<g>
		<path fill="#7BD454" d="M50,99.9c-27.6,0-50-22.4-50-50s22.4-50,50-50s50,22.4,50,50S77.6,99.9,50,99.9L50,99.9z M50,2.1
			C23.7,2.1,2.2,23.6,2.2,49.9S23.6,97.7,50,97.7s47.8-21.4,47.8-47.8C97.8,23.6,76.3,2.1,50,2.1L50,2.1z"/>
	</g>
</g>
<g>
	<g>
		<path fill="#7BD454" d="M64.9,74.6c-9.6,0-19.5-4.4-27.3-12.2C29.5,54.3,25,44.1,25.3,34.2v-0.4l0.2-0.3c0.7-0.9,1.4-1.6,2.1-2.3
			c2.6-2.6,5.6-4.6,9-5.9c0.3-0.1,0.7-0.2,1-0.2c1.2,0,3.1,0.6,3.5,1.8c1.2,3.3,2.7,7.7,3.8,11.9c0.2,0.8,0,3.1-1.2,3.8L40,45.2
			c-0.3,0.2-0.4,0.5-0.4,0.7c-0.1,0.7,0.1,1.5,0.6,2.3c1.6,2.1,3.4,4.2,5.4,6.3c2,2,4.1,3.8,6.2,5.3c1.1,0.8,2.5,0.9,2.9,0.2
			l2.5-3.9c0.6-1,2.5-1.2,3.2-1.2c0.2,0,0.4,0,0.6,0.1c5.1,1.1,8.1,2.1,12,3.9c1.2,0.5,2.1,3.1,1.5,4.6c-1.3,3.4-3.3,6.4-5.9,9
			c-0.7,0.7-1.5,1.4-2.4,2.1H66H64.9L64.9,74.6z M27.5,34.7c-0.1,9.1,4.1,18.6,11.5,26l0.2,0.2c7.3,7.3,16.7,11.5,25.7,11.5h0.3
			c0.7-0.5,1.3-1.1,1.9-1.7c2.4-2.4,4.2-5.1,5.4-8.3c0.1-0.4-0.2-1.5-0.5-1.8c-3.6-1.6-6.5-2.5-11.4-3.6c-0.7,0-1.4,0.2-1.5,0.3
			l-2.4,3.8c-1.1,1.7-4,1.9-6.1,0.4C48.3,59.9,46.1,58,44,56c-2.1-2.1-4-4.3-5.6-6.5c-0.9-1.2-1.3-2.7-1-4c0.2-0.9,0.7-1.7,1.4-2.1
			l3.9-2.5c0.1-0.2,0.3-1.1,0.2-1.4c-1.1-4.1-2.6-8.4-3.8-11.7c-0.1,0.1-0.8-0.3-1.4-0.3c-0.2,0-0.2,0-0.2,0c-3.1,1.2-5.9,3-8.3,5.4
			C28.6,33.4,28.1,34,27.5,34.7L27.5,34.7z"/>
	</g>
	<g>
		<g>
			<path fill="#7BD454" d="M64.7,51.7c-0.3,0-0.6-0.1-0.8-0.4c-0.4-0.4-0.4-1.2,0.1-1.6l5-4.6l-5-4.6c-0.4-0.4-0.5-1.1-0.1-1.6
				c0.4-0.4,1.1-0.5,1.6-0.1l5.8,5.5c0.2,0.2,0.4,0.5,0.4,0.8s-0.1,0.6-0.4,0.8l-5.8,5.4C65.2,51.6,65,51.7,64.7,51.7L64.7,51.7z"/>
		</g>
		<g>
			<path fill="#7BD454" d="M69.2,46.2H51.7c-0.6,0-1.1-0.5-1.1-1.1s0.5-1.1,1.1-1.1h17.4c0.6,0,1.1,0.5,1.1,1.1
				C70.3,45.7,69.8,46.2,69.2,46.2L69.2,46.2z"/>
		</g>
	</g>
	<g>
		<g>
			<path fill="#7BD454" d="M57.6,38.9c-0.3,0-0.5-0.1-0.8-0.3L51,33.1c-0.2-0.2-0.4-0.5-0.4-0.8s0.1-0.6,0.4-0.8l5.8-5.4
				c0.5-0.4,1.2-0.4,1.6,0.1c0.4,0.4,0.4,1.2-0.1,1.6l-5,4.6l5,4.6c0.4,0.4,0.5,1.1,0.1,1.6C58.2,38.8,57.9,38.9,57.6,38.9
				L57.6,38.9z"/>
		</g>
		<g>
			<path fill="#7BD454" d="M70.5,33.4H53.1c-0.6,0-1.1-0.5-1.1-1.1c0-0.6,0.5-1.1,1.1-1.1h17.4c0.6,0,1.1,0.5,1.1,1.1
				C71.7,32.9,71.2,33.4,70.5,33.4L70.5,33.4z"/>
		</g>
	</g>
</g>
</svg>
