<?xml version="1.0" encoding="utf-8"?>
<!-- Generator: Adobe Illustrator 16.0.4, SVG Export Plug-In . SVG Version: 6.00 Build 0)  -->
<!DOCTYPE svg PUBLIC "-//W3C//DTD SVG 1.1//EN" "http://www.w3.org/Graphics/SVG/1.1/DTD/svg11.dtd">
<svg version="1.1" id="Layer_1" xmlns="http://www.w3.org/2000/svg" xmlns:xlink="http://www.w3.org/1999/xlink" x="0px" y="0px"
	 width="141px" height="26px" viewBox="305.863 292.88 141 20" enable-background="new 305.863 292.88 141 20" xml:space="preserve"
	>
<g>
	<path fill="#888888" d="M341.023,298.609h5.432l0.239,1.653c0.418-1.321,3.165-2.258,4.835-2.258c3.881,0,5.432,2.203,5.432,6.06
		v8.318h-6.028v-7.438c0-1.49-0.299-2.588-1.91-2.588c-1.492,0-2.269,1.488-2.269,2.534v7.492h-5.731V298.609L341.023,298.609z"/>
	<path fill="#888888" d="M305.863,312.437v-19.503h10.088c6.03,0,8.775,2.7,8.775,6.611c0,4.186-2.506,7.05-8.775,7.05h-3.402v5.841
		L305.863,312.437L305.863,312.437z M315.236,301.858c1.614,0,3.343-0.331,3.343-2.038c0-1.763-1.851-2.148-3.343-2.148h-2.687
		v4.187H315.236L315.236,301.858z"/>
	<path fill="#888888" d="M407.403,298.609h5.493l0.179,1.653c0.474-1.321,3.22-2.258,4.892-2.258c3.819,0,5.432,2.203,5.432,6.06
		v8.373h-6.028v-7.493c0-1.49-0.359-2.588-1.967-2.588c-1.437,0-2.212,1.488-2.212,2.534v7.547h-5.79L407.403,298.609
		L407.403,298.609z"/>
	<path fill="#888888" d="M379.706,307.479c0,0.551,0.298,1.377,0.656,1.652c0.418,0.275,0.958,0.554,1.612,0.554
		c1.074,0,1.911-0.273,1.911-1.212c0.059-2.313-9.072-0.273-9.072-5.783c0-3.857,3.221-4.738,6.564-4.738
		c3.343,0,7.939,0.606,7.759,4.793h-5.073c0-0.386-0.179-0.661-0.418-0.992c-0.358-0.386-0.776-0.55-1.549-0.605
		c-1.015-0.055-1.971,0.109-1.971,0.825c0.061,2.146,9.432,0.717,9.432,5.784c0,3.524-2.686,5.124-7.879,5.124
		c-3.284-0.054-7.402-1.596-7.402-5.397h5.43L379.706,307.479L379.706,307.479z"/>
	<path fill="#888888" d="M441.489,303.952c0-0.334,0-0.771-0.478-1.322c-0.239-0.275-0.777-0.882-1.612-0.882
		c-2.268,0-2.865,2.039-2.865,3.69c0,1.93,0.954,3.524,2.743,3.524c1.552,0,2.327-1.32,2.327-2.425h5.254
		c0.122,2.864-2.029,6.281-7.816,6.281c-4.719,0-8.06-3.032-8.06-7.438c0-5.343,4.299-7.382,7.998-7.382
		c5.015,0,7.88,2.81,7.817,5.952L441.489,303.952L441.489,303.952L441.489,303.952z"/>
	<path fill="#888888" d="M334.636,312.437l-0.596-1.157c-1.134,0.882-2.329,1.376-4.238,1.376c-1.85-0.053-5.492-0.274-5.492-3.968
		c0-6.059,9.79-3.304,9.79-6.279c0-0.992-1.194-0.937-1.851-0.937c-1.193,0-1.967,0.221-2.149,1.872h-5.014
		c0-2.864,0.958-5.288,7.522-5.288c6.389,0,7.046,3.084,7.046,6.115v6.282c0,0.825,0.056,1.211,0.656,1.815v0.112L334.636,312.437
		L334.636,312.437z M334.159,306.101c-2.03,0.884-4.597,0.826-4.656,2.203c0,0.883,0.54,1.322,1.731,1.322
		C333.203,309.626,334.279,307.754,334.159,306.101L334.159,306.101z M368.304,312.437l-0.597-1.157
		c-1.134,0.882-2.388,1.376-4.238,1.376c-1.911-0.053-5.554-0.274-5.554-3.968c0-6.059,9.792-3.304,9.85-6.279
		c0-0.992-1.253-0.937-1.851-0.937c-1.253,0-1.967,0.221-2.149,1.872h-5.014c0-2.864,0.895-5.288,7.521-5.288
		c6.328,0,6.984,3.084,6.984,6.115v6.282c0,0.825,0.06,1.211,0.657,1.815v0.112L368.304,312.437L368.304,312.437z M367.826,306.101
		c-2.03,0.884-4.657,0.826-4.657,2.203c0,0.883,0.478,1.322,1.731,1.322C366.812,309.626,367.945,307.754,367.826,306.101
		L367.826,306.101z"/>
	<path fill="#888888" d="M430.027,312.437v-13.829h-5.553v13.83L430.027,312.437L430.027,312.437z M424.477,296.847h5.554v-3.967
		h-5.554V296.847L424.477,296.847z"/>
	<path fill="#888888" d="M398.45,298.113c4.955,0,7.996,3.195,7.996,7.382c0,4.241-3.044,7.378-7.996,7.378
		c-4.957,0-8.06-3.137-8.06-7.378C390.39,301.309,393.495,298.113,398.45,298.113L398.45,298.113z M395.823,305.495
		c0,1.708,0.596,3.801,2.629,3.855c2.029,0,2.562-2.147,2.562-3.855c0-1.655-0.537-3.805-2.562-3.805
		C396.419,301.693,395.882,303.843,395.823,305.495L395.823,305.495z"/>
</g>
</svg>
