<?xml version="1.0" encoding="utf-8"?>
<!-- Generator: Adobe Illustrator 16.0.4, SVG Export Plug-In . SVG Version: 6.00 Build 0)  -->
<!DOCTYPE svg PUBLIC "-//W3C//DTD SVG 1.1//EN" "http://www.w3.org/Graphics/SVG/1.1/DTD/svg11.dtd">
<svg version="1.1" id="Layer_1" xmlns="http://www.w3.org/2000/svg" xmlns:xlink="http://www.w3.org/1999/xlink" x="0px" y="0px"
	 width="260.49px" height="100.268px" viewBox="0 0 260.49 100.268" enable-background="new 0 0 260.49 100.268"
	 xml:space="preserve">
<g>
	<path fill="#888888" d="M25.37,84.705c1.011,0,1.98-0.857,2.149-1.917c0.199-1.03-0.486-1.889-1.496-1.889
		c-1.01,0-1.979,0.857-2.15,1.889C23.675,83.848,24.332,84.705,25.37,84.705z"/>
	<path fill="#888888" d="M93.942,87.769c0,0,2.218,0,2.262,0c0.309,0,0.49-0.128,0.56-0.423c0.1-0.426,0.282-1.165,0.334-1.368
		c0.067-0.266-0.084-0.468-0.373-0.468c-0.07,0-1.132,0-2.231,0c0.161-0.65,0.786-2.769,0.786-4.148c0-2.756-2.294-5.102-5.55-5.102
		c-3.676,0-6.069,2.518-6.069,6.06c0,1.033,0.377,2.237,0.847,2.984c-0.196-0.013-0.397-0.019-0.606-0.019
		c-2.794,0-4.554,1.546-4.554,3.796c0,2.112,1.632,2.933,3.168,3.478c1.364,0.484,2.621,0.711,2.621,1.798
		c0,0.733-0.691,1.163-2.044,1.163c-1.605,0-2.488-0.771-2.712-1.063c0.152-0.121,0.379-0.412,0.379-0.896
		c0-0.677-0.466-1.229-1.331-1.229c-0.732,0-1.351,0.609-1.506,1.41c-1.175,0.981-2.459,1.616-4.279,1.616
		c-1.792,0-2.722-0.95-2.722-2.974c0.419,0.131,1.514,0.287,2.237,0.287c3.034,0,5.102-1.406,5.102-4.223
		c0-1.514-1.303-3.104-3.882-3.104h-0.006c-3.392,0-5.291,2.191-6.121,4.602c-0.232-0.058-0.465-0.113-0.698-0.166
		c0.186-0.535,0.319-1.155,0.319-1.842c0-1.19-0.723-2.594-2.657-2.594c-1.347,0-2.625,0.899-3.511,2.249
		c0.221-0.879,0.366-1.466,0.376-1.505c0.058-0.229-0.036-0.486-0.388-0.486c-0.452,0-1.984,0-1.984,0
		c-0.282,0-0.483,0.102-0.563,0.431c-0.054,0.219-0.736,2.949-1.4,5.606c-0.418,1.656-2.581,3.72-5.3,3.72
		c-1.792,0-2.721-1.015-2.721-3.037c0.469,0.189,1.513,0.351,2.236,0.351c3.158,0,5.102-1.406,5.102-4.222
		c0-1.514-1.304-3.105-3.882-3.105h-0.005c-3.819,0-6.158,3.025-6.555,6.456c-0.165,1.427-1.344,3.385-2.624,3.385
		c-0.623,0-0.971-0.399-0.971-1.077c0-0.585,0.404-2.018,0.847-3.811c0.148-0.6,0.374-1.516,0.623-2.529c1.128,0,2.034,0,2.077,0
		c0.309,0,0.49-0.128,0.561-0.423c0.1-0.425,0.281-1.165,0.333-1.368c0.067-0.266-0.083-0.468-0.374-0.468c-0.068,0-2.041,0-2.041,0
		s0.94-3.824,0.962-3.923c0.091-0.389-0.229-0.613-0.562-0.542c0,0-1.578,0.315-1.871,0.377c-0.294,0.062-0.521,0.227-0.628,0.658
		c-0.014,0.055-0.836,3.43-0.836,3.43s-1.602,0-1.639,0c-0.309,0-0.49,0.13-0.56,0.424c-0.099,0.424-0.283,1.166-0.333,1.367
		c-0.067,0.266,0.084,0.468,0.373,0.468c0.059,0,0.732,0,1.607,0c-0.011,0.047-0.581,2.256-1.041,4.232
		c-0.217,0.951-0.943,3.177-2.132,3.177c-0.709,0-1.01-0.364-1.01-1.147c0-1.234,1.191-4.323,1.191-5.726
		c0-1.873-0.985-2.958-3.002-2.958c-1.272,0-2.591,0.838-3.149,1.572c0,0,0.169-0.601,0.228-0.833
		c0.062-0.245-0.067-0.484-0.382-0.484c-0.451,0-1.544,0-1.973,0c-0.419,0-0.536,0.229-0.598,0.48
		c-0.024,0.102-0.735,2.948-1.417,5.682c-0.467,1.87-1.601,3.435-2.813,3.435c-0.624,0-0.901-0.398-0.901-1.075
		c0-0.586,0.371-2.032,0.813-3.826c0.538-2.184,1.013-3.98,1.064-4.19c0.066-0.27-0.052-0.504-0.392-0.504c-0.427,0-1.534,0-1.985,0
		c-0.359,0-0.488,0.191-0.564,0.459c0,0-0.558,2.156-1.15,4.558c-0.43,1.742-0.904,3.517-0.904,4.351
		c0,1.488,0.655,2.609,2.456,2.609c1.39,0,2.49-0.719,3.33-1.635c-0.124,0.496-0.203,0.81-0.21,0.842
		c-0.073,0.283,0.015,0.534,0.343,0.534c0.451,0,1.586,0,2.031,0c0.354,0,0.489-0.146,0.563-0.459
		c0.071-0.301,1.587-6.386,1.587-6.386c0.401-1.636,1.393-2.718,2.788-2.718c0.662,0,1.234,0.447,1.167,1.315
		C35.43,90.029,34.3,93.46,34.3,94.966c0,1.141,0.415,2.615,2.518,2.615c1.434,0,2.49-0.702,3.258-1.605
		c0.281,0.96,1.025,1.605,2.391,1.605c2.271,0,3.638-1.374,4.442-2.752c0.667,1.602,2.23,2.75,4.52,2.75
		c2.334,0,4.142-1.004,5.422-2.368c-0.23,0.92-0.386,1.545-0.399,1.599c-0.072,0.286,0.051,0.514,0.382,0.514
		c0.442,0,1.819,0,2.009,0c0.275,0,0.471-0.143,0.543-0.438c0.035-0.146,0.325-1.29,0.736-2.916c0.784-3.112,2.045-6.342,3.94-6.342
		c0.667,0,0.941,0.381,0.941,0.981c0,0.283-0.081,0.526-0.15,0.659c-0.918-0.187-1.657,0.275-1.657,1.275
		c0,0.651,0.671,1.244,1.579,1.244c0.693,0,1.267-0.173,1.723-0.488c0.428,0.091,0.886,0.192,1.346,0.301
		c-0.07,0.468-0.104,0.929-0.104,1.363c0,2.499,1.749,4.617,4.884,4.617c2.457,0,4.142-0.917,5.598-2.092
		c0.7,1.168,2.466,2.112,4.783,2.112c3.177,0,4.978-1.688,4.978-3.912c0-2.017-1.622-2.757-3.294-3.374
		c-1.359-0.501-2.493-0.774-2.493-1.754c0-0.804,0.62-1.171,1.683-1.171c0.689,0,1.207,0.15,1.483,0.229
		c0.274,0.7,0.841,1.475,1.81,1.475c0.82,0,1.187-0.661,1.187-1.271c0-1.732-2.83-1.914-2.83-5.631c0-2.312,1.282-4.217,3.937-4.217
		c1.846,0,3.05,1.192,3.05,3.118c0,1.589-0.944,4.415-0.944,4.415s-1.567,0-1.605,0c-0.308,0-0.49,0.129-0.56,0.424
		c-0.1,0.424-0.282,1.166-0.334,1.367c-0.067,0.266,0.084,0.468,0.374,0.468c0.058,0,1.566,0,1.566,0s-1.62,6.094-1.62,7.202
		c0,1.488,0.823,2.608,2.625,2.608c2.547,0,4.14-1.688,4.833-4.145c0.053-0.189-0.052-0.345-0.24-0.345c-0.327,0-0.823,0-0.972,0
		c-0.194,0-0.306,0.113-0.356,0.308c-0.219,0.871-0.763,1.788-1.835,1.788c-0.623,0-0.971-0.399-0.971-1.077
		c0-0.585,0.381-1.955,0.848-3.811C93.546,89.416,93.942,87.769,93.942,87.769z M73.851,87.665c0.901,0,1.329,0.611,1.329,1.34
		c0,1.232-0.937,1.984-2.403,1.984c-0.525,0-1.258-0.126-1.69-0.273C71.268,89.581,72.072,87.665,73.851,87.665z M52.654,87.665
		c0.986,0,1.329,0.611,1.329,1.34c0,1.232-0.938,1.984-2.403,1.984c-0.525,0-1.258-0.126-1.691-0.273
		C50.07,89.581,50.783,87.665,52.654,87.665z"/>
	<path fill="#888888" d="M13.659,76.234c-6.429,0-9.671,4.702-9.671,8.623c0,2.375,0.881,4.486,2.771,5.273
		c0.31,0.129,0.588,0.004,0.678-0.346c0.062-0.242,0.21-0.854,0.276-1.107c0.091-0.346,0.056-0.468-0.195-0.77
		c-0.544-0.656-0.893-1.505-0.893-2.707c0-3.489,2.559-6.612,6.663-6.612c3.634,0,5.631,2.266,5.631,5.29
		c0,3.981-1.727,7.339-4.291,7.339c-1.416,0-2.475-1.193-2.136-2.657c0.407-1.749,1.195-3.638,1.195-4.898
		c0-1.13-0.595-2.072-1.826-2.072c-1.448,0-2.609,1.527-2.609,3.573c0,1.303,0.432,2.185,0.432,2.185s-1.481,6.4-1.741,7.521
		c-0.518,2.233-0.078,4.97-0.041,5.246c0.021,0.164,0.228,0.203,0.321,0.079c0.134-0.177,1.857-2.35,2.443-4.518
		c0.166-0.613,0.952-3.795,0.952-3.795c0.47,0.915,1.845,1.723,3.306,1.723c4.35,0,7.302-4.046,7.302-9.461
		C22.227,80.048,18.827,76.234,13.659,76.234z"/>
</g>
<g>
	<path fill="#888888" d="M104.176,46.334c-1.949,0-3.248-1.527-3.248-3.257V35.85c0-1.688,1.299-3.253,3.248-3.253
		c1.929,0,3.19,1.566,3.19,3.253v7.227C107.366,44.805,106.085,46.334,104.176,46.334 M105.889,35.85c0-0.904-0.611-1.83-1.733-1.83
		c-1.083,0-1.731,0.926-1.731,1.83v7.227c0,0.901,0.67,1.828,1.752,1.828c1.102,0,1.713-0.927,1.713-1.828L105.889,35.85
		L105.889,35.85z"/>
	<path fill="#888888" d="M113.113,46.334c-0.767,0-1.2-0.203-1.515-0.362c-0.138-0.062-0.237,0.02-0.237,0.158v3.515
		c0,0.14-0.119,0.262-0.236,0.262h-1.022c-0.139,0-0.238-0.122-0.238-0.262v-9.742c0-1.729,1.341-3.257,3.249-3.257
		c1.91,0,3.19,1.548,3.19,3.257v3.175C116.304,44.765,115.063,46.334,113.113,46.334 M114.827,39.902
		c0-0.905-0.611-1.831-1.714-1.831c-1.104,0-1.752,0.926-1.752,1.831v3.175c0,0.902,0.649,1.829,1.732,1.829
		c1.123,0,1.734-0.926,1.734-1.829V39.902L114.827,39.902z"/>
	<path fill="#888888" d="M124.553,42.152h-4.232c-0.138,0-0.256,0.122-0.256,0.261v0.665c0,0.902,0.667,1.829,1.752,1.829
		c1.101,0,1.694-0.845,2.008-1.304c0.081-0.125,0.236-0.144,0.334-0.082l0.649,0.459c0.256,0.184,0.197,0.324,0.158,0.424
		c-0.276,0.562-1.242,1.93-3.15,1.93c-1.952,0-3.248-1.526-3.248-3.256v-3.173c0-1.69,1.296-3.258,3.248-3.258
		c1.929,0,3.189,1.567,3.189,3.258v1.787C125.006,41.93,124.77,42.152,124.553,42.152 M120.065,39.902v0.663
		c0,0.141,0.118,0.261,0.256,0.261h2.951c0.139,0,0.257-0.121,0.257-0.261v-0.663c0-0.905-0.611-1.831-1.733-1.831
		C120.713,38.071,120.065,38.996,120.065,39.902z"/>
	<path fill="#888888" d="M133.534,46.131h-0.942c-0.141,0-0.278-0.123-0.278-0.259v-5.969c0-0.905-0.608-1.831-1.732-1.831
		c-1.081,0-1.733,0.926-1.733,1.831v5.969c0,0.136-0.138,0.259-0.257,0.259h-0.962c-0.138,0-0.275-0.081-0.275-0.259v-8.764
		c0-0.142,0.096-0.261,0.236-0.261h0.847c0.292,0,0.255,0.403,0.452,0.28c0.511-0.319,1.1-0.48,1.71-0.48
		c1.929,0,3.191,1.567,3.191,3.257v5.969C133.79,46.007,133.653,46.131,133.534,46.131z"/>
	<path fill="#888888" d="M140.806,34.275h-1.951c-0.139,0-0.256,0.139-0.256,0.28v11.315c0,0.136-0.139,0.259-0.274,0.259h-0.964
		c-0.118,0-0.258-0.123-0.258-0.259V34.535c0-0.141-0.138-0.26-0.256-0.26h-1.99c-0.136,0-0.256-0.142-0.256-0.283v-0.823
		c0-0.121,0.12-0.26,0.256-0.26h5.949c0.135,0,0.254,0.138,0.254,0.26v0.823C141.06,34.134,140.94,34.275,140.806,34.275z"/>
	<path fill="#888888" d="M159.873,32.934h-0.967c-0.121,0-0.255,0.121-0.255,0.262v12.676c0,0.136,0.134,0.259,0.255,0.259h0.967
		c0.135,0,0.274-0.123,0.274-0.259V33.197C160.146,33.055,160.006,32.934,159.873,32.934z"/>
	<path fill="#888888" d="M147.22,46.131h-0.845c-0.298,0-0.181-0.462-0.493-0.238c0,0-0.574,0.441-1.613,0.441
		c-1.832,0-3.248-1.429-3.248-3.257c0-1.91,1.416-3.255,3.248-3.255c0.51,0,1.021,0.201,1.475,0.362
		c0.179,0.059,0.236-0.122,0.236-0.282c0-0.966-0.689-1.829-1.711-1.829c-0.769,0-1.285,0.2-1.695,0.444
		c-0.157,0.098-0.334,0.058-0.411-0.083l-0.417-0.744c-0.078-0.161,0-0.322,0.098-0.381c0.79-0.442,1.557-0.665,2.426-0.665
		c1.828,0,3.188,1.47,3.188,3.258v5.968C147.459,46.007,147.358,46.131,147.22,46.131 M144.269,41.248
		c-1.143,0-1.75,0.966-1.75,1.829c0,0.923,0.688,1.828,1.75,1.828c1.102,0,1.711-0.905,1.711-1.828
		C145.979,42.212,145.308,41.248,144.269,41.248z"/>
	<path fill="#888888" d="M153.174,36.646c-0.674,0-1.269,0.188-1.762,0.501V33.13c0-0.141-0.118-0.262-0.237-0.262h-1.021
		c-0.116,0-0.236,0.12-0.236,0.262v9.947c0,1.729,1.299,3.255,3.249,3.255h0.002c0,0,0.003,0,0.006,0c0.007,0,0.017,0,0.022,0
		c0.045,0,0.088-0.003,0.132-0.003c0.019,0,0.04-0.004,0.06-0.004c0.037-0.002,0.075-0.006,0.111-0.009
		c0.014-0.002,0.027-0.006,0.043-0.006c0.295-0.03,0.555-0.095,0.783-0.186c0.002-0.001,0.008-0.001,0.013-0.002
		c0.035-0.014,0.067-0.029,0.104-0.045c1.187-0.5,1.924-1.693,1.924-3.002v-3.173C156.365,38.214,155.103,36.646,153.174,36.646
		 M151.421,39.902c0-0.905,0.646-1.831,1.734-1.831c1.119,0,1.729,0.926,1.729,1.831v3.175c0,0.41-0.129,0.826-0.368,1.154
		c-0.035,0.029-0.065,0.061-0.094,0.093c-0.058,0.078-0.156,0.195-0.312,0.303c-0.18,0.127-0.395,0.214-0.635,0.254
		c-0.004,0-0.01,0-0.012,0c-0.021,0.005-0.043,0.008-0.064,0.012c-0.024,0.002-0.049,0.005-0.074,0.008c-0.01,0-0.021,0-0.032,0.002
		c-0.04,0.003-0.082,0.004-0.126,0.004c-1.079-0.004-1.748-0.927-1.748-1.828v-3.175L151.421,39.902L151.421,39.902z"/>
	<path fill="#888888" d="M168.447,42.152h-4.233c-0.137,0-0.257,0.122-0.257,0.261v0.665c0,0.902,0.668,1.829,1.752,1.829
		c1.103,0,1.694-0.845,2.008-1.304c0.078-0.125,0.235-0.144,0.333-0.082l0.649,0.459c0.257,0.184,0.2,0.324,0.159,0.424
		c-0.274,0.562-1.24,1.93-3.149,1.93c-1.949,0-3.25-1.526-3.25-3.256v-3.173c0-1.69,1.3-3.258,3.25-3.258
		c1.927,0,3.19,1.567,3.19,3.258v1.787C168.899,41.93,168.662,42.152,168.447,42.152 M163.957,39.902v0.663
		c0,0.141,0.12,0.261,0.258,0.261h2.954c0.135,0,0.255-0.121,0.255-0.261v-0.663c0-0.905-0.612-1.831-1.733-1.831
		C164.604,38.071,163.957,38.996,163.957,39.902z"/>
	<path fill="#888888" d="M170.906,36.753c0.25,0,0.487,0.063,0.719,0.191c0.228,0.124,0.41,0.308,0.54,0.547
		c0.132,0.236,0.199,0.486,0.199,0.746c0,0.258-0.066,0.505-0.193,0.741c-0.129,0.232-0.307,0.414-0.539,0.548
		c-0.23,0.128-0.471,0.195-0.725,0.195s-0.495-0.066-0.725-0.195c-0.231-0.134-0.41-0.315-0.539-0.548
		c-0.129-0.236-0.192-0.483-0.192-0.741c0-0.26,0.065-0.51,0.194-0.746c0.133-0.24,0.313-0.423,0.543-0.547
		C170.416,36.816,170.657,36.753,170.906,36.753 M170.903,37.05c-0.198,0-0.389,0.053-0.571,0.152
		c-0.185,0.103-0.327,0.249-0.433,0.437c-0.105,0.191-0.159,0.391-0.159,0.598s0.052,0.404,0.155,0.594
		c0.103,0.186,0.248,0.329,0.431,0.438c0.184,0.104,0.377,0.156,0.577,0.156c0.205,0,0.398-0.052,0.58-0.156
		c0.185-0.108,0.328-0.251,0.433-0.438c0.103-0.19,0.153-0.388,0.153-0.594c0-0.208-0.051-0.406-0.155-0.598
		c-0.106-0.188-0.251-0.334-0.435-0.437C171.295,37.102,171.104,37.05,170.903,37.05 M170.25,39.022v-1.559h0.31
		c0.295,0,0.457,0.004,0.494,0.005c0.104,0.011,0.182,0.028,0.24,0.062c0.057,0.033,0.105,0.083,0.143,0.153
		c0.041,0.062,0.06,0.14,0.06,0.219c0,0.115-0.038,0.211-0.11,0.291c-0.07,0.079-0.171,0.13-0.301,0.149
		c0.048,0.017,0.084,0.038,0.109,0.059c0.023,0.019,0.062,0.061,0.103,0.119c0.015,0.016,0.05,0.08,0.115,0.189l0.176,0.315H171.2
		l-0.126-0.255c-0.085-0.167-0.155-0.273-0.212-0.317c-0.057-0.046-0.129-0.065-0.217-0.065h-0.08v0.637h-0.314 M170.563,38.135
		h0.125c0.179,0,0.289-0.004,0.332-0.019c0.043-0.014,0.078-0.037,0.103-0.072c0.024-0.036,0.037-0.076,0.037-0.12
		s-0.013-0.081-0.037-0.114c-0.024-0.032-0.06-0.058-0.104-0.071c-0.045-0.015-0.156-0.021-0.33-0.021h-0.125V38.135L170.563,38.135
		z"/>
	<path fill="#888888" d="M130.927,16.213c0.001-0.012,0-0.082,0-0.082h-0.001c-0.092-1.215-3.562-2.189-7.829-2.189
		c-4.263,0-7.731,0.976-7.823,2.189h-0.001v0.008c0,0.016,0,0.071,0,0.085v1.218c0,0.015-0.003,0.028-0.003,0.043
		c0,1.235,3.506,2.242,7.829,2.242c4.327,0,7.832-1.004,7.832-2.242c0-0.012,0-0.021-0.002-0.032L130.927,16.213L130.927,16.213z"/>
	<path fill="#CCCCCC" d="M111.211,18.728c0-0.004,0.001-0.012,0.001-0.019c0-1.605-4.163-2.908-9.302-2.908
		c-5.134,0-9.299,1.303-9.299,2.908c0,0.007,0.001,0.014,0.001,0.019l0,0v1.622h0.001c0.033,1.597,4.183,2.889,9.297,2.889
		c5.118,0,9.267-1.293,9.301-2.889h0.004v-1.622H111.211L111.211,18.728z"/>
	<path fill="#CCCCCC" d="M132.349,26.427c0-0.012-0.005-0.138-0.005-0.138c-0.153-2.348-5.506-4.234-12.09-4.234
		c-6.585,0-11.937,1.888-12.091,4.234h-0.004c0,0-0.001,0.142,0,0.159v1.889h0.004c0.146,2.348,5.504,4.237,12.091,4.237
		c6.589,0,11.944-1.891,12.09-4.237h0.005c0,0,0-0.123,0-0.133V26.427z"/>
	<path fill="#CCCCCC" d="M114.845,11.756c-0.062-0.816-3.01-1.474-6.635-1.474c-3.627,0-6.571,0.657-6.634,1.474h-0.004v0.862h0.004
		c0.071,0.815,3.014,1.471,6.634,1.471c3.621,0,6.561-0.654,6.632-1.471h0.004v-0.862H114.845z"/>
	<path fill="#6B6C6C" d="M130.888,17.455v-1.235c-0.057,1.219-3.521,2.2-7.791,2.2c-4.252,0-7.707-0.976-7.786-2.188v1.213
		c0,0.014-0.004,0.028-0.004,0.042c0,1.23,3.49,2.229,7.791,2.229c4.307,0,7.792-1,7.792-2.229
		C130.89,17.476,130.89,17.467,130.888,17.455z"/>
	<path fill="#888888" d="M111.211,18.728c-0.03,1.601-4.181,2.895-9.301,2.895c-5.117,0-9.267-1.293-9.297-2.895h-0.001v1.622h0.001
		c0.033,1.597,4.183,2.889,9.297,2.889c5.118,0,9.267-1.293,9.301-2.889h0.004v-1.622H111.211L111.211,18.728z"/>
	<path fill="#888888" d="M132.349,26.427c-0.051,2.381-5.445,4.304-12.096,4.304c-6.63,0-12.012-1.911-12.095-4.281
		c0,0-0.001,1.824,0,1.842v0.045h0.004c0.146,2.348,5.503,4.237,12.091,4.237c6.589,0,11.944-1.891,12.09-4.237h0.006V26.427
		L132.349,26.427z"/>
	<path fill="#888888" d="M108.21,13.281c-3.666,0-6.637-0.673-6.637-1.5v0.836h0.003c0.071,0.815,3.014,1.47,6.634,1.47
		c3.621,0,6.561-0.653,6.632-1.47h0.004v-0.836C114.847,12.609,111.876,13.281,108.21,13.281z"/>
</g>
<g>
	<path fill="#888888" d="M224.563,18.962c-0.476-0.177-1.021-0.265-1.674-0.265c-0.812,0-1.57,0.229-2.293,0.723
		c-0.266,0.175-0.513,0.369-0.759,0.616c-0.812,0.845-1.217,1.867-1.217,3.083c0,1.18,0.405,2.201,1.217,3.046
		c0.369,0.371,0.759,0.652,1.183,0.846c0.582,0.317,1.215,0.477,1.869,0.477h14.566l-11.287-7.59
		c-0.281-0.176-0.529-0.353-0.759-0.477C225.076,19.208,224.794,19.049,224.563,18.962L224.563,18.962z"/>
	<path fill="#888888" d="M229.379,10.402c-0.123-0.071-0.229-0.142-0.335-0.23c-0.917-0.614-2.011-0.81-3.279-0.58
		c-0.688,0.142-1.287,0.404-1.799,0.811c-0.213,0.176-0.406,0.352-0.584,0.562c-0.122,0.142-0.229,0.3-0.334,0.441
		c-0.265,0.386-0.477,0.773-0.6,1.197c-0.213,0.634-0.247,1.321-0.106,2.043c0.124,0.616,0.335,1.18,0.617,1.637
		c0.3,0.475,0.688,0.863,1.146,1.163l12.717,8.682l-5.73-13.119c-0.07-0.142-0.123-0.281-0.177-0.404
		c-0.229-0.563-0.44-0.986-0.636-1.286c-0.088-0.106-0.176-0.229-0.282-0.353C229.821,10.772,229.608,10.579,229.379,10.402
		L229.379,10.402z"/>
	<path fill="#888888" d="M236.258,4.098c-0.123-0.054-0.247-0.089-0.388-0.124c-0.725-0.194-1.446-0.194-2.17,0
		c-0.247,0.069-0.493,0.158-0.739,0.264c-1.112,0.493-1.87,1.285-2.276,2.36c-0.017,0.053-0.052,0.123-0.07,0.177
		c-0.369,1.107-0.353,2.166,0.09,3.17l6.225,14.283l2.063-14.424c0.123-0.812,0.177-1.427,0.159-1.832
		c-0.019-0.389-0.105-0.775-0.248-1.197c-0.033-0.143-0.104-0.283-0.158-0.44C238.285,5.294,237.457,4.556,236.258,4.098
		L236.258,4.098z"/>
	<path fill="#888888" d="M253.683,19.419c-0.229,0.123-0.476,0.299-0.759,0.477l-11.287,7.59h14.567
		c0.863,0,1.676-0.264,2.451-0.811c0.195-0.141,0.39-0.317,0.601-0.512c0.036-0.035,0.071-0.07,0.123-0.122
		c0.478-0.511,0.795-1.092,0.97-1.761c0.055-0.194,0.106-0.406,0.125-0.616c0.018-0.176,0.018-0.37,0.018-0.546
		c0-0.987-0.266-1.849-0.812-2.571c-0.123-0.176-0.264-0.353-0.422-0.511c-0.247-0.246-0.513-0.439-0.777-0.616
		c-0.299-0.229-0.635-0.388-0.97-0.511c-0.423-0.141-0.862-0.211-1.304-0.211c-0.653,0-1.199,0.087-1.658,0.264
		C254.317,19.049,254.019,19.208,253.683,19.419L253.683,19.419z"/>
	<path fill="#888888" d="M248.479,6.775c-0.018-0.053-0.054-0.124-0.07-0.177c-0.424-1.093-1.182-1.867-2.274-2.36
		c-0.248-0.105-0.495-0.194-0.741-0.264c-0.723-0.194-1.445-0.194-2.168,0c-0.142,0.034-0.266,0.069-0.389,0.124
		c-1.2,0.458-2.029,1.215-2.486,2.236c-0.055,0.158-0.125,0.299-0.178,0.44c-0.211,0.633-0.281,1.25-0.211,1.885v0.087h1.182
		c0.354,0.036,0.584,0.088,0.635,0.177c0.088,0.087-0.088,0.229-0.477,0.389l-0.299,0.192l-0.371,0.3
		c-0.156,0.141-0.246,0.353-0.3,0.599c-0.035,0.176-0.054,0.352-0.035,0.562c0,0.089,0,0.159,0.019,0.265l1.853,12.998l6.243-14.283
		C248.833,8.975,248.867,7.901,248.479,6.775L248.479,6.775z"/>
	<path fill="#888888" d="M256.839,13.66c-0.033-0.775-0.281-1.515-0.775-2.255c-0.104-0.141-0.211-0.299-0.334-0.44
		c-0.178-0.211-0.371-0.388-0.584-0.563c-0.528-0.405-1.127-0.688-1.814-0.811c-1.271-0.229-2.364-0.035-3.281,0.581
		c-0.105,0.088-0.229,0.159-0.336,0.229c-0.229,0.193-0.422,0.37-0.6,0.563c-0.123,0.123-0.213,0.246-0.282,0.353
		c-0.229,0.353-0.511,0.916-0.828,1.69l-5.731,13.12l12.715-8.682c0.478-0.317,0.848-0.688,1.146-1.163
		c0.036-0.035,0.054-0.07,0.07-0.123c0.159-0.265,0.282-0.562,0.389-0.88c0.054-0.193,0.123-0.422,0.158-0.634
		C256.822,14.312,256.856,13.978,256.839,13.66L256.839,13.66z"/>
	<path fill="#888888" d="M238.674,33.703v3.346h1.642c0.457,0,0.848-0.176,1.146-0.545c0.299-0.37,0.44-0.774,0.44-1.286
		c-0.018-0.404-0.193-0.758-0.528-1.057c-0.317-0.317-0.688-0.458-1.11-0.458H238.674L238.674,33.703z M238.674,39.532v3.645h1.888
		c0.582,0,1.11-0.121,1.588-0.404c0.459-0.265,0.705-0.687,0.705-1.269c0-1.215-0.775-1.884-2.293-1.972H238.674L238.674,39.532z
		 M257.951,31.025v3.347c-0.953-0.51-1.782-0.774-2.487-0.774c-0.158,0-0.512,0.034-1.041,0.105
		c-1.251,0.176-2.292,0.721-3.12,1.604c-0.812,0.88-1.235,1.938-1.235,3.188c0,1.18,0.389,2.184,1.146,3.028
		c0.741,0.845,1.711,1.409,2.911,1.654c0.299,0.071,0.688,0.106,1.198,0.106c0.97-0.053,1.835-0.317,2.629-0.792v3.664
		c-0.953,0.352-1.889,0.528-2.842,0.528c-0.422,0-0.756,0-0.985-0.035c-1.5-0.142-2.858-0.582-4.093-1.321
		c-1.234-0.74-2.223-1.726-2.928-2.977c-0.725-1.25-1.094-2.624-1.094-4.175c0.053-1.427,0.459-2.729,1.199-3.892
		c0.739-1.162,1.729-2.096,2.963-2.765c1.236-0.688,2.594-1.075,4.057-1.146C255.64,30.374,256.875,30.585,257.951,31.025
		L257.951,31.025z M224.776,46.154h-3.264v-15.78l9.012,8.119v-7.468h3.353v15.622l-9.101-8.472V46.154L224.776,46.154z
		 M235.376,46.154V31.025h6.523c0.9,0.105,1.66,0.458,2.259,1.075c0.601,0.616,0.936,1.374,1.007,2.29
		c0,1.566-0.584,2.712-1.766,3.45c1.642,0.688,2.521,1.938,2.611,3.717c0,1.215-0.389,2.271-1.164,3.151s-1.764,1.356-2.945,1.444
		L235.376,46.154L235.376,46.154z"/>
</g>
<g>
	<path fill="#888888" d="M33.732,9.48c0.167,1.212,2.002,2.846,2.499,2.807c0.333,0,0.459-1.582,0.459-2.807
		c0-0.702,0.039-1.251-0.331-1.378C35.772,9.289,34.229,9.532,33.732,9.48L33.732,9.48z M33.834,8.944
		c1.325,0,2.538-1.061,2.538-1.991c0-0.435-0.205-0.791-0.728-0.854c0.089,0.114,0.127,0.203,0.127,0.406
		c0,0.702-1.07,1.481-2.231,1.481c-0.42,0-0.549,0.293-0.549,0.446C32.992,8.791,33.336,8.944,33.834,8.944L33.834,8.944z
		 M33.554,7.502c-0.178,0-0.434,0-0.573-0.279c-0.116-0.23-0.077-0.601-0.294-0.767c0.217,0.064,0.446,0.064,0.625,0.064
		c0.574,0,1.123-0.396,1.543-0.396c0.281,0,0.37,0.18,0.37,0.357C35.223,7.043,34.089,7.502,33.554,7.502L33.554,7.502z
		 M5.028,17.506c0.433,0,0.343-2.653,1.045-2.653c0.166,0,0.217,0.166,0.217,0.369c0,0.601-0.293,1.479-0.293,1.966
		c0,0.242,0.064,0.318,0.179,0.318c0.306,0,0.841-2.922,1.364-2.922c0.167,0,0.242,0.166,0.242,0.333
		c0,0.612-0.778,2.373-0.778,2.87c0,0.077,0.026,0.141,0.09,0.141c0.319,0,0.957-1.378,1.161-2.065
		c0.114-0.358,0.268-0.549,0.407-0.549c0.127,0,0.243,0.141,0.243,0.434c0,0.689-0.638,2.311-1.198,3.396
		c-0.434,0.841-1.11,2.054-1.11,2.73c0,0.344,0.064,0.7,0.561,1.135c-0.816-0.052-1.147-0.127-1.454-0.765
		C4.34,24.956,8.217,24.69,6.89,27.1c-0.242-0.434-2.155-0.881-2.155-3.406c0-2.182,1.913-3.458,1.913-4.364
		c0-0.178-0.063-0.331-0.23-0.471c-0.42-0.357-0.434-0.651-0.765-0.651c-0.242,0-0.535,0.562-0.23,1.06
		c0.103,0.166,0.192,0.269,0.192,0.422c0,0.356-0.561,1.313-0.957,1.313c-0.395,0-0.702-0.982-0.702-2.564
		c0-1.404,0.319-2.819,0.715-2.819c0.114,0,0.153,0.076,0.153,0.179c0,0.166-0.051,0.497-0.051,1.06
		C4.773,17.455,4.913,17.506,5.028,17.506L5.028,17.506z M24.563,4.963c0.204,0,0.242,0.499,0.281,0.792
		c0.025,0.153,0.05,0.166,0.115,0.166c0.152,0,0.395-0.587,0.561-0.587c0.242,0,0.893,0.677,1.976,0.677
		c1.543,0,2.999-1.085,2.999-2.998c0-1.852-1.301-2.936-3.099-2.936c-0.856,0-1.48,0.421-1.812,0.421C25.379,0.51,25.074,0,24.92,0
		c-0.064,0-0.127,0.127-0.127,0.344c0,0.142,0,0.588-0.154,0.588c-0.305,0-1.491-0.882-1.491-0.562c0,0.294,0.791,1.188,0.791,1.417
		c0,0.229-0.778,0.446-0.778,0.6c0,0.28,0.829,0.332,0.829,0.689c0,0.356-0.868,0.638-0.868,0.905c0,0.217,0.868,0.062,0.868,0.332
		c0,0.268-0.638,1.161-0.638,1.417c0,0.063,0.012,0.063,0.064,0.063C23.658,5.793,24.385,4.963,24.563,4.963L24.563,4.963z
		 M8.204,23.822c-0.013-0.255,0.166-0.498,0.434-0.523c0.268-0.038,0.51,0.166,0.535,0.435C9.198,24,9.006,24.23,8.738,24.268
		C8.471,24.282,8.229,24.089,8.204,23.822L8.204,23.822z M6.789,24.217c0.051,0.435,0.458,0.766,0.917,0.715
		c0.166-0.015,0.319-0.064,0.421-0.13c0.102,0.409,0.42,0.665,0.892,0.613c0.472-0.038,0.804-0.434,0.753-0.904
		c0-0.128-0.039-0.203-0.077-0.294l0.089-0.013c0.446-0.05,0.79-0.459,0.752-0.906c-0.051-0.459-0.471-0.792-0.905-0.753
		c-0.166,0.039-0.306,0.089-0.408,0.179c-0.115-0.383-0.446-0.688-0.917-0.639c-0.447,0.026-0.792,0.459-0.74,0.932
		c0,0.063,0.025,0.167,0.064,0.255l-0.09,0.013C7.094,23.349,6.75,23.719,6.789,24.217L6.789,24.217z M35.198,0.817
		c0,0.178,0.14,0.317,0.319,0.317c0.178,0,0.319-0.14,0.319-0.317c0-0.18-0.14-0.32-0.319-0.32
		C35.338,0.497,35.198,0.637,35.198,0.817L35.198,0.817z M28.084,12.913c0,0.293,0.241,0.536,0.534,0.536s0.536-0.243,0.536-0.536
		s-0.243-0.536-0.536-0.536S28.084,12.62,28.084,12.913L28.084,12.913z M28.121,14.52c0,0.332,0.269,0.6,0.599,0.6
		c0.332,0,0.6-0.268,0.6-0.6s-0.268-0.6-0.6-0.6C28.389,13.921,28.121,14.188,28.121,14.52L28.121,14.52z M26.285,15.604
		c0,0.483,0.396,0.88,0.881,0.88c0.484,0,0.879-0.396,0.879-0.88c0-0.485-0.395-0.88-0.879-0.88
		C26.68,14.725,26.285,15.12,26.285,15.604L26.285,15.604z M26.757,13.806c0,0.28,0.229,0.511,0.509,0.511
		c0.281,0,0.51-0.229,0.51-0.511c0-0.28-0.229-0.511-0.51-0.511C26.986,13.295,26.757,13.525,26.757,13.806L26.757,13.806z
		 M25.085,14.827c0,0.281,0.23,0.509,0.511,0.509c0.28,0,0.509-0.229,0.509-0.509c0-0.281-0.229-0.51-0.509-0.51
		C25.315,14.316,25.085,14.545,25.085,14.827L25.085,14.827z M26.4,11.841c0,0.446,0.369,0.817,0.816,0.817
		c0.445,0,0.815-0.371,0.815-0.817s-0.371-0.815-0.815-0.815C26.769,11.024,26.4,11.394,26.4,11.841L26.4,11.841z M27.356,10.271
		c0,0.269,0.217,0.484,0.484,0.484c0.268,0,0.486-0.217,0.486-0.484c0-0.269-0.218-0.484-0.486-0.484
		C27.573,9.786,27.356,10.003,27.356,10.271L27.356,10.271z M25.048,11.497c0,0.268,0.217,0.485,0.485,0.485
		c0.268,0,0.486-0.218,0.486-0.485c0-0.269-0.218-0.483-0.486-0.483C25.265,11.012,25.048,11.228,25.048,11.497L25.048,11.497z
		 M24.984,13.155c0,0.434,0.344,0.779,0.778,0.779c0.433,0,0.778-0.346,0.778-0.779s-0.344-0.778-0.778-0.778
		C25.329,12.376,24.984,12.721,24.984,13.155L24.984,13.155z M23.377,13.972c0,0.396,0.332,0.728,0.728,0.728
		s0.726-0.332,0.726-0.728s-0.331-0.728-0.726-0.728S23.377,13.576,23.377,13.972L23.377,13.972z M23.812,12.173
		c0,0.281,0.229,0.511,0.51,0.511c0.279,0,0.508-0.229,0.508-0.511c0-0.28-0.229-0.511-0.508-0.511
		C24.041,11.662,23.812,11.892,23.812,12.173L23.812,12.173z M22.116,30.981c0,0.278,0.229,0.509,0.509,0.509
		s0.509-0.229,0.509-0.509c0-0.282-0.229-0.512-0.509-0.512S22.116,30.699,22.116,30.981L22.116,30.981z M8.396,9.837
		c0,0.281,0.229,0.511,0.509,0.511c0.28,0,0.51-0.229,0.51-0.511c0-0.279-0.23-0.51-0.51-0.51C8.624,9.328,8.396,9.557,8.396,9.837
		L8.396,9.837z M7.731,8.689c0,0.28,0.229,0.51,0.511,0.51c0.28,0,0.509-0.229,0.509-0.51c0-0.281-0.229-0.51-0.509-0.51
		C7.961,8.177,7.731,8.409,7.731,8.689L7.731,8.689z M8.28,21.244c0.536,0,0.982-0.396,0.982-1.276v-1.301
		c0-0.499,0.038-1.06,0.37-1.455c-0.038,0.166-0.038,0.345-0.038,0.51c0,1.098,0.612,1.851,0.612,2.909
		c0,0.396-0.114,0.612-0.42,0.612c-0.293,0-0.268-0.268-0.332-0.268c-0.051,0-0.127,0.166-0.127,0.344
		c0,0.269,0.191,0.688,0.727,0.688c0.458,0,0.829-0.421,0.829-0.894c0-1.147-0.892-2.423-0.892-3.649
		c0-0.535,0.139-0.894,0.254-1.174c0,2.54,2.156,4.391,2.156,5.448c0,0.243-0.179,0.435-0.447,0.435
		c-0.292,0-0.433-0.229-0.433-0.407c0-0.091-0.013-0.115-0.051-0.115c-0.077,0-0.307,0.255-0.307,0.587
		c0,0.42,0.344,0.932,0.981,0.932c0.727,0,1.123-0.611,1.123-1.161c0-1.34-2.614-3.368-2.614-5.537c0-0.371,0.064-0.971,0.332-1.43
		c-1.684,1.083-2.206,2.527-2.206,3.79c0,1.098-0.04,1.646-0.6,1.646c-0.293,0-0.37-0.27-0.472-0.27
		c-0.076,0-0.115,0.23-0.115,0.293C7.591,20.976,7.936,21.244,8.28,21.244L8.28,21.244z M30.378,8.498
		c0.561,0,0.983-0.255,0.983-0.408c0-0.052-0.076-0.09-0.242-0.09s-0.498-0.013-1.122-0.116C29.46,7.796,29.052,7.591,28.9,7.591
		c-0.051,0-0.076,0.026-0.076,0.063C28.822,7.987,29.434,8.498,30.378,8.498L30.378,8.498z M27.599,6.877
		c0.166-0.102,0.878,0.064,1.811-0.396c0.114-0.063,0.229-0.089,0.331-0.089c0.447,0,0.332,0.51,0.74,0.51
		c0.319,0,0.728-0.269,0.969-0.269c0.382,0,0.931,1.2,0.931,1.762c0,0.649-0.981,1.046-2.143,1.046c-1.696,0-2.715-1.48-2.715-2.438
		C27.522,6.927,27.561,6.903,27.599,6.877L27.599,6.877z M8.547,26.055c-0.42,0.102-1.096,0.766-1.096,1.812
		c0,1.249,1.338,3.176,3.545,3.176c1.862,0,2.32-1.29,2.32-2.156c0-1.927-1.186-3.279-2.728-3.279c-0.842,0-1.594,0.613-1.594,1.519
		c0,0.842,0.637,2.105,2.155,2.105c0.713,0,1.134-0.51,1.134-1.098c0-0.572-0.523-1.364-1.288-1.364
		c-0.23,0-0.396,0.153-0.396,0.396c0,0.306,0.421,0.612,0.944,0.612c0.127,0,0.229-0.025,0.28-0.051
		c0.025,0.038,0.038,0.103,0.038,0.152c0,0.292-0.28,0.471-0.713,0.471c-0.651,0-1.276-0.483-1.276-1.25
		c0-0.459,0.395-0.792,0.97-0.792c1.134,0,1.81,1.009,1.81,2.016c0,0.906-0.498,1.43-1.517,1.43
		C9.096,29.754,8.101,27.918,8.547,26.055L8.547,26.055z M7.272,12.185c-0.294,0.077-0.905,0.435-0.905,1.07
		c0,0.46,0.356,0.754,0.802,0.754c0.23,0,0.396-0.052,0.498-0.128c-0.357-0.344-0.484-0.727-0.484-1.108
		C7.183,12.504,7.221,12.338,7.272,12.185L7.272,12.185z M4.148,12.364c-0.013,0.062-0.013,0.128-0.013,0.191
		c0,0.599,0.319,0.931,0.74,0.931c0.318,0,0.688-0.191,1.02-0.612c-0.14,0.025-0.306,0.038-0.459,0.038
		C4.964,12.913,4.455,12.786,4.148,12.364L4.148,12.364z M3.702,13.5c0,0.97,0.293,1.43,0.816,1.43c0.408,0,0.957-0.294,1.607-0.854
		c-0.497,0.114-0.879,0.192-1.224,0.192C4.441,14.265,4.084,14.087,3.702,13.5L3.702,13.5z M23.11,33.532
		c0.612,0,0.574-0.051,0.765-0.051c0.192,0,0.204,0.113,0.204,0.19c0,0.281-0.625,0.625-1.734,0.625
		c-0.651,0-1.046-0.344-1.16-0.727c-0.639,0.407-1.607,0.778-2.562,0.778c-2.615,0-3.278-1.137-4.094-1.507
		c-0.625-0.279-1.581,0.269-2.919-1.225c0.178,0.038,0.42,0.052,0.612,0.052c1.173,0,1.798-0.572,1.798-1.492
		c0-0.114-0.013-0.242-0.026-0.357c0.357,0.14,1.172,0.753,1.364,1.837c0.026,0.128,0.549,0.242,0.88,0.242
		c0.459,0,1.045-0.191,1.134-0.943c1.531-0.127,2.562-1.034,2.78-2.182c0.549,0.178,1.173,0.676,1.326,0.932
		c0.217-0.077,0.472-0.115,0.766-0.115c0.408,0,0.867,0.076,1.415,0.242c0.026-0.166,0.051-0.37,0.306-0.37
		c0.382,0,0.281,0.422,0.408,0.664c0.064,0.128,0.383,0.204,0.383,0.46c0,0.242-0.205,0.331-0.332,0.331
		c-0.051,0-0.115-0.012-0.153-0.024c-0.255,0.09-0.268,1.925-1.34,1.925c-0.791,0-1.518-0.651-1.835-1.467
		c-0.089-0.241-0.281-0.396-0.46-0.396c-0.204,0-0.318,0.039-0.561,0.306c-0.688,0.754-1.836,1.404-3.251,1.404
		c-0.433,0-0.778-0.038-0.868-0.038c-0.051,0-0.051,0.013-0.051,0.025c0,0.09,0.434,0.434,1.377,0.434
		c2.244,0,2.792-1.264,3.148-1.264c0.052,0,0.204,0,0.293,0.204c0.523,1.226,1.659,1.506,2.372,1.506H23.11L23.11,33.532z
		 M15.867,7.885c0.841,0,1.225,0.729,1.225,1.545c0,0.356-0.102,0.88-0.268,0.88s-0.141-0.293-0.166-0.562
		c-0.026-0.344-0.09-0.42-0.204-0.42c-0.217,0-0.357,0.51-0.357,0.982c0,0.293,0.051,0.625,0.28,0.625
		c0.127,0,0.242-0.064,0.318-0.142c-0.051,0.587-0.484,1.099-1.096,1.099c-1.123,0-1.543-1.314-1.671-2.08
		c-0.675,0.714-1.3,1.236-2.423,1.236c-1.045,0-1.516-0.766-1.516-1.492c0-0.218,0.076-0.779,0.342-0.779
		c0.319,0,0.039,1.046,0.664,1.046c0.153,0,0.434-0.127,0.587-0.548c0.089-0.255,0.14-0.523,0.14-0.753
		c0-0.346-0.076-0.562-0.331-0.562c-0.217,0-0.485,0.166-0.574,0.255c0.306-0.918,1.045-1.391,1.862-1.391
		c1.008,0,1.543,0.894,1.543,1.889c0,0.142-0.013,0.294-0.038,0.435C14.618,8.434,15.217,7.885,15.867,7.885L15.867,7.885z
		 M12.666,0.28c0-0.077-0.382-0.154-0.906-0.154c-0.829,0-0.713,0.69-1.351,0.69c-0.663,0-0.498-0.715-1.339-0.715
		c-0.511,0-0.981,0.089-0.981,0.204c0,0.152,0.599,0.09,0.599,0.511C8.688,1.263,7.4,1.39,7.4,1.658c0,0.088,0.102,0.127,0.23,0.127
		c0.28,0,0.727-0.127,1.045-0.127c0.179,0,0.344,0.038,0.344,0.204c0,0.319-0.688,0.893-0.688,1.147
		c0,0.077,0.063,0.104,0.128,0.104c0.255,0,0.688-0.651,1.097-0.651c0.675,0,0.229,1.442,0.599,1.442
		c0.383,0,0.217-1.417,0.765-1.417c0.447,0,0.779,0.981,1.084,0.981c0.076,0,0.14-0.063,0.14-0.153c0-0.269-0.383-0.816-0.383-1.174
		c0-0.218,0.153-0.319,0.357-0.319c0.293,0,0.689,0.179,0.905,0.179c0.076,0,0.154-0.025,0.154-0.115
		c0-0.307-1.136-0.637-1.136-1.033C12.042,0.458,12.666,0.458,12.666,0.28L12.666,0.28z M30.837,25.404
		c-0.268,0-1.748,1.979-2.704,1.979c-0.229,0-0.421-0.434-0.421-0.766c0-0.178,0.115-0.307,0.524-0.396
		c2.193-0.499,1.708-2.145,3.582-2.145c1.034,0,2.183,0.702,2.183,2.284c0,1.683-2.398,3.777-2.755,3.777
		c-0.293,0-0.613-0.422-0.613-0.702c0-0.089,0.039-0.205,0.294-0.308c1.223-0.484,1.925-1.606,1.925-2.181
		c0-0.127-0.063-0.255-0.23-0.255c-0.218,0-1.147,2.118-2.18,2.118c-0.715,0-1.442-0.651-1.442-0.956
		c0-0.512,2.067-1.455,2.067-2.171C31.067,25.416,30.939,25.404,30.837,25.404L30.837,25.404z M32.214,24.613
		c-0.179,0-0.371,0.14-0.371,0.483c0,0.384,0.294,0.625,0.46,0.701c0.09,0.052,0.229,0.104,0.37,0.104
		c0.369,0,0.663-0.104,0.663-0.409C33.336,25.096,32.763,24.613,32.214,24.613L32.214,24.613z M15.663,1.582
		c0,0.229,0.803,0.729,1.173,0.729c0.217,0,0.28-0.294,0.28-0.602c0-0.382-0.166-0.395-0.497-0.395
		C16.199,1.314,15.663,1.43,15.663,1.582L15.663,1.582z M16.99,4.109c0-0.767-2.091-2.184-2.091-2.756c0-0.025,0-0.038,0.012-0.063
		c0.154-0.421,1.887-0.715,1.887-1.06c0-0.166-0.305-0.166-0.458-0.166c-1.186,0-2.92,0.434-2.92,0.854
		c0,0.435,1.556,1.493,1.556,2.017c0,0.14-0.089,0.19-0.229,0.19c-0.434,0-1.378-0.522-1.824-0.522c-0.204,0-0.28,0.139-0.28,0.345
		c0,0.612,0.727,1.773,0.727,2.118c0,0.038-0.013,0.089-0.062,0.089c-0.23,0-1.314-1.276-1.696-1.276
		c-0.141,0-0.153,0.191-0.153,0.473v0.435c0,0.293-0.013,0.472-0.153,0.472c-0.332,0-0.485-0.931-0.804-0.931
		c-0.332,0-0.395,1.659-0.714,1.659c-0.369,0-0.052-1.825-0.408-1.825c-0.395,0-0.842,1.212-1.122,1.212
		c-0.103,0-0.128-0.103-0.128-0.191c0-0.369,0.217-0.97,0.217-1.327c0-0.18-0.051-0.281-0.205-0.281
		c-0.395,0-1.262,0.638-1.594,0.638c-0.051,0-0.115-0.024-0.115-0.077c0-0.306,1.391-1.274,1.391-1.709
		c0-0.421-1.913-0.141-1.913-0.626c0-0.406,1.365-0.829,1.365-1.25c0-0.369-1.62-0.534-2.244-0.534
		c-0.753,0-1.161,0.089-1.161,0.306c0,0.332,1.708,0.434,1.708,0.727c0,0.281-1.772,1.034-1.772,1.469c0,0.383,2.5,0.024,2.5,0.421
		c0,0.433-2.181,2.309-2.181,2.934c0,0.141,0.102,0.205,0.242,0.205c0.664,0,2.385-1.263,2.857-1.263
		c0.166,0,0.179,0.204,0.179,0.382c0,0.332-0.115,0.842-0.115,1.213c0,0.292,0.076,0.497,0.333,0.497
		c0.472,0,0.905-0.803,1.224-0.803c0.409,0,0.165,2.359,0.778,2.359c0.522,0,0.739-2.552,1.071-2.552s0.6,0.739,0.906,0.739
		c0.382,0,0.204-1.288,0.612-1.288c0.446,0,1.721,1.531,2.295,1.531c0.179,0,0.242-0.142,0.242-0.319
		c0-0.676-0.944-2.208-0.944-2.692c0-0.128,0.038-0.166,0.178-0.166c0.497,0,1.952,0.689,2.639,0.689
		C16.849,4.402,16.99,4.275,16.99,4.109L16.99,4.109z M34.396,18.795c0.204-0.639,0.458-1.086,0.878-1.773
		c-0.42-0.217-1.53-0.677-1.53-1.43c0-0.881,1.098-1.567,1.325-1.567c0.103,0,0.128,0.089,0.128,0.255
		c0,0.459-0.217,1.199-0.217,1.594c0,0.357,0.229,0.703,0.433,0.703c0.218,0,0.817-0.766,0.817-1.519
		c0-1.353-1.186-1.761-1.554-1.761c-0.345,0-0.97,0.562-2.438,0.562c-2.741,0-3.365-2.718-3.365-3.905
		c0-0.051,0.012-0.063,0.025-0.063c0.063,0,0.332,0.332,1.198,0.332c0.447,0,0.855-0.114,1.506-0.114
		c1.529,0,2.206,1.059,3.15,2.412c0.572,0.356,1.937,0.932,1.937,2.552c0,1.428-1.518,2.22-1.886,3.75
		c0.585-0.063,0.929-1.11,1.529-1.11c0.306,0,0.447,0.243,0.447,0.625c0,0.562-0.319,1.404-0.931,1.929
		c0.013-0.052,0.013-0.115,0.013-0.191c0-0.358-0.141-0.868-0.549-0.868c-0.636,0-0.841,0.689-1.198,1.263
		c-0.371-1.301-0.868-2.475-1.76-3.188c-0.905-0.728-2.461-0.332-2.461-1.659c0-0.356,0.229-0.868,0.229-1.276
		c0-0.14-0.026-0.268-0.103-0.369c1.225,0.458,0.792,1.275,1.544,2.116c0.471,0.536,1.772,1.047,2.524,3.253
		c0.012-0.062,0.026-0.229,0.026-0.343c0-1.889-2.499-3.74-2.716-4.504c1.453,0.167,1.708,0.523,2.397,2.438
		C33.936,17.327,34.396,18.31,34.396,18.795L34.396,18.795z M7.004,8.396c0.063-0.205,0.115-0.459,0.115-0.74
		c0-0.613-0.28-1.543-1.147-1.543c-0.497,0-0.854,0.395-0.854,0.867C5.118,7.987,6.125,8.396,7.004,8.396L7.004,8.396z M5.92,11.611
		c-0.421,0-0.88-0.522-0.88-0.995c0-0.256,0.192-0.575,0.331-0.575c0.051,0,0.077,0.039,0.09,0.128
		c0.076,0.625,0.484,0.983,0.867,1.162c0.039,0.025,0.065,0.039,0.065,0.063C6.393,11.483,6.15,11.611,5.92,11.611L5.92,11.611z
		 M7.426,10.412c0,0.179-0.103,0.408-0.307,0.408c-0.446,0-0.803-0.676-0.803-1.06c0-0.241,0.141-0.268,0.332-0.268
		c0.089,0,0.127,0.012,0.192,0.051c0.114,0.063,0.114,0.319,0.254,0.511C7.17,10.182,7.426,10.322,7.426,10.412L7.426,10.412z
		 M6.979,9.072C6.903,9.059,6.8,9.059,6.699,9.059c-0.421,0-0.983,0.075-1.479,0.408c-1.123,0.729-0.944,1.875-1.123,2.168
		c-0.025,0.039-0.038,0.091-0.038,0.143c0,0.114,0.127,0.242,0.242,0.242c0.103,0,0.167-0.025,0.217-0.025
		c0.306,0,0.65,0.217,1.148,0.217c0.293,0,0.638-0.09,1.071-0.307c0.918-0.459,1.275-1.595,1.275-1.786
		c0-0.242-0.191-0.205-0.356-0.434c-0.179-0.268-0.09-0.37-0.205-0.523C7.374,9.098,7.208,9.098,6.979,9.072L6.979,9.072z
		 M8.331,11.126c-0.28,0.332-0.574,0.894-0.574,1.467c0,0.688,0.421,1.264,1.071,1.264c0.625,0,0.918-0.537,0.918-1.084
		C9.746,11.917,8.968,11.317,8.331,11.126L8.331,11.126z M5.602,8.676c0,0-0.369,0.281-0.829,0.281
		c-0.549,0-0.982-0.409-0.982-0.982c0-0.396,0.204-0.804,0.676-1.009C4.454,7.042,4.454,7.106,4.454,7.183
		C4.455,7.911,4.862,8.459,5.602,8.676L5.602,8.676z M28.287,16.101c0-0.254,0.229-0.472,0.484-0.472
		c0.28,0,0.497,0.218,0.497,0.472c0,0.293-0.217,0.499-0.497,0.499C28.516,16.6,28.287,16.395,28.287,16.101L28.287,16.101z
		 M28.618,30.776c0.063,0,0.14,0.038,0.14,0.268c0,0.28-0.128,0.65-0.585,0.944c-0.319,0.217-0.753,0.395-1.391,0.408
		c0.102-0.307,0.179-0.625,0.179-0.932c0-0.102-0.013-0.179-0.026-0.293H27.1C28.108,31.171,28.542,30.776,28.618,30.776
		L28.618,30.776z M28.72,29.512c0.104-0.09,0.127-0.229,0.127-0.37v-0.293c0-0.37-0.56-0.589-1.325-0.589
		c-0.932,0-1.429,0.423-1.429,0.602v0.587c0,0.242,0.562,0.485,1.25,0.485C27.892,29.934,28.389,29.792,28.72,29.512L28.72,29.512z
		 M29.383,29.652c-0.332,0.255-1.109,0.831-2.397,0.831c-0.688,0-0.995-0.218-1.097-0.218c-0.127,0-0.268,0.127-0.408,0.293
		c-0.306,0.356-0.702,1.021-0.702,1.748c0,0.511,0.396,1.021,1.135,1.021c2.386,0,4.169-1.494,4.169-2.706
		C30.084,29.934,29.677,29.652,29.383,29.652L29.383,29.652z M29.83,18.922c0,0.318,0.103,0.688,0.421,0.688
		c0.268,0,0.499-0.409,0.499-0.854c0-0.511-0.09-0.905-0.09-1.11c0-0.089,0.039-0.127,0.09-0.127
		c0.19,0.013,0.369,0.536,0.573,0.536c0.229,0,0.573-0.422,0.713-0.422c0.038,0,0.051,0.052,0.051,0.063
		c0,0.191-0.293,0.613-0.293,0.779c0,0.141,0.739,0.166,0.739,0.293c0,0.191-0.778,0.191-1.146,0.356
		c-0.358,0.152-0.575,0.344-0.575,0.6c0,0.255,0.255,0.307,0.613,0.307c0.854,0,1.453-0.46,1.645-0.46
		c0.038,0,0.063,0.025,0.063,0.063c0,0.129-0.434,0.551-0.434,0.741c0,0.217,0.792,0.472,0.779,0.6
		c-0.013,0.038-0.063,0.051-0.153,0.051c-0.14,0-0.357-0.038-0.523-0.038c-0.103,0-0.191,0.012-0.229,0.062
		c-0.09,0.104,0.026,0.779-0.153,0.779c-0.165,0-0.6-1.506-1.58-1.506c-0.141,0-0.243,0.115-0.243,0.306
		c0,0.511,0.498,1.098,0.969,1.378c0.216,0.142,0.573,0.281,0.573,0.357c0,0.152-0.816,0.013-0.816,0.267
		c0,0.229,0.102,0.575,0.102,0.779c0,0.063-0.013,0.14-0.089,0.14c-0.153,0-0.523-0.7-0.702-0.7c-0.153,0-0.484,0.42-0.624,0.42
		c-0.039,0-0.064-0.037-0.064-0.076c0-0.294,0.472-0.957,0.472-1.608c0-0.306-0.038-0.969-0.407-0.969
		c-0.307,0-0.651,0.484-0.805,0.969c-0.089,0.281-0.025,1.365-0.229,1.365c-0.191,0-0.14-0.727-0.396-0.727
		c-0.19,0-0.598,0.343-0.739,0.343c-0.024,0-0.05-0.012-0.05-0.038c0-0.152,0.37-0.65,0.37-0.752c0-0.192-0.842-0.217-0.842-0.371
		c0-0.089,0.332-0.153,0.639-0.204c0.649-0.115,1.606-0.586,1.606-1.25c0-0.74-0.715-1.059-1.185-1.365
		c-0.244-0.152-0.511-0.28-0.511-0.383c0-0.102,0.306-0.102,0.434-0.102c0.19,0,0.382-0.014,0.382-0.167
		c0-0.115-0.026-0.345-0.026-0.522c0-0.129,0.012-0.229,0.064-0.229c0.191,0,0.459,0.624,0.587,0.624
		c0.203,0,0.484-0.511,0.675-0.511c0.063,0,0.089,0.038,0.089,0.153C30.072,17.927,29.83,18.462,29.83,18.922L29.83,18.922z
		 M23.747,15.184c0.141,1.084,1.594,0.534,1.594,1.849c0,0.192-0.052,0.473-0.052,0.715c0,0.281,0.026,0.523,0.243,0.523
		c0.216,0,0.268-0.153,0.268-0.357s-0.051-0.458-0.051-0.599c0-0.447,0.319-0.549,0.51-0.549c0.485,0,0.854,0.498,1.581,0.498
		c-0.165,0.815-1.849,0.6-1.849,1.493c0,0.446,0.446,0.549,0.74,0.549c0.268,0,0.356-0.039,0.356-0.269
		c0-0.128-0.026-0.268-0.026-0.356c0-0.052,0.039-0.102,0.104-0.102c0.28,0,1.657,1.045,1.657,1.365
		c0,0.293-1.454,0.586-1.875,0.586c-0.126,0-0.153-0.088-0.153-0.139c0-0.091,0.217-0.358,0.217-0.512c0-0.113-0.19-0.19-0.701-0.19
		c-0.242,0-0.421,0.024-0.421,0.217c0,0.345,0.56,0.766,0.56,1.084c0,0.254-0.152,0.408-0.56,0.408
		c-0.344,0-0.867-0.269-0.867-0.714c0-0.357,0.37-0.716,0.37-0.933c0-0.063-0.051-0.167-0.204-0.167
		c-0.472,0-0.599,1.25-2.271,1.392c0.268-0.242,0.498-0.512,0.498-1.06c0-0.269-0.064-0.485-0.064-0.777
		c0-0.384,0.178-0.575,0.434-0.575c0.472,0,0.701,0.664,1.007,0.664c0.167,0,0.344-0.153,0.344-0.382
		c0-0.972-1.861-0.83-1.861-2.196C23.275,16.281,23.403,15.822,23.747,15.184L23.747,15.184z M26.17,23.476
		c0,0.18,0.127,0.319,0.306,0.319c0.203,0,0.332-0.178,0.332-0.383c0-0.268-0.243-0.638-0.473-0.638
		c-0.101,0-0.062,0.151-0.089,0.317C26.234,23.222,26.17,23.375,26.17,23.476L26.17,23.476z M25.507,21.781
		c1.34,0.255,2.066,1.263,2.066,2.207c0,0.651-0.408,1.25-1.123,1.25c-0.649,0-1.121-0.447-1.121-1.16
		c0-0.536,0.42-1.097,0.42-1.646C25.75,22.214,25.686,21.997,25.507,21.781L25.507,21.781z M23.812,23.949
		c0.126,0.128,0.166,0.255,0.166,0.384c0,0.19-0.09,0.396-0.09,0.611c0,0.306,0.229,0.574,0.562,0.574
		c0.356,0,0.599-0.28,0.599-0.613C25.048,24.421,24.551,23.949,23.812,23.949L23.812,23.949z M28.032,23.132
		c0.089,0.141,0.127,0.281,0.127,0.409c0,0.357-0.242,0.689-0.242,1.06c0,0.42,0.319,0.765,0.803,0.765
		c0.523,0,0.88-0.422,0.88-0.918C29.601,23.771,28.988,23.196,28.032,23.132L28.032,23.132z M24.117,22.456
		c0.586,0.076,0.727,0.28,0.727,0.446c0,0.281-0.255,0.37-0.498,0.37c-0.178,0-0.382-0.037-0.599-0.037
		c-0.28,0-0.561,0.062-0.791,0.332c0.166,0.024,0.409,0.14,0.409,0.396c0,0.74-2.053,0.127-2.053,2.029
		c0,1.008,1.046,2.104,2.627,2.104c0.817,0,1.339-0.268,1.339-0.573c0-0.243-0.433-0.077-0.433-0.28c0-0.09,0.153-0.255,0.153-0.396
		c0-0.063-0.051-0.179-0.153-0.179c-0.23,0-0.663,0.371-1.543,0.371c-0.688,0-1.365-0.396-1.365-0.932
		c0-0.115,0.051-0.181,0.128-0.181c0.076,0,0.179,0.052,0.268,0.052c0.077,0,0.089-0.052,0.089-0.191s0-0.536,0.243-0.536
		c0.241,0,0.701,0.895,2.461,0.895c0.588,0,1.722-0.115,2.143-0.499c-0.013,1.404-1.11,3.254-3.404,3.254
		c-2.386,0-3.661-1.913-3.661-3.674c0-1.953,1.594-3.727,3.775-3.727c0.561,0,1.032,0.192,1.032,0.435
		C25.009,22.265,24.181,22.061,24.117,22.456L24.117,22.456z M14.886,9.392c0-0.218-0.051-0.27-0.103-0.27
		c-0.127,0-0.268,0.153-0.471,0.497c0.025,0.46,0.102,0.664,0.229,0.664C14.682,10.284,14.886,9.837,14.886,9.392L14.886,9.392z
		 M13.138,9.914c0.141,0,0.319-0.153,0.651-0.521c0.025-0.167,0.025-0.32,0.025-0.512c0-0.255-0.103-0.537-0.256-0.537
		c-0.381,0-0.573,1.021-0.573,1.289C12.985,9.786,13.062,9.914,13.138,9.914L13.138,9.914z M15.217,11.05
		c0.319,0,0.675-1.226,0.675-1.99c0-0.166-0.025-0.345-0.102-0.345c-0.268,0-0.715,1.264-0.715,1.952
		C15.075,10.935,15.14,11.05,15.217,11.05L15.217,11.05z M12.092,10.348c0.434,0,0.931-2.348,0.931-2.743
		c0-0.104-0.038-0.18-0.127-0.18c-0.396,0-0.944,2.232-0.944,2.73C11.952,10.246,11.977,10.348,12.092,10.348L12.092,10.348z
		 M13.482,11.317c-0.548,0-0.573,0.664-0.573,2.003c-0.409-0.88-1.084-1.824-1.875-1.824c-0.536,0-0.74,0.357-0.74,0.982
		c0,0.128,0.013,0.318,0.038,0.434c0.064-0.216,0.269-0.306,0.524-0.306c0.548,0,1.211,0.42,1.645,0.995
		c-0.497-0.089-0.981-0.18-1.39-0.18c-0.254,0-0.484,0.026-0.676,0.115c-0.369,0.166-0.868,0.714-0.868,1.544
		c0,0.127,0.013,0.268,0.039,0.42c0.446-0.996,1.632-1.441,2.397-1.441c0.152,0,0.267,0.013,0.356,0.025
		c-0.395,0.356-0.484,0.982-0.51,1.402c-0.012,0.204-0.09,0.217-0.229,0.217c0,0.42,0.331,1.046,0.331,1.366
		c0,0.115-0.064,0.217-0.127,0.242c0,0.561,0.561,0.969,0.561,1.327c0,0.089-0.025,0.166-0.062,0.204
		c0.039,0.229,0.651,0.624,0.728,0.79c0.128,0.27,0.216,0.294,0.28,0.294c0.216,0,0.561-0.255,0.561-0.484
		c0-0.077-0.064-0.167-0.114-0.204c-0.243-0.178-0.37-0.562-0.471-0.817c-0.089,0-0.205-0.051-0.242-0.178
		c-0.051-0.166-0.077-0.765-0.179-1.059c-0.166-0.039-0.242-0.104-0.242-0.447c0-0.166,0.102-0.816,0.102-1.046
		c-0.077,0-0.178-0.051-0.178-0.204c0-0.407,0.408-0.728,0.523-1.25c0.727,0.536,0.905,1.083,0.905,1.569
		c0,0.255-0.039,0.497-0.089,0.727c0.536-0.269,1.339-0.664,1.339-1.467c0-0.473-0.217-0.995-1.659-1.2
		c0.447-0.166,1.008-0.255,1.48-0.255c0.816,0,1.288,0.255,1.391,0.829c0.165-0.254,0.292-0.548,0.292-0.816
		c0-0.625-0.522-1.033-1.186-1.033c-0.778,0-1.466,0.408-2.207,0.906c0.333-0.688,0.562-1.097,0.97-1.097
		c0.063,0,0.127,0.012,0.19,0.023C14.363,11.866,13.789,11.317,13.482,11.317L13.482,11.317z M5.346,3.368
		c0,0.255-0.969,1.111-1.313,1.111c-0.127,0-0.166-0.153-0.166-0.293c0-0.256,0.115-0.613,0.255-0.729
		c0.167-0.153,0.549-0.229,0.842-0.229C5.143,3.229,5.346,3.266,5.346,3.368L5.346,3.368z M34.969,20.517
		c0.637,0,1.147,0.83,1.147,1.8c0,1.033-0.485,2.157-1.35,2.921c-0.013-1.722-2.118-1.173-2.118-2.424
		c0-0.536,0.382-0.894,0.842-0.894c0.408,0,0.727,0.115,0.956,0.346c-0.229-0.218-0.344-0.523-0.344-0.817
		C34.102,20.963,34.409,20.517,34.969,20.517L34.969,20.517z M25.507,7.464c-0.102-0.166-0.484-0.256-0.663-0.256
		c-0.561,0-0.944,0.396-1.021,0.753c-0.051-0.127-0.09-0.28-0.09-0.434c0-0.562,0.384-1.25,1.314-1.25
		c0.817,0,1.135,0.434,1.25,0.434c0.127,0,0.254-0.127,0.357-0.127c0.14,0,0.14,0.217,0.14,0.37c0,0.51-0.229,1.39-0.803,1.709
		c-0.102-0.217-0.306-0.459-0.638-0.612c-0.089-0.037-0.127-0.113-0.127-0.19C25.227,7.719,25.354,7.541,25.507,7.464L25.507,7.464z
		 M23.582,8.396c0.332,0.318,0.625,0.459,0.982,0.459c0.14,0,0.306-0.039,0.396-0.039c0.115,0,0.192,0.052,0.192,0.141
		c0,0.142-0.128,0.371-0.281,0.498c0.154,0.064,0.319,0.089,0.498,0.089c0.727,0,1.556-0.459,1.556-1.606
		c0.153,0.203,0.243,0.625,0.243,0.815c0,1.392-1.022,1.928-1.964,1.928c-0.613,0-0.918-0.204-0.994-0.204
		c-0.242,0-0.229,0.483-0.396,0.473c-0.294-0.051-0.561-0.702-0.561-1.391C23.25,9.148,23.352,8.714,23.582,8.396L23.582,8.396z
		 M14.72,4.683c0,0.445,1.594,2.628,1.9,2.628c0.254,0,0.446-0.447,0.446-0.83c0-0.103-0.025-0.204-0.076-0.281
		c-0.23-0.319-1.85-1.595-2.207-1.595C14.745,4.606,14.72,4.645,14.72,4.683L14.72,4.683z M33.12,3.635
		c0-0.905-2.167-1.135-2.167-1.34c0-0.166,1.211-0.446,1.836-0.46c-0.958-1.224-2.32-1.097-2.32-1.312
		c0-0.128,1.021-0.384,1.963-0.384c0.79,0,1.53,0.179,1.53,0.778c0,0.332-0.269,0.676-0.269,1.187c0,0.28,0.141,0.522,0.51,0.522
		c0.396,0,0.486-0.421,0.486-0.868c0-0.368-0.064-0.649-0.064-0.828c0-0.536,0.369-0.894,0.892-0.894c0.434,0,0.536,0.19,1.173,0.19
		c-0.344,0.204-0.471,0.573-0.471,0.753c0,0.537,0.344,0.905,0.344,2.004c0,2.015-1.887,2.729-4.196,2.729
		c-0.638,0-1.312-0.051-1.977-0.152c-0.102-0.014-0.128-0.038-0.128-0.103c0-0.167,0.906-0.256,0.906-1.071
		c0-0.319-0.103-0.625-0.103-0.74c0-0.064,0.051-0.103,0.103-0.103c0.191,0,0.572,0.741,1.286,0.741
		C32.647,4.288,33.12,4.224,33.12,3.635L33.12,3.635z M35.274,2.348c0,1.135-0.828,2.003-2.32,2.245
		c0.166,0.014,0.319,0.014,0.473,0.014c1.746,0,2.384-0.791,2.384-1.454C35.811,2.782,35.606,2.45,35.274,2.348L35.274,2.348z
		 M34.064,12.607c0-0.27-0.676-0.293-0.74-1.047c-0.013-0.115-0.052-0.319-0.192-0.319c-0.229,0-0.051,0.701-0.306,0.701
		c-0.587,0-0.778-1.148-0.995-1.148c-0.05,0-0.114,0.039-0.114,0.192c0,0.14,0.026,0.229,0.026,0.395s-0.039,0.281-0.19,0.281
		c-0.345,0-0.651-0.803-0.944-0.803c-0.064,0-0.127,0.039-0.127,0.102c0,0.154,0.255,0.435,0.255,0.574
		c0,0.307-0.83,0.14-0.83,0.396c0,0.114,0.114,0.153,0.269,0.153c0.268,0,0.688-0.115,0.904-0.115c0.128,0,0.32,0.026,0.32,0.191
		c0,0.179-0.46,0.408-0.46,0.574c0,0.077,0.077,0.114,0.14,0.114c0.345,0,0.956-0.601,1.389-0.601c0.078,0,0.269,0.039,0.269,0.154
		c0,0.166-0.434,0.458-0.434,0.701c0,0.063,0.039,0.141,0.114,0.141c0.229,0,0.536-0.6,0.969-0.6c0.166,0,0.408,0.063,0.535,0.063
		C34.026,12.709,34.064,12.645,34.064,12.607L34.064,12.607z M24.934,2.871c0-0.14-0.497-0.409-0.497-0.561
		c0-0.026,0.025-0.039,0.063-0.039c0.139,0,0.382,0.051,0.573,0.051c0.166,0,0.191-0.713,0.319-0.713
		c0.089,0,0.241,0.675,0.383,0.675c0.166,0,0.47-0.191,0.599-0.191c0.026,0,0.051,0.013,0.051,0.038
		c0,0.089-0.319,0.435-0.319,0.536c0,0.115,0.715,0.255,0.715,0.358c0,0.127-0.728,0.114-0.728,0.229
		c0,0.089,0.269,0.446,0.269,0.562c0,0.024-0.013,0.039-0.039,0.039c-0.102,0-0.496-0.18-0.611-0.18
		c-0.141,0-0.371,0.523-0.486,0.523c-0.038,0-0.063-0.051-0.063-0.115l-0.026-0.51c0-0.052-0.026-0.102-0.089-0.102
		c-0.153,0-0.447-0.014-0.536-0.014c-0.063,0-0.089-0.013-0.089-0.039C24.423,3.317,24.934,2.961,24.934,2.871L24.934,2.871z
		 M27.42,5.295c-0.893,0-1.479-0.445-1.479-0.676c0-0.114,0.077-0.192,0.178-0.192c0.281,0,0.893,0.435,1.098,0.435
		c0.05,0,0.088-0.025,0.088-0.103c0-0.229-0.217-0.612-0.217-0.804c0-0.051,0.039-0.089,0.115-0.089
		c0.344,0,0.855,0.141,1.123,0.141c0.089,0,0.114-0.052,0.114-0.102c0-0.281-0.829-0.83-0.829-0.996
		c0-0.153,1.032-0.382,1.032-0.625c0-0.255-1.402-0.076-1.402-0.32c0-0.178,0.268-0.483,0.268-0.624
		c0-0.063-0.051-0.089-0.141-0.089c-0.114,0-0.726,0.242-0.982,0.242c-0.127,0-0.28-0.025-0.28-0.204
		c0-0.293,0.497-0.613,1.276-0.613c1.261,0,2.014,0.868,2.014,2.324C29.396,4.835,28.108,5.295,27.42,5.295L27.42,5.295z
		 M18.788,27.369c0,0.114-0.039,0.244-0.141,0.371c-0.14-0.256-0.536-0.384-0.713-0.384c-1.314,0-0.817,1.9-2.22,1.9
		c-0.587,0-0.639-0.076-0.854-0.076c-0.089,0-0.141,0.037-0.141,0.113c0,0.332,0.472,1.149,1.785,1.149
		c1.315,0,2.577-0.804,2.577-1.8c0-0.165-0.039-0.344-0.116-0.524c0.051-0.076,0.179-0.126,0.293-0.126
		c0.205,0,0.319,0.229,0.51,0.229c0.205,0,0.357-0.153,0.357-0.356c0-0.167-0.09-0.281-0.243-0.358
		c0.103-0.075,0.179-0.203,0.179-0.344c0-0.217-0.153-0.421-0.408-0.421c-0.115,0-0.191,0.038-0.28,0.128
		c-0.026-0.23-0.153-0.447-0.396-0.447c-0.19,0-0.332,0.142-0.332,0.357C18.647,26.986,18.788,27.152,18.788,27.369L18.788,27.369z
		 M15.357,27.854c-0.382,0-0.956-0.409-0.956-0.639c0-0.191,0.178-0.293,0.318-0.293c0.318,0,0.893,0.396,0.893,0.729
		C15.612,27.739,15.548,27.854,15.357,27.854L15.357,27.854z M11.799,24.995c1.021,0.255,1.531,0.803,1.633,1.455
		c0.102,0.625,0.229,1.136,0.472,1.392c0.319,0.356,0.944,0.676,1.491,0.676c0.459,0,0.83-0.153,0.83-0.573
		c0-0.46-0.625-1.493-1.543-1.493c-0.089,0-0.205,0.012-0.332,0.012c-0.114,0-0.28-0.025-0.383-0.113
		c-0.204-0.179-0.268-1.137-0.65-1.71c-0.42-0.639-0.879-0.817-1.504-0.817c-0.446,0-0.943,0.242-0.943,0.6
		C10.869,24.638,10.983,24.791,11.799,24.995L11.799,24.995z M18.201,23.439c0-0.575-1.186-0.587-1.186-1.455
		c0-0.217,0.14-0.587,0.422-0.983c0.114,0.664,0.383,1.008,0.956,1.226c1.135,0.42,1.288,1.059,1.288,1.734
		c0,1.147-0.804,2.577-2.869,2.577c-1.658,0-2.844-1.48-2.844-2.729c0-0.347,0.089-0.729,0.307-0.729
		c0.191,0,0.255,0.154,0.408,0.306c0.573,0.574,1.198,0.728,2.103,0.728C17.602,24.115,18.201,23.784,18.201,23.439L18.201,23.439z
		 M18.251,24.358c-0.446,0.179-0.612,0.166-0.612,0.61c0,0.166-0.038,0.385-0.038,0.498c0,0.154,0.025,0.243,0.204,0.243
		c0.458,0,1.186-0.778,1.186-1.441c0-0.179-0.102-0.254-0.216-0.254C18.672,24.014,18.558,24.217,18.251,24.358L18.251,24.358z
		 M14.184,17.914c0-0.815,1.938-1.25,1.938-2.258c0-0.166-0.063-0.458-0.179-0.675c0.676,0.37,1.173,0.996,1.173,1.505
		c0,0.882-0.918,1.289-0.918,1.838c0,0.638,0.982,0.74,0.982,1.531c0,0.649-0.931,1.402-0.931,2.246c0,0.649,0.458,1.186,1.16,1.275
		c-0.229,0.051-0.434,0.089-0.65,0.089c-1.288,0-2.614-1.06-2.614-2.322c0-0.625,0.268-1.174,0.676-1.569
		c0.356,0.306,0.714,0.511,0.943,0.511c0.205,0,0.294-0.103,0.294-0.255C16.059,19.355,14.184,18.922,14.184,17.914L14.184,17.914z"
		/>
	<path fill="#888888" d="M16.813,45.21c0.361,0,0.979-0.117,1.467-0.898c-0.279-0.619-0.479-1.871-0.506-2.327
		c-0.142-2.331,0.755-4.522,1.737-4.582c0.721-0.043,1.297,0.638,1.362,1.741c0.178,2.904-0.79,4.117-1.272,5.162
		c0.082,0.406,0.769,1.097,1.418,1.097c0.239,0,0.529-0.12,0.602-0.218c-0.05-0.167-0.098-0.384-0.098-0.697
		c0-1.682,1.083-3.104,2.02-3.104c0.746,0,1.176,0.986,1.176,1.639c0,0.768-0.648,1.394-1.609,1.995
		c0.169,0.167,0.479,0.288,0.746,0.288c1.37,0,2.089-1.658,2.62-3.176c0.095-0.289,0.265-0.696,0.6-0.696
		c0.578,0,0.818,3.798,1.778,3.798c0.409,0,0.745-0.841,0.745-1.488c0-0.48-0.168-0.529-0.168-1.228c0-0.77,0.409-1.419,0.963-1.419
		c0.336,0,0.456,0.337,0.456,0.745c0,1.54-1.105,4.401-2.738,4.401c-1.228,0-1.131-2.118-1.562-2.118
		c-0.482,0-1.155,2.144-3.533,2.144c-0.386,0-0.793-0.193-1.129-0.58c-0.578,0.386-1.059,0.555-1.612,0.555
		c-0.889,0-1.273-0.915-1.633-0.915c-0.433,0-0.912,0.94-2.355,0.94c-1.155,0-1.347-1.539-1.754-1.539
		c-0.361,0-0.914,1.539-1.514,1.539c-1.011,0-1.226-2.669-2.116-2.669c-0.697,0-2.899,2.711-3.497,2.648
		c-0.241-0.024-0.341-0.206-0.316-0.447c0.034-0.332,0.32-1.223,0.437-1.645C7.722,43.427,7.901,42.623,8,42.368
		c0.099-0.258,0.367-0.442,0.58-0.422c0.107,0.011,0.14,0.212,0.174,0.378c0.121,0.596,0.291,1.201,0.483,1.201
		c0.336,0,1.453-2.142,2.1-2.142c0.794,0,0.89,3.368,1.971,3.368c0.36,0,0.626-0.433,0.865-0.962
		c0.025-0.891,0.265-2.164,0.986-2.164c0.505,0,0.746,1.128,0.384,2.117C15.54,44.921,16.309,45.21,16.813,45.21L16.813,45.21z
		 M34.742,42.952c0-0.603-0.551-1.444-1.369-1.444c-1.082,0-2.137,1.179-2.137,2.813c0,1.466,0.91,1.95,1.823,1.95
		c1.587,0,2.548-1.302,3.053-2.382c0.24,0.721,0.383,2.382,0.985,2.382c0.241,0,0.408-0.121,0.699-0.771
		c0.719-1.61,1.416-3.463,2.378-3.463c0.359,0,0.144,0.65,1.009,0.65c0.409,0,0.695-0.336,0.695-0.724
		c0-0.553-0.504-0.985-1.273-0.985c-2.258,0-2.738,3.393-3.101,3.393c-0.601,0-0.408-2.717-0.841-2.717
		c-0.385,0-0.578,0.457-0.625,0.673c-0.312,1.25-1.201,3.055-2.547,3.055c-0.312,0-0.865-0.122-0.865-0.434
		C32.627,44.609,34.742,44.562,34.742,42.952L34.742,42.952z M20.096,39.794c-0.042-0.671-0.205-0.975-0.565-0.95
		c-0.479,0.03-0.699,1.535-0.604,3.119c0.063,1.034,0.216,1.192,0.36,1.184C19.554,43.129,20.188,41.283,20.096,39.794
		L20.096,39.794z M16.188,38.383c-0.023-0.386-0.335-0.649-0.744-0.649c-0.458,0-0.891,0.479-0.841,1.081
		c0,0.36,0.263,0.722,0.722,0.722C15.853,39.536,16.237,38.937,16.188,38.383L16.188,38.383z M23.664,43.288
		c0-0.407-0.217-0.746-0.481-0.746c-0.218,0-0.721,0.24-0.721,1.01c0,0.603,0.215,0.89,0.312,1.012
		C23.471,44.344,23.664,43.769,23.664,43.288L23.664,43.288z M33.059,42.471c0.505,0,0.65,0.6,0.53,0.961
		c-0.122,0.359-0.552,0.769-1.226,0.889C32.219,43.959,32.146,42.471,33.059,42.471L33.059,42.471z M0.005,42.854
		c-0.024-0.986,0.025-1.974,0.434-3.367c0.215-0.744,0.409-1.009,1.081-1.152C2.047,38.238,2,38.79,1.88,39.44
		c-0.264,1.441-0.386,2.139-0.289,3.774c0.094,1.731,0.889,2.404,1.753,2.404c1.297,0.025,1.875-1.057,2.115-2.621
		c0.191-1.251,0.047-1.853-0.073-2.237c-0.072-0.216-0.264-0.697-0.336-1.057c-0.095-0.915,0.336-1.346,0.697-1.467
		c0.433-0.12,0.602,0.097,0.769,0.602c0.217,0.771,0.241,1.778,0.168,3.221c-0.095,1.972-1.082,4.354-3.532,4.306
		C1.038,46.318,0.103,44.946,0.005,42.854L0.005,42.854z"/>
</g>
<g>
	<path fill="#888888" d="M182.685,86.948h3.934l0.174,1.241c0.302-0.991,2.291-1.695,3.501-1.695c2.81,0,3.935,1.654,3.935,4.55
		v6.244h-4.365v-5.585c0-1.118-0.217-1.94-1.383-1.94c-1.082,0-1.643,1.115-1.643,1.901v5.624h-4.15L182.685,86.948L182.685,86.948z
		"/>
	<path fill="#888888" d="M157.226,97.33V82.687h7.306c4.366,0,6.354,2.025,6.354,4.963c0,3.143-1.815,5.292-6.354,5.292h-2.464
		v4.385h-4.842V97.33L157.226,97.33z M164.013,89.389c1.17,0,2.422-0.25,2.422-1.531c0-1.323-1.341-1.613-2.422-1.613h-1.945v3.145
		H164.013L164.013,89.389z"/>
	<path fill="#888888" d="M230.752,86.948h3.978l0.131,1.241c0.343-0.991,2.33-1.695,3.541-1.695c2.767,0,3.935,1.654,3.935,4.55
		v6.285h-4.364v-5.626c0-1.118-0.262-1.941-1.427-1.941c-1.039,0-1.601,1.116-1.601,1.902v5.665h-4.193L230.752,86.948
		L230.752,86.948z"/>
	<path fill="#888888" d="M210.696,93.607c0,0.413,0.216,1.034,0.477,1.24c0.303,0.207,0.692,0.416,1.166,0.416
		c0.779,0,1.385-0.206,1.385-0.909c0.043-1.737-6.57-0.206-6.57-4.344c0-2.896,2.334-3.558,4.755-3.558
		c2.42,0,5.749,0.456,5.618,3.599h-3.674c0-0.289-0.131-0.496-0.303-0.744c-0.261-0.289-0.562-0.412-1.122-0.454
		c-0.733-0.042-1.428,0.082-1.428,0.619c0.045,1.612,6.83,0.537,6.83,4.343c0,2.645-1.945,3.846-5.705,3.846
		c-2.377-0.039-5.36-1.198-5.36-4.051h3.933L210.696,93.607L210.696,93.607z"/>
	<path fill="#888888" d="M255.437,90.96c0-0.252,0-0.58-0.348-0.993c-0.173-0.207-0.562-0.661-1.166-0.661
		c-1.643,0-2.076,1.529-2.076,2.77c0,1.449,0.691,2.646,1.986,2.646c1.123,0,1.686-0.99,1.686-1.821h3.806
		c0.088,2.15-1.472,4.716-5.66,4.716c-3.418,0-5.837-2.276-5.837-5.583c0-4.012,3.113-5.542,5.792-5.542
		c3.632,0,5.706,2.109,5.661,4.469H255.437L255.437,90.96L255.437,90.96z"/>
	<path fill="#888888" d="M178.062,97.33l-0.433-0.87c-0.821,0.662-1.687,1.034-3.069,1.034c-1.34-0.04-3.977-0.206-3.977-2.979
		c0-4.55,7.089-2.48,7.089-4.716c0-0.743-0.864-0.701-1.34-0.701c-0.865,0-1.425,0.166-1.556,1.404h-3.631
		c0-2.149,0.693-3.971,5.446-3.971c4.626,0,5.103,2.316,5.103,4.591v4.717c0,0.619,0.043,0.909,0.476,1.363v0.084L178.062,97.33
		L178.062,97.33z M177.715,92.572c-1.47,0.664-3.328,0.62-3.371,1.654c0,0.663,0.392,0.992,1.253,0.992
		C177.022,95.219,177.802,93.813,177.715,92.572L177.715,92.572z M202.44,97.33l-0.434-0.87c-0.82,0.662-1.729,1.034-3.068,1.034
		c-1.383-0.04-4.021-0.206-4.021-2.979c0-4.55,7.09-2.48,7.132-4.716c0-0.743-0.907-0.701-1.339-0.701
		c-0.908,0-1.425,0.166-1.557,1.404h-3.631c0-2.149,0.647-3.971,5.446-3.971c4.583,0,5.058,2.316,5.058,4.591v4.717
		c0,0.619,0.043,0.909,0.477,1.363v0.084L202.44,97.33L202.44,97.33z M202.094,92.572c-1.469,0.664-3.372,0.62-3.372,1.654
		c0,0.663,0.346,0.992,1.254,0.992C201.358,95.219,202.181,93.813,202.094,92.572L202.094,92.572z"/>
	<path fill="#888888" d="M247.136,97.33V86.948h-4.021V97.33H247.136L247.136,97.33z M243.115,85.625h4.021v-2.978h-4.021V85.625
		L243.115,85.625z"/>
	<path fill="#888888" d="M224.271,86.576c3.586,0,5.789,2.398,5.789,5.541c0,3.185-2.205,5.54-5.789,5.54
		c-3.592,0-5.838-2.355-5.838-5.54C218.433,88.974,220.683,86.576,224.271,86.576L224.271,86.576z M222.367,92.119
		c0,1.282,0.432,2.854,1.903,2.895c1.471,0,1.855-1.611,1.855-2.895c0-1.243-0.389-2.856-1.855-2.856
		C222.799,89.264,222.41,90.877,222.367,92.119L222.367,92.119z"/>
</g>
</svg>
