<?xml version="1.0" encoding="utf-8"?>
<!-- Generator: Adobe Illustrator 16.0.4, SVG Export Plug-In . SVG Version: 6.00 Build 0)  -->
<!DOCTYPE svg PUBLIC "-//W3C//DTD SVG 1.1//EN" "http://www.w3.org/Graphics/SVG/1.1/DTD/svg11.dtd">
<svg version="1.1" xmlns="http://www.w3.org/2000/svg" xmlns:xlink="http://www.w3.org/1999/xlink" x="0px" y="0px" width="100px"
	 height="100px" viewBox="0 0 100 100" enable-background="new 0 0 100 100" xml:space="preserve">
<g id="Layer_4">
	<g>
		<g>
			<path fill="#7BD454" d="M50,100C22.43,100,0,77.569,0,50S22.43,0,50,0s50,22.431,50,50S77.57,100,50,100L50,100z M50,2.223
				C23.656,2.223,2.222,23.654,2.222,50S23.656,97.777,50,97.777S97.778,76.346,97.778,50S76.344,2.223,50,2.223L50,2.223z"/>
		</g>
	</g>
</g>
<g id="Layer_3">
	<g>
		<g>
			<g>
				<path fill="#7BD454" d="M47.695,62.022c-0.255,0-0.502-0.087-0.702-0.249l-5.575-4.54c-0.475-0.389-0.547-1.088-0.159-1.562
					c0.386-0.478,1.087-0.545,1.563-0.161l4.71,3.837l9.481-11.729c0.385-0.478,1.083-0.554,1.562-0.165
					c0.478,0.387,0.551,1.085,0.165,1.562L48.559,61.61c-0.186,0.229-0.455,0.375-0.749,0.405
					C47.772,62.021,47.733,62.022,47.695,62.022L47.695,62.022z"/>
			</g>
		</g>
		<g>
			<g>
				<g>
					<path fill="#7BD454" d="M74.188,75.3H25.81c-0.614,0-1.111-0.497-1.111-1.111V25.812c0-0.614,0.497-1.111,1.111-1.111h48.379
						c0.614,0,1.111,0.497,1.111,1.111v48.377C75.299,74.803,74.803,75.3,74.188,75.3L74.188,75.3z M26.92,73.077h46.157V26.923
						H26.92V73.077L26.92,73.077z"/>
				</g>
				<g>
					<path fill="#7BD454" d="M73.394,39.874H26.602c-0.614,0-1.111-0.497-1.111-1.111s0.497-1.11,1.111-1.11h46.792
						c0.614,0,1.111,0.496,1.111,1.11S74.008,39.874,73.394,39.874L73.394,39.874z"/>
				</g>
				<path fill="#7BD454" d="M32.32,29.835c-1.354,0-2.452,1.099-2.452,2.452c0,1.354,1.098,2.452,2.452,2.452
					s2.452-1.098,2.452-2.452C34.772,30.934,33.674,29.835,32.32,29.835L32.32,29.835z"/>
				<path fill="#7BD454" d="M39.379,29.835c-1.354,0-2.452,1.099-2.452,2.452c0,1.354,1.098,2.452,2.452,2.452
					s2.452-1.098,2.452-2.452C41.832,30.934,40.733,29.835,39.379,29.835L39.379,29.835z"/>
				<path fill="#7BD454" d="M46.439,29.835c-1.354,0-2.455,1.099-2.455,2.452c0,1.354,1.1,2.452,2.455,2.452
					c1.356,0,2.454-1.098,2.454-2.452C48.893,30.934,47.795,29.835,46.439,29.835L46.439,29.835z"/>
			</g>
		</g>
	</g>
</g>
</svg>
