<?xml version="1.0" encoding="utf-8"?>
<!-- Generator: Adobe Illustrator 16.0.4, SVG Export Plug-In . SVG Version: 6.00 Build 0)  -->
<!DOCTYPE svg PUBLIC "-//W3C//DTD SVG 1.1//EN" "http://www.w3.org/Graphics/SVG/1.1/DTD/svg11.dtd">
<svg version="1.1" id="Layer_1" xmlns="http://www.w3.org/2000/svg" xmlns:xlink="http://www.w3.org/1999/xlink" x="0px" y="0px"
	 width="50px" height="51px" viewBox="74.377 78.062 50 51" enable-background="new 74.377 78.062 50 51" xml:space="preserve">
<g>
	<path fill="#888888" d="M81.475,96.071c-0.569-0.21-1.222-0.314-2.001-0.314c-0.969,0-1.875,0.272-2.738,0.859
		c-0.316,0.209-0.611,0.44-0.906,0.733c-0.969,1.006-1.453,2.222-1.453,3.668c0,1.404,0.484,2.62,1.453,3.626
		c0.442,0.439,0.906,0.775,1.411,1.006c0.695,0.377,1.453,0.566,2.232,0.566h17.397l-13.479-9.034
		c-0.337-0.209-0.632-0.419-0.906-0.566C82.085,96.365,81.749,96.176,81.475,96.071L81.475,96.071z"/>
	<path fill="#888888" d="M87.225,85.885c-0.147-0.084-0.274-0.167-0.4-0.273c-1.095-0.733-2.401-0.964-3.917-0.691
		c-0.821,0.168-1.537,0.482-2.148,0.964c-0.252,0.209-0.484,0.419-0.695,0.67c-0.147,0.168-0.274,0.356-0.4,0.524
		c-0.316,0.461-0.568,0.922-0.716,1.425c-0.253,0.754-0.295,1.572-0.126,2.431c0.147,0.734,0.4,1.404,0.737,1.949
		c0.358,0.566,0.821,1.027,1.369,1.383l15.185,10.333l-6.845-15.614c-0.084-0.168-0.147-0.335-0.211-0.482
		c-0.274-0.671-0.526-1.174-0.758-1.53c-0.105-0.125-0.211-0.272-0.337-0.419C87.751,86.325,87.498,86.095,87.225,85.885
		L87.225,85.885z"/>
	<path fill="#888888" d="M95.438,78.381c-0.147-0.063-0.295-0.104-0.463-0.146c-0.863-0.23-1.727-0.23-2.59,0
		c-0.295,0.084-0.59,0.188-0.884,0.314c-1.327,0.587-2.233,1.53-2.717,2.809c-0.021,0.062-0.063,0.146-0.084,0.209
		c-0.442,1.321-0.421,2.578,0.105,3.773l7.435,16.998l2.464-17.166c0.147-0.964,0.21-1.698,0.189-2.18
		c-0.021-0.461-0.126-0.922-0.295-1.425c-0.042-0.168-0.126-0.336-0.189-0.524C97.861,79.807,96.871,78.926,95.438,78.381
		L95.438,78.381z"/>
	<path fill="#888888" d="M116.248,96.616c-0.274,0.146-0.569,0.356-0.906,0.566l-13.479,9.034h17.396
		c1.032,0,2.001-0.314,2.928-0.964c0.232-0.168,0.464-0.377,0.716-0.608c0.043-0.041,0.085-0.083,0.147-0.146
		c0.569-0.607,0.948-1.299,1.158-2.096c0.063-0.23,0.127-0.481,0.147-0.733c0.021-0.21,0.021-0.44,0.021-0.649
		c0-1.174-0.316-2.201-0.969-3.06c-0.147-0.21-0.316-0.419-0.506-0.608c-0.295-0.293-0.61-0.524-0.927-0.733
		c-0.357-0.272-0.759-0.461-1.158-0.608c-0.505-0.167-1.032-0.251-1.559-0.251c-0.779,0-1.432,0.104-1.979,0.314
		C117.006,96.176,116.647,96.365,116.248,96.616L116.248,96.616z"/>
	<path fill="#888888" d="M110.034,81.567c-0.021-0.063-0.063-0.147-0.084-0.209c-0.506-1.3-1.411-2.222-2.717-2.809
		c-0.295-0.126-0.59-0.23-0.885-0.314c-0.863-0.23-1.727-0.23-2.591,0c-0.168,0.042-0.315,0.084-0.463,0.146
		c-1.433,0.545-2.423,1.446-2.97,2.662c-0.063,0.188-0.147,0.356-0.21,0.524c-0.253,0.754-0.337,1.488-0.253,2.243v0.104h1.411
		c0.422,0.042,0.695,0.105,0.759,0.21c0.105,0.104-0.105,0.272-0.569,0.461l-0.358,0.23l-0.441,0.356
		c-0.189,0.167-0.295,0.419-0.358,0.712c-0.042,0.21-0.063,0.419-0.042,0.671c0,0.104,0,0.188,0.021,0.314l2.211,15.468
		l7.456-16.998C110.455,84.188,110.498,82.909,110.034,81.567L110.034,81.567z"/>
	<path fill="#888888" d="M120.018,89.762c-0.042-0.922-0.337-1.802-0.927-2.683c-0.127-0.168-0.253-0.356-0.4-0.524
		c-0.211-0.251-0.442-0.461-0.695-0.671c-0.632-0.482-1.348-0.817-2.169-0.964c-1.517-0.272-2.822-0.042-3.918,0.692
		c-0.126,0.104-0.273,0.188-0.4,0.272c-0.273,0.23-0.505,0.44-0.716,0.671c-0.147,0.146-0.253,0.293-0.337,0.419
		c-0.274,0.419-0.61,1.09-0.99,2.012l-6.845,15.615l15.186-10.333c0.568-0.377,1.011-0.817,1.368-1.383
		c0.043-0.042,0.063-0.084,0.085-0.146c0.188-0.314,0.337-0.67,0.463-1.048c0.063-0.23,0.147-0.503,0.189-0.754
		C119.996,90.538,120.039,90.14,120.018,89.762L120.018,89.762z"/>
	<path fill="#888888" d="M98.324,113.614v3.982h1.959c0.547,0,1.011-0.209,1.369-0.649c0.358-0.44,0.527-0.923,0.527-1.53
		c-0.021-0.482-0.232-0.901-0.632-1.258c-0.38-0.377-0.822-0.545-1.327-0.545H98.324L98.324,113.614z M98.324,120.553v4.338h2.253
		c0.695,0,1.327-0.146,1.896-0.481c0.547-0.314,0.842-0.817,0.842-1.509c0-1.446-0.927-2.243-2.738-2.348H98.324L98.324,120.553z
		 M121.344,110.429v3.982c-1.137-0.607-2.127-0.922-2.97-0.922c-0.188,0-0.61,0.041-1.242,0.125
		c-1.495,0.21-2.738,0.859-3.728,1.908c-0.969,1.047-1.475,2.305-1.475,3.793c0,1.404,0.464,2.6,1.369,3.605
		c0.884,1.006,2.043,1.677,3.475,1.97c0.358,0.084,0.822,0.126,1.433,0.126c1.158-0.062,2.19-0.377,3.138-0.943v4.36
		c-1.137,0.419-2.253,0.628-3.391,0.628c-0.505,0-0.905,0-1.18-0.042c-1.79-0.167-3.411-0.691-4.886-1.571
		c-1.475-0.881-2.654-2.055-3.496-3.543c-0.864-1.487-1.306-3.123-1.306-4.968c0.062-1.697,0.547-3.248,1.432-4.632
		c0.885-1.383,2.064-2.494,3.538-3.29c1.475-0.817,3.097-1.279,4.845-1.362C118.585,109.653,120.06,109.904,121.344,110.429
		L121.344,110.429z M81.728,128.434h-3.896v-18.78l10.762,9.662v-8.887h4.002v18.591l-10.868-10.081V128.434L81.728,128.434z
		 M94.385,128.434v-18.005h7.792c1.074,0.126,1.98,0.545,2.696,1.278c0.716,0.734,1.116,1.635,1.2,2.725
		c0,1.865-0.695,3.229-2.106,4.108c1.96,0.817,3.013,2.306,3.118,4.423c0,1.445-0.464,2.703-1.391,3.751
		c-0.927,1.049-2.106,1.614-3.518,1.72H94.385L94.385,128.434z"/>
</g>
</svg>
