<?xml version="1.0" encoding="utf-8"?>
<!-- Generator: Adobe Illustrator 16.0.4, SVG Export Plug-In . SVG Version: 6.00 Build 0)  -->
<!DOCTYPE svg PUBLIC "-//W3C//DTD SVG 1.1//EN" "http://www.w3.org/Graphics/SVG/1.1/DTD/svg11.dtd">
<svg version="1.1" xmlns="http://www.w3.org/2000/svg" xmlns:xlink="http://www.w3.org/1999/xlink" x="0px" y="0px" width="100px"
	 height="100px" viewBox="0 0 100 100" enable-background="new 0 0 100 100" xml:space="preserve">
<g id="Layer_4">
	<g>
		<g>
			<path fill="#7BD454" d="M50,100C22.431,100,0,77.569,0,50S22.431,0,50,0s50,22.431,50,50S77.569,100,50,100L50,100z M50,2.223
				C23.654,2.223,2.223,23.654,2.223,50S23.654,97.777,50,97.777S97.777,76.346,97.777,50S76.346,2.223,50,2.223L50,2.223z"/>
		</g>
	</g>
</g>
<g id="Layer_3">
	<g>
		<path fill="#7BD454" d="M40.564,62.893l12.6-11.396c5.556-5.069,7.487-7.966,7.487-11.538c0-4.395-3.572-7.244-7.631-7.244
			c-4.297,0-7.096,2.223-9.899,6.276l-1.88-1.255c2.942-4.49,6.081-7.244,12.022-7.244c5.747,0,10.044,4.009,10.044,9.271v0.098
			c0,4.635-2.514,7.726-8.451,13.134l-10.334,9.368h19.123v2.413H40.564V62.893z"/>
	</g>
</g>
</svg>
