<?xml version="1.0" encoding="utf-8"?>
<!-- Generator: Adobe Illustrator 16.0.4, SVG Export Plug-In . SVG Version: 6.00 Build 0)  -->
<!DOCTYPE svg PUBLIC "-//W3C//DTD SVG 1.1//EN" "http://www.w3.org/Graphics/SVG/1.1/DTD/svg11.dtd">
<svg version="1.1" xmlns="http://www.w3.org/2000/svg" xmlns:xlink="http://www.w3.org/1999/xlink" x="0px" y="0px" width="100px"
	 height="100px" viewBox="0 0 100 100" enable-background="new 0 0 100 100" xml:space="preserve">
<g id="Layer_4">
	<g>
		<g>
			<path fill="#7BD454" d="M50,100C22.431,100,0,77.569,0,50C0,22.43,22.431,0,50,0s50,22.43,50,50C100,77.569,77.569,100,50,100
				L50,100z M50,2.222C23.654,2.222,2.223,23.656,2.223,50c0,26.346,21.432,47.778,47.777,47.778S97.777,76.346,97.777,50
				C97.777,23.656,76.346,2.222,50,2.222L50,2.222z"/>
		</g>
	</g>
</g>
<g id="Layer_3">
	<g>
		<g>
			<path fill="#7BD454" d="M65.556,75.556H34.444c-0.614,0-1.111-0.497-1.111-1.111V25.556c0-0.614,0.497-1.111,1.111-1.111h31.111
				c0.614,0,1.111,0.497,1.111,1.111v48.889C66.667,75.059,66.17,75.556,65.556,75.556L65.556,75.556z M35.556,73.333h28.889V26.667
				H35.556V73.333L35.556,73.333z"/>
		</g>
		<g>
			<path fill="#7BD454" d="M61.111,62.22H38.889c-0.614,0-1.111-0.496-1.111-1.11V32.964c0-0.614,0.497-1.111,1.111-1.111h22.223
				c0.614,0,1.111,0.497,1.111,1.111v28.145C62.223,61.724,61.726,62.22,61.111,62.22L61.111,62.22z M40,59.998h20V34.076H40V59.998
				L40,59.998z"/>
		</g>
		<path fill="#7BD454" d="M52.639,67.177c0,1.456-1.185,2.639-2.639,2.639c-1.458,0-2.639-1.183-2.639-2.639
			s1.181-2.639,2.639-2.639C51.454,64.538,52.639,65.721,52.639,67.177z"/>
	</g>
</g>
</svg>
