<?xml version="1.0" encoding="utf-8"?>
<!-- Generator: Adobe Illustrator 16.0.4, SVG Export Plug-In . SVG Version: 6.00 Build 0)  -->
<!DOCTYPE svg PUBLIC "-//W3C//DTD SVG 1.1//EN" "http://www.w3.org/Graphics/SVG/1.1/DTD/svg11.dtd">
<svg version="1.1" xmlns="http://www.w3.org/2000/svg" xmlns:xlink="http://www.w3.org/1999/xlink" x="0px" y="0px" width="100px"
	 height="100px" viewBox="0 0 100 100" enable-background="new 0 0 100 100" xml:space="preserve">
<g id="Layer_4">
	<g>
		<g>
			<path fill="#7BD454" d="M50,100C22.431,100,0,77.57,0,50.001C0,22.431,22.431,0,50,0s50,22.431,50,50.001
				C100,77.57,77.569,100,50,100L50,100z M50,2.222c-26.346,0-47.777,21.433-47.777,47.779c0,26.344,21.432,47.776,47.777,47.776
				s47.777-21.433,47.777-47.776C97.777,23.654,76.346,2.222,50,2.222L50,2.222z"/>
		</g>
	</g>
</g>
<g id="Layer_3">
	<g>
		<g>
			<g>
				<path fill="#7BD454" d="M74.188,75.301H25.808c-0.614,0-1.111-0.497-1.111-1.111V25.81c0-0.614,0.497-1.111,1.111-1.111h48.381
					c0.614,0,1.111,0.497,1.111,1.111v48.38C75.3,74.804,74.803,75.301,74.188,75.301L74.188,75.301z M26.918,73.078h46.159V26.921
					H26.918V73.078L26.918,73.078z"/>
			</g>
			<g>
				<path fill="#7BD454" d="M73.395,39.875H26.602c-0.614,0-1.111-0.497-1.111-1.111s0.497-1.111,1.111-1.111h46.793
					c0.613,0,1.11,0.497,1.11,1.111S74.008,39.875,73.395,39.875L73.395,39.875z"/>
			</g>
			<path fill="#7BD454" d="M32.32,29.833c-1.356,0-2.453,1.099-2.453,2.454c0,1.354,1.097,2.45,2.453,2.45
				c1.354,0,2.452-1.096,2.452-2.45C34.772,30.932,33.674,29.833,32.32,29.833L32.32,29.833z"/>
			<path fill="#7BD454" d="M39.379,29.833c-1.354,0-2.452,1.099-2.452,2.454c0,1.354,1.099,2.45,2.452,2.45
				c1.354,0,2.453-1.096,2.453-2.45C41.832,30.932,40.733,29.833,39.379,29.833L39.379,29.833z"/>
			<path fill="#7BD454" d="M46.437,29.833c-1.352,0-2.452,1.099-2.452,2.454c0,1.354,1.101,2.45,2.452,2.45
				c1.358,0,2.457-1.096,2.457-2.45C48.894,30.932,47.795,29.833,46.437,29.833L46.437,29.833z"/>
		</g>
		<g>
			<g>
				<path fill="#7BD454" d="M50,48.785H34.817c-0.614,0-1.11-0.497-1.11-1.111c0-0.613,0.496-1.111,1.11-1.111H50
					c0.614,0,1.111,0.498,1.111,1.111C51.111,48.288,50.614,48.785,50,48.785L50,48.785z"/>
			</g>
			<g>
				<path fill="#7BD454" d="M50,55.821H34.817c-0.614,0-1.11-0.497-1.11-1.111s0.496-1.111,1.11-1.111H50
					c0.614,0,1.111,0.497,1.111,1.111S50.614,55.821,50,55.821L50,55.821z"/>
			</g>
			<g>
				<path fill="#7BD454" d="M50,62.861H34.817c-0.614,0-1.11-0.497-1.11-1.111s0.496-1.111,1.11-1.111H50
					c0.614,0,1.111,0.497,1.111,1.111S50.614,62.861,50,62.861L50,62.861z"/>
			</g>
			<g>
				<path fill="#7BD454" d="M65.187,62.861h-9.631c-0.614,0-1.111-0.497-1.111-1.111V47.674c0-0.613,0.497-1.111,1.111-1.111h9.631
					c0.614,0,1.111,0.498,1.111,1.111V61.75C66.298,62.364,65.801,62.861,65.187,62.861L65.187,62.861z M56.667,60.639h7.408V48.785
					h-7.408V60.639L56.667,60.639z"/>
			</g>
		</g>
	</g>
</g>
</svg>
