<?xml version="1.0" encoding="utf-8"?>
<!-- Generator: Adobe Illustrator 16.0.4, SVG Export Plug-In . SVG Version: 6.00 Build 0)  -->
<!DOCTYPE svg PUBLIC "-//W3C//DTD SVG 1.1//EN" "http://www.w3.org/Graphics/SVG/1.1/DTD/svg11.dtd">
<svg version="1.1" id="Layer_1" xmlns="http://www.w3.org/2000/svg" xmlns:xlink="http://www.w3.org/1999/xlink" x="0px" y="0px"
	 width="128px" height="32px" viewBox="0 0 128 32" enable-background="new 0 0 128 32" xml:space="preserve">
<g>
	<path fill="#888888" d="M29.392,11.28c1.386,0,2.719-1.144,2.949-2.553c0.275-1.372-0.667-2.515-2.053-2.515
		c-1.389,0-2.721,1.143-2.958,2.515C27.062,10.137,27.963,11.28,29.392,11.28z"/>
	<path fill="#888888" d="M123.64,15.359c0,0,3.051,0,3.109,0c0.426,0,0.675-0.172,0.771-0.562c0.138-0.568,0.388-1.556,0.457-1.822
		c0.094-0.354-0.115-0.624-0.511-0.624c-0.097,0-1.558,0-3.067,0c0.22-0.866,1.08-3.685,1.08-5.522c0-3.672-3.151-6.792-7.627-6.792
		c-5.054,0-8.343,3.351-8.343,8.066c0,1.376,0.52,2.978,1.163,3.975c-0.269-0.016-0.548-0.024-0.832-0.024
		c-3.84,0-6.258,2.059-6.258,5.054c0,2.812,2.242,3.904,4.354,4.63c1.876,0.647,3.603,0.947,3.603,2.395
		c0,0.976-0.951,1.549-2.811,1.549c-2.207,0-3.419-1.026-3.729-1.418c0.208-0.16,0.521-0.547,0.521-1.188
		c0-0.904-0.64-1.639-1.829-1.639c-1.005,0-1.855,0.811-2.069,1.878c-1.616,1.305-3.383,2.152-5.883,2.152
		c-2.461,0-3.74-1.266-3.74-3.958c0.577,0.175,2.082,0.383,3.074,0.383c4.169,0,7.013-1.874,7.013-5.624
		c0-2.016-1.792-4.132-5.333-4.132h-0.01c-4.661,0-7.273,2.917-8.412,6.127c-0.32-0.078-0.639-0.152-0.959-0.223
		c0.254-0.711,0.438-1.536,0.438-2.451c0-1.586-0.994-3.453-3.651-3.453c-1.853,0-3.606,1.198-4.827,2.993
		c0.303-1.173,0.503-1.953,0.516-2.003c0.081-0.306-0.047-0.649-0.531-0.649c-0.623,0-2.729,0-2.729,0
		c-0.389,0-0.663,0.139-0.771,0.574c-0.076,0.291-1.013,3.926-1.927,7.464c-0.576,2.206-3.548,4.952-7.285,4.952
		c-2.464,0-3.739-1.35-3.739-4.043c0.644,0.252,2.081,0.468,3.073,0.468c4.342,0,7.014-1.874,7.014-5.624
		c0-2.016-1.792-4.132-5.337-4.132h-0.008c-5.248,0-8.463,4.029-9.008,8.596c-0.226,1.899-1.847,4.505-3.608,4.505
		c-0.855,0-1.331-0.534-1.331-1.434c0-0.78,0.554-2.686,1.161-5.073c0.204-0.8,0.514-2.019,0.857-3.368c1.549,0,2.795,0,2.854,0
		c0.426,0,0.674-0.172,0.771-0.562c0.136-0.568,0.388-1.556,0.458-1.822c0.093-0.354-0.114-0.624-0.513-0.624
		c-0.092,0-2.807,0-2.807,0s1.292-5.091,1.323-5.222c0.125-0.517-0.313-0.817-0.773-0.723c0,0-2.169,0.421-2.57,0.503
		c-0.405,0.081-0.718,0.299-0.864,0.876c-0.02,0.074-1.15,4.565-1.15,4.565s-2.201,0-2.251,0c-0.426,0-0.675,0.172-0.77,0.565
		c-0.139,0.564-0.39,1.553-0.459,1.819c-0.094,0.354,0.115,0.624,0.512,0.624c0.081,0,1.009,0,2.212,0
		c-0.017,0.062-0.8,3.001-1.433,5.637c-0.298,1.266-1.295,4.229-2.928,4.229c-0.978,0-1.389-0.485-1.389-1.528
		c0-1.645,1.636-5.755,1.636-7.623c0-2.494-1.354-3.938-4.125-3.938c-1.747,0-3.562,1.115-4.329,2.094c0,0,0.231-0.801,0.312-1.108
		c0.084-0.324-0.094-0.646-0.523-0.646c-0.621,0-2.123,0-2.711,0c-0.578,0-0.737,0.304-0.823,0.64
		c-0.032,0.136-1.01,3.927-1.946,7.564c-0.643,2.493-2.203,4.574-3.869,4.574c-0.855,0-1.236-0.529-1.236-1.434
		c0-0.778,0.508-2.703,1.117-5.091c0.739-2.908,1.394-5.304,1.465-5.582c0.09-0.358-0.074-0.672-0.54-0.672
		c-0.585,0-2.108,0-2.728,0c-0.495,0-0.673,0.256-0.777,0.613c0,0-0.766,2.871-1.579,6.069c-0.588,2.318-1.242,4.683-1.242,5.793
		c0,1.982,0.901,3.474,3.375,3.474c1.913,0,3.424-0.957,4.578-2.177c-0.17,0.659-0.279,1.078-0.288,1.123
		c-0.103,0.376,0.02,0.709,0.469,0.709c0.621,0,2.182,0,2.791,0c0.486,0,0.674-0.192,0.775-0.612
		c0.099-0.397,2.183-8.502,2.183-8.502c0.549-2.177,1.914-3.616,3.83-3.616c0.91,0,1.697,0.594,1.606,1.75
		c-0.102,1.272-1.653,5.841-1.653,7.847c0,1.516,0.568,3.479,3.461,3.479c1.971,0,3.42-0.935,4.476-2.137
		c0.386,1.279,1.411,2.137,3.286,2.137c3.123,0,5.001-1.828,6.105-3.664c0.919,2.133,3.065,3.663,6.213,3.663
		c3.212,0,5.695-1.338,7.456-3.155c-0.317,1.228-0.533,2.06-0.551,2.128c-0.1,0.385,0.071,0.685,0.524,0.685c0.606,0,2.5,0,2.763,0
		c0.379,0,0.648-0.189,0.745-0.583c0.05-0.192,0.448-1.717,1.013-3.882c1.076-4.143,2.811-8.442,5.414-8.442
		c0.919,0,1.296,0.505,1.296,1.306c0,0.376-0.109,0.703-0.208,0.876c-1.261-0.248-2.276,0.368-2.276,1.699
		c0,0.868,0.923,1.656,2.171,1.656c0.952,0,1.74-0.23,2.369-0.65c0.586,0.121,1.216,0.257,1.851,0.399
		c-0.098,0.624-0.146,1.237-0.146,1.817c0,3.327,2.405,6.146,6.713,6.146c3.376,0,5.694-1.22,7.693-2.783
		c0.963,1.555,3.392,2.81,6.575,2.81c4.366,0,6.842-2.244,6.842-5.209c0-2.682-2.229-3.671-4.529-4.491
		c-1.867-0.669-3.426-1.031-3.426-2.336c0-1.069,0.852-1.559,2.313-1.559c0.945,0,1.657,0.203,2.036,0.308
		c0.377,0.932,1.158,1.963,2.49,1.963c1.126,0,1.631-0.879,1.631-1.691c0-2.305-3.89-2.548-3.89-7.497
		c0-3.078,1.763-5.615,5.414-5.615c2.533,0,4.189,1.589,4.189,4.153c0,2.113-1.298,5.876-1.298,5.876s-2.155,0-2.204,0
		c-0.426,0-0.677,0.172-0.771,0.565c-0.137,0.564-0.389,1.553-0.459,1.819c-0.093,0.354,0.115,0.624,0.513,0.624
		c0.079,0,2.153,0,2.153,0s-2.226,8.114-2.226,9.59c0,1.982,1.128,3.473,3.604,3.473c3.504,0,5.692-2.248,6.645-5.517
		c0.074-0.256-0.071-0.462-0.331-0.462c-0.448,0-1.128,0-1.335,0c-0.267,0-0.419,0.152-0.489,0.409
		c-0.301,1.159-1.051,2.382-2.521,2.382c-0.858,0-1.335-0.534-1.335-1.434c0-0.78,0.522-2.604,1.165-5.073
		C123.096,17.551,123.64,15.359,123.64,15.359z M96.025,15.219c1.238,0,1.828,0.814,1.828,1.786c0,1.641-1.288,2.641-3.304,2.641
		c-0.724,0-1.729-0.168-2.326-0.364C92.477,17.771,93.583,15.219,96.025,15.219z M66.892,15.219c1.354,0,1.825,0.814,1.825,1.786
		c0,1.641-1.286,2.641-3.302,2.641c-0.722,0-1.729-0.168-2.325-0.364C63.339,17.771,64.321,15.219,66.892,15.219z"/>
	<path fill="#888888" d="M13.292,0C4.455,0,0,6.264,0,11.483c0,3.159,1.211,5.974,3.81,7.021c0.425,0.171,0.807,0.006,0.931-0.461
		c0.084-0.321,0.287-1.137,0.381-1.475c0.123-0.46,0.073-0.622-0.268-1.023c-0.75-0.873-1.229-2.003-1.229-3.606
		c0-4.643,3.517-8.801,9.157-8.801c4.996,0,7.74,3.013,7.74,7.042c0,5.3-2.372,9.771-5.896,9.771c-1.947,0-3.402-1.589-2.938-3.541
		c0.561-2.324,1.642-4.839,1.642-6.52c0-1.503-0.814-2.76-2.508-2.76c-1.989,0-3.587,2.034-3.587,4.757
		c0,1.734,0.594,2.909,0.594,2.909s-2.037,8.523-2.393,10.015c-0.712,2.974-0.107,6.617-0.055,6.984
		c0.027,0.219,0.312,0.271,0.438,0.106c0.187-0.237,2.556-3.128,3.361-6.018c0.226-0.816,1.309-5.049,1.309-5.049
		c0.645,1.217,2.535,2.287,4.542,2.287c5.98,0,10.037-5.385,10.037-12.592C25.069,5.079,20.396,0,13.292,0z"/>
</g>
</svg>
