<?xml version="1.0" encoding="utf-8"?>
<!-- Generator: Adobe Illustrator 16.0.4, SVG Export Plug-In . SVG Version: 6.00 Build 0)  -->
<!DOCTYPE svg PUBLIC "-//W3C//DTD SVG 1.1//EN" "http://www.w3.org/Graphics/SVG/1.1/DTD/svg11.dtd">
<svg version="1.1" xmlns="http://www.w3.org/2000/svg" xmlns:xlink="http://www.w3.org/1999/xlink" x="0px" y="0px" width="100px"
	 height="100px" viewBox="0 0 100 100" enable-background="new 0 0 100 100" xml:space="preserve">
<g id="Layer_4">
	<g>
		<g>
			<path fill="#7BD454" d="M50,100C22.43,100,0,77.57,0,50S22.43,0,50,0s50,22.43,50,50S77.57,100,50,100L50,100z M50,2.222
				C23.656,2.222,2.222,23.656,2.222,50S23.656,97.778,50,97.778S97.778,76.344,97.778,50S76.344,2.222,50,2.222L50,2.222z"/>
		</g>
	</g>
</g>
<g id="Layer_3">
	<g>
		<path fill="#7BD454" d="M52.856,75h-5.712c-1.471,0-2.669-1.198-2.669-2.669v-3.693c0-0.382-0.358-0.878-0.721-1l-1.738-0.714
			c-0.535-0.259-1.033-0.09-1.283,0.161l-2.616,2.616c-1.002,1.002-2.769,1.002-3.771,0l-4.041-4.043
			c-0.502-0.5-0.781-1.17-0.781-1.886c0-0.716,0.279-1.387,0.785-1.889l2.609-2.61c0.264-0.265,0.363-0.878,0.195-1.214
			l-0.719-1.745c-0.147-0.432-0.644-0.789-1.025-0.789h-3.698c-1.472,0-2.669-1.197-2.669-2.667v-5.714
			c0-1.471,1.198-2.669,2.669-2.669h3.698c0.382,0,0.878-0.357,1-0.72l0.711-1.737c0.204-0.416,0.105-1.019-0.165-1.291l-2.61-2.61
			c-0.502-0.499-0.781-1.169-0.781-1.886s0.279-1.387,0.785-1.889l4.038-4.04c1-1.005,2.77-1.006,3.772,0.001l2.612,2.612
			c0.255,0.254,0.896,0.356,1.213,0.197l1.738-0.723c0.438-0.148,0.794-0.642,0.794-1.024v-3.696c0-1.472,1.198-2.669,2.669-2.669
			h5.712c1.475,0,2.673,1.198,2.673,2.669v3.696c0,0.382,0.355,0.875,0.717,0.997l1.74,0.717c0.526,0.256,1.029,0.09,1.286-0.166
			l2.612-2.612c1.009-1.007,2.768-1.006,3.775-0.001l4.039,4.044c0.501,0.499,0.78,1.169,0.78,1.886s-0.279,1.387-0.785,1.889
			l-2.609,2.609c-0.267,0.269-0.366,0.873-0.195,1.214l0.723,1.74c0.147,0.437,0.642,0.791,1.026,0.791h3.698
			c1.469,0,2.665,1.198,2.665,2.669v5.714c0,1.47-1.196,2.667-2.665,2.667h-3.698c-0.384,0-0.879,0.354-0.999,0.715l-0.718,1.747
			c-0.2,0.408-0.101,1.021,0.164,1.287l2.612,2.612c0.502,0.499,0.781,1.17,0.781,1.886c0,0.716-0.279,1.387-0.785,1.889
			l-4.032,4.039c-1.013,1.007-2.769,1.003-3.774,0.004l-2.616-2.616c-0.255-0.255-0.893-0.357-1.213-0.198l-1.739,0.722
			c-0.433,0.147-0.789,0.644-0.789,1.025v3.693C55.529,73.802,54.331,75,52.856,75L52.856,75z M41.527,64.584
			c0.505,0,0.993,0.109,1.409,0.318l1.594,0.654c1.204,0.401,2.167,1.737,2.167,3.081v3.693c0,0.247,0.201,0.447,0.447,0.447h5.712
			c0.249,0,0.451-0.201,0.451-0.447v-3.693c0-1.342,0.959-2.677,2.232-3.105l1.598-0.663c0.957-0.488,2.793-0.264,3.705,0.648
			l2.613,2.613c0.221,0.219,0.409,0.222,0.637-0.003l4.032-4.04c0.115-0.113,0.131-0.245,0.131-0.315
			c0-0.069-0.017-0.202-0.127-0.311l-2.616-2.616c-0.95-0.952-1.212-2.575-0.612-3.777l0.657-1.599
			c0.394-1.201,1.729-2.165,3.08-2.165h3.698c0.24,0,0.443-0.204,0.443-0.445v-5.714c0-0.242-0.203-0.447-0.443-0.447h-3.698
			c-1.35,0-2.686-0.964-3.108-2.241l-0.662-1.593c-0.566-1.127-0.304-2.75,0.641-3.702l2.616-2.616
			c0.114-0.113,0.13-0.245,0.13-0.314s-0.017-0.202-0.127-0.312l-4.041-4.046c-0.221-0.224-0.408-0.225-0.634,0.001l-2.612,2.612
			c-0.916,0.911-2.617,1.196-3.778,0.614l-1.595-0.657c-1.201-0.398-2.162-1.733-2.162-3.077v-3.696
			c0-0.242-0.207-0.447-0.451-0.447h-5.712c-0.242,0-0.447,0.205-0.447,0.447v3.696c0,1.345-0.964,2.68-2.241,3.105l-1.592,0.662
			c-0.959,0.491-2.801,0.263-3.708-0.648l-2.612-2.611c-0.223-0.224-0.407-0.223-0.628-0.001l-4.042,4.044
			c-0.114,0.113-0.13,0.245-0.13,0.314s0.017,0.202,0.127,0.312l2.616,2.616c0.948,0.955,1.211,2.578,0.612,3.777l-0.652,1.595
			c-0.403,1.206-1.738,2.167-3.081,2.167h-3.698c-0.242,0-0.447,0.205-0.447,0.447v5.714c0,0.241,0.205,0.445,0.447,0.445h3.698
			c1.342,0,2.678,0.961,3.106,2.235l0.66,1.603c0.566,1.129,0.304,2.752-0.645,3.703l-2.614,2.614
			c-0.114,0.113-0.13,0.245-0.13,0.314c0,0.07,0.017,0.202,0.127,0.312l4.044,4.046c0.221,0.221,0.408,0.221,0.629,0l2.613-2.613
			C39.736,64.934,40.623,64.584,41.527,64.584L41.527,64.584z M50,58.642c-4.762,0-8.637-3.877-8.637-8.642s3.875-8.642,8.637-8.642
			c4.765,0,8.642,3.877,8.642,8.642S54.765,58.642,50,58.642L50,58.642z M50,43.581c-3.537,0-6.415,2.88-6.415,6.419
			s2.878,6.419,6.415,6.419c3.54,0,6.419-2.88,6.419-6.419S53.54,43.581,50,43.581L50,43.581z"/>
	</g>
</g>
</svg>
