<?xml version="1.0" encoding="utf-8"?>
<!-- Generator: Adobe Illustrator 16.0.0, SVG Export Plug-In . SVG Version: 6.00 Build 0)  -->
<!DOCTYPE svg PUBLIC "-//W3C//DTD SVG 1.1//EN" "http://www.w3.org/Graphics/SVG/1.1/DTD/svg11.dtd">
<svg version="1.1" id="Layer_1" xmlns="http://www.w3.org/2000/svg" xmlns:xlink="http://www.w3.org/1999/xlink" x="0px" y="0px"
	 width="123px" height="33px" viewBox="0 0 123 33" enable-background="new 0 0 123 33" xml:space="preserve">
<g>
	<g>
		<g>
			<g>
				<g>
					<g>
						<g>
							<path fill="#FFFFFF" d="M52.621,20.158c0,7.15,5.053,12.146,12.287,12.146c3.795,0,8.615-2.549,10.174-7.275l-5.162-0.021
								c-1.003,1.874-2.703,2.868-4.92,2.875c-3.477,0-5.877-1.932-6.608-5.297l-0.156-0.723h17.341
								c0.026-0.402,0.051-0.852,0.051-1.246c0-5.9-2.987-12.791-11.407-12.791c-6.613,0-11.6,5.261-11.6,12.238V20.158z
								 M58.295,17.986c0.626-3.594,2.838-5.738,5.926-5.738c3.146,0,5.307,2.155,5.781,5.759l0.021,0.153l-11.755-0.02
								L58.295,17.986z"/>
							<g>
								<g>
									<g>
										<path fill="#FFFFFF" d="M11.839,0.132C5.2,0.132,0,5.278,0,11.851C0,18.152,5.307,23.48,11.593,23.48
											c6.46,0,11.716-5.219,11.716-11.629C23.31,5.388,18.164,0.132,11.839,0.132z M11.593,18.922
											c-3.814,0-6.915-3.171-6.915-7.071c0-1.952,0.687-3.668,1.992-4.972c1.241-1.327,3.174-2.194,4.923-2.194
											c3.946,0,7.035,3.146,7.035,7.166C18.628,15.881,15.606,18.922,11.593,18.922z"/>
										<path fill="#FFFFFF" d="M11.658,25.036c-4.495,0-8.572,2.724-10.309,6.834h20.619
											C20.223,27.76,16.148,25.036,11.658,25.036z"/>
										<path fill="#FFFFFF" d="M51.278,16.156c0-4.714-2.139-9.551-5.446-12.333c-3.731-3.171-8.639-3.649-13.394-3.691h-6.437
											V31.87h6.574c4.543,0,9.314-0.286,13.254-3.646C49.192,25.365,51.278,20.741,51.278,16.156z M41.952,24.503
											c-2.872,2.104-6.023,2.274-9.555,2.274h-1.125V5.221h0.819c3.425,0,6.718,0.155,9.447,2.003
											c2.801,1.926,4.474,5.267,4.474,8.931C46.012,19.468,44.53,22.512,41.952,24.503z"/>
										<g>
											<rect x="97.514" y="0.132" fill="#FFFFFF" width="5.09" height="31.738"/>
											<polygon fill="#FFFFFF" points="118.363,31.87 108.439,19.818 116.964,8.262 111.014,8.263 102.919,20.134
												111.529,31.87 											"/>
										</g>
										<path fill="#FFFFFF" d="M92.605,20.216c-1.432-1.077-3.269-1.739-5.037-2.292l-0.473-0.148
											c-2.628-0.841-4.896-1.57-4.896-3.167v-0.091c0-1.433,1.302-2.359,3.312-2.359c2.053,0,4.141,0.662,6.389,2.028
											l0.031,0.02l2.678-3.633l-0.037-0.024c-2.643-1.744-6.061-2.83-8.922-2.83c-5.045,0-8.566,3.021-8.566,7.344v0.09
											c0,4.568,3.877,6.042,7.514,7.07c0.188,0.057,0.373,0.112,0.559,0.17c2.559,0.774,4.762,1.44,4.762,3.146v0.091
											c0,1.594-1.375,2.544-3.676,2.544c-2.53,0-5.309-1.045-7.819-2.938l-0.038-0.027l-2.584,3.691l-0.021,0.031l0.029,0.024
											c2.904,2.288,6.756,3.653,10.299,3.653c5.504,0,8.929-2.899,8.929-7.569v-0.089
											C95.033,22.992,94.238,21.443,92.605,20.216z"/>
									</g>
								</g>
							</g>
						</g>
					</g>
					<g>
						<g>
							<path fill="#FFFFFF" d="M120.611,7.207c1.248,0,2.291,0.978,2.291,2.26c0,1.307-1.043,2.285-2.291,2.285
								c-1.242,0-2.287-0.979-2.287-2.26C118.324,8.185,119.369,7.207,120.611,7.207z M120.611,11.419
								c1.07,0,1.924-0.841,1.924-1.953c0-1.093-0.854-1.93-1.924-1.93c-1.065,0-1.922,0.837-1.922,1.955
								C118.689,10.578,119.546,11.419,120.611,11.419z M119.766,8.177h0.963c0.627,0,0.929,0.233,0.929,0.758
								c0,0.47-0.304,0.67-0.696,0.715l0.757,1.16h-0.396L120.6,9.68h-0.469v1.13h-0.365V8.177z M120.131,9.352h0.452
								c0.368,0,0.708-0.019,0.708-0.434c0-0.366-0.312-0.41-0.594-0.41h-0.566V9.352z"/>
						</g>
					</g>
				</g>
			</g>
		</g>
	</g>
</g>
</svg>
