<svg xmlns="http://www.w3.org/2000/svg" xmlns:xlink="http://www.w3.org/1999/xlink" preserveAspectRatio="xMidYMid" width="100" height="100" viewBox="0 0 100 100">
  <defs>
    <style>

      .cls-2 {
        fill: #00f6ff;
      }
    </style>
  </defs>
  <path d="M50.000,100.000 C22.431,100.000 -0.000,77.572 -0.000,50.002 C-0.000,22.431 22.431,-0.000 50.000,-0.000 C77.570,-0.000 100.000,22.431 100.000,50.002 C100.000,77.572 77.570,100.000 50.000,100.000 ZM50.000,2.222 C23.654,2.222 2.222,23.656 2.222,50.002 C2.222,76.346 23.654,97.778 50.000,97.778 C76.346,97.778 97.778,76.346 97.778,50.002 C97.778,23.656 76.346,2.222 50.000,2.222 ZM67.193,59.827 C67.052,61.295 66.032,66.426 58.894,67.245 C58.399,68.605 57.106,69.583 55.577,69.583 C53.620,69.583 52.036,67.996 52.036,66.041 C52.036,64.086 53.620,62.500 55.577,62.500 C57.167,62.500 58.500,63.558 58.946,65.003 C64.972,64.163 64.998,59.660 64.996,59.459 C64.994,59.325 65.025,59.200 65.067,59.081 C65.033,58.974 65.000,58.867 65.000,58.750 C65.000,58.750 65.000,46.528 65.000,46.528 C65.000,38.257 58.270,31.529 50.000,31.529 C41.730,31.529 35.000,38.257 35.000,46.528 C35.000,46.528 35.000,58.750 35.000,58.750 C35.000,59.364 34.503,59.861 33.889,59.861 C33.823,59.861 33.767,59.835 33.704,59.824 C33.642,59.835 33.586,59.861 33.520,59.861 C28.720,59.861 24.813,56.207 24.813,51.715 C24.813,47.369 28.467,43.818 33.048,43.586 C34.450,35.489 41.508,29.306 50.000,29.306 C58.492,29.306 65.550,35.489 66.952,43.586 C71.530,43.818 75.182,47.369 75.182,51.715 C75.182,55.981 71.658,59.486 67.193,59.827 ZM55.577,64.722 C54.850,64.722 54.258,65.314 54.258,66.041 C54.258,66.768 54.850,67.360 55.577,67.360 C56.304,67.360 56.897,66.768 56.897,66.041 C56.897,65.314 56.304,64.722 55.577,64.722 ZM27.036,51.715 C27.036,54.749 29.554,57.229 32.778,57.570 C32.778,57.570 32.778,46.528 32.778,46.528 C32.778,46.300 32.803,46.078 32.812,45.851 C29.572,46.179 27.036,48.667 27.036,51.715 ZM67.188,45.851 C67.197,46.078 67.222,46.300 67.222,46.528 C67.222,46.528 67.222,57.570 67.222,57.570 C70.442,57.228 72.960,54.749 72.960,51.715 C72.960,48.667 70.424,46.179 67.188,45.851 Z" id="path-1" class="cls-2" fill-rule="evenodd"/>
</svg>
