<svg xmlns="http://www.w3.org/2000/svg" xmlns:xlink="http://www.w3.org/1999/xlink" preserveAspectRatio="xMidYMid" width="100" height="100" viewBox="0 0 100 100">
  <defs>
    <style>

      .cls-2 {
        fill: #7bd454;
      }
    </style>
  </defs>
  <path d="M50.000,100.000 C22.431,100.000 0.000,77.570 0.000,50.000 C0.000,22.431 22.431,-0.000 50.000,-0.000 C77.570,-0.000 100.000,22.431 100.000,50.000 C100.000,77.570 77.570,100.000 50.000,100.000 ZM50.000,2.222 C23.655,2.222 2.222,23.654 2.222,50.000 C2.222,76.346 23.655,97.778 50.000,97.778 C76.346,97.778 97.778,76.346 97.778,50.000 C97.778,23.654 76.346,2.222 50.000,2.222 ZM79.453,70.875 C79.453,70.875 66.064,70.875 66.064,70.875 C65.341,70.875 64.757,70.291 64.757,69.568 C64.757,68.846 65.341,68.262 66.064,68.262 C66.064,68.262 78.234,68.262 78.234,68.262 C78.234,68.262 78.791,60.113 78.791,60.113 C78.917,58.303 77.329,55.562 75.089,54.735 C72.020,53.637 68.791,53.051 65.504,52.995 C64.783,52.982 64.208,52.387 64.221,51.667 C64.234,50.944 64.803,50.434 65.549,50.384 C69.123,50.445 72.630,51.083 75.979,52.281 C79.141,53.446 81.619,57.114 81.400,60.293 C81.400,60.293 80.755,69.657 80.755,69.657 C80.708,70.343 80.139,70.875 79.453,70.875 ZM69.149,44.980 C64.673,44.980 61.031,40.875 61.031,35.831 C61.031,30.781 64.673,26.673 69.149,26.673 C73.620,26.673 77.259,30.781 77.259,35.831 C77.259,40.875 73.620,44.980 69.149,44.980 ZM69.149,29.286 C66.113,29.286 63.644,32.222 63.644,35.831 C63.644,39.438 66.113,42.370 69.149,42.370 C72.181,42.370 74.648,39.438 74.648,35.831 C74.648,32.222 72.181,29.286 69.149,29.286 ZM60.410,69.657 C60.363,70.341 59.794,70.875 59.108,70.875 C59.108,70.875 25.480,70.875 25.480,70.875 C24.794,70.875 24.225,70.341 24.176,69.657 C24.176,69.657 23.438,58.809 23.438,58.809 C23.197,55.215 26.000,51.068 29.560,49.751 C37.774,46.812 46.830,46.819 55.018,49.748 C58.600,51.068 61.402,55.215 61.150,58.813 C61.150,58.813 60.410,69.657 60.410,69.657 ZM54.126,52.205 C46.528,49.486 38.071,49.477 30.454,52.205 C27.754,53.205 25.896,56.426 26.044,58.635 C26.044,58.635 26.699,68.262 26.699,68.262 C26.699,68.262 57.888,68.262 57.888,68.262 C57.888,68.262 58.544,58.635 58.544,58.635 C58.700,56.422 56.845,53.205 54.126,52.205 ZM42.515,42.227 C36.977,42.227 32.472,37.127 32.472,30.855 C32.472,24.586 36.977,19.482 42.515,19.482 C48.047,19.482 52.548,24.586 52.548,30.855 C52.548,37.127 48.047,42.227 42.515,42.227 ZM42.515,22.094 C38.416,22.094 35.085,26.024 35.085,30.855 C35.085,35.688 38.416,39.616 42.515,39.616 C46.608,39.616 49.937,35.688 49.937,30.855 C49.937,26.024 46.608,22.094 42.515,22.094 Z" id="path-1" class="cls-2" fill-rule="evenodd"/>
</svg>
