<svg xmlns="http://www.w3.org/2000/svg" xmlns:xlink="http://www.w3.org/1999/xlink" preserveAspectRatio="xMidYMid" width="140" height="44" viewBox="0 0 140 44">
  <defs>
    <style>

      .cls-2 {
        fill: #ffffff;
      }
    </style>
  </defs>
  <path d="M137.279,30.913 C135.758,30.913 134.543,29.705 134.543,28.166 C134.543,26.660 135.758,25.451 137.279,25.451 C138.818,25.451 140.000,26.660 140.000,28.166 C140.000,29.705 138.818,30.913 137.279,30.913 ZM137.279,25.997 C136.098,25.997 135.223,26.974 135.223,28.166 C135.223,29.374 136.098,30.334 137.296,30.334 C138.462,30.334 139.319,29.374 139.319,28.183 C139.319,26.975 138.462,25.997 137.279,25.997 ZM137.895,28.247 C138.155,28.347 138.300,28.546 138.381,28.910 C138.462,29.323 138.511,29.489 138.575,29.589 C138.575,29.589 137.911,29.589 137.911,29.589 C137.830,29.489 137.781,29.240 137.700,28.926 C137.652,28.629 137.490,28.496 137.150,28.496 C137.150,28.496 136.858,28.496 136.858,28.496 C136.858,28.496 136.858,29.589 136.858,29.589 C136.858,29.589 136.243,29.589 136.243,29.589 C136.243,29.589 136.243,26.874 136.243,26.874 C136.486,26.824 136.826,26.791 137.264,26.791 C137.766,26.791 137.993,26.874 138.187,26.989 C138.333,27.105 138.446,27.321 138.446,27.585 C138.446,27.884 138.219,28.115 137.895,28.214 C137.895,28.214 137.895,28.247 137.895,28.247 ZM137.215,27.239 C137.053,27.239 136.940,27.256 136.875,27.272 C136.875,27.272 136.875,28.050 136.875,28.050 C136.875,28.050 137.166,28.050 137.166,28.050 C137.507,28.050 137.781,27.933 137.781,27.653 C137.781,27.404 137.603,27.239 137.215,27.239 ZM117.231,44.000 C117.231,44.000 116.609,38.403 116.609,38.403 C116.609,38.403 121.081,36.177 121.081,31.827 C121.081,31.827 120.914,30.360 120.244,28.599 C119.574,26.839 114.098,8.749 114.098,8.749 C114.098,8.749 120.675,8.749 120.675,8.749 C120.675,8.749 124.788,23.953 124.788,23.953 C124.788,23.953 128.112,8.750 128.112,8.750 C128.112,8.750 134.354,8.750 134.354,8.750 C134.354,8.750 127.323,31.702 127.323,31.702 C127.323,31.702 124.429,44.000 117.231,44.000 ZM98.960,21.948 C98.960,21.948 99.008,26.347 104.700,26.347 C108.693,26.347 109.985,25.223 109.985,25.223 C109.985,25.223 110.558,29.868 110.558,29.868 C110.558,29.868 108.885,31.212 104.245,31.212 C99.606,31.212 93.244,29.281 93.244,20.017 C93.244,10.754 99.486,8.212 103.193,8.212 C112.927,8.212 111.707,19.992 111.707,21.948 C111.707,21.970 98.960,21.948 98.960,21.948 ZM102.811,12.687 C99.343,12.687 98.960,17.282 98.960,17.282 C98.960,17.282 106.279,17.282 106.279,17.282 C106.279,17.282 106.278,12.687 102.811,12.687 ZM77.885,30.718 C77.885,30.718 70.692,8.750 70.692,8.750 C70.692,8.750 77.270,8.750 77.270,8.750 C77.270,8.750 81.144,24.368 81.144,24.368 C81.144,24.368 84.778,8.750 84.778,8.750 C84.778,8.750 91.044,8.750 91.044,8.750 C91.044,8.750 83.936,30.718 83.936,30.718 C83.936,30.718 77.885,30.718 77.885,30.718 ZM67.559,30.723 C67.559,30.723 61.533,30.723 61.533,30.723 C61.533,30.723 61.533,17.597 61.533,17.597 C61.533,17.597 61.485,13.735 58.496,13.735 C55.506,13.735 55.172,16.814 55.172,17.352 C55.172,17.889 55.172,30.718 55.172,30.718 C55.172,30.718 48.882,30.718 48.882,30.718 C48.882,30.718 48.882,8.751 48.882,8.751 C48.882,8.751 54.343,8.751 54.343,8.751 C54.343,8.751 54.334,11.780 54.334,11.780 C54.334,11.780 56.893,8.215 60.695,8.215 C68.300,8.215 67.559,18.135 67.559,18.135 C67.559,18.135 67.559,30.723 67.559,30.723 ZM34.050,31.211 C33.009,31.211 23.885,31.042 23.885,19.871 C23.885,8.700 32.417,8.210 34.049,8.210 C35.681,8.210 44.339,8.237 44.339,19.456 C44.339,30.675 35.090,31.211 34.050,31.211 ZM34.058,12.989 C33.780,12.989 30.085,13.275 30.085,19.820 C30.085,26.364 33.565,26.508 34.058,26.508 C34.551,26.508 38.141,26.151 38.141,19.576 C38.141,13.003 34.336,12.989 34.058,12.989 ZM14.875,5.424 C11.981,5.424 6.792,7.209 6.792,15.447 C6.792,23.683 11.646,25.738 14.851,25.738 C18.056,25.738 20.184,24.875 20.184,24.875 C20.184,24.875 20.758,30.127 20.758,30.127 C20.758,30.127 17.290,31.211 14.492,31.211 C11.694,31.210 -0.000,30.236 -0.000,15.985 C-0.000,1.735 11.216,-0.000 14.827,-0.000 C18.438,-0.000 21.323,1.272 21.323,1.272 C21.323,1.272 20.023,6.524 20.023,6.524 C20.023,6.524 17.769,5.424 14.875,5.424 Z" id="path-1" class="cls-2" fill-rule="evenodd"/>
</svg>
