<svg xmlns="http://www.w3.org/2000/svg" xmlns:xlink="http://www.w3.org/1999/xlink" preserveAspectRatio="xMidYMid" width="140" height="140" viewBox="0 0 140 140">
  <defs>
    <style>

      .cls-2 {
        fill: #7bd454;
      }
    </style>
  </defs>
  <path d="M70.000,140.000 C31.401,140.000 0.000,108.599 0.000,70.000 C0.000,31.401 31.401,-0.000 70.000,-0.000 C108.599,-0.000 140.000,31.401 140.000,70.000 C140.000,108.599 108.599,140.000 70.000,140.000 ZM70.000,3.111 C33.118,3.111 3.111,33.118 3.111,70.000 C3.111,106.882 33.118,136.889 70.000,136.889 C106.882,136.889 136.889,106.882 136.889,70.000 C136.889,33.118 106.882,3.111 70.000,3.111 ZM58.759,98.725 C58.476,99.069 58.058,99.276 57.613,99.293 C57.594,99.294 57.575,99.294 57.556,99.294 C57.130,99.294 56.723,99.121 56.430,98.811 C56.430,98.811 35.813,77.167 35.813,77.167 C35.219,76.546 35.243,75.561 35.866,74.969 C36.486,74.378 37.473,74.396 38.064,75.022 C38.064,75.022 57.469,95.392 57.469,95.392 C57.469,95.392 101.853,41.269 101.853,41.269 C102.398,40.607 103.376,40.505 104.041,41.052 C104.707,41.597 104.802,42.577 104.259,43.241 C104.259,43.241 58.759,98.725 58.759,98.725 Z" id="path-1" class="cls-2" fill-rule="evenodd"/>
</svg>
