<svg xmlns="http://www.w3.org/2000/svg" xmlns:xlink="http://www.w3.org/1999/xlink" preserveAspectRatio="xMidYMid" width="100" height="100" viewBox="0 0 100 100">
  <defs>
    <style>

      .cls-2 {
        fill: #7bd454;
      }
    </style>
  </defs>
  <path d="M50.000,100.000 C22.430,100.000 0.000,77.570 0.000,50.000 C0.000,22.431 22.430,-0.000 50.000,-0.000 C77.569,-0.000 100.000,22.431 100.000,50.000 C100.000,77.570 77.569,100.000 50.000,100.000 ZM50.000,2.222 C23.655,2.222 2.222,23.655 2.222,50.000 C2.222,76.346 23.655,97.778 50.000,97.778 C76.345,97.778 97.778,76.346 97.778,50.000 C97.778,23.655 76.345,2.222 50.000,2.222 ZM50.299,78.993 C50.202,79.021 50.102,79.034 50.000,79.034 C49.900,79.034 49.798,79.021 49.700,78.993 C30.145,73.512 27.734,60.927 27.641,60.393 C27.641,60.393 27.624,28.301 27.624,28.301 C27.624,27.852 27.895,27.446 28.309,27.274 C28.730,27.107 29.201,27.198 29.520,27.515 C31.925,29.924 33.963,30.736 37.595,30.736 C41.977,30.736 46.814,28.674 49.097,25.833 C49.518,25.308 50.445,25.308 50.866,25.833 C53.151,28.674 58.003,30.736 62.404,30.736 C66.035,30.736 68.073,29.924 70.480,27.515 C70.796,27.196 71.276,27.105 71.690,27.274 C72.105,27.446 72.376,27.852 72.376,28.301 C72.376,28.301 72.376,60.202 72.376,60.202 C72.266,60.927 69.853,73.512 50.299,78.993 ZM70.156,30.731 C67.971,32.329 65.669,32.958 62.404,32.958 C57.793,32.958 52.886,31.029 49.983,28.162 C47.083,31.029 42.190,32.958 37.595,32.958 C34.332,32.958 32.029,32.329 29.846,30.734 C29.846,30.734 29.846,60.202 29.846,60.202 C29.915,60.484 32.150,71.647 50.000,76.769 C67.847,71.647 70.085,60.482 70.171,60.007 C70.171,60.007 70.156,30.731 70.156,30.731 ZM51.061,60.495 C51.061,60.495 51.061,63.108 51.061,63.108 C51.061,63.108 49.355,63.108 49.355,63.108 C49.355,63.108 49.355,60.441 49.355,60.441 C46.983,60.228 44.931,59.295 43.066,57.695 C43.066,57.695 44.264,56.098 44.264,56.098 C45.864,57.537 47.437,58.416 49.436,58.629 C49.436,58.629 49.436,51.966 49.436,51.966 C45.490,51.033 43.759,49.568 43.759,46.795 C43.759,46.795 43.759,46.743 43.759,46.743 C43.759,43.998 46.078,41.999 49.355,41.838 C49.355,41.838 49.355,40.293 49.355,40.293 C49.355,40.293 51.061,40.293 51.061,40.293 C51.061,40.293 51.061,41.893 51.061,41.893 C53.060,42.079 54.607,42.826 56.152,44.024 C56.152,44.024 55.006,45.623 55.006,45.623 C53.726,44.531 52.394,43.943 50.981,43.705 C50.981,43.705 50.981,50.260 50.981,50.260 C55.032,51.194 56.738,52.739 56.738,55.432 C56.738,55.432 56.738,55.484 56.738,55.484 C56.738,58.336 54.421,60.282 51.061,60.495 ZM49.436,43.624 C47.196,43.705 45.812,44.983 45.812,46.608 C45.812,46.608 45.812,46.663 45.812,46.663 C45.812,48.156 46.504,49.141 49.436,49.887 C49.436,49.887 49.436,43.624 49.436,43.624 ZM54.685,55.564 C54.685,53.991 53.939,53.060 50.981,52.340 C50.981,52.340 50.981,58.709 50.981,58.709 C53.246,58.602 54.685,57.351 54.685,55.619 C54.685,55.619 54.685,55.564 54.685,55.564 Z" id="path-1" class="cls-2" fill-rule="evenodd"/>
</svg>
