<svg xmlns="http://www.w3.org/2000/svg" xmlns:xlink="http://www.w3.org/1999/xlink" preserveAspectRatio="xMidYMid" width="140" height="140" viewBox="0 0 140 140">
  <defs>
    <style>

      .cls-2 {
        fill: #7bd454;
      }
    </style>
  </defs>
  <path d="M70.000,140.000 C31.403,140.000 0.000,108.597 0.000,70.000 C0.000,31.402 31.403,0.000 70.000,0.000 C108.597,0.000 140.000,31.402 140.000,70.000 C140.000,108.597 108.597,140.000 70.000,140.000 ZM70.000,3.111 C33.116,3.111 3.111,33.118 3.111,70.000 C3.111,106.884 33.116,136.889 70.000,136.889 C106.883,136.889 136.889,106.884 136.889,70.000 C136.889,33.118 106.883,3.111 70.000,3.111 ZM96.101,101.345 C95.077,102.357 93.974,103.329 92.808,104.237 C92.808,104.237 92.403,104.556 92.403,104.556 C92.403,104.556 90.878,104.581 90.878,104.581 C77.434,104.581 63.513,98.368 52.682,87.537 C41.310,76.162 35.103,61.873 35.431,48.113 C35.431,48.113 35.443,47.594 35.443,47.594 C35.443,47.594 35.766,47.186 35.766,47.186 C36.725,45.968 37.671,44.896 38.655,43.908 C42.276,40.290 46.530,37.519 51.306,35.670 C51.731,35.504 52.227,35.420 52.773,35.420 C54.429,35.420 57.142,36.300 57.723,37.891 C59.409,42.571 61.538,48.687 63.082,54.511 C63.374,55.627 63.052,58.892 61.459,59.895 C61.459,59.895 55.954,63.389 55.954,63.389 C55.581,63.620 55.435,64.036 55.374,64.346 C55.189,65.282 55.535,66.494 56.270,67.503 C58.452,70.486 60.970,73.439 63.763,76.280 C66.594,79.063 69.541,81.572 72.500,83.724 C73.998,84.824 76.061,84.927 76.599,84.064 C76.599,84.064 80.105,78.534 80.105,78.534 C81.010,77.131 83.629,76.827 84.562,76.827 C84.893,76.827 85.179,76.854 85.428,76.909 C92.558,78.501 96.794,79.868 102.214,82.326 C103.897,83.086 105.100,86.722 104.322,88.703 C102.478,93.467 99.710,97.724 96.101,101.345 ZM100.746,85.042 C95.730,82.800 91.647,81.484 84.750,79.947 C83.781,79.911 82.821,80.202 82.587,80.375 C82.587,80.375 79.236,85.717 79.236,85.717 C77.750,88.132 73.643,88.417 70.665,86.236 C67.588,84.000 64.522,81.387 61.563,78.480 C58.646,75.511 56.027,72.443 53.761,69.338 C52.491,67.600 51.965,65.561 52.321,63.750 C52.573,62.450 53.278,61.387 54.302,60.755 C54.302,60.755 59.795,57.267 59.795,57.267 C59.901,57.045 60.147,55.708 60.068,55.286 C58.561,49.599 56.462,43.568 54.797,38.951 C54.642,39.041 53.621,38.531 52.773,38.531 C52.536,38.531 52.436,38.568 52.433,38.570 C48.061,40.262 44.166,42.799 40.858,46.105 C40.070,46.895 39.305,47.748 38.533,48.705 C38.390,61.460 44.251,74.703 54.663,85.118 C54.663,85.118 54.894,85.349 54.894,85.349 C65.133,95.588 78.255,101.469 90.878,101.469 C90.878,101.469 91.301,101.464 91.301,101.464 C92.218,100.722 93.093,99.945 93.905,99.140 C97.201,95.834 99.732,91.939 101.421,87.573 C101.624,87.060 101.138,85.434 100.746,85.042 Z" id="path-1" class="cls-2" fill-rule="evenodd"/>
</svg>
