<svg xmlns="http://www.w3.org/2000/svg" xmlns:xlink="http://www.w3.org/1999/xlink" preserveAspectRatio="xMidYMid" width="144" height="44" viewBox="0 0 144 44">
  <defs>
    <style>

      .cls-2 {
        fill: #ffffff;
      }
    </style>
  </defs>
  <path d="M135.005,35.919 C133.080,41.025 130.798,44.000 124.846,44.000 C123.011,44.000 121.937,43.734 121.490,43.601 C121.490,43.601 122.340,38.939 122.340,38.939 C122.653,39.028 123.146,39.162 124.444,39.162 C127.488,39.162 128.561,37.696 129.412,35.388 C129.412,35.388 130.218,33.168 130.218,33.168 C130.218,33.168 122.026,11.987 122.026,11.987 C122.026,11.987 128.380,11.987 128.380,11.987 C128.380,11.987 133.213,26.239 133.213,26.239 C133.213,26.239 133.438,26.239 133.438,26.239 C133.438,26.239 137.869,11.987 137.869,11.987 C137.869,11.987 144.000,11.987 144.000,11.987 C144.000,11.987 135.005,35.919 135.005,35.919 ZM113.589,1.642 C113.589,1.642 119.542,1.642 119.542,1.642 C119.542,1.642 119.542,33.610 119.542,33.610 C119.542,33.610 113.589,33.610 113.589,33.610 C113.589,33.610 113.589,1.642 113.589,1.642 ZM107.149,16.694 C104.508,16.694 102.942,19.003 102.405,19.980 C102.405,19.980 102.405,33.610 102.405,33.610 C102.405,33.610 96.453,33.610 96.453,33.610 C96.453,33.610 96.453,11.987 96.453,11.987 C96.453,11.987 102.405,11.987 102.405,11.987 C102.405,11.987 102.405,14.918 102.405,14.918 C103.345,13.320 105.134,11.455 107.910,11.455 C109.521,11.455 110.371,11.766 110.863,12.032 C110.863,12.032 109.431,17.182 109.431,17.182 C109.074,16.960 108.402,16.694 107.149,16.694 ZM86.043,30.723 C84.879,32.188 82.642,34.142 79.017,34.142 C74.228,34.142 72.483,31.079 72.483,27.126 C72.483,27.126 72.483,11.987 72.483,11.987 C72.483,11.987 78.434,11.987 78.434,11.987 C78.434,11.987 78.434,25.929 78.434,25.929 C78.434,28.104 79.195,29.214 81.343,29.214 C83.625,29.214 85.371,27.039 85.819,26.506 C85.819,26.506 85.819,11.986 85.819,11.986 C85.819,11.986 91.771,11.986 91.771,11.986 C91.771,11.986 91.771,27.393 91.771,27.393 C91.771,30.146 92.084,32.322 92.353,33.609 C92.353,33.609 86.490,33.609 86.490,33.609 C86.311,33.032 86.088,31.612 86.043,30.723 ZM63.172,29.569 C65.678,29.569 67.200,28.637 67.872,28.238 C67.872,28.238 69.706,32.189 69.706,32.189 C68.677,32.855 66.663,34.143 62.680,34.143 C55.699,34.143 51.402,29.526 51.402,22.821 C51.402,15.539 56.280,11.455 62.859,11.455 C66.394,11.455 68.498,12.521 69.527,13.186 C69.527,13.186 67.603,17.227 67.603,17.227 C66.618,16.605 65.231,15.939 63.038,15.939 C59.547,15.939 57.712,18.647 57.712,22.643 C57.712,26.639 59.457,29.569 63.172,29.569 ZM35.356,24.153 C35.625,27.483 37.326,29.748 40.951,29.748 C43.905,29.748 45.560,28.771 46.635,28.238 C46.635,28.238 48.559,32.056 48.559,32.056 C47.127,32.855 44.889,34.143 40.414,34.143 C33.119,34.143 29.001,29.569 29.001,22.687 C29.001,15.850 33.745,11.455 39.787,11.455 C46.589,11.455 49.901,16.161 49.185,24.153 C49.185,24.153 35.356,24.153 35.356,24.153 ZM39.698,15.718 C37.192,15.718 35.760,17.316 35.357,20.157 C35.357,20.157 43.457,20.157 43.457,20.157 C43.413,17.715 42.428,15.718 39.698,15.718 ZM22.126,24.172 C22.126,24.172 28.473,33.763 28.473,33.763 C28.473,33.763 21.410,33.763 21.410,33.763 C21.410,33.763 15.454,24.561 15.454,24.561 C12.915,20.832 11.875,20.493 10.362,20.493 C10.362,20.493 9.419,20.493 9.419,20.493 C9.419,20.493 9.419,33.763 9.419,33.763 C9.419,33.763 3.039,33.763 3.039,33.763 C3.039,33.763 3.039,15.873 3.039,15.873 C3.039,15.873 13.681,15.873 13.681,15.873 C17.343,15.873 19.677,13.470 19.677,10.505 C19.677,7.519 18.685,5.361 14.707,5.361 C10.505,5.361 9.190,6.676 9.186,9.223 C9.186,9.223 12.930,9.223 12.930,9.223 C12.930,9.223 6.521,14.629 6.521,14.629 C6.521,14.629 0.000,9.223 0.000,9.223 C0.000,9.223 3.086,9.223 3.086,9.223 C3.086,3.951 5.815,0.000 14.632,0.000 C23.263,0.000 26.339,4.988 26.100,10.534 C25.865,16.008 22.272,18.748 18.318,19.474 C18.318,19.474 18.318,19.572 18.318,19.572 C19.196,20.201 20.368,21.460 22.126,24.172 Z" id="path-1" class="cls-2" fill-rule="evenodd"/>
</svg>
