<svg xmlns="http://www.w3.org/2000/svg" xmlns:xlink="http://www.w3.org/1999/xlink" preserveAspectRatio="xMidYMid" width="31" height="31" viewBox="0 0 31 31">
  <defs>
    <style>

      .cls-2 {
        fill: #00f6ff;
        opacity: 0.75;
      }
    </style>
  </defs>
  <path d="M15.500,31.000 C6.953,31.000 -0.000,24.047 -0.000,15.500 C-0.000,6.953 6.953,0.000 15.500,0.000 C24.047,0.000 31.000,6.953 31.000,15.500 C31.000,24.047 24.047,31.000 15.500,31.000 ZM15.500,1.667 C7.872,1.667 1.667,7.872 1.667,15.500 C1.667,23.128 7.872,29.334 15.500,29.334 C23.128,29.334 29.333,23.128 29.333,15.500 C29.333,7.872 23.128,1.667 15.500,1.667 ZM18.257,16.563 C18.445,16.563 18.606,16.527 18.737,16.454 C18.867,16.381 19.001,16.298 19.141,16.203 C19.279,16.109 19.435,16.025 19.609,15.952 C19.784,15.880 20.016,15.843 20.307,15.843 C20.612,15.843 20.900,15.909 21.168,16.040 C21.438,16.170 21.677,16.352 21.888,16.585 C22.099,16.817 22.262,17.094 22.379,17.413 C22.495,17.733 22.553,18.075 22.553,18.439 C22.553,18.831 22.473,19.195 22.314,19.529 C22.154,19.864 21.932,20.158 21.649,20.412 C21.365,20.667 21.034,20.863 20.656,21.001 C20.277,21.140 19.871,21.209 19.435,21.209 C18.867,21.209 18.340,21.085 17.853,20.838 C17.366,20.591 16.940,20.249 16.578,19.813 C16.214,19.376 15.927,18.868 15.716,18.286 C15.505,17.705 15.400,17.086 15.400,16.432 C15.400,15.400 15.593,14.447 15.978,13.575 C16.363,12.703 16.883,11.943 17.538,11.296 C18.191,10.649 18.951,10.133 19.816,9.747 C20.681,9.363 21.594,9.133 22.553,9.060 C22.553,9.060 22.553,10.129 22.553,10.129 C21.856,10.318 21.205,10.591 20.602,10.947 C19.997,11.304 19.470,11.710 19.021,12.168 C18.569,12.626 18.214,13.125 17.952,13.662 C17.690,14.200 17.559,14.753 17.559,15.320 C17.559,15.655 17.625,15.945 17.755,16.192 C17.887,16.440 18.053,16.563 18.257,16.563 ZM9.969,16.563 C10.158,16.563 10.318,16.527 10.449,16.454 C10.580,16.381 10.714,16.298 10.853,16.203 C10.991,16.109 11.147,16.025 11.322,15.952 C11.496,15.880 11.728,15.843 12.020,15.843 C12.324,15.843 12.612,15.909 12.880,16.040 C13.150,16.170 13.389,16.352 13.600,16.585 C13.811,16.817 13.974,17.094 14.091,17.413 C14.207,17.733 14.266,18.075 14.266,18.439 C14.266,18.831 14.185,19.195 14.026,19.529 C13.866,19.864 13.645,20.158 13.361,20.412 C13.077,20.667 12.746,20.863 12.369,21.001 C11.990,21.140 11.583,21.209 11.147,21.209 C10.580,21.209 10.052,21.085 9.565,20.838 C9.078,20.591 8.652,20.249 8.290,19.813 C7.926,19.376 7.639,18.868 7.428,18.286 C7.218,17.705 7.112,17.086 7.112,16.432 C7.112,15.400 7.305,14.447 7.690,13.575 C8.075,12.703 8.595,11.943 9.250,11.296 C9.904,10.649 10.663,10.133 11.529,9.747 C12.393,9.363 13.306,9.133 14.266,9.060 C14.266,9.060 14.266,10.129 14.266,10.129 C13.568,10.318 12.917,10.591 12.314,10.947 C11.710,11.304 11.182,11.710 10.733,12.168 C10.281,12.626 9.926,13.125 9.664,13.662 C9.402,14.200 9.271,14.753 9.271,15.320 C9.271,15.655 9.337,15.945 9.467,16.192 C9.599,16.440 9.766,16.563 9.969,16.563 Z" id="path-1" class="cls-2" fill-rule="evenodd"/>
</svg>
