<svg xmlns="http://www.w3.org/2000/svg" xmlns:xlink="http://www.w3.org/1999/xlink" preserveAspectRatio="xMidYMid" width="100" height="100" viewBox="0 0 100 100">
  <defs>
    <style>

      .cls-2 {
        fill: #00f6ff;
      }
    </style>
  </defs>
  <path d="M50.000,100.000 C22.430,100.000 0.000,77.570 0.000,50.000 C0.000,22.431 22.430,-0.000 50.000,-0.000 C77.570,-0.000 100.000,22.431 100.000,50.000 C100.000,77.570 77.570,100.000 50.000,100.000 ZM50.000,2.222 C23.656,2.222 2.222,23.654 2.222,50.000 C2.222,76.345 23.656,97.778 50.000,97.778 C76.345,97.778 97.778,76.345 97.778,50.000 C97.778,23.654 76.345,2.222 50.000,2.222 ZM74.188,75.300 C74.188,75.300 25.809,75.300 25.809,75.300 C25.195,75.300 24.698,74.802 24.698,74.189 C24.698,74.189 24.698,25.812 24.698,25.812 C24.698,25.198 25.195,24.700 25.809,24.700 C25.809,24.700 74.188,24.700 74.188,24.700 C74.802,24.700 75.300,25.198 75.300,25.812 C75.300,25.812 75.300,74.189 75.300,74.189 C75.300,74.802 74.802,75.300 74.188,75.300 ZM73.077,26.923 C73.077,26.923 26.921,26.923 26.921,26.923 C26.921,26.923 26.921,37.652 26.921,37.652 C26.921,37.652 73.077,37.652 73.077,37.652 C73.077,37.652 73.077,26.923 73.077,26.923 ZM73.077,39.874 C73.077,39.874 26.921,39.874 26.921,39.874 C26.921,39.874 26.921,73.077 26.921,73.077 C26.921,73.077 73.077,73.077 73.077,73.077 C73.077,73.077 73.077,39.874 73.077,39.874 ZM35.883,45.946 C36.317,45.512 37.020,45.512 37.454,45.946 C37.454,45.946 45.514,54.015 45.514,54.015 C45.948,54.449 45.948,55.152 45.514,55.586 C45.514,55.586 37.454,63.646 37.454,63.646 C37.237,63.863 36.953,63.972 36.669,63.972 C36.385,63.972 36.100,63.863 35.883,63.646 C35.449,63.212 35.449,62.509 35.883,62.075 C35.883,62.075 43.158,54.801 43.158,54.801 C43.158,54.801 35.883,47.517 35.883,47.517 C35.449,47.083 35.449,46.380 35.883,45.946 ZM49.169,61.749 C49.169,61.749 63.336,61.749 63.336,61.749 C63.950,61.749 64.447,62.246 64.447,62.860 C64.447,63.475 63.950,63.972 63.336,63.972 C63.336,63.972 49.169,63.972 49.169,63.972 C48.555,63.972 48.058,63.475 48.058,62.860 C48.058,62.246 48.555,61.749 49.169,61.749 ZM32.320,29.835 C33.674,29.835 34.772,30.933 34.772,32.287 C34.772,33.642 33.674,34.740 32.320,34.740 C30.966,34.740 29.868,33.642 29.868,32.287 C29.868,30.933 30.966,29.835 32.320,29.835 ZM39.379,29.835 C40.733,29.835 41.832,30.933 41.832,32.287 C41.832,33.642 40.733,34.740 39.379,34.740 C38.025,34.740 36.927,33.642 36.927,32.287 C36.927,30.933 38.025,29.835 39.379,29.835 ZM46.439,29.835 C47.795,29.835 48.893,30.933 48.893,32.287 C48.893,33.642 47.795,34.740 46.439,34.740 C45.085,34.740 43.984,33.642 43.984,32.287 C43.984,30.933 45.085,29.835 46.439,29.835 Z" id="path-1" class="cls-2" fill-rule="evenodd"/>
</svg>
