<svg xmlns="http://www.w3.org/2000/svg" xmlns:xlink="http://www.w3.org/1999/xlink" preserveAspectRatio="xMidYMid" width="122" height="60" viewBox="0 0 122 60">
  <defs>
    <style>

      .cls-2 {
        fill: #ffffff;
      }
    </style>
  </defs>
  <path d="M121.704,43.451 C121.506,43.805 121.233,44.078 120.880,44.282 C120.528,44.476 120.159,44.577 119.770,44.577 C119.382,44.577 119.014,44.476 118.663,44.282 C118.309,44.078 118.034,43.805 117.837,43.451 C117.640,43.094 117.543,42.722 117.543,42.330 C117.543,41.937 117.642,41.560 117.842,41.200 C118.045,40.840 118.320,40.562 118.672,40.373 C119.021,40.180 119.390,40.083 119.770,40.083 C120.153,40.083 120.518,40.180 120.871,40.373 C121.220,40.562 121.497,40.840 121.698,41.200 C121.900,41.560 122.000,41.937 122.000,42.330 C122.000,42.722 121.900,43.094 121.704,43.451 ZM121.313,41.423 C121.149,41.139 120.931,40.916 120.649,40.763 C120.367,40.611 120.074,40.533 119.768,40.533 C119.465,40.533 119.174,40.611 118.893,40.763 C118.611,40.916 118.393,41.139 118.231,41.423 C118.069,41.714 117.986,42.014 117.986,42.328 C117.986,42.640 118.066,42.939 118.223,43.227 C118.381,43.508 118.602,43.726 118.883,43.889 C119.164,44.048 119.461,44.128 119.768,44.128 C120.080,44.128 120.378,44.048 120.655,43.889 C120.938,43.726 121.159,43.508 121.316,43.227 C121.473,42.937 121.554,42.640 121.554,42.328 C121.554,42.014 121.473,41.714 121.313,41.423 ZM120.371,42.759 C120.391,42.785 120.447,42.880 120.544,43.048 C120.544,43.048 120.813,43.523 120.813,43.523 C120.813,43.523 120.220,43.523 120.220,43.523 C120.220,43.523 120.028,43.138 120.028,43.138 C119.898,42.884 119.790,42.724 119.703,42.658 C119.616,42.588 119.505,42.557 119.372,42.557 C119.372,42.557 119.248,42.557 119.248,42.557 C119.248,42.557 119.248,43.521 119.248,43.521 C119.248,43.521 118.766,43.521 118.766,43.521 C118.766,43.521 118.766,41.160 118.766,41.160 C118.766,41.160 119.240,41.160 119.240,41.160 C119.692,41.160 119.942,41.166 119.996,41.168 C120.153,41.183 120.276,41.211 120.364,41.261 C120.451,41.311 120.524,41.385 120.582,41.492 C120.643,41.590 120.672,41.705 120.672,41.826 C120.672,41.997 120.615,42.143 120.505,42.264 C120.397,42.383 120.243,42.460 120.045,42.491 C120.117,42.515 120.173,42.547 120.212,42.578 C120.249,42.607 120.306,42.671 120.371,42.759 ZM120.103,42.040 C120.141,41.986 120.160,41.926 120.160,41.858 C120.160,41.793 120.141,41.737 120.103,41.686 C120.067,41.637 120.013,41.599 119.945,41.576 C119.876,41.554 119.707,41.545 119.438,41.545 C119.438,41.545 119.248,41.545 119.248,41.545 C119.248,41.545 119.248,42.180 119.248,42.180 C119.248,42.180 119.438,42.180 119.438,42.180 C119.710,42.180 119.881,42.172 119.948,42.149 C120.013,42.127 120.066,42.093 120.103,42.040 ZM116.010,48.258 C116.010,48.258 109.534,48.258 109.534,48.258 C109.324,48.258 109.140,48.442 109.140,48.653 C109.140,48.653 109.140,49.660 109.140,49.660 C109.140,51.025 110.165,52.427 111.823,52.427 C113.507,52.427 114.415,51.149 114.895,50.452 C115.013,50.266 115.256,50.238 115.404,50.330 C115.404,50.330 116.398,51.025 116.398,51.025 C116.790,51.304 116.703,51.516 116.640,51.668 C116.221,52.518 114.742,54.589 111.823,54.589 C108.841,54.589 106.851,52.278 106.851,49.660 C106.851,49.660 106.851,44.852 106.851,44.852 C106.851,42.294 108.840,39.919 111.823,39.919 C114.770,39.919 116.703,42.294 116.703,44.852 C116.703,44.852 116.703,47.557 116.703,47.557 C116.703,47.922 116.338,48.258 116.010,48.258 ZM114.443,44.852 C114.443,43.481 113.507,42.079 111.792,42.079 C110.135,42.079 109.141,43.481 109.141,44.852 C109.141,44.852 109.141,45.856 109.141,45.856 C109.141,46.069 109.324,46.252 109.535,46.252 C109.535,46.252 114.053,46.252 114.053,46.252 C114.261,46.252 114.443,46.069 114.443,45.856 C114.443,45.856 114.443,44.852 114.443,44.852 ZM102.891,54.282 C102.891,54.282 101.413,54.282 101.413,54.282 C101.229,54.282 101.024,54.096 101.024,53.890 C101.024,53.890 101.024,34.697 101.024,34.697 C101.024,34.484 101.229,34.300 101.413,34.300 C101.413,34.300 102.891,34.300 102.891,34.300 C103.098,34.300 103.311,34.484 103.311,34.697 C103.311,34.697 103.311,53.890 103.311,53.890 C103.311,54.096 103.098,54.282 102.891,54.282 ZM94.423,54.273 C94.417,54.276 94.408,54.276 94.405,54.278 C94.055,54.413 93.657,54.512 93.207,54.558 C93.184,54.558 93.162,54.562 93.140,54.565 C93.085,54.570 93.027,54.576 92.969,54.578 C92.941,54.578 92.910,54.584 92.879,54.584 C92.814,54.584 92.747,54.589 92.679,54.589 C92.669,54.589 92.656,54.589 92.644,54.589 C92.641,54.589 92.636,54.589 92.636,54.589 C92.636,54.589 92.633,54.589 92.633,54.589 C89.651,54.589 87.662,52.278 87.662,49.660 C87.662,49.660 87.662,34.596 87.662,34.596 C87.662,34.382 87.844,34.200 88.023,34.200 C88.023,34.200 89.588,34.200 89.588,34.200 C89.769,34.200 89.950,34.382 89.950,34.596 C89.950,34.596 89.950,40.678 89.950,40.678 C90.704,40.203 91.614,39.919 92.644,39.919 C95.595,39.919 97.525,42.294 97.525,44.852 C97.525,44.852 97.525,49.660 97.525,49.660 C97.525,51.641 96.398,53.449 94.584,54.205 C94.527,54.230 94.477,54.252 94.423,54.273 ZM95.264,49.660 C95.264,49.660 95.264,44.852 95.264,44.852 C95.264,43.481 94.328,42.079 92.616,42.079 C90.956,42.079 89.964,43.481 89.964,44.852 C89.964,44.852 89.964,49.660 89.964,49.660 C89.964,51.025 90.986,52.422 92.636,52.427 C92.703,52.427 92.768,52.426 92.830,52.422 C92.846,52.418 92.862,52.418 92.879,52.418 C92.919,52.414 92.956,52.410 92.995,52.407 C93.025,52.401 93.057,52.397 93.092,52.390 C93.096,52.390 93.104,52.390 93.110,52.390 C93.477,52.330 93.803,52.196 94.079,52.006 C94.319,51.842 94.469,51.664 94.560,51.547 C94.600,51.499 94.650,51.452 94.701,51.408 C95.069,50.910 95.264,50.280 95.264,49.660 ZM83.538,54.282 C83.538,54.282 82.245,54.282 82.245,54.282 C81.790,54.282 81.971,53.584 81.491,53.921 C81.491,53.921 80.614,54.589 79.023,54.589 C76.221,54.589 74.055,52.427 74.055,49.660 C74.055,46.767 76.221,44.730 79.023,44.730 C79.804,44.730 80.588,45.034 81.280,45.279 C81.552,45.367 81.642,45.094 81.642,44.852 C81.642,43.391 80.588,42.083 79.023,42.083 C77.848,42.083 77.060,42.387 76.430,42.753 C76.189,42.903 75.918,42.841 75.801,42.629 C75.801,42.629 75.164,41.502 75.164,41.502 C75.044,41.259 75.164,41.015 75.315,40.926 C76.523,40.256 77.697,39.919 79.023,39.919 C81.820,39.919 83.902,42.144 83.902,44.852 C83.902,44.852 83.902,53.890 83.902,53.890 C83.902,54.096 83.749,54.282 83.538,54.282 ZM79.023,46.889 C77.274,46.889 76.343,48.352 76.343,49.660 C76.343,51.055 77.396,52.427 79.023,52.427 C80.707,52.427 81.642,51.055 81.642,49.660 C81.642,48.349 80.614,46.889 79.023,46.889 ZM73.723,36.330 C73.723,36.330 70.739,36.330 70.739,36.330 C70.528,36.330 70.346,36.542 70.346,36.754 C70.346,36.754 70.346,53.890 70.346,53.890 C70.346,54.096 70.136,54.282 69.928,54.282 C69.928,54.282 68.453,54.282 68.453,54.282 C68.270,54.282 68.059,54.096 68.059,53.890 C68.059,53.890 68.059,36.724 68.059,36.724 C68.059,36.511 67.848,36.330 67.667,36.330 C67.667,36.330 64.625,36.330 64.625,36.330 C64.415,36.330 64.233,36.117 64.233,35.904 C64.233,35.904 64.233,34.657 64.233,34.657 C64.233,34.473 64.415,34.263 64.625,34.263 C64.625,34.263 73.723,34.263 73.723,34.263 C73.932,34.263 74.112,34.473 74.112,34.657 C74.112,34.657 74.112,35.904 74.112,35.904 C74.112,36.117 73.931,36.330 73.723,36.330 ZM62.602,54.282 C62.602,54.282 61.159,54.282 61.159,54.282 C60.945,54.282 60.734,54.096 60.734,53.890 C60.734,53.890 60.734,44.852 60.734,44.852 C60.734,43.481 59.802,42.079 58.083,42.079 C56.429,42.079 55.432,43.481 55.432,44.852 C55.432,44.852 55.432,53.890 55.432,53.890 C55.432,54.096 55.223,54.282 55.040,54.282 C55.040,54.282 53.566,54.282 53.566,54.282 C53.357,54.282 53.147,54.161 53.147,53.890 C53.147,53.890 53.147,40.621 53.147,40.621 C53.147,40.406 53.293,40.224 53.508,40.224 C53.508,40.224 54.804,40.224 54.804,40.224 C55.251,40.224 55.193,40.836 55.495,40.650 C56.276,40.164 57.179,39.919 58.111,39.919 C61.065,39.919 62.993,42.294 62.993,44.852 C62.993,44.852 62.993,53.890 62.993,53.890 C62.993,54.096 62.784,54.282 62.602,54.282 ZM60.780,27.340 C60.557,30.895 52.364,33.757 42.285,33.757 C42.285,33.757 42.285,33.757 42.285,33.757 C42.285,33.757 42.285,33.757 42.284,33.757 C32.206,33.757 24.012,30.895 23.787,27.340 C23.787,27.340 23.781,27.340 23.781,27.340 C23.781,27.340 23.781,27.270 23.781,27.270 C23.779,27.243 23.781,24.480 23.781,24.480 C23.779,24.452 23.781,24.240 23.781,24.240 C23.781,24.240 23.787,24.240 23.787,24.240 C24.023,20.684 32.211,17.827 42.284,17.827 C52.357,17.827 60.544,20.684 60.780,24.240 C60.780,24.240 60.789,24.430 60.789,24.448 C60.789,24.448 60.789,24.448 60.789,24.448 C60.789,24.448 60.789,27.340 60.789,27.340 C60.789,27.340 60.789,27.340 60.789,27.340 C60.789,27.340 60.780,27.340 60.780,27.340 ZM58.615,10.906 C58.615,12.780 53.255,14.301 46.636,14.301 C40.024,14.301 34.659,12.780 34.659,10.906 C34.659,10.884 34.664,10.863 34.664,10.842 C34.664,10.842 34.664,8.997 34.664,8.997 C34.664,8.975 34.664,8.892 34.664,8.868 C34.664,8.868 34.664,8.857 34.664,8.857 C34.664,8.857 34.666,8.857 34.666,8.857 C34.808,7.017 40.114,5.540 46.636,5.540 C53.163,5.540 58.469,7.017 58.611,8.857 C58.611,8.857 58.613,8.857 58.613,8.857 C58.613,8.857 58.616,8.963 58.613,8.979 C58.613,8.979 58.613,8.979 58.613,8.979 C58.613,8.979 58.613,10.859 58.613,10.859 C58.615,10.876 58.615,10.890 58.615,10.906 ZM23.861,5.762 C18.324,5.762 13.821,4.772 13.712,3.537 C13.712,3.537 13.707,3.537 13.707,3.537 C13.707,3.537 13.707,2.272 13.707,2.272 C13.707,2.272 13.707,2.231 13.707,2.231 C13.707,2.231 13.712,2.231 13.712,2.231 C13.809,0.994 18.313,0.000 23.861,0.000 C29.407,0.000 33.915,0.994 34.011,2.231 C34.011,2.231 34.014,2.231 34.014,2.231 C34.014,2.231 34.014,2.272 34.014,2.272 C34.014,2.272 34.014,3.537 34.014,3.537 C34.014,3.537 34.008,3.537 34.008,3.537 C33.898,4.772 29.400,5.762 23.861,5.762 ZM28.455,12.764 C28.455,12.774 28.452,12.783 28.452,12.790 C28.452,12.790 28.457,12.790 28.457,12.790 C28.457,12.790 28.457,15.245 28.457,15.245 C28.457,15.245 28.452,15.245 28.452,15.245 C28.400,17.663 22.053,19.620 14.225,19.620 C6.401,19.620 0.052,17.663 0.002,15.245 C0.002,15.245 0.000,15.245 0.000,15.245 C0.000,15.245 0.000,12.790 0.000,12.790 C0.000,12.790 0.002,12.790 0.002,12.790 C0.002,12.790 0.002,12.790 0.002,12.790 C0.002,12.783 0.000,12.774 0.000,12.764 C0.000,10.331 6.371,8.359 14.225,8.359 C22.086,8.359 28.455,10.331 28.455,12.764 ZM17.690,33.789 C20.642,33.789 22.570,36.161 22.570,38.716 C22.570,38.716 22.570,49.660 22.570,49.660 C22.570,52.276 20.612,54.589 17.690,54.589 C14.710,54.589 12.723,52.278 12.723,49.660 C12.723,49.660 12.723,38.716 12.723,38.716 C12.723,36.161 14.711,33.789 17.690,33.789 ZM15.011,49.660 C15.011,51.025 16.035,52.427 17.690,52.427 C19.376,52.427 20.311,51.025 20.311,49.660 C20.311,49.660 20.311,38.716 20.311,38.716 C20.311,38.716 20.310,38.716 20.310,38.716 C20.310,37.346 19.376,35.944 17.660,35.944 C16.002,35.944 15.011,37.346 15.011,38.716 C15.011,38.716 15.011,49.660 15.011,49.660 ZM31.362,39.919 C34.283,39.919 36.242,42.264 36.242,44.852 C36.242,44.852 36.242,49.660 36.242,49.660 C36.242,52.216 34.346,54.589 31.362,54.589 C30.189,54.589 29.526,54.282 29.044,54.041 C28.834,53.949 28.681,54.071 28.681,54.282 C28.681,54.282 28.681,59.603 28.681,59.603 C28.681,59.817 28.498,60.000 28.320,60.000 C28.320,60.000 26.756,60.000 26.756,60.000 C26.543,60.000 26.391,59.817 26.391,59.603 C26.391,59.603 26.391,44.852 26.391,44.852 C26.391,42.234 28.443,39.919 31.362,39.919 ZM28.681,49.660 C28.681,51.025 29.674,52.427 31.332,52.427 C33.049,52.427 33.984,51.025 33.984,49.660 C33.984,49.660 33.984,44.852 33.984,44.852 C33.984,43.481 33.049,42.079 31.362,42.079 C29.674,42.079 28.681,43.481 28.681,44.852 C28.681,44.852 28.681,49.660 28.681,49.660 ZM44.677,39.919 C47.628,39.919 49.556,42.294 49.556,44.852 C49.556,44.852 49.556,47.557 49.556,47.557 C49.556,47.922 49.194,48.258 48.863,48.258 C48.863,48.258 42.389,48.258 42.389,48.258 C42.177,48.258 41.998,48.442 41.998,48.653 C41.998,48.653 41.998,49.660 41.998,49.660 C41.998,51.025 43.018,52.427 44.677,52.427 C46.362,52.427 47.268,51.149 47.748,50.452 C47.871,50.266 48.111,50.238 48.261,50.330 C48.261,50.330 49.255,51.025 49.255,51.025 C49.648,51.304 49.556,51.516 49.497,51.668 C49.074,52.518 47.597,54.589 44.677,54.589 C41.692,54.589 39.709,52.278 39.709,49.660 C39.709,49.660 39.709,44.852 39.709,44.852 C39.709,42.294 41.692,39.919 44.677,39.919 ZM41.998,45.856 C41.998,46.069 42.177,46.252 42.389,46.252 C42.389,46.252 46.903,46.252 46.903,46.252 C47.115,46.252 47.295,46.069 47.295,45.856 C47.295,45.856 47.295,44.852 47.295,44.852 C47.295,43.481 46.362,42.079 44.646,42.079 C42.988,42.079 41.998,43.481 41.998,44.852 C41.998,44.852 41.998,45.856 41.998,45.856 Z" id="path-1" class="cls-2" fill-rule="evenodd"/>
</svg>
