<svg xmlns="http://www.w3.org/2000/svg" xmlns:xlink="http://www.w3.org/1999/xlink" preserveAspectRatio="xMidYMid" width="100" height="100" viewBox="0 0 100 100">
  <defs>
    <style>

      .cls-2 {
        fill: #7bd454;
      }
    </style>
  </defs>
  <path d="M50.000,100.000 C22.431,100.000 0.000,77.570 0.000,50.000 C0.000,22.431 22.431,-0.000 50.000,-0.000 C77.570,-0.000 100.000,22.431 100.000,50.000 C100.000,77.570 77.570,100.000 50.000,100.000 ZM50.000,2.222 C23.655,2.222 2.222,23.654 2.222,50.000 C2.222,76.346 23.655,97.778 50.000,97.778 C76.346,97.778 97.778,76.346 97.778,50.000 C97.778,23.654 76.346,2.222 50.000,2.222 ZM63.474,42.867 C63.474,42.867 56.344,49.997 56.344,49.997 C56.344,49.997 63.474,57.129 63.474,57.129 C67.103,55.894 71.109,56.810 73.852,59.555 C76.775,62.478 77.622,66.832 76.011,70.644 C75.862,70.996 75.543,71.248 75.165,71.309 C74.787,71.378 74.406,71.233 74.154,70.946 C74.154,70.946 70.180,66.437 70.180,66.437 C70.180,66.437 66.441,66.437 66.441,66.437 C66.441,66.437 66.441,70.178 66.441,70.178 C66.441,70.178 70.953,74.149 70.953,74.149 C71.239,74.401 71.378,74.783 71.315,75.161 C71.254,75.538 71.005,75.857 70.651,76.007 C69.367,76.550 68.021,76.812 66.691,76.812 C64.067,76.812 61.500,75.788 59.562,73.850 C56.817,71.105 55.903,67.103 57.133,63.472 C57.133,63.472 50.002,56.339 50.002,56.339 C50.002,56.339 42.871,63.470 42.871,63.470 C44.123,67.133 43.240,71.135 40.527,73.848 C38.620,75.756 36.107,76.806 33.449,76.806 C32.099,76.806 30.777,76.536 29.525,76.007 C29.169,75.855 28.917,75.532 28.859,75.152 C28.800,74.770 28.943,74.386 29.236,74.136 C29.236,74.136 33.898,70.165 33.898,70.165 C33.898,70.165 33.898,66.437 33.898,66.437 C33.898,66.437 29.822,66.437 29.822,66.437 C29.822,66.437 25.853,70.946 25.853,70.946 C25.601,71.233 25.217,71.380 24.842,71.309 C24.464,71.248 24.145,70.998 23.995,70.647 C22.383,66.832 23.229,62.478 26.152,59.555 C28.841,56.862 32.960,55.922 36.530,57.129 C36.530,57.129 43.649,50.009 43.649,50.009 C43.649,50.009 36.532,42.908 36.532,42.908 C32.880,44.152 28.876,43.253 26.152,40.523 C23.244,37.615 22.396,33.294 23.993,29.518 C24.145,29.162 24.468,28.911 24.848,28.852 C25.226,28.796 25.614,28.937 25.864,29.230 C25.864,29.230 29.835,33.893 29.835,33.893 C29.835,33.893 33.898,33.893 33.898,33.893 C33.898,33.893 33.898,29.831 33.898,29.831 C33.898,29.831 29.236,25.862 29.236,25.862 C28.943,25.612 28.800,25.228 28.859,24.846 C28.917,24.466 29.169,24.143 29.523,23.993 C33.323,22.379 37.507,23.210 40.443,26.148 C43.188,28.889 44.104,32.891 42.871,36.526 C42.871,36.526 50.001,43.656 50.001,43.656 C50.001,43.656 57.131,36.526 57.131,36.526 C55.901,32.891 56.817,28.889 59.560,26.148 C62.435,23.275 66.923,22.415 70.651,23.991 C71.003,24.141 71.252,24.460 71.313,24.837 C71.376,25.215 71.239,25.597 70.951,25.848 C70.951,25.848 66.441,29.820 66.441,29.820 C66.441,29.820 66.441,33.893 66.441,33.893 C66.441,33.893 70.167,33.893 70.167,33.893 C70.167,33.893 74.138,29.230 74.138,29.230 C74.388,28.937 74.770,28.796 75.154,28.852 C75.534,28.911 75.857,29.162 76.009,29.518 C77.615,33.318 76.788,37.505 73.852,40.440 C71.163,43.132 67.044,44.073 63.474,42.867 ZM59.213,62.409 C59.534,62.728 59.627,63.212 59.449,63.628 C58.190,66.602 58.852,69.998 61.133,72.279 C62.956,74.102 65.497,74.885 67.971,74.486 C67.971,74.486 64.596,71.513 64.596,71.513 C64.356,71.302 64.219,70.998 64.219,70.679 C64.219,70.679 64.219,65.326 64.219,65.326 C64.219,64.711 64.716,64.214 65.330,64.214 C65.330,64.214 70.682,64.214 70.682,64.214 C71.001,64.214 71.304,64.351 71.515,64.592 C71.515,64.592 74.488,67.967 74.488,67.967 C74.894,65.497 74.108,62.954 72.281,61.126 C70.000,58.846 66.604,58.190 63.631,59.444 C63.208,59.625 62.730,59.527 62.411,59.208 C62.411,59.208 54.773,51.568 54.773,51.568 C54.773,51.568 51.573,54.768 51.573,54.768 C51.573,54.768 59.213,62.409 59.213,62.409 ZM40.792,37.589 C40.471,37.270 40.378,36.786 40.556,36.369 C41.815,33.394 41.155,29.998 38.872,27.719 C37.057,25.905 34.644,25.126 32.244,25.506 C32.244,25.506 35.729,28.472 35.729,28.472 C35.977,28.685 36.120,28.993 36.120,29.319 C36.120,29.319 36.120,35.005 36.120,35.005 C36.120,35.618 35.623,36.116 35.009,36.116 C35.009,36.116 29.321,36.116 29.321,36.116 C28.995,36.116 28.685,35.972 28.475,35.725 C28.475,35.725 25.512,32.244 25.512,32.244 C25.139,34.666 25.927,37.155 27.724,38.952 C29.985,41.218 33.379,41.860 36.374,40.593 C36.793,40.410 37.272,40.508 37.593,40.827 C37.593,40.827 45.222,48.436 45.222,48.436 C45.222,48.436 48.430,45.227 48.430,45.227 C48.430,45.227 40.792,37.589 40.792,37.589 ZM74.494,32.240 C74.494,32.240 71.528,35.725 71.528,35.725 C71.317,35.972 71.007,36.116 70.682,36.116 C70.682,36.116 65.330,36.116 65.330,36.116 C64.716,36.116 64.219,35.618 64.219,35.005 C64.219,35.005 64.219,29.319 64.219,29.319 C64.219,29.000 64.356,28.696 64.596,28.485 C64.596,28.485 67.969,25.514 67.969,25.514 C65.515,25.117 62.923,25.929 61.131,27.719 C58.850,29.998 58.190,33.394 59.449,36.372 C59.625,36.788 59.529,37.270 59.210,37.589 C59.210,37.589 37.593,59.208 37.593,59.208 C37.272,59.527 36.795,59.627 36.374,59.444 C33.472,58.216 29.965,58.887 27.724,61.126 C25.896,62.954 25.111,65.497 25.517,67.967 C25.517,67.967 28.488,64.592 28.488,64.592 C28.698,64.351 29.002,64.214 29.321,64.214 C29.321,64.214 35.009,64.214 35.009,64.214 C35.623,64.214 36.120,64.711 36.120,65.326 C36.120,65.326 36.120,70.677 36.120,70.677 C36.120,71.003 35.977,71.311 35.729,71.524 C35.729,71.524 32.248,74.490 32.248,74.490 C32.643,74.551 33.045,74.583 33.449,74.583 C35.512,74.583 37.470,73.763 38.956,72.277 C41.202,70.031 41.830,66.636 40.556,63.626 C40.378,63.210 40.471,62.726 40.792,62.407 C40.792,62.407 62.411,40.788 62.411,40.788 C62.730,40.469 63.212,40.373 63.629,40.549 C66.541,41.780 70.041,41.111 72.281,38.869 C74.093,37.057 74.872,34.635 74.494,32.240 Z" id="path-1" class="cls-2" fill-rule="evenodd"/>
</svg>
