<?xml version="1.0" encoding="utf-8"?>
<!-- Generator: Adobe Illustrator 18.1.0, SVG Export Plug-In . SVG Version: 6.00 Build 0)  -->
<svg version="1.1" id="Layer_1" xmlns="http://www.w3.org/2000/svg" xmlns:xlink="http://www.w3.org/1999/xlink" x="0px" y="0px"
	 viewBox="0 0 100 100" enable-background="new 0 0 100 100" xml:space="preserve">
<g>
	<g>
		<path fill="#7BD454" d="M50,100C22.4,100,0,77.6,0,50C0,22.4,22.4,0,50,0c27.6,0,50,22.4,50,50C100,77.6,77.6,100,50,100L50,100z
			 M50,2.2C23.7,2.2,2.2,23.7,2.2,50S23.7,97.8,50,97.8c26.3,0,47.8-21.4,47.8-47.8S76.3,2.2,50,2.2L50,2.2z"/>
	</g>
</g>
<g>
	<g>
		<path fill="#7BD454" d="M50.1,55.6c-0.2,0-0.4,0-0.5-0.1L23.7,40.9c-0.4-0.2-0.6-0.6-0.6-1s0.2-0.8,0.6-1l25.7-14.4
			c0.3-0.2,0.7-0.2,1.1,0l25.9,14.5c0.4,0.2,0.6,0.6,0.6,1s-0.2,0.8-0.6,1L50.6,55.4C50.5,55.5,50.3,55.6,50.1,55.6L50.1,55.6z
			 M26.5,39.9l23.6,13.2L73.5,40L49.9,26.8L26.5,39.9L26.5,39.9z"/>
	</g>
	<g>
		<path fill="#7BD454" d="M50.1,65.6c-0.2,0-0.4,0-0.5-0.1L23.7,50.9c-0.5-0.3-0.7-1-0.4-1.5c0.3-0.5,1-0.7,1.5-0.4l25.3,14.2
			l25.1-14.1c0.5-0.3,1.2-0.1,1.5,0.4c0.3,0.5,0.1,1.2-0.4,1.5L50.6,65.4C50.5,65.5,50.3,65.6,50.1,65.6L50.1,65.6z"/>
	</g>
	<g>
		<path fill="#7BD454" d="M50.1,75.6c-0.2,0-0.4,0-0.5-0.1L23.7,60.9c-0.5-0.3-0.7-1-0.4-1.5c0.3-0.5,1-0.7,1.5-0.4l25.3,14.2
			l25.1-14.1c0.5-0.3,1.2-0.1,1.5,0.4c0.3,0.5,0.1,1.2-0.4,1.5L50.6,75.4C50.5,75.5,50.3,75.6,50.1,75.6L50.1,75.6z"/>
	</g>
</g>
</svg>
