<?xml version="1.0" encoding="utf-8"?>
<!-- Generator: Adobe Illustrator 18.1.0, SVG Export Plug-In . SVG Version: 6.00 Build 0)  -->
<svg version="1.1" id="Layer_1" xmlns="http://www.w3.org/2000/svg" xmlns:xlink="http://www.w3.org/1999/xlink" x="0px" y="0px"
	 viewBox="0 0 100 100" enable-background="new 0 0 100 100" xml:space="preserve">
<g>
	<g>
		<path fill="#7BD454" d="M50,100C22.4,100,0,77.6,0,50S22.4,0,50,0c27.6,0,50,22.4,50,50S77.6,100,50,100L50,100z M50,2.2
			C23.7,2.2,2.2,23.7,2.2,50S23.7,97.8,50,97.8c26.3,0,47.8-21.4,47.8-47.8S76.3,2.2,50,2.2L50,2.2z"/>
	</g>
</g>
<g>
	<g>
		<path fill="#7BD454" d="M59.9,71.5H28.2c-1.8,0-3.3-1.5-3.3-3.3V47.9c0-1.8,1.5-3.3,3.3-3.3h31.7c1.8,0,3.3,1.5,3.3,3.3v20.2
			C63.2,70,61.7,71.5,59.9,71.5L59.9,71.5z M28.2,46.8c-0.6,0-1.1,0.5-1.1,1.1v20.2c0,0.6,0.5,1.1,1.1,1.1h31.7
			c0.6,0,1.1-0.5,1.1-1.1V47.9c0-0.6-0.5-1.1-1.1-1.1H28.2L28.2,46.8z"/>
	</g>
	<g>
		<path fill="#7BD454" d="M74,71.2c-0.2,0-0.3,0-0.5-0.1l-12.2-6.1c-0.4-0.2-0.6-0.6-0.6-1V52c0-0.4,0.2-0.8,0.6-1l12.2-6.1
			c0.3-0.2,0.8-0.2,1.1,0c0.3,0.2,0.5,0.6,0.5,0.9v24.2c0,0.4-0.2,0.7-0.5,0.9C74.4,71.2,74.2,71.2,74,71.2L74,71.2z M63,63.4
			l9.9,4.9V47.7L63,52.6V63.4L63,63.4z"/>
	</g>
	<g>
		<path fill="#7BD454" d="M34.6,45.9c-4.8,0-8.7-3.9-8.7-8.7c0-4.8,3.9-8.7,8.7-8.7c4.8,0,8.7,3.9,8.7,8.7
			C43.3,42,39.4,45.9,34.6,45.9L34.6,45.9z M34.6,30.8c-3.6,0-6.5,2.9-6.5,6.5s2.9,6.5,6.5,6.5c3.6,0,6.5-2.9,6.5-6.5
			S38.2,30.8,34.6,30.8L34.6,30.8z"/>
	</g>
	<g>
		<path fill="#7BD454" d="M50.9,45.9c-4.8,0-8.7-3.9-8.7-8.7c0-4.8,3.9-8.7,8.7-8.7c4.8,0,8.7,3.9,8.7,8.7
			C59.6,42,55.7,45.9,50.9,45.9L50.9,45.9z M50.9,30.8c-3.6,0-6.5,2.9-6.5,6.5s2.9,6.5,6.5,6.5c3.6,0,6.5-2.9,6.5-6.5
			S54.5,30.8,50.9,30.8L50.9,30.8z"/>
	</g>
</g>
</svg>
