<?xml version="1.0" encoding="utf-8"?>
<!-- Generator: Adobe Illustrator 18.1.0, SVG Export Plug-In . SVG Version: 6.00 Build 0)  -->
<svg version="1.1" id="Layer_1" xmlns="http://www.w3.org/2000/svg" xmlns:xlink="http://www.w3.org/1999/xlink" x="0px" y="0px"
	 viewBox="-255 347 100 100" enable-background="new -255 347 100 100" xml:space="preserve">
<g id="Layer_4">
	<g>
		<g>
			<path fill="#7BD454" d="M-205,447c-27.6,0-50-22.4-50-50s22.4-50,50-50s50,22.4,50,50S-177.4,447-205,447L-205,447z M-205,349.2
				c-26.3,0-47.8,21.4-47.8,47.8c0,26.3,21.4,47.8,47.8,47.8s47.8-21.4,47.8-47.8C-157.2,370.7-178.7,349.2-205,349.2L-205,349.2z"
				/>
		</g>
	</g>
</g>
<g id="Layer_3">
	<g>
		<g>
			<g>
				<path fill="#7BD454" d="M-180.8,422.3h-48.4c-0.6,0-1.1-0.5-1.1-1.1v-48.4c0-0.6,0.5-1.1,1.1-1.1h48.4c0.6,0,1.1,0.5,1.1,1.1
					v48.4C-179.7,421.8-180.2,422.3-180.8,422.3L-180.8,422.3z M-228.1,420.1h46.2v-46.2h-46.2V420.1L-228.1,420.1z"/>
			</g>
			<g>
				<path fill="#7BD454" d="M-181.6,386.9h-46.8c-0.6,0-1.1-0.5-1.1-1.1s0.5-1.1,1.1-1.1h46.8c0.6,0,1.1,0.5,1.1,1.1
					S-181,386.9-181.6,386.9L-181.6,386.9z"/>
			</g>
			<path fill="#7BD454" d="M-222.7,376.8c-1.4,0-2.5,1.1-2.5,2.5s1.1,2.5,2.5,2.5s2.5-1.1,2.5-2.5S-221.3,376.8-222.7,376.8
				L-222.7,376.8z"/>
			<path fill="#7BD454" d="M-215.6,376.8c-1.4,0-2.5,1.1-2.5,2.5s1.1,2.5,2.5,2.5s2.5-1.1,2.5-2.5
				C-213.2,377.9-214.3,376.8-215.6,376.8L-215.6,376.8z"/>
			<path fill="#7BD454" d="M-208.6,376.8c-1.4,0-2.5,1.1-2.5,2.5s1.1,2.5,2.5,2.5s2.5-1.1,2.5-2.5S-207.2,376.8-208.6,376.8
				L-208.6,376.8z"/>
		</g>
		<g>
			<g>
				<path fill="#7BD454" d="M-205,395.8h-15.2c-0.6,0-1.1-0.5-1.1-1.1s0.5-1.1,1.1-1.1h15.2c0.6,0,1.1,0.5,1.1,1.1
					S-204.4,395.8-205,395.8L-205,395.8z"/>
			</g>
			<g>
				<path fill="#7BD454" d="M-205,402.8h-15.2c-0.6,0-1.1-0.5-1.1-1.1s0.5-1.1,1.1-1.1h15.2c0.6,0,1.1,0.5,1.1,1.1
					S-204.4,402.8-205,402.8L-205,402.8z"/>
			</g>
			<g>
				<path fill="#7BD454" d="M-205,409.9h-15.2c-0.6,0-1.1-0.5-1.1-1.1s0.5-1.1,1.1-1.1h15.2c0.6,0,1.1,0.5,1.1,1.1
					S-204.4,409.9-205,409.9L-205,409.9z"/>
			</g>
			<g>
				<path fill="#7BD454" d="M-189.8,409.9h-9.6c-0.6,0-1.1-0.5-1.1-1.1v-14.1c0-0.6,0.5-1.1,1.1-1.1h9.6c0.6,0,1.1,0.5,1.1,1.1v14.1
					C-188.7,409.4-189.2,409.9-189.8,409.9L-189.8,409.9z M-198.3,407.6h7.4v-11.9h-7.4V407.6L-198.3,407.6z"/>
			</g>
		</g>
	</g>
</g>
</svg>
