<?xml version="1.0" encoding="utf-8"?>
<!-- Generator: Adobe Illustrator 18.1.0, SVG Export Plug-In . SVG Version: 6.00 Build 0)  -->
<svg version="1.1" id="Layer_1" xmlns="http://www.w3.org/2000/svg" xmlns:xlink="http://www.w3.org/1999/xlink" x="0px" y="0px"
	 viewBox="-254.6 347.1 100 100" enable-background="new -254.6 347.1 100 100" xml:space="preserve">
<g>
	<g>
		<path fill="#7BD454" d="M-204.6,447.1c-27.6,0-50-22.4-50-50s22.4-50,50-50s50,22.4,50,50C-154.6,424.6-177.1,447.1-204.6,447.1
			L-204.6,447.1z M-204.6,349.3c-26.3,0-47.8,21.4-47.8,47.8s21.4,47.8,47.8,47.8s47.8-21.4,47.8-47.8S-178.3,349.3-204.6,349.3
			L-204.6,349.3z"/>
	</g>
</g>
<g>
	<g>
		<g>
			<path fill="#7BD454" d="M-180.5,422.2h-48.4c-0.6,0-1.1-0.5-1.1-1.1v-48.4c0-0.6,0.5-1.1,1.1-1.1h48.4c0.6,0,1.1,0.5,1.1,1.1
				v48.4C-179.3,421.7-179.8,422.2-180.5,422.2L-180.5,422.2z M-227.7,420h46.2v-46.2h-46.2V420L-227.7,420z"/>
		</g>
		<g>
			<path fill="#7BD454" d="M-181.2,386.8H-228c-0.6,0-1.1-0.5-1.1-1.1s0.5-1.1,1.1-1.1h46.8c0.6,0,1.1,0.5,1.1,1.1
				C-180.1,386.3-180.6,386.8-181.2,386.8L-181.2,386.8z"/>
		</g>
		<path fill="#7BD454" d="M-221,377c-1.5,0-2.8,1.3-2.8,2.8s1.3,2.8,2.8,2.8s2.8-1.3,2.8-2.8S-219.4,377-221,377L-221,377z"/>
		<path fill="#7BD454" d="M-213.4,377c-1.5,0-2.8,1.3-2.8,2.8s1.3,2.8,2.8,2.8s2.8-1.3,2.8-2.8S-211.8,377-213.4,377L-213.4,377z"/>
		<path fill="#7BD454" d="M-205.8,377c-1.5,0-2.8,1.3-2.8,2.8s1.3,2.8,2.8,2.8s2.8-1.3,2.8-2.8S-204.2,377-205.8,377L-205.8,377z"/>
	</g>
	<g>
		<path fill="#7BD454" d="M-181.2,395.1H-228c-0.6,0-1.1-0.5-1.1-1.1s0.5-1.1,1.1-1.1h46.8c0.6,0,1.1,0.5,1.1,1.1
			C-180.1,394.6-180.6,395.1-181.2,395.1L-181.2,395.1z"/>
	</g>
	<g>
		<g>
			<path fill="#7BD454" d="M-191.5,421.5c-0.6,0-1.1-0.5-1.1-1.1v-26.1c0-0.6,0.5-1.1,1.1-1.1s1.1,0.5,1.1,1.1v26.1
				C-190.4,421-190.9,421.5-191.5,421.5L-191.5,421.5z"/>
		</g>
		<g>
			<path fill="#7BD454" d="M-217.8,421.5c-0.6,0-1.1-0.5-1.1-1.1v-26.1c0-0.6,0.5-1.1,1.1-1.1s1.1,0.5,1.1,1.1v26.1
				C-216.7,421-217.2,421.5-217.8,421.5L-217.8,421.5z"/>
		</g>
	</g>
</g>
</svg>
