<?xml version="1.0" encoding="utf-8"?>
<!-- Generator: Adobe Illustrator 18.1.0, SVG Export Plug-In . SVG Version: 6.00 Build 0)  -->
<svg version="1.1" id="Layer_1" xmlns="http://www.w3.org/2000/svg" xmlns:xlink="http://www.w3.org/1999/xlink" x="0px" y="0px"
	 viewBox="0 0 100 100" enable-background="new 0 0 100 100" xml:space="preserve">
<g>
	<g>
		<path fill="#7BD454" d="M50.4,100c-27.6,0-50-22.4-50-50s22.4-50,50-50c27.6,0,50,22.4,50,50S77.9,100,50.4,100L50.4,100z
			 M50.4,2.2C24,2.2,2.6,23.7,2.6,50S24,97.8,50.4,97.8S98.1,76.3,98.1,50S76.7,2.2,50.4,2.2L50.4,2.2z"/>
	</g>
</g>
<g>
	<g>
		<path fill="#7BD454" d="M75.1,67.4h-41c-0.6,0-1.1-0.5-1.1-1.1v-41c0-0.6,0.5-1.1,1.1-1.1s1.1,0.5,1.1,1.1v39.9h39.9
			c0.6,0,1.1,0.5,1.1,1.1S75.8,67.4,75.1,67.4L75.1,67.4z"/>
	</g>
	<g>
		<path fill="#7BD454" d="M66.5,75.7c-0.6,0-1.1-0.5-1.1-1.1v-7.6c0-0.6,0.5-1.1,1.1-1.1s1.1,0.5,1.1,1.1v7.6
			C67.6,75.2,67.1,75.7,66.5,75.7L66.5,75.7z"/>
	</g>
	<g>
		<path fill="#7BD454" d="M66.5,60.4c-0.6,0-1.1-0.5-1.1-1.1V34.8h-24c-0.6,0-1.1-0.5-1.1-1.1s0.5-1.1,1.1-1.1h25.1
			c0.6,0,1.1,0.5,1.1,1.1v25.6C67.6,59.9,67.1,60.4,66.5,60.4L66.5,60.4z"/>
	</g>
	<g>
		<path fill="#7BD454" d="M33.1,34.8h-7.5c-0.6,0-1.1-0.5-1.1-1.1s0.5-1.1,1.1-1.1h7.5c0.6,0,1.1,0.5,1.1,1.1S33.7,34.8,33.1,34.8
			L33.1,34.8z"/>
	</g>
</g>
</svg>
