<?xml version="1.0" encoding="utf-8"?>
<!-- Generator: Adobe Illustrator 18.1.0, SVG Export Plug-In . SVG Version: 6.00 Build 0)  -->
<svg version="1.1" id="Layer_1" xmlns="http://www.w3.org/2000/svg" xmlns:xlink="http://www.w3.org/1999/xlink" x="0px" y="0px"
	 viewBox="0 0 100 100" enable-background="new 0 0 100 100" xml:space="preserve">
<g>
	<g>
		<path fill="#7BD454" d="M50,100C22.4,100,0,77.6,0,50S22.4,0,50,0c27.6,0,50,22.4,50,50S77.6,100,50,100L50,100z M50,2.2
			C23.7,2.2,2.2,23.7,2.2,50S23.7,97.8,50,97.8c26.3,0,47.8-21.4,47.8-47.8S76.3,2.2,50,2.2L50,2.2z"/>
	</g>
</g>
<g>
	<g>
		<path fill="#7BD454" d="M68.3,75.8H31.7c-0.6,0-1.1-0.5-1.1-1.1V27.5c0-0.6,0.5-1.1,1.1-1.1h8.1c0.6,0,1.1,0.5,1.1,1.1
			s-0.5,1.1-1.1,1.1h-7v45h34.4v-45H60c-0.6,0-1.1-0.5-1.1-1.1s0.5-1.1,1.1-1.1h8.3c0.6,0,1.1,0.5,1.1,1.1v47.2
			C69.4,75.3,68.9,75.8,68.3,75.8L68.3,75.8z"/>
	</g>
	<g>
		<path fill="#7BD454" d="M57.5,31.4h-15c-2,0-3.6-1.6-3.6-3.6s1.6-3.6,3.6-3.6h15c2,0,3.6,1.6,3.6,3.6S59.5,31.4,57.5,31.4
			L57.5,31.4z M42.5,26.4c-0.8,0-1.4,0.6-1.4,1.4s0.6,1.4,1.4,1.4h15c0.8,0,1.4-0.6,1.4-1.4s-0.6-1.4-1.4-1.4H42.5L42.5,26.4z"/>
	</g>
	<g>
		<path fill="#7BD454" d="M42.4,40h-2.6c-0.6,0-1,0.5-1,1v2.6c0,0.6,0.5,1,1,1h2.6c0.6,0,1-0.5,1-1v-2.6C43.5,40.5,43,40,42.4,40
			L42.4,40z"/>
		<g>
			<path fill="#7BD454" d="M61.2,43.5H46.9c-0.6,0-1.1-0.5-1.1-1.1s0.5-1.1,1.1-1.1h14.3c0.6,0,1.1,0.5,1.1,1.1S61.8,43.5,61.2,43.5
				L61.2,43.5z"/>
		</g>
		<path fill="#7BD454" d="M42.4,55.3h-2.6c-0.6,0-1,0.5-1,1v2.6c0,0.6,0.5,1,1,1h2.6c0.6,0,1-0.5,1-1v-2.6
			C43.5,55.7,43,55.3,42.4,55.3L42.4,55.3z"/>
		<g>
			<path fill="#7BD454" d="M61.2,58.7H46.9c-0.6,0-1.1-0.5-1.1-1.1c0-0.6,0.5-1.1,1.1-1.1h14.3c0.6,0,1.1,0.5,1.1,1.1
				C62.3,58.2,61.8,58.7,61.2,58.7L61.2,58.7z"/>
		</g>
		<path fill="#7BD454" d="M42.4,47.7h-2.6c-0.6,0-1,0.5-1,1v2.6c0,0.6,0.5,1,1,1h2.6c0.6,0,1-0.5,1-1v-2.6
			C43.5,48.1,43,47.7,42.4,47.7L42.4,47.7z"/>
		<g>
			<path fill="#7BD454" d="M61.2,51.1H46.9c-0.6,0-1.1-0.5-1.1-1.1s0.5-1.1,1.1-1.1h14.3c0.6,0,1.1,0.5,1.1,1.1S61.8,51.1,61.2,51.1
				L61.2,51.1z"/>
		</g>
	</g>
</g>
</svg>
