<?xml version="1.0" encoding="utf-8"?>
<!-- Generator: Adobe Illustrator 18.1.0, SVG Export Plug-In . SVG Version: 6.00 Build 0)  -->
<svg version="1.1" id="Layer_1" xmlns="http://www.w3.org/2000/svg" xmlns:xlink="http://www.w3.org/1999/xlink" x="0px" y="0px"
	 viewBox="0 0 100 100" enable-background="new 0 0 100 100" xml:space="preserve">
<g>
	<g>
		<path fill="#7BD454" d="M50,100C22.4,100,0,77.6,0,50S22.4,0,50,0s50,22.4,50,50S77.6,100,50,100L50,100z M50,2.2
			C23.7,2.2,2.2,23.7,2.2,50S23.6,97.8,50,97.8S97.8,76.3,97.8,50S76.3,2.2,50,2.2L50,2.2z"/>
	</g>
</g>
<g>
	<circle fill="#7BD454" cx="38.1" cy="51.3" r="2"/>
	<g>
		<path fill="#7BD454" d="M60.7,46.8c-0.2,0-0.4,0-0.5-0.1c-3.8-2.1-8.5-3-13.2-2.7c-0.6,0.1-1.1-0.4-1.2-1c0-0.6,0.4-1.1,1-1.2
			c5.1-0.4,10.3,0.6,14.5,2.9c0.5,0.3,0.7,1,0.4,1.5C61.4,46.6,61,46.8,60.7,46.8L60.7,46.8z"/>
	</g>
	<g>
		<path fill="#7BD454" d="M55.4,44.3c-6.1,0-11-4.9-11-11s4.9-11,11-11s11,4.9,11,11S61.5,44.3,55.4,44.3L55.4,44.3z M55.4,24.5
			c-4.8,0-8.8,3.9-8.8,8.8c0,4.8,3.9,8.8,8.8,8.8c4.8,0,8.8-3.9,8.8-8.8C64.2,28.5,60.3,24.5,55.4,24.5L55.4,24.5z"/>
	</g>
	<g>
		<path fill="#7BD454" d="M55.4,39.1c-3.2,0-5.8-2.6-5.8-5.8s2.6-5.8,5.8-5.8s5.8,2.6,5.8,5.8S58.6,39.1,55.4,39.1L55.4,39.1z
			 M55.4,29.7c-2,0-3.6,1.6-3.6,3.6s1.6,3.6,3.6,3.6s3.6-1.6,3.6-3.6S57.4,29.7,55.4,29.7L55.4,29.7z"/>
	</g>
	<g>
		<path fill="#7BD454" d="M62.8,77.7h-3.3c-2.2,0-4-1.8-4-4v-0.2c-3.3,0.7-6.8,0.7-10.1,0.2c0,2.2-1.8,4-4,4H38c-2.2,0-4-1.8-4-4
			v-4.9c-2.6-2.1-4.5-4.6-5.6-7.3H28c-2.2,0-4-1.8-4-4v-3.3c0-2.2,1.8-4,4-4h0.5c1.1-2.8,3-5.3,5.6-7.3V39c0-0.4,0.2-0.8,0.6-1
			c2.3-1.2,5-0.8,6.8,0.9c1.8-0.6,3.7-1,5.7-1.2l0.2,2.2c-2.1,0.2-4,0.7-5.9,1.3c-0.4,0.2-0.9,0-1.2-0.4c-0.9-1.2-2.5-1.7-3.9-1.2
			v3.7c0,0.3-0.2,0.7-0.4,0.9c-2.7,2-4.6,4.6-5.5,7.4c-0.2,0.5-0.6,0.8-1.1,0.8H28c-1,0-1.7,0.8-1.7,1.7v3.3c0,1,0.8,1.7,1.7,1.7
			h1.2c0.5,0,0.9,0.3,1.1,0.8c1,2.8,2.9,5.3,5.5,7.4c0.3,0.2,0.4,0.5,0.4,0.9v5.4c0,1,0.8,1.7,1.7,1.7h3.3c1,0,1.7-0.8,1.7-1.7v-1.3
			c0-0.3,0.2-0.7,0.4-0.9c0.3-0.2,0.6-0.3,0.9-0.2c3.9,0.9,8,0.8,11.8-0.2c0.3-0.1,0.7,0,1,0.2s0.4,0.5,0.4,0.9v1.6
			c0,1,0.8,1.7,1.7,1.7h3.3c1,0,1.7-0.8,1.7-1.7v-6.2c0-0.3,0.1-0.6,0.4-0.8c3.4-3,5.3-6.8,5.3-10.8c0-0.5,0.3-1.1,0.8-1.2
			c1.3-0.4,2.3-1.4,2.6-2.7c-0.5,0.8-1.3,1.4-2.1,1.9c-0.3,0.2-0.7,0.2-1,0c-0.3-0.1-0.5-0.4-0.6-0.8c-1-4.4-4.4-8.3-9.2-10.7l1-2
			c4.9,2.4,8.4,6.2,9.9,10.6c0.5-0.6,0.8-1.4,0.8-2.3c0-0.2,0-0.4-0.1-0.6c-0.1-0.5,0.1-1,0.6-1.2c0.4-0.2,1-0.1,1.3,0.2
			c1.1,1.1,1.7,2.5,1.7,4.1c0,2.3-1.4,4.4-3.5,5.4c-0.2,4.3-2.2,8.3-5.7,11.5v5.7C66.7,75.9,64.9,77.7,62.8,77.7L62.8,77.7z"/>
	</g>
</g>
</svg>
