<?xml version="1.0" encoding="utf-8"?>
<!-- Generator: Adobe Illustrator 18.1.0, SVG Export Plug-In . SVG Version: 6.00 Build 0)  -->
<svg version="1.1" id="Layer_1" xmlns="http://www.w3.org/2000/svg" xmlns:xlink="http://www.w3.org/1999/xlink" x="0px" y="0px"
	 viewBox="0 0 100 100" enable-background="new 0 0 100 100" xml:space="preserve">
<g>
	<g>
		<path fill="#7BD454" d="M50,100C22.4,100,0,77.6,0,50S22.4,0,50,0s50,22.4,50,50S77.6,100,50,100L50,100z M50,2.2
			C23.7,2.2,2.2,23.7,2.2,50S23.7,97.8,50,97.8S97.8,76.4,97.8,50S76.3,2.2,50,2.2L50,2.2z"/>
	</g>
</g>
<g>
	<g>
		<path fill="#7BD454" d="M72.8,71.2H27.2c-0.6,0-1.1-0.5-1.1-1.1V33.8c0-0.6,0.5-1.1,1.1-1.1h11.9c0.6,0,1.1,0.5,1.1,1.1
			s-0.5,1.1-1.1,1.1H28.3V69h43.4V35h-10c-0.6,0-1.1-0.5-1.1-1.1s0.5-1.1,1.1-1.1h11.1c0.6,0,1.1,0.5,1.1,1.1v36.3
			C73.9,70.8,73.4,71.2,72.8,71.2L72.8,71.2z"/>
	</g>
	<g>
		<path fill="#7BD454" d="M41,52.1c-2.6,0-4.7-2.4-4.7-5.3c0-2.9,2.1-5.3,4.7-5.3c2.6,0,4.7,2.4,4.7,5.3
			C45.7,49.8,43.6,52.1,41,52.1L41,52.1z M41,43.8c-1.4,0-2.5,1.4-2.5,3.1c0,1.7,1.1,3,2.5,3s2.5-1.4,2.5-3
			C43.5,45.2,42.4,43.8,41,43.8L41,43.8z"/>
	</g>
	<g>
		<path fill="#7BD454" d="M47.9,64.4H34c-0.6,0-1.1-0.4-1.1-1l-0.3-4.5c-0.1-1.7,1.2-3.7,2.9-4.3c3.5-1.3,7.4-1.3,10.9,0
			c1.7,0.6,3,2.6,2.9,4.3c-0.1,1.5-0.2,3-0.3,4.5C49,64,48.5,64.4,47.9,64.4L47.9,64.4z M35.1,62.2h11.8c0.1-1.2,0.2-2.3,0.2-3.4
			c0.1-0.7-0.6-1.8-1.4-2.1c-3-1.1-6.4-1.1-9.4,0c-0.8,0.3-1.5,1.4-1.4,2.1L35.1,62.2L35.1,62.2z"/>
	</g>
	<path fill="#7BD454" d="M58.8,32.1c0.9,0,1.7,0.7,1.7,1.7c0,0.9-0.8,1.7-1.7,1.7H42.2c-0.9,0-1.7-0.7-1.7-1.7
		c0-0.9,0.7-1.7,1.7-1.7H58.8 M58.8,29.9H42.2c-2.1,0-3.9,1.7-3.9,3.9c0,2.1,1.7,3.9,3.9,3.9h16.7c2.2,0,3.9-1.7,3.9-3.9
		C62.7,31.6,61,29.9,58.8,29.9L58.8,29.9z"/>
	<g>
		<path fill="#7BD454" d="M64,48.9h-9.3c-0.6,0-1.1-0.5-1.1-1.1s0.5-1.1,1.1-1.1H64c0.6,0,1.1,0.5,1.1,1.1S64.6,48.9,64,48.9
			L64,48.9z"/>
	</g>
	<g>
		<path fill="#7BD454" d="M64,56h-9.3c-0.6,0-1.1-0.5-1.1-1.1s0.5-1.1,1.1-1.1H64c0.6,0,1.1,0.5,1.1,1.1S64.6,56,64,56L64,56z"/>
	</g>
</g>
</svg>
