<?xml version="1.0" encoding="utf-8"?>
<!-- Generator: Adobe Illustrator 18.1.0, SVG Export Plug-In . SVG Version: 6.00 Build 0)  -->
<svg version="1.1" id="Layer_1" xmlns="http://www.w3.org/2000/svg" xmlns:xlink="http://www.w3.org/1999/xlink" x="0px" y="0px"
	 viewBox="0 0 100 100" enable-background="new 0 0 100 100" xml:space="preserve">
<g>
	<g>
		<path fill="#7BD454" d="M50,100C22.4,100,0,77.6,0,50S22.4,0,50,0s50,22.4,50,50S77.6,100,50,100L50,100z M50,2.2
			C23.7,2.2,2.2,23.7,2.2,50S23.7,97.8,50,97.8S97.8,76.3,97.8,50S76.3,2.2,50,2.2L50,2.2z"/>
	</g>
</g>
<g>
	<g>
		<g>
			<path fill="#7BD454" d="M36.4,45.7c-0.6,0-1.1-0.5-1.1-1.1V29c0-0.6,0.5-1.1,1.1-1.1s1.1,0.5,1.1,1.1v15.6
				C37.5,45.2,37,45.7,36.4,45.7L36.4,45.7z"/>
		</g>
		<g>
			<path fill="#7BD454" d="M44.2,37.9H28.6c-0.6,0-1.1-0.5-1.1-1.1s0.5-1.1,1.1-1.1h15.6c0.6,0,1.1,0.5,1.1,1.1
				C45.3,37.5,44.8,37.9,44.2,37.9L44.2,37.9z"/>
		</g>
	</g>
	<g>
		<g>
			<path fill="#7BD454" d="M71.4,37.9H55.8c-0.6,0-1.1-0.5-1.1-1.1s0.5-1.1,1.1-1.1h15.6c0.6,0,1.1,0.5,1.1,1.1
				C72.5,37.5,72.1,37.9,71.4,37.9L71.4,37.9z"/>
		</g>
	</g>
	<g>
		<g>
			<path fill="#7BD454" d="M30.8,72.1c-0.3,0-0.6-0.1-0.8-0.3c-0.4-0.4-0.4-1.1,0-1.6l11-11c0.4-0.4,1.1-0.4,1.6,0
				c0.4,0.4,0.4,1.1,0,1.6l-11,11C31.4,72,31.1,72.1,30.8,72.1L30.8,72.1z"/>
		</g>
		<g>
			<path fill="#7BD454" d="M41.9,72.1c-0.3,0-0.6-0.1-0.8-0.3l-11-11c-0.4-0.4-0.4-1.1,0-1.6c0.4-0.4,1.1-0.4,1.6,0l11,11
				c0.4,0.4,0.4,1.1,0,1.6C42.4,72,42.2,72.1,41.9,72.1L41.9,72.1z"/>
		</g>
	</g>
	<g>
		<g>
			<g>
				<path fill="#7BD454" d="M71.4,70.4H55.8c-0.6,0-1.1-0.5-1.1-1.1s0.5-1.1,1.1-1.1h15.6c0.6,0,1.1,0.5,1.1,1.1
					S72.1,70.4,71.4,70.4L71.4,70.4z"/>
			</g>
		</g>
		<g>
			<g>
				<path fill="#7BD454" d="M71.4,63.8H55.8c-0.6,0-1.1-0.5-1.1-1.1s0.5-1.1,1.1-1.1h15.6c0.6,0,1.1,0.5,1.1,1.1
					S72.1,63.8,71.4,63.8L71.4,63.8z"/>
			</g>
		</g>
	</g>
</g>
</svg>
