<?xml version="1.0" encoding="utf-8"?>
<!-- Generator: Adobe Illustrator 18.1.0, SVG Export Plug-In . SVG Version: 6.00 Build 0)  -->
<svg version="1.1" id="Layer_1" xmlns="http://www.w3.org/2000/svg" xmlns:xlink="http://www.w3.org/1999/xlink" x="0px" y="0px"
	 viewBox="0 0 100 100" enable-background="new 0 0 100 100" xml:space="preserve">
<g>
	<g>
		<path fill="#7BD454" d="M50,100C22.4,100,0,77.6,0,50S22.4,0,50,0s50,22.4,50,50S77.6,100,50,100L50,100z M50,2.2
			C23.7,2.2,2.2,23.7,2.2,50S23.7,97.8,50,97.8S97.8,76.3,97.8,50S76.3,2.2,50,2.2L50,2.2z"/>
	</g>
</g>
<g>
	<g>
		<path fill="#7BD454" d="M75.4,79.9H63.5c-0.6,0-1.1-0.5-1.1-1.1V43.2c0-0.6,0.5-1.1,1.1-1.1h11.8c0.6,0,1.1,0.5,1.1,1.1v35.6
			C76.5,79.4,76,79.9,75.4,79.9L75.4,79.9z M64.6,77.7h9.6V44.3h-9.6V77.7L64.6,77.7z"/>
	</g>
	<g>
		<path fill="#7BD454" d="M55.9,79.9H44.1c-0.6,0-1.1-0.5-1.1-1.1V58.5c0-0.6,0.5-1.1,1.1-1.1h11.8c0.6,0,1.1,0.5,1.1,1.1v20.4
			C57,79.4,56.5,79.9,55.9,79.9L55.9,79.9z M45.2,77.7h9.6V59.6h-9.6L45.2,77.7L45.2,77.7z"/>
	</g>
	<g>
		<path fill="#7BD454" d="M36.5,79.9H24.6c-0.6,0-1.1-0.5-1.1-1.1v-9.3c0-0.6,0.5-1.1,1.1-1.1h11.8c0.6,0,1.1,0.5,1.1,1.1v9.3
			C37.6,79.4,37.1,79.9,36.5,79.9L36.5,79.9z M25.7,77.7h9.6v-7.1h-9.6L25.7,77.7L25.7,77.7z"/>
	</g>
	<g>
		<path fill="#7BD454" d="M60.3,39.5c-0.3,0-0.6-0.1-0.8-0.3c-0.4-0.4-0.4-1.1,0-1.6l7.8-7.8L59.5,22c-0.4-0.4-0.4-1.1,0-1.6
			c0.4-0.4,1.1-0.4,1.6,0l8.6,8.6c0.4,0.4,0.4,1.1,0,1.6l-8.6,8.6C60.9,39.4,60.6,39.5,60.3,39.5L60.3,39.5z"/>
	</g>
	<g>
		<path fill="#7BD454" d="M31.1,59.8c-0.1,0-0.1,0-0.2,0c-0.6-0.1-1-0.7-0.9-1.3c3.3-17.3,18.4-29.8,35.9-29.8
			c0.6,0,1.1,0.5,1.1,1.1s-0.5,1.1-1.1,1.1c-16.4,0-30.5,11.8-33.7,28C32.1,59.4,31.6,59.8,31.1,59.8L31.1,59.8z"/>
	</g>
</g>
</svg>
