<?xml version="1.0" encoding="utf-8"?>
<!-- Generator: Adobe Illustrator 18.1.0, SVG Export Plug-In . SVG Version: 6.00 Build 0)  -->
<svg version="1.1" id="Layer_1" xmlns="http://www.w3.org/2000/svg" xmlns:xlink="http://www.w3.org/1999/xlink" x="0px" y="0px"
	 viewBox="0 0 100 100" enable-background="new 0 0 100 100" xml:space="preserve">
<g>
	<g>
		<path fill="#7BD454" d="M50,100C22.4,100,0,77.6,0,50S22.4,0,50,0s50,22.4,50,50S77.6,100,50,100L50,100z M50,2.2
			C23.7,2.2,2.2,23.7,2.2,50S23.6,97.8,50,97.8S97.8,76.3,97.8,50S76.3,2.2,50,2.2L50,2.2z"/>
	</g>
</g>
<g>
	<g>
		<path fill="#7BD454" d="M50.7,37.2c0,0.4,0,0.8,0,1.2c0.8-0.3,1.4-0.4,2-0.5c0.5,0,1,0.1,1.4,0.4c0.3,0.2,0.6,0.5,0.7,0.8
			c0.2,0.3,0.3,0.6,0.3,0.9c0,0.4-0.1,0.7-0.4,1.1c-0.3,0.4-0.6,0.6-0.9,0.8c-0.7,0.3-1.2,0.1-1.4-0.5c-0.2-0.8-0.8-1.1-1.7-1
			c0,1.5,0,3,0,4.4c0.9-0.2,1.6-0.3,2.1-0.3s1,0,1.4,0.2s0.8,0.5,1,1c0.2,0.4,0.4,1,0.4,1.6c0,0.8-0.2,1.7-0.6,2.5
			c-0.4,0.9-0.9,1.7-1.7,2.5c-0.7,0.8-1.6,1.5-2.6,2c0,0.9,0,1.8,0,2.7c0,0.4,0,0.7-0.1,1c-0.1,0.2-0.3,0.4-0.5,0.5
			c-0.3,0.1-0.4,0.1-0.5,0s-0.2-0.3-0.2-0.7c0-1,0-1.9,0-2.9c-0.8,0.3-1.6,0.4-2.2,0.4c-0.6,0-1.1-0.1-1.6-0.4
			c-0.4-0.3-0.7-0.6-0.9-1s-0.3-0.8-0.3-1.3c0-0.3,0.1-0.7,0.4-1.1c0.3-0.4,0.6-0.7,1-0.8c0.3-0.1,0.6-0.2,0.8-0.1
			c0.2,0.1,0.4,0.2,0.5,0.4c0.2,0.5,0.4,0.9,0.5,1.1c0.1,0.2,0.4,0.4,0.6,0.6c0.3,0.1,0.7,0.1,1.2,0c0-1.7,0-3.3,0-5
			c-1,0.2-1.8,0.3-2.4,0.2c-0.6,0-1.2-0.3-1.6-0.7c-0.4-0.4-0.6-1.1-0.6-2c0-1.2,0.4-2.4,1.2-3.5s1.9-2.1,3.4-2.9c0-0.4,0-0.8,0-1.1
			c0-0.6,0.2-1,0.7-1.2C50.5,36.4,50.7,36.6,50.7,37.2z M49.4,45.1c0-1.4,0-2.7,0-4.1c-0.6,0.5-1.1,0.9-1.4,1.4
			c-0.3,0.4-0.5,1-0.5,1.6s0.2,0.9,0.5,1.1C48.2,45.2,48.7,45.2,49.4,45.1z M50.7,47.7c0,1.6,0,3.1,0,4.7c0.7-0.5,1.3-1,1.7-1.6
			S53,49.6,53,49s-0.2-1-0.6-1.2C52,47.6,51.5,47.6,50.7,47.7z"/>
	</g>
	<g>
		<path fill="#7BD454" d="M33.4,68.5c-3.8,0-7.2-1.1-10.4-3.5c-0.3-0.2-0.5-0.5-0.5-0.9V35.2c0-0.4,0.2-0.8,0.6-1s0.8-0.2,1.2,0.1
			c2.8,2,5.8,3,9.1,3c5.3,0,10.8-2.6,16.2-5.1c5.6-2.6,11.3-5.4,17.1-5.4c3.8,0,7.2,1.1,10.4,3.5c0.3,0.2,0.5,0.5,0.5,0.9v28.9
			c0,0.4-0.2,0.8-0.6,1s-0.8,0.2-1.2-0.1c-2.8-2-5.8-3-9.1-3c-5.3,0-10.8,2.6-16.2,5.1C44.9,65.7,39.2,68.5,33.4,68.5L33.4,68.5
			L33.4,68.5z M24.7,63.5c2.7,1.8,5.5,2.7,8.6,2.7l0,0c5.3,0,10.8-2.6,16.2-5.1c5.6-2.6,11.3-5.4,17.1-5.4c3.1,0,5.9,0.8,8.6,2.3
			V31.8c-2.7-1.8-5.5-2.7-8.6-2.7c-5.3,0-10.8,2.6-16.2,5.1c-5.6,2.6-11.3,5.4-17.1,5.4c-3.1,0-5.9-0.8-8.6-2.3L24.7,63.5L24.7,63.5
			z"/>
	</g>
	<g>
		<path fill="#7BD454" d="M33.4,73.2c-3.4,0-6.9-1-10.4-3.5c-0.5-0.4-0.6-1.1-0.3-1.6c0.4-0.5,1.1-0.6,1.6-0.3
			c8.3,5.9,16.5,2,25.3-2.1c8.9-4.2,18.2-8.6,27.5-1.9c0.5,0.4,0.6,1.1,0.3,1.6c-0.4,0.5-1.1,0.6-1.6,0.3c-8.3-5.9-16.5-2-25.3,2.1
			C44.9,70.5,39.1,73.2,33.4,73.2L33.4,73.2z"/>
	</g>
	<g>
		<g>
			<g>
				<path fill="#7BD454" d="M33.4,45.5c-1.2,0-2.4-0.1-3.6-0.4c-0.6-0.1-1-0.7-0.9-1.3s0.7-1,1.3-0.9c3.4,0.7,7.1,0.2,11.7-1.5
					c0.6-0.2,1.2,0.1,1.4,0.6c0.2,0.6-0.1,1.2-0.7,1.4C39.2,44.9,36.2,45.5,33.4,45.5L33.4,45.5z"/>
			</g>
			<g>
				<path fill="#7BD454" d="M57.6,36.9c-0.5,0-0.9-0.3-1-0.7c-0.2-0.6,0.1-1.2,0.7-1.4c5.1-1.9,9.2-2.4,13-1.6
					c0.6,0.1,1,0.7,0.9,1.3s-0.7,1-1.3,0.9c-3.4-0.7-7.1-0.2-11.7,1.5C57.9,36.9,57.8,36.9,57.6,36.9L57.6,36.9z"/>
			</g>
		</g>
		<g>
			<g>
				<path fill="#7BD454" d="M33.4,62.5c-1.2,0-2.4-0.1-3.6-0.4c-0.6-0.1-1-0.7-0.9-1.3s0.7-1,1.3-0.9c3.4,0.7,7.1,0.2,11.7-1.5
					c0.6-0.2,1.2,0.1,1.4,0.6c0.2,0.6-0.1,1.2-0.7,1.4C39.2,61.8,36.2,62.5,33.4,62.5L33.4,62.5z"/>
			</g>
			<g>
				<path fill="#7BD454" d="M57.6,53.9c-0.5,0-0.9-0.3-1-0.7c-0.2-0.6,0.1-1.2,0.7-1.4c5.1-1.9,9.2-2.4,13-1.6
					c0.6,0.1,1,0.7,0.9,1.3s-0.7,1-1.3,0.9c-3.4-0.7-7.1-0.2-11.7,1.5C57.9,53.8,57.8,53.9,57.6,53.9L57.6,53.9z"/>
			</g>
		</g>
	</g>
</g>
</svg>
