<?xml version="1.0" encoding="utf-8"?>
<!-- Generator: Adobe Illustrator 16.0.4, SVG Export Plug-In . SVG Version: 6.00 Build 0)  -->
<!DOCTYPE svg PUBLIC "-//W3C//DTD SVG 1.1//EN" "http://www.w3.org/Graphics/SVG/1.1/DTD/svg11.dtd">
<svg version="1.1" xmlns="http://www.w3.org/2000/svg" xmlns:xlink="http://www.w3.org/1999/xlink" x="0px" y="0px" width="100px"
	 height="100px" viewBox="0 0 100 100" enable-background="new 0 0 100 100" xml:space="preserve">
<g id="Layer_4">
	<g>
		<g>
			<path fill="#7BD454" d="M50,100C22.431,100,0,77.569,0,50S22.431,0,50,0s50,22.431,50,50S77.569,100,50,100L50,100z M50,2.223
				C23.654,2.223,2.223,23.654,2.223,50S23.654,97.777,50,97.777S97.777,76.346,97.777,50S76.346,2.223,50,2.223L50,2.223z"/>
		</g>
	</g>
</g>
<g id="Layer_3">
	<g>
		<path fill="#7BD454" d="M55.284,56.52H36.983l-0.868-1.882L55.43,30.735h2.27v23.611h5.504v2.173h-5.504v8.257h-2.415V56.52z
			 M55.284,54.347V34.355L39.158,54.347H55.284z"/>
	</g>
</g>
</svg>
