<?xml version="1.0" encoding="utf-8"?>
<!-- Generator: Adobe Illustrator 16.0.4, SVG Export Plug-In . SVG Version: 6.00 Build 0)  -->
<!DOCTYPE svg PUBLIC "-//W3C//DTD SVG 1.1//EN" "http://www.w3.org/Graphics/SVG/1.1/DTD/svg11.dtd">
<svg version="1.1" xmlns="http://www.w3.org/2000/svg" xmlns:xlink="http://www.w3.org/1999/xlink" x="0px" y="0px" width="100px"
	 height="100px" viewBox="0 0 100 100" enable-background="new 0 0 100 100" xml:space="preserve">
<g id="Layer_4">
	<g>
		<g>
			<path fill="#7BD454" d="M50,100C22.431,100,0,77.569,0,50S22.431,0,50,0s50,22.431,50,50S77.569,100,50,100L50,100z M50,2.223
				C23.654,2.223,2.223,23.654,2.223,50S23.654,97.777,50,97.777S97.777,76.346,97.777,50S76.346,2.223,50,2.223L50,2.223z"/>
		</g>
	</g>
</g>
<g id="Layer_3">
	<g>
		<g>
			<path fill="#7BD454" d="M74.444,61.619H25.556c-0.614,0-1.111-0.497-1.111-1.111V29.396c0-0.614,0.497-1.111,1.111-1.111h48.889
				c0.614,0,1.111,0.497,1.111,1.111v31.111C75.556,61.122,75.059,61.619,74.444,61.619L74.444,61.619z M26.667,59.396h46.666
				V30.508H26.667V59.396L26.667,59.396z"/>
		</g>
		<g>
			<path fill="#7BD454" d="M70,57.175H30c-0.614,0-1.111-0.497-1.111-1.111V33.841c0-0.614,0.497-1.11,1.111-1.11h40
				c0.614,0,1.111,0.496,1.111,1.11v22.223C71.111,56.678,70.614,57.175,70,57.175L70,57.175z M31.111,54.952h37.777v-20H31.111
				V54.952L31.111,54.952z"/>
		</g>
		<g>
			<path fill="#7BD454" d="M58.19,71.712H41.806c-0.614,0-1.111-0.497-1.111-1.11c0-0.614,0.497-1.111,1.111-1.111H58.19
				c0.614,0,1.11,0.497,1.11,1.111C59.301,71.215,58.805,71.712,58.19,71.712L58.19,71.712z"/>
		</g>
		<g>
			<g>
				<path fill="#7BD454" d="M44.349,71.063c-0.614,0-1.11-0.497-1.11-1.111V60.97c0-0.614,0.496-1.11,1.11-1.11
					s1.111,0.496,1.111,1.11v8.982C45.46,70.566,44.963,71.063,44.349,71.063L44.349,71.063z"/>
			</g>
			<g>
				<path fill="#7BD454" d="M55.646,71.063c-0.614,0-1.111-0.497-1.111-1.111V60.97c0-0.614,0.497-1.11,1.111-1.11
					s1.111,0.496,1.111,1.11v8.982C56.758,70.566,56.261,71.063,55.646,71.063L55.646,71.063z"/>
			</g>
		</g>
	</g>
</g>
</svg>
