<?xml version="1.0" encoding="utf-8"?>
<!-- Generator: Adobe Illustrator 16.0.4, SVG Export Plug-In . SVG Version: 6.00 Build 0)  -->
<!DOCTYPE svg PUBLIC "-//W3C//DTD SVG 1.1//EN" "http://www.w3.org/Graphics/SVG/1.1/DTD/svg11.dtd">
<svg version="1.1" xmlns="http://www.w3.org/2000/svg" xmlns:xlink="http://www.w3.org/1999/xlink" x="0px" y="0px" width="100px"
	 height="100px" viewBox="0 0 100 100" enable-background="new 0 0 100 100" xml:space="preserve">
<g id="Layer_4">
	<g>
		<g>
			<path fill="#7BD454" d="M49.999,100C22.43,100,0,77.569,0,50S22.43,0,49.999,0C77.57,0,100,22.431,100,50S77.57,100,49.999,100
				L49.999,100z M49.999,2.223C23.655,2.223,2.222,23.654,2.222,50s21.433,47.777,47.777,47.777
				c26.345,0,47.779-21.432,47.779-47.777S76.344,2.223,49.999,2.223L49.999,2.223z"/>
		</g>
	</g>
</g>
<g id="Layer_3">
	<g>
		<g>
			<path fill="#7BD454" d="M71.866,28.31H24.925c-0.614,0-1.111-0.497-1.111-1.111s0.497-1.111,1.111-1.111h46.941
				c0.614,0,1.111,0.497,1.111,1.111S72.48,28.31,71.866,28.31L71.866,28.31z"/>
		</g>
		<g>
			<path fill="#7BD454" d="M32.976,55.9h-8.051c-0.614,0-1.111-0.497-1.111-1.111c0-0.613,0.497-1.11,1.111-1.11h8.051
				c0.614,0,1.111,0.497,1.111,1.11C34.087,55.403,33.59,55.9,32.976,55.9L32.976,55.9z"/>
		</g>
		<g>
			<path fill="#7BD454" d="M37.794,69.696H24.925c-0.614,0-1.111-0.497-1.111-1.111s0.497-1.111,1.111-1.111h12.869
				c0.614,0,1.111,0.497,1.111,1.111S38.408,69.696,37.794,69.696L37.794,69.696z"/>
		</g>
		<g>
			<path fill="#7BD454" d="M37.794,42.105H24.925c-0.614,0-1.111-0.497-1.111-1.111s0.497-1.111,1.111-1.111h12.869
				c0.614,0,1.111,0.497,1.111,1.111S38.408,42.105,37.794,42.105L37.794,42.105z"/>
		</g>
		<g>
			<path fill="#7BD454" d="M59.665,73.915h-4.184c-1.243,0-2.253-1.012-2.253-2.253v-2.706c0-0.151-0.181-0.401-0.329-0.451
				l-1.533-0.593c-0.176,0-0.322,0.069-0.371,0.117l-1.917,1.916c-0.851,0.847-2.337,0.845-3.184,0.003l-2.962-2.965
				c-0.424-0.423-0.657-0.989-0.657-1.593c0-0.602,0.233-1.168,0.657-1.591l1.915-1.914c0.105-0.106,0.154-0.41,0.088-0.542
				L44.4,60.039c-0.073-0.208-0.327-0.391-0.478-0.391h-2.708c-1.242,0-2.252-1.009-2.252-2.25v-4.187
				c0-1.241,1.01-2.253,2.252-2.253h2.708c0.151,0,0.405-0.182,0.453-0.323l0.524-1.291c0.103-0.211,0.052-0.519-0.054-0.625
				l-1.912-1.912c-0.423-0.421-0.657-0.987-0.657-1.591s0.234-1.17,0.66-1.593l2.957-2.962c0.853-0.847,2.338-0.845,3.185-0.002
				l1.916,1.916c0.051,0.05,0.199,0.119,0.375,0.119c0.023-0.011,0.218-0.052,0.241-0.061l1.219-0.506
				c0.221-0.076,0.399-0.323,0.399-0.478v-2.706c0-1.241,1.01-2.253,2.253-2.253h4.184c1.245,0,2.257,1.012,2.257,2.253v2.706
				c0,0.149,0.181,0.403,0.323,0.451l1.532,0.593c0.177,0,0.325-0.069,0.374-0.117l1.916-1.916c0.862-0.851,2.334-0.845,3.185-0.007
				l2.962,2.971c0.422,0.421,0.657,0.987,0.657,1.591s-0.234,1.17-0.66,1.593l-1.912,1.912c-0.104,0.104-0.155,0.412-0.088,0.545
				l0.538,1.298c0.074,0.213,0.328,0.395,0.479,0.395h2.708c1.239,0,2.249,1.012,2.249,2.253v4.187c0,1.241-1.009,2.25-2.249,2.25
				h-2.708c-0.151,0-0.405,0.183-0.452,0.323l-0.53,1.296c-0.101,0.208-0.052,0.512,0.053,0.618l1.914,1.914
				c0.878,0.877,0.878,2.307,0,3.184l-2.955,2.962c-0.864,0.852-2.335,0.845-3.186,0.007l-1.919-1.921
				c-0.051-0.05-0.197-0.119-0.373-0.119c-0.024,0.011-0.219,0.055-0.244,0.063l-1.22,0.503c-0.214,0.076-0.394,0.326-0.394,0.478
				v2.706C61.922,72.903,60.91,73.915,59.665,73.915L59.665,73.915z M51.366,65.69c0.416,0,0.818,0.091,1.166,0.265l1.146,0.471
				c0.98,0.328,1.772,1.426,1.772,2.53v2.706l4.214,0.03c0.017,0,0.035-0.017,0.035-0.03v-2.706c0-1.103,0.789-2.2,1.835-2.557
				l1.152-0.478c0.769-0.395,2.279-0.223,3.039,0.541l1.912,1.912l3.002-2.963l-1.913-1.955c-0.783-0.783-1-2.12-0.502-3.112
				l0.469-1.147c0.326-0.979,1.426-1.771,2.534-1.771h2.708l0.026-4.214l-2.735-0.03c-1.108,0-2.208-0.792-2.56-1.843l-0.478-1.15
				c-0.461-0.913-0.246-2.25,0.535-3.036l1.916-1.916l-2.957-3.003l-1.961,1.914c-0.747,0.751-2.144,0.989-3.106,0.51l-1.151-0.476
				c-0.977-0.325-1.767-1.424-1.767-2.53v-2.706l-4.219-0.03l-0.03,2.736c0,1.106-0.793,2.207-1.845,2.559l-1.146,0.478
				c-0.778,0.397-2.281,0.222-3.041-0.543l-1.912-1.911l-3.002,2.964l1.913,1.953c0.784,0.788,0.999,2.125,0.502,3.114l-0.463,1.144
				c-0.327,0.981-1.427,1.773-2.535,1.773h-2.708l-0.03,4.217l2.739,0.027c1.108,0,2.208,0.793,2.56,1.843l0.475,1.157
				c0.461,0.911,0.245,2.248-0.539,3.031l-1.914,1.914l2.96,3.004l1.958-1.914C49.901,65.979,50.628,65.69,51.366,65.69
				L51.366,65.69z M57.573,61.932c-3.652,0-6.623-2.974-6.623-6.628s2.971-6.628,6.623-6.628c3.655,0,6.628,2.974,6.628,6.628
				S61.228,61.932,57.573,61.932L57.573,61.932z M57.573,50.898c-2.426,0-4.401,1.977-4.401,4.405s1.975,4.405,4.401,4.405
				c2.43,0,4.406-1.977,4.406-4.405S60.002,50.898,57.573,50.898L57.573,50.898z"/>
		</g>
	</g>
</g>
</svg>
