<?xml version="1.0" encoding="utf-8"?>
<!-- Generator: Adobe Illustrator 16.0.4, SVG Export Plug-In . SVG Version: 6.00 Build 0)  -->
<!DOCTYPE svg PUBLIC "-//W3C//DTD SVG 1.1//EN" "http://www.w3.org/Graphics/SVG/1.1/DTD/svg11.dtd">
<svg version="1.1" id="Layer_1" xmlns="http://www.w3.org/2000/svg" xmlns:xlink="http://www.w3.org/1999/xlink" x="0px" y="0px"
	 width="16px" height="12px" viewBox="0 0 16 12" style="enable-background:new 0 0 16 12;" xml:space="preserve">
<g>
	<path style="fill:#2DABE2;" d="M15.711,3.03l-7.473,7.313l-1.405,1.374C6.647,11.899,6.39,12,6.131,12
		c-0.258,0-0.516-0.101-0.702-0.282l-1.404-1.374L0.289,6.687C0.103,6.504,0,6.252,0,6s0.103-0.505,0.289-0.687l1.405-1.374
		c0.186-0.182,0.443-0.283,0.702-0.283c0.258,0,0.516,0.101,0.702,0.283l3.035,2.979l6.772-6.635C13.089,0.101,13.348,0,13.605,0
		s0.516,0.101,0.701,0.283l1.404,1.374C15.896,1.838,16,2.091,16,2.343C16,2.596,15.896,2.849,15.711,3.03z"/>
</g>
</svg>
