<?xml version="1.0" encoding="utf-8"?>
<!-- Generator: Adobe Illustrator 16.0.4, SVG Export Plug-In . SVG Version: 6.00 Build 0)  -->
<!DOCTYPE svg PUBLIC "-//W3C//DTD SVG 1.1//EN" "http://www.w3.org/Graphics/SVG/1.1/DTD/svg11.dtd">
<svg version="1.1" id="Layer_1" xmlns="http://www.w3.org/2000/svg" xmlns:xlink="http://www.w3.org/1999/xlink" x="0px" y="0px"
	 width="100px" height="55px" viewBox="0 0 100 55" enable-background="new 0 0 100 55" xml:space="preserve">
<g>
	<path fill="#0769AF" d="M50,12.021C45.071,4.764,36.777,0,27.373,0C12.255,0,0,12.312,0,27.5C0,42.688,12.255,55,27.373,55
		C36.777,55,45.071,50.235,50,42.979c-2.996-4.41-4.747-9.739-4.747-15.479C45.253,21.759,47.004,16.43,50,12.021z"/>
	<path fill="#7BD454" d="M72.627,0C63.224,0,54.928,4.764,50,12.021c2.995,4.409,4.746,9.738,4.746,15.479
		c0,5.74-1.751,11.069-4.746,15.479C54.928,50.235,63.224,55,72.627,55C87.745,55,100,42.688,100,27.5C100,12.312,87.745,0,72.627,0
		z"/>
	<path fill="#37939B" d="M50,12.021c-2.996,4.409-4.747,9.738-4.747,15.479c0,5.74,1.751,11.069,4.747,15.479
		c2.995-4.41,4.746-9.739,4.746-15.479C54.746,21.759,52.995,16.43,50,12.021z"/>
	<g>
		<g>
			<polygon fill="#FFFFFF" points="18.122,40.304 18.122,13.276 36.895,13.276 36.895,16.878 22.255,16.878 22.255,24.621 
				35.902,24.621 35.902,28.219 22.255,28.219 22.255,36.704 37.004,36.704 37.004,40.304 			"/>
		</g>
	</g>
	<g>
		<path fill="#FFFFFF" d="M73.151,12.555c-5.76,0-10.271,4.488-10.271,10.218c0,5.494,4.603,10.138,10.057,10.138
			c5.607,0,10.172-4.546,10.172-10.138C83.108,17.137,78.64,12.555,73.151,12.555z M72.937,28.938c-3.311,0-5.997-2.77-5.997-6.166
			c0-1.704,0.596-3.198,1.728-4.333c1.077-1.156,2.751-1.915,4.27-1.915c3.422,0,6.109,2.743,6.109,6.248
			C79.046,26.284,76.419,28.938,72.937,28.938z"/>
		<path fill="#FFFFFF" d="M72.992,34.267c-3.899,0-7.436,2.374-8.942,5.955H81.94C80.426,36.641,76.89,34.267,72.992,34.267z"/>
	</g>
</g>
</svg>
