<?xml version="1.0" encoding="UTF-8" standalone="no"?>
<!-- Generator: Adobe Illustrator 16.0.4, SVG Export Plug-In . SVG Version: 6.00 Build 0)  -->

<svg
   xmlns:dc="http://purl.org/dc/elements/1.1/"
   xmlns:cc="http://creativecommons.org/ns#"
   xmlns:rdf="http://www.w3.org/1999/02/22-rdf-syntax-ns#"
   xmlns:svg="http://www.w3.org/2000/svg"
   xmlns="http://www.w3.org/2000/svg"
   xmlns:sodipodi="http://sodipodi.sourceforge.net/DTD/sodipodi-0.dtd"
   xmlns:inkscape="http://www.inkscape.org/namespaces/inkscape"
   version="1.1"
   id="Layer_1"
   x="0px"
   y="0px"
   width="25.001122"
   height="25"
   viewBox="0 0 25.001122 25.000001"
   enable-background="new 0 0 22.293 22.293"
   xml:space="preserve"
   inkscape:version="0.48.4 r9939"
   sodipodi:docname="mobile-search.svg"><metadata
     id="metadata11"><rdf:RDF><cc:Work
         rdf:about=""><dc:format>image/svg+xml</dc:format><dc:type
           rdf:resource="http://purl.org/dc/dcmitype/StillImage" /><dc:title></dc:title></cc:Work></rdf:RDF></metadata><defs
     id="defs9" /><sodipodi:namedview
     pagecolor="#ffffff"
     bordercolor="#666666"
     borderopacity="1"
     objecttolerance="10"
     gridtolerance="10"
     guidetolerance="10"
     inkscape:pageopacity="0"
     inkscape:pageshadow="2"
     inkscape:window-width="1366"
     inkscape:window-height="711"
     id="namedview7"
     showgrid="false"
     fit-margin-top="0"
     fit-margin-left="0"
     fit-margin-right="0"
     fit-margin-bottom="0"
     inkscape:zoom="10.586283"
     inkscape:cx="11.146499"
     inkscape:cy="11.146499"
     inkscape:window-x="0"
     inkscape:window-y="24"
     inkscape:window-maximized="1"
     inkscape:current-layer="Layer_1" /><g
     id="g3"
     style="fill:#ffffff"
     transform="matrix(-1.1214283,0,0,1.1214283,25.001123,0)"><path
       d="m 20.578,22.293 c -0.456,0 -0.897,-0.188 -1.206,-0.509 L 14.777,17.202 C 13.209,18.287 11.334,18.863 9.431,18.863 4.22,18.863 0,14.644 0,9.432 0,4.22 4.22,0 9.432,0 c 5.212,0 9.432,4.22 9.432,9.432 0,1.902 -0.576,3.778 -1.661,5.346 l 4.595,4.595 c 0.308,0.309 0.496,0.751 0.496,1.206 -0.001,0.937 -0.778,1.714 -1.716,1.714 z M 9.432,3.43 c -3.309,0 -6.002,2.692 -6.002,6.002 0,3.31 2.693,6.002 6.002,6.002 3.309,0 6.002,-2.692 6.002,-6.002 0,-3.31 -2.693,-6.002 -6.002,-6.002 z"
       id="path5"
       style="fill:#ffffff"
       inkscape:connector-curvature="0" /></g></svg>