<?xml version="1.0" encoding="utf-8"?>
<!-- Generator: Adobe Illustrator 16.0.4, SVG Export Plug-In . SVG Version: 6.00 Build 0)  -->
<!DOCTYPE svg PUBLIC "-//W3C//DTD SVG 1.1//EN" "http://www.w3.org/Graphics/SVG/1.1/DTD/svg11.dtd">
<svg version="1.1" id="Layer_1" xmlns="http://www.w3.org/2000/svg" xmlns:xlink="http://www.w3.org/1999/xlink" x="0px" y="0px"
	 width="46.289px" height="46.289px" viewBox="0 0 46.289 46.289" enable-background="new 0 0 46.289 46.289" xml:space="preserve">
<g>
	<path fill="#FFFFFF" d="M46.289,23.145c0,12.777-10.367,23.145-23.145,23.145S0,35.922,0,23.145C0,10.367,10.367,0,23.145,0
		S46.289,10.367,46.289,23.145z M30.708,16.273c0.151-0.03,0.302-0.572,0.392-0.693c0.181-0.211,0.422-0.331,0.663-0.452
		c0.512-0.211,1.024-0.271,1.567-0.361c0.512-0.12,1.145-0.12,1.537,0.332c-0.091-0.091,0.633-0.724,0.723-0.754
		c0.271-0.15,0.723-0.091,0.904-0.361c0.061-0.091,0.061-0.663,0.061-0.663c-0.512,0.061-0.693-0.422-0.723-0.844
		c0,0.03-0.061,0.12-0.181,0.241c0.03-0.452-0.542-0.121-0.753-0.181c-0.693-0.181-0.603-0.663-0.813-1.175
		c-0.121-0.271-0.452-0.362-0.573-0.633c-0.121-0.181-0.181-0.573-0.452-0.603c-0.181-0.03-0.512,0.633-0.572,0.603
		c-0.271-0.151-0.392,0.06-0.603,0.181c-0.181,0.121-0.331,0.061-0.512,0.151c0.542-0.181-0.241-0.482-0.512-0.422
		c0.422-0.121,0.211-0.573-0.03-0.784c0.061,0,0.09,0,0.151,0c-0.061-0.271-0.904-0.512-1.175-0.693
		c-0.271-0.181-1.718-0.482-2.019-0.301c-0.362,0.211,0.09,0.814,0.09,1.115c0.03,0.362-0.362,0.452-0.362,0.753
		c0,0.512,0.964,0.422,0.723,1.115c-0.15,0.422-0.723,0.513-0.964,0.844c-0.241,0.301,0.03,0.844,0.271,1.055
		c0.241,0.181-0.422,0.482-0.512,0.542c-0.513,0.241-0.904-0.512-1.025-0.964c-0.09-0.332-0.121-0.724-0.482-0.904
		c-0.181-0.06-0.753-0.15-0.874,0.03c-0.181-0.452-0.813-0.633-1.236-0.784c-0.603-0.211-1.115-0.211-1.748-0.121
		c0.211-0.03-0.061-0.964-0.573-0.813c0.151-0.301,0.09-0.633,0.151-0.934c0.06-0.241,0.181-0.482,0.361-0.693
		c0.061-0.121,0.724-0.813,0.513-0.844c0.512,0.06,1.084,0.09,1.507-0.332c0.271-0.271,0.392-0.723,0.663-1.024
		c0.392-0.452,0.874,0.12,1.296,0.15c0.603,0.03,0.573-0.633,0.241-0.934c0.392,0.03,0.06-0.693-0.151-0.784
		c-0.271-0.09-1.296,0.181-0.753,0.392c-0.12-0.061-0.844,1.446-1.266,0.693c-0.121-0.15-0.181-0.784-0.452-0.813
		c-0.241,0-0.392,0.271-0.482,0.452c0.151-0.392-0.844-0.663-1.055-0.693c0.452-0.301,0.09-0.633-0.241-0.813
		c-0.241-0.151-0.995-0.271-1.206-0.03c-0.572,0.693,0.603,0.783,0.904,0.964c0.09,0.06,0.452,0.271,0.241,0.422
		c-0.181,0.09-0.724,0.241-0.784,0.362c-0.181,0.271,0.211,0.572-0.061,0.844c-0.271-0.271-0.271-0.724-0.482-1.025
		c0.271,0.332-1.085,0.151-1.055,0.151c-0.452,0-1.175,0.301-1.507-0.151c-0.061-0.121-0.061-0.813,0.121-0.663
		c-0.271-0.211-0.452-0.422-0.633-0.542c-0.995,0.332-1.929,0.753-2.833,1.236c0.121,0.03,0.211,0.03,0.362-0.03
		c0.241-0.09,0.452-0.241,0.693-0.361c0.301-0.121,0.935-0.482,1.266-0.211c0.03-0.061,0.121-0.121,0.151-0.151
		c0.211,0.241,0.422,0.482,0.603,0.753c-0.241-0.121-0.633-0.061-0.904-0.03c-0.211,0.061-0.573,0.121-0.663,0.362
		c0.09,0.15,0.211,0.392,0.151,0.542c-0.392-0.271-0.693-0.723-1.236-0.784c-0.241,0-0.482,0-0.663,0.03
		C11,7.835,8.559,10.156,6.811,12.928c0.121,0.121,0.241,0.211,0.362,0.242c0.301,0.09,0,0.964,0.573,0.512
		c0.181,0.15,0.211,0.361,0.09,0.572c0.03-0.029,1.235,0.754,1.326,0.814c0.211,0.181,0.542,0.392,0.633,0.633
		c0.06,0.211-0.121,0.452-0.302,0.542c-0.03-0.061-0.482-0.512-0.542-0.392c-0.09,0.15,0,0.965,0.332,0.935
		c-0.482,0.03-0.271,1.898-0.392,2.26c0,0.03,0.06,0.03,0.06,0.03c-0.09,0.361,0.211,1.778,0.814,1.627
		c-0.392,0.091,0.693,1.478,0.844,1.567c0.392,0.271,0.844,0.452,1.115,0.844c0.301,0.422,0.301,1.055,0.723,1.387
		c-0.121,0.361,0.633,0.783,0.603,1.296c-0.06,0.029-0.09,0.029-0.15,0.06c0.15,0.422,0.723,0.422,0.934,0.814
		c0.121,0.24,0,0.813,0.392,0.692c0.061-0.663-0.392-1.325-0.723-1.868c-0.181-0.302-0.362-0.572-0.512-0.874
		c-0.151-0.271-0.181-0.603-0.301-0.904c0.12,0.03,0.783,0.271,0.723,0.362c-0.241,0.603,0.964,1.657,1.296,2.049
		c0.09,0.091,0.783,0.994,0.422,0.994c0.392,0,0.934,0.604,1.115,0.904c0.271,0.452,0.211,1.024,0.392,1.507
		c0.181,0.603,1.024,0.874,1.507,1.146c0.422,0.211,0.783,0.512,1.205,0.663c0.633,0.241,0.784,0.03,1.326-0.061
		c0.784-0.12,0.874,0.754,1.507,1.085c0.392,0.211,1.235,0.513,1.658,0.331c-0.181,0.061,0.633,1.296,0.693,1.387
		c0.271,0.361,0.784,0.542,1.085,0.904c0.09-0.061,0.181-0.151,0.211-0.271c-0.121,0.331,0.452,0.964,0.753,0.904
		c0.332-0.061,0.422-0.724,0.422-0.965c-0.603,0.302-1.145,0.061-1.477-0.542c-0.061-0.15-0.542-0.995-0.121-0.995
		c0.573,0,0.181-0.451,0.121-0.873c-0.061-0.423-0.482-0.693-0.693-1.056c-0.181,0.362-0.783,0.271-0.964-0.029
		c0,0.09-0.09,0.24-0.09,0.361c-0.15,0-0.301,0.03-0.452-0.03c0.061-0.361,0.09-0.813,0.181-1.205
		c0.15-0.543,1.145-1.598-0.151-1.537c-0.452,0.03-0.633,0.211-0.784,0.603c-0.15,0.361-0.09,0.693-0.512,0.874
		c-0.271,0.12-1.175,0.061-1.446-0.091c-0.573-0.331-0.964-1.386-0.964-1.988c-0.03-0.814,0.392-1.537,0-2.291
		c0.181-0.15,0.361-0.452,0.572-0.603c0.181-0.12,0.392,0.091,0.482-0.271c-0.09-0.06-0.211-0.181-0.241-0.181
		c0.452,0.211,1.296-0.301,1.688,0c0.241,0.181,0.512,0.241,0.663-0.06c0.03-0.091-0.211-0.452-0.09-0.693
		c0.09,0.512,0.422,0.603,0.874,0.271c0.181,0.181,0.663,0.12,0.994,0.301c0.332,0.211,0.392,0.543,0.784,0.091
		c0.241,0.361,0.271,0.361,0.362,0.723c0.09,0.332,0.271,1.176,0.572,1.326c0.633,0.392,0.482-0.663,0.422-1.024
		c-0.03-0.03-0.03-1.024-0.061-1.024c-0.964-0.211-0.603-0.965-0.06-1.477c0.09-0.061,0.783-0.302,1.085-0.543
		c0.271-0.241,0.603-0.663,0.452-1.055c0.151,0,0.271-0.12,0.332-0.271c-0.09-0.03-0.452-0.331-0.512-0.301
		c0.211-0.121,0.181-0.302,0.06-0.482c0.302-0.181,0.151-0.513,0.452-0.633c0.332,0.452,0.995-0.061,0.663-0.422
		c0.301-0.422,0.995-0.211,1.175-0.603c0.452,0.12,0.121-0.452,0.362-0.784c0.211-0.271,0.572-0.271,0.844-0.422
		c0,0.03,0.753-0.422,0.512-0.452c0.512,0.061,1.537-0.481,0.753-0.934c0.121-0.271-0.271-0.392-0.542-0.452
		c0.211-0.061,0.482,0.061,0.663-0.061c0.392-0.271,0.121-0.392-0.211-0.482c-0.422-0.12-0.964,0.151-1.296,0.362
		C31.161,15.882,31.01,16.213,30.708,16.273z M37.067,36.435c-0.181-0.181-0.512-0.12-0.753-0.241
		c-0.241-0.09-0.422-0.181-0.723-0.241c0.06-0.603-0.603-0.813-1.025-1.115c-0.392-0.301-0.633-0.633-1.205-0.512
		c-0.061,0.03-0.663,0.241-0.542,0.361c-0.392-0.331-0.573-0.512-1.085-0.663c-0.482-0.15-0.814-0.753-1.296-0.211
		c-0.241,0.241-0.121,0.603-0.241,0.844c-0.392-0.331,0.362-0.723,0.061-1.085c-0.362-0.422-0.995,0.271-1.296,0.452
		c-0.181,0.151-0.392,0.211-0.513,0.392c-0.15,0.211-0.211,0.482-0.331,0.693c-0.091-0.241-0.603-0.181-0.633-0.361
		c0.12,0.723,0.12,1.477,0.271,2.2c0.09,0.422,0,1.114-0.362,1.446c-0.361,0.331-0.813,0.693-0.874,1.205
		c-0.06,0.362,0.03,0.693,0.362,0.784c0.03,0.451-0.482,0.783-0.452,1.266c0,0.03,0.03,0.331,0.061,0.481
		C30.618,41.407,34.295,39.357,37.067,36.435z"/>
</g>
</svg>
