<?xml version="1.0" encoding="utf-8"?>
<!-- Generator: Adobe Illustrator 18.1.1, SVG Export Plug-In . SVG Version: 6.00 Build 0)  -->
<svg version="1.1" id="Layer_1" xmlns="http://www.w3.org/2000/svg" xmlns:xlink="http://www.w3.org/1999/xlink" x="0px" y="0px"
	 viewBox="-397 268.3 15.4 25.7" enable-background="new -397 268.3 15.4 25.7" xml:space="preserve">
<g>
	<path fill="#FFFFFF" d="M-381.6,270.9v20.6c0,0.7-0.3,1.3-0.8,1.8c-0.5,0.5-1.1,0.8-1.8,0.8h-10.3c-0.7,0-1.3-0.3-1.8-0.8
		c-0.5-0.5-0.8-1.1-0.8-1.8v-20.6c0-0.7,0.3-1.3,0.8-1.8c0.5-0.5,1.1-0.8,1.8-0.8h10.3c0.7,0,1.3,0.3,1.8,0.8
		C-381.8,269.6-381.6,270.2-381.6,270.9z M-383.5,288.2v-14.1c0-0.2-0.1-0.3-0.2-0.5c-0.1-0.1-0.3-0.2-0.5-0.2h-10.3
		c-0.2,0-0.3,0.1-0.5,0.2s-0.2,0.3-0.2,0.5v14.1c0,0.2,0.1,0.3,0.2,0.5c0.1,0.1,0.3,0.2,0.5,0.2h10.3c0.2,0,0.3-0.1,0.5-0.2
		C-383.6,288.5-383.5,288.4-383.5,288.2z M-387.4,271.2c0-0.2-0.1-0.3-0.3-0.3h-3.2c-0.2,0-0.3,0.1-0.3,0.3s0.1,0.3,0.3,0.3h3.2
		C-387.5,271.5-387.4,271.4-387.4,271.2z M-388.2,292.6c0.3-0.3,0.5-0.7,0.5-1.1s-0.2-0.8-0.5-1.1c-0.3-0.3-0.7-0.5-1.1-0.5
		c-0.4,0-0.8,0.2-1.1,0.5c-0.3,0.3-0.5,0.7-0.5,1.1s0.2,0.8,0.5,1.1c0.3,0.3,0.7,0.5,1.1,0.5C-388.8,293-388.5,292.9-388.2,292.6z"
		/>
</g>
</svg>
