<?xml version="1.0" encoding="UTF-8" standalone="no"?>
<!-- Generator: Adobe Illustrator 16.0.4, SVG Export Plug-In . SVG Version: 6.00 Build 0)  -->

<svg
   xmlns:dc="http://purl.org/dc/elements/1.1/"
   xmlns:cc="http://creativecommons.org/ns#"
   xmlns:rdf="http://www.w3.org/1999/02/22-rdf-syntax-ns#"
   xmlns:svg="http://www.w3.org/2000/svg"
   xmlns="http://www.w3.org/2000/svg"
   xmlns:sodipodi="http://sodipodi.sourceforge.net/DTD/sodipodi-0.dtd"
   xmlns:inkscape="http://www.inkscape.org/namespaces/inkscape"
   version="1.1"
   id="Layer_1"
   x="0px"
   y="0px"
   width="28"
   height="24.198406"
   viewBox="-2.235 0.661 28 24.198407"
   enable-background="new -2.235 0.661 84.472 73.003"
   xml:space="preserve"
   inkscape:version="0.48.4 r9939"
   sodipodi:docname="reviewapplicants-icon-01.svg"><metadata
     id="metadata21"><rdf:RDF><cc:Work
         rdf:about=""><dc:format>image/svg+xml</dc:format><dc:type
           rdf:resource="http://purl.org/dc/dcmitype/StillImage" /><dc:title></dc:title></cc:Work></rdf:RDF></metadata><defs
     id="defs19" /><sodipodi:namedview
     pagecolor="#ffffff"
     bordercolor="#666666"
     borderopacity="1"
     objecttolerance="10"
     gridtolerance="10"
     guidetolerance="10"
     inkscape:pageopacity="0"
     inkscape:pageshadow="2"
     inkscape:window-width="1366"
     inkscape:window-height="711"
     id="namedview17"
     showgrid="false"
     fit-margin-top="0"
     fit-margin-left="0"
     fit-margin-right="0"
     fit-margin-bottom="0"
     inkscape:zoom="3.2327439"
     inkscape:cx="42.235999"
     inkscape:cy="36.502499"
     inkscape:window-x="0"
     inkscape:window-y="24"
     inkscape:window-maximized="1"
     inkscape:current-layer="Layer_1" /><g
     id="g2998"
     transform="matrix(0.33146687,0,0,0.33146687,-1.4941726,0.4419004)"><path
       style="fill:#ffffff"
       id="path3"
       d="m 32.554,50.886 c -1.525,-1.555 -3.291,-2.844 -5.225,-3.83 1.423,1.651 3.203,2.977 5.225,3.83"
       inkscape:connector-curvature="0" /><path
       style="fill:#ffffff"
       id="path5"
       d="M 15.178,45.082 C 8.393,46.142 2.504,50.664 -0.208,57.065 H 24.37 C 20.168,54.164 16.906,49.951 15.178,45.082"
       inkscape:connector-curvature="0" /><path
       style="fill:#ffffff"
       id="path7"
       d="m 50.006,16.313 c 0.593,-1.321 1.404,-2.528 2.458,-3.581 2.221,-2.374 5.681,-3.924 8.809,-3.924 7.062,0 12.589,5.628 12.589,12.818 0,7.133 -5.292,12.524 -12.353,12.644 0.107,0.937 0.182,1.882 0.182,2.848 0,1.824 -0.228,3.594 -0.613,5.305 0.063,0 0.132,0.012 0.195,0.012 11.561,0.002 20.965,-9.333 20.965,-20.809 0,-11.561 -9.212,-20.964 -20.524,-20.964 -8.896,0 -16.335,5.16 -19.521,12.687 2.803,0.514 5.436,1.533 7.813,2.964"
       inkscape:connector-curvature="0" /><path
       style="fill:#ffffff"
       id="path9"
       d="m 37.325,50.501 c -6.818,0 -12.37,-5.68 -12.37,-12.658 0,-3.488 1.229,-6.561 3.564,-8.89 2.223,-2.377 5.679,-3.927 8.805,-3.927 7.062,0 12.595,5.628 12.595,12.817 0.001,7.215 -5.411,12.658 -12.594,12.658 m 0.442,-33.623 c -11.876,0 -21.179,9.208 -21.179,20.965 0,11.273 9.494,20.809 20.735,20.809 11.561,0 20.966,-9.33 20.966,-20.809 0.002,-11.56 -9.204,-20.965 -20.522,-20.965"
       inkscape:connector-curvature="0" /><path
       style="fill:#ffffff"
       id="path11"
       d="m 37.442,61.437 c -8.039,0 -15.336,4.875 -18.441,12.228 H 55.892 C 52.771,66.312 45.479,61.437 37.442,61.437"
       inkscape:connector-curvature="0" /><path
       style="fill:#ffffff"
       id="path13"
       d="m 14.13,41.935 c -0.332,-1.562 -0.512,-3.174 -0.512,-4.812 0,-1.281 0.125,-2.525 0.308,-3.744 -4.561,-1.865 -7.795,-6.424 -7.795,-11.748 0,-3.488 1.229,-6.562 3.562,-8.893 2.224,-2.376 5.684,-3.927 8.81,-3.927 4.49,0 8.354,2.28 10.579,5.786 2.637,-1 5.508,-1.574 8.534,-1.619 C 34.381,5.722 27.238,0.661 18.943,0.661 c -11.878,0 -21.178,9.207 -21.178,20.966 0,9.771 7.14,18.227 16.365,20.308"
       inkscape:connector-curvature="0" /><path
       style="fill:#ffffff"
       id="path15"
       d="m 60.558,45.06 c -1.737,5.021 -5.086,9.299 -9.456,12.193 H 79.83 C 76.711,49.901 69.42,45.026 61.383,45.026 c -0.279,0 -0.551,0.024 -0.825,0.034"
       inkscape:connector-curvature="0" /></g></svg>