<svg xmlns="http://www.w3.org/2000/svg" xmlns:xlink="http://www.w3.org/1999/xlink" preserveAspectRatio="xMidYMid" width="100" height="100" viewBox="0 0 100 100">
  <defs>
    <style>

      .cls-2 {
        fill: #00f6ff;
      }
    </style>
  </defs>
  <path d="M50.000,100.000 C22.431,100.000 0.000,77.570 0.000,50.000 C0.000,22.431 22.431,0.000 50.000,0.000 C77.570,0.000 100.000,22.431 100.000,50.000 C100.000,77.570 77.570,100.000 50.000,100.000 ZM50.000,2.222 C23.654,2.222 2.222,23.655 2.222,50.000 C2.222,76.346 23.654,97.778 50.000,97.778 C76.346,97.778 97.778,76.346 97.778,50.000 C97.778,23.655 76.346,2.222 50.000,2.222 ZM24.444,68.449 C24.444,64.547 26.888,61.053 30.527,59.753 C30.527,59.753 43.611,54.898 43.611,54.898 C43.611,54.898 43.611,49.515 43.611,49.515 C39.189,46.558 36.191,40.947 36.191,34.514 C36.191,25.018 42.713,17.292 50.729,17.292 C58.746,17.292 65.267,25.018 65.267,34.514 C65.267,40.569 62.610,45.893 58.611,48.964 C58.611,48.964 58.611,54.900 58.611,54.900 C58.611,54.900 71.615,59.757 71.615,59.757 C75.295,61.072 77.778,64.566 77.778,68.449 C77.778,68.449 77.778,73.820 77.778,73.820 C77.778,73.820 24.444,73.820 24.444,73.820 C24.444,73.820 24.444,68.449 24.444,68.449 ZM50.729,19.514 C44.856,19.514 39.938,24.552 38.713,31.262 C39.956,31.798 41.207,32.060 42.674,32.060 C46.261,32.060 50.525,29.918 51.799,27.474 C51.799,27.474 52.741,25.671 52.741,25.671 C52.741,25.671 53.750,27.437 53.750,27.437 C56.102,31.556 58.589,32.863 62.602,32.079 C62.695,32.062 62.776,32.068 62.865,32.058 C61.898,24.955 56.831,19.514 50.729,19.514 ZM63.045,34.514 C63.045,34.429 63.035,34.346 63.034,34.262 C63.030,34.262 63.026,34.262 63.021,34.263 C62.168,34.427 61.356,34.510 60.586,34.510 C57.372,34.510 54.857,33.056 52.726,29.985 C50.521,32.457 46.413,34.282 42.674,34.282 C41.150,34.282 39.778,34.043 38.453,33.559 C38.437,33.876 38.414,34.192 38.414,34.514 C38.414,42.785 43.939,49.514 50.729,49.514 C57.520,49.514 63.045,42.785 63.045,34.514 ZM26.667,71.597 C26.667,71.597 75.556,71.597 75.556,71.597 C75.556,71.597 75.556,68.449 75.556,68.449 C75.556,65.549 73.622,62.835 70.853,61.845 C70.853,61.845 56.389,56.441 56.389,56.441 C56.389,56.441 56.389,50.377 56.389,50.377 C54.649,51.252 52.736,51.736 50.729,51.736 C49.009,51.736 47.366,51.362 45.833,50.710 C45.833,50.710 45.833,56.443 45.833,56.443 C45.833,56.443 31.287,61.841 31.287,61.841 C28.518,62.830 26.667,65.484 26.667,68.449 C26.667,68.449 26.667,71.597 26.667,71.597 Z" id="path-1" class="cls-2" fill-rule="evenodd"/>
</svg>
