<svg xmlns="http://www.w3.org/2000/svg" xmlns:xlink="http://www.w3.org/1999/xlink" preserveAspectRatio="xMidYMid" width="100" height="100" viewBox="0 0 100 100">
  <defs>
    <style>

      .cls-2 {
        fill: #00f6ff;
      }
    </style>
  </defs>
  <path d="M50.000,100.000 C22.431,100.000 0.000,77.570 0.000,50.000 C0.000,22.430 22.431,-0.000 50.000,-0.000 C77.569,-0.000 100.000,22.430 100.000,50.000 C100.000,77.570 77.569,100.000 50.000,100.000 ZM50.000,2.222 C23.654,2.222 2.222,23.656 2.222,50.000 C2.222,76.344 23.654,97.778 50.000,97.778 C76.345,97.778 97.778,76.344 97.778,50.000 C97.778,23.656 76.345,2.222 50.000,2.222 ZM64.462,65.108 C64.462,65.108 62.773,65.108 62.773,65.108 C62.773,65.108 62.773,72.396 62.773,72.396 C62.773,75.689 60.291,78.173 56.996,78.173 C56.996,78.173 36.467,78.173 36.467,78.173 C33.227,78.173 30.690,75.635 30.690,72.396 C30.690,72.396 30.690,47.201 30.690,47.201 C30.690,46.586 31.187,46.089 31.801,46.089 C31.801,46.089 31.870,46.089 31.870,46.089 C31.870,46.089 28.941,40.232 28.941,40.232 C28.911,40.172 28.902,40.105 28.883,40.041 C28.870,39.996 28.850,39.954 28.843,39.909 C28.841,39.896 28.834,39.885 28.833,39.873 C28.833,39.873 27.899,32.408 27.899,32.408 C27.847,31.990 28.036,31.579 28.385,31.346 C28.739,31.112 29.191,31.099 29.553,31.305 C29.553,31.305 36.085,35.038 36.085,35.038 C36.097,35.045 36.106,35.056 36.118,35.064 C36.144,35.080 36.165,35.102 36.191,35.121 C36.276,35.184 36.350,35.257 36.413,35.342 C36.426,35.359 36.446,35.368 36.458,35.386 C36.468,35.401 36.469,35.419 36.478,35.434 C36.493,35.459 36.515,35.479 36.528,35.506 C36.528,35.506 41.818,46.089 41.818,46.089 C41.818,46.089 41.888,46.089 41.888,46.089 C41.888,46.089 41.888,22.939 41.888,22.939 C41.888,22.324 42.385,21.827 42.999,21.827 C42.999,21.827 54.197,21.827 54.197,21.827 C54.811,21.827 55.308,22.324 55.308,22.939 C55.308,22.939 55.308,44.414 55.308,44.414 C55.308,44.414 60.123,35.668 60.123,35.668 C59.696,35.238 59.350,34.747 59.121,34.201 C58.631,33.028 58.661,31.671 59.206,30.378 C59.492,29.702 59.967,29.103 60.471,28.467 C61.814,26.770 62.576,25.631 61.306,23.698 C61.057,23.316 61.063,22.821 61.326,22.448 C61.591,22.075 62.051,21.898 62.496,22.008 C67.788,23.289 69.709,27.995 69.251,31.824 C68.894,34.820 67.157,36.902 64.841,37.259 C64.841,37.259 61.493,46.089 61.493,46.089 C61.493,46.089 61.662,46.089 61.662,46.089 C62.276,46.089 62.773,46.586 62.773,47.201 C62.773,47.201 62.773,49.822 62.773,49.822 C62.773,49.822 64.462,49.822 64.462,49.822 C68.891,49.822 72.105,53.036 72.105,57.465 C72.105,61.895 68.891,65.108 64.462,65.108 ZM30.380,34.337 C30.380,34.337 30.814,37.814 30.814,37.814 C30.814,37.814 33.422,36.076 33.422,36.076 C33.422,36.076 30.380,34.337 30.380,34.337 ZM35.102,37.626 C35.102,37.626 31.367,40.116 31.367,40.116 C31.367,40.116 34.353,46.089 34.353,46.089 C34.353,46.089 39.336,46.089 39.336,46.089 C39.336,46.089 35.102,37.626 35.102,37.626 ZM48.598,34.892 C48.598,34.892 53.086,34.892 53.086,34.892 C53.086,34.892 53.086,33.381 53.086,33.381 C53.086,33.381 50.464,33.381 50.464,33.381 C49.850,33.381 49.353,32.884 49.353,32.270 C49.353,31.656 49.850,31.159 50.464,31.159 C50.464,31.159 53.086,31.159 53.086,31.159 C53.086,31.159 53.086,29.649 53.086,29.649 C53.086,29.649 48.598,29.649 48.598,29.649 C47.984,29.649 47.487,29.152 47.487,28.537 C47.487,27.923 47.984,27.426 48.598,27.426 C48.598,27.426 53.086,27.426 53.086,27.426 C53.086,27.426 53.086,24.050 53.086,24.050 C53.086,24.050 44.110,24.050 44.110,24.050 C44.110,24.050 44.110,46.089 44.110,46.089 C44.110,46.089 53.086,46.089 53.086,46.089 C53.086,46.089 53.086,42.713 53.086,42.713 C53.086,42.713 50.464,42.713 50.464,42.713 C49.850,42.713 49.353,42.216 49.353,41.601 C49.353,40.987 49.850,40.491 50.464,40.491 C50.464,40.491 53.086,40.491 53.086,40.491 C53.086,40.491 53.086,37.114 53.086,37.114 C53.086,37.114 48.598,37.114 48.598,37.114 C47.984,37.114 47.487,36.617 47.487,36.003 C47.487,35.388 47.984,34.892 48.598,34.892 ZM54.197,48.312 C54.197,48.312 42.999,48.312 42.999,48.312 C42.999,48.312 41.176,48.312 41.176,48.312 C41.176,48.312 41.133,48.312 41.133,48.312 C41.133,48.312 33.668,48.312 33.668,48.312 C33.668,48.312 32.912,48.312 32.912,48.312 C32.912,48.312 32.912,72.396 32.912,72.396 C32.912,74.389 34.473,75.950 36.467,75.950 C36.467,75.950 56.996,75.950 56.996,75.950 C59.056,75.950 60.551,74.455 60.551,72.396 C60.551,72.396 60.551,48.312 60.551,48.312 C60.551,48.312 54.197,48.312 54.197,48.312 ZM64.136,35.111 C65.970,35.111 66.849,33.199 67.044,31.561 C67.318,29.284 66.478,26.597 64.160,25.092 C64.360,27.136 63.118,28.702 62.211,29.847 C61.806,30.360 61.421,30.844 61.254,31.242 C60.937,31.991 60.909,32.717 61.172,33.343 C61.434,33.973 61.977,34.475 62.741,34.796 C63.236,35.005 63.704,35.111 64.136,35.111 ZM62.542,37.051 C62.359,36.995 62.178,36.956 61.994,36.882 C61.994,36.882 56.925,46.089 56.925,46.089 C56.925,46.089 59.115,46.089 59.115,46.089 C59.115,46.089 62.542,37.051 62.542,37.051 ZM64.462,52.044 C64.462,52.044 62.773,52.044 62.773,52.044 C62.773,52.044 62.773,62.886 62.773,62.886 C62.773,62.886 64.462,62.886 64.462,62.886 C67.654,62.886 69.883,60.658 69.883,57.465 C69.883,54.273 67.654,52.044 64.462,52.044 Z" id="path-1" class="cls-2" fill-rule="evenodd"/>
</svg>
