<svg xmlns="http://www.w3.org/2000/svg" xmlns:xlink="http://www.w3.org/1999/xlink" preserveAspectRatio="xMidYMid" width="100" height="100" viewBox="0 0 100 100">
  <defs>
    <style>

      .cls-2 {
        fill: #00f6ff;
      }
    </style>
  </defs>
  <path d="M50.000,100.000 C22.430,100.000 -0.000,77.570 -0.000,50.000 C-0.000,22.431 22.430,0.000 50.000,0.000 C77.571,0.000 100.000,22.431 100.000,50.000 C100.000,77.570 77.571,100.000 50.000,100.000 ZM50.000,2.222 C23.656,2.222 2.222,23.655 2.222,50.000 C2.222,76.346 23.656,97.778 50.000,97.778 C76.344,97.778 97.778,76.346 97.778,50.000 C97.778,23.655 76.344,2.222 50.000,2.222 ZM74.258,75.373 C74.258,75.373 25.738,75.373 25.738,75.373 C25.124,75.373 24.627,74.877 24.627,74.262 C24.627,74.262 24.627,25.742 24.627,25.742 C24.627,25.128 25.124,24.631 25.738,24.631 C26.352,24.631 26.849,25.128 26.849,25.742 C26.849,25.742 26.849,73.151 26.849,73.151 C26.849,73.151 74.258,73.151 74.258,73.151 C74.872,73.151 75.369,73.648 75.369,74.262 C75.369,74.877 74.872,75.373 74.258,75.373 ZM73.611,67.485 C73.611,67.485 65.413,67.485 65.413,67.485 C64.798,67.485 64.301,66.988 64.301,66.374 C64.301,66.374 64.301,25.742 64.301,25.742 C64.301,25.128 64.798,24.631 65.413,24.631 C65.413,24.631 73.611,24.631 73.611,24.631 C74.225,24.631 74.722,25.128 74.722,25.742 C74.722,25.742 74.722,66.374 74.722,66.374 C74.722,66.988 74.225,67.485 73.611,67.485 ZM72.500,26.853 C72.500,26.853 66.524,26.853 66.524,26.853 C66.524,26.853 66.524,65.263 66.524,65.263 C66.524,65.263 72.500,65.263 72.500,65.263 C72.500,65.263 72.500,26.853 72.500,26.853 ZM57.774,67.485 C57.774,67.485 49.575,67.485 49.575,67.485 C48.960,67.485 48.464,66.988 48.464,66.374 C48.464,66.374 48.464,40.632 48.464,40.632 C48.464,40.018 48.960,39.520 49.575,39.520 C49.575,39.520 57.774,39.520 57.774,39.520 C58.388,39.520 58.885,40.018 58.885,40.632 C58.885,40.632 58.885,66.374 58.885,66.374 C58.885,66.988 58.388,67.485 57.774,67.485 ZM56.662,41.743 C56.662,41.743 50.686,41.743 50.686,41.743 C50.686,41.743 50.686,65.263 50.686,65.263 C50.686,65.263 56.662,65.263 56.662,65.263 C56.662,65.263 56.662,41.743 56.662,41.743 ZM41.936,67.485 C41.936,67.485 33.741,67.485 33.741,67.485 C33.127,67.485 32.630,66.988 32.630,66.374 C32.630,66.374 32.630,54.892 32.630,54.892 C32.630,54.277 33.127,53.780 33.741,53.780 C33.741,53.780 41.936,53.780 41.936,53.780 C42.550,53.780 43.047,54.277 43.047,54.892 C43.047,54.892 43.047,66.374 43.047,66.374 C43.047,66.988 42.550,67.485 41.936,67.485 ZM40.825,56.003 C40.825,56.003 34.852,56.003 34.852,56.003 C34.852,56.003 34.852,65.263 34.852,65.263 C34.852,65.263 40.825,65.263 40.825,65.263 C40.825,65.263 40.825,56.003 40.825,56.003 Z" id="path-1" class="cls-2" fill-rule="evenodd"/>
</svg>
