<?xml version="1.0" encoding="utf-8"?>
<!-- Generator: Adobe Illustrator 18.1.0, SVG Export Plug-In . SVG Version: 6.00 Build 0)  -->
<svg version="1.1" id="Layer_1" xmlns="http://www.w3.org/2000/svg" xmlns:xlink="http://www.w3.org/1999/xlink" x="0px" y="0px"
	 viewBox="2.8 -0.7 100 100" enable-background="new 2.8 -0.7 100 100" xml:space="preserve">
<g>
	<g>
		<path fill="#7BD454" d="M52.8,99.3c-27.6,0-50-22.4-50-50c0-27.6,22.4-50,50-50c27.6,0,50,22.4,50,50
			C102.8,76.9,80.4,99.3,52.8,99.3L52.8,99.3z M52.8,1.5C26.5,1.5,5.1,22.9,5.1,49.3s21.4,47.8,47.8,47.8
			c26.3,0,47.8-21.4,47.8-47.8S79.2,1.5,52.8,1.5L52.8,1.5z"/>
	</g>
</g>
<g>
	<g>
		<path fill="#7BD454" d="M61.2,65.4H44.5c-0.3,0-0.6-0.1-0.8-0.3c-0.2-0.2-0.3-0.5-0.3-0.8c0.1-1.2,0-4.8-1.3-6.5
			c-6.6-8.5-6.8-16.7-6.8-16.8c0-9.7,7.9-17.5,17.5-17.5c9.7,0,17.5,7.9,17.5,17.5c0,0.1-0.2,8.2-6.8,16.8c-1.3,1.7-1.3,5.3-1.2,6.5
			c0,0.3-0.1,0.6-0.3,0.8C61.8,65.3,61.5,65.4,61.2,65.4L61.2,65.4z M45.6,63.2h14.5c0-1.7,0.2-4.9,1.7-6.8c6.2-8,6.4-15.4,6.4-15.4
			c0-8.5-6.9-15.3-15.3-15.3c-8.5,0-15.3,6.9-15.3,15.3c0,0.1,0.2,7.5,6.3,15.4C45.3,58.3,45.6,61.5,45.6,63.2L45.6,63.2z"/>
	</g>
	<g>
		<path fill="#7BD454" d="M61.5,70.3H44.1c-0.6,0-1.1-0.5-1.1-1.1c0-0.6,0.5-1.1,1.1-1.1h17.4c0.6,0,1.1,0.5,1.1,1.1
			C62.7,69.8,62.2,70.3,61.5,70.3L61.5,70.3z"/>
	</g>
	<g>
		<path fill="#7BD454" d="M59.4,75.2H46.2c-0.6,0-1.1-0.5-1.1-1.1c0-0.6,0.5-1.1,1.1-1.1h13.2c0.6,0,1.1,0.5,1.1,1.1
			C60.5,74.7,60,75.2,59.4,75.2L59.4,75.2z"/>
	</g>
	<g>
		<g>
			<polygon fill="#7BD454" points="48.9,64 46,40.8 48.2,40.5 51.1,63.7 48.9,64 			"/>
		</g>
		<g>
			<polygon fill="#7BD454" points="56.8,64 54.6,63.7 57.4,40.5 59.6,40.8 56.8,64 			"/>
		</g>
	</g>
	<g>
		<path fill="#7BD454" d="M56.8,46.3c-0.7,0-1.1-0.4-1.4-0.8c-0.3,0.4-0.7,0.8-1.4,0.8c-0.7,0-1.1-0.4-1.4-0.8
			c-0.3,0.4-0.7,0.8-1.4,0.8c-0.7,0-1.1-0.4-1.4-0.8c-0.3,0.4-0.7,0.8-1.4,0.8c-1.1,0-1.5-1-1.7-1.4c0-0.1-0.1-0.3-0.2-0.3
			c0,0.1,0.2,0.2,0.5,0.2v-2.2c0.7,0,1.1,0.4,1.4,0.8c0.3-0.4,0.7-0.8,1.4-0.8c0.7,0,1.1,0.4,1.4,0.8c0.3-0.4,0.7-0.8,1.4-0.8
			c0.7,0,1.1,0.4,1.4,0.8c0.3-0.4,0.7-0.8,1.4-0.8c0.7,0,1.1,0.4,1.4,0.8c0.3-0.4,0.7-0.8,1.4-0.8v2.2c0.3,0,0.4-0.1,0.5-0.2
			c0,0-0.1,0.2-0.2,0.3C58.3,45.4,57.9,46.3,56.8,46.3L56.8,46.3z"/>
	</g>
</g>
</svg>
