<?xml version="1.0" encoding="utf-8"?>
<!-- Generator: Adobe Illustrator 18.1.0, SVG Export Plug-In . SVG Version: 6.00 Build 0)  -->
<svg version="1.1" id="Layer_1" xmlns="http://www.w3.org/2000/svg" xmlns:xlink="http://www.w3.org/1999/xlink" x="0px" y="0px"
	 viewBox="0 0 100 100" enable-background="new 0 0 100 100" xml:space="preserve">
<g>
	<g>
		<path fill="#7BD454" d="M50,100C22.4,100,0,77.6,0,50C0,22.4,22.4,0,50,0c27.6,0,50,22.4,50,50C100,77.6,77.6,100,50,100L50,100z
			 M50,2.2C23.7,2.2,2.2,23.7,2.2,50c0,26.3,21.4,47.8,47.8,47.8S97.8,76.3,97.8,50C97.8,23.7,76.3,2.2,50,2.2L50,2.2z"/>
	</g>
</g>
<g>
	<g>
		<path fill="#7BD454" d="M46.8,67.4c-11.6,0-21-9.4-21-21c0-11.6,9.4-21,21-21.1c11.6,0,21,9.4,21,21
			C67.8,57.9,58.4,67.4,46.8,67.4L46.8,67.4z M46.8,27.5C36.4,27.5,28,36,27.9,46.3c0,10.4,8.4,18.8,18.8,18.8
			c10.4,0,18.8-8.4,18.8-18.8C65.6,36,57.1,27.5,46.8,27.5L46.8,27.5z"/>
	</g>
	<g>
		<path fill="#7BD454" d="M34.3,46.3h-2.2c0-8.1,6.6-14.7,14.7-14.7v2.2C39.9,33.9,34.3,39.5,34.3,46.3L34.3,46.3z"/>
	</g>
	<g>
		<path fill="#7BD454" d="M73.2,74.7c-0.3,0-0.6-0.1-0.8-0.3L60,62c-0.4-0.4-0.4-1.1,0-1.6c0.4-0.4,1.1-0.4,1.6,0l12.4,12.4
			c0.4,0.4,0.4,1.1,0,1.6C73.7,74.6,73.4,74.7,73.2,74.7L73.2,74.7z"/>
	</g>
</g>
</svg>
