<?xml version="1.0" encoding="utf-8"?>
<!-- Generator: Adobe Illustrator 18.1.0, SVG Export Plug-In . SVG Version: 6.00 Build 0)  -->
<svg version="1.1" id="Layer_1" xmlns="http://www.w3.org/2000/svg" xmlns:xlink="http://www.w3.org/1999/xlink" x="0px" y="0px"
	 viewBox="3.1 -0.7 100 100" enable-background="new 3.1 -0.7 100 100" xml:space="preserve">
<g>
	<g>
		<path fill="#7BD454" d="M53.1,99.3c-27.6,0-50-22.4-50-50c0-27.6,22.4-50,50-50c27.6,0,50,22.4,50,50
			C103.1,76.9,80.7,99.3,53.1,99.3L53.1,99.3z M53.1,1.5C26.8,1.5,5.3,23,5.3,49.3c0,26.3,21.4,47.8,47.8,47.8s47.8-21.4,47.8-47.8
			C100.9,23,79.4,1.5,53.1,1.5L53.1,1.5z"/>
	</g>
</g>
<g>
	<g>
		<path fill="#7BD454" d="M49.9,66.7c-11.6,0-21-9.4-21-21c0-11.6,9.4-21,21-21.1c11.6,0,21,9.4,21,21
			C70.9,57.3,61.5,66.7,49.9,66.7L49.9,66.7z M49.9,26.8c-10.4,0-18.8,8.5-18.8,18.8c0,10.4,8.4,18.8,18.8,18.8
			c10.4,0,18.8-8.4,18.8-18.8C68.7,35.3,60.2,26.8,49.9,26.8L49.9,26.8z"/>
	</g>
	<g>
		<path fill="#7BD454" d="M76.3,74c-0.3,0-0.6-0.1-0.8-0.3L63.1,61.3c-0.4-0.4-0.4-1.1,0-1.6c0.4-0.4,1.1-0.4,1.6,0L77,72.1
			c0.4,0.4,0.4,1.1,0,1.6C76.8,73.9,76.5,74,76.3,74L76.3,74z"/>
	</g>
</g>
<g>
	<g>
		<path fill="#7BD454" d="M44.8,50.7l0.3-0.3c1.3,1.3,3,2.2,4.9,2.3v-7.3c-3.1-0.7-4.7-1.7-4.7-3.9v0c0-2.1,1.8-3.8,4.7-3.8v-1.3
			h0.4v1.3c1.9,0.1,3.3,0.7,4.5,1.8l-0.3,0.4c-1.2-1-2.4-1.7-4.2-1.8v7c3.3,0.7,5,1.8,5,4v0c0,2.3-1.9,4-4.8,4c-0.1,0-0.1,0-0.2,0
			v2.2H50v-2.2C48.1,53,46.2,52.1,44.8,50.7z M45.9,41.5L45.9,41.5c0,2,1.3,2.8,4.2,3.5V38C47.5,38,45.9,39.6,45.9,41.5z M50.7,52.7
			c2.6,0,4.3-1.6,4.3-3.6v0c0-2.1-1.5-2.9-4.5-3.6v7.2C50.5,52.7,50.6,52.7,50.7,52.7z"/>
		<path fill="#7BD454" d="M50.5,55.8H50c-0.3,0-0.5-0.2-0.5-0.5v-1.7c-1.9-0.2-3.7-1.1-5.1-2.5c-0.1-0.1-0.2-0.2-0.2-0.4
			s0.1-0.3,0.1-0.4l0.3-0.3c0.2-0.2,0.5-0.2,0.7,0c1.1,1.1,2.6,1.9,4,2.1v-6.4c-2.4-0.6-4.7-1.6-4.7-4.3c0-2.4,1.9-4.2,4.7-4.4v-0.8
			c0-0.3,0.2-0.5,0.5-0.5h0.4c0.3,0,0.5,0.2,0.5,0.5v0.8c1.7,0.2,3.1,0.8,4.4,1.9c0.2,0.2,0.2,0.5,0,0.7L55,40.1
			c-0.2,0.2-0.5,0.2-0.7,0c-1.1-1-2.1-1.5-3.4-1.6v6.1c2.7,0.6,5,1.6,5,4.4c0,2.6-2,4.4-5,4.6v1.7C51,55.6,50.7,55.8,50.5,55.8z
			 M51,46.2v6.1c2.1-0.1,3.5-1.3,3.5-3.1C54.5,47.6,53.6,46.9,51,46.2z M49.5,38.6c-1.9,0.2-3.2,1.3-3.2,2.9c0,1.5,0.8,2.2,3.2,2.8
			V38.6z"/>
	</g>
</g>
</svg>
