<?xml version="1.0" encoding="utf-8"?>
<!-- Generator: Adobe Illustrator 18.1.0, SVG Export Plug-In . SVG Version: 6.00 Build 0)  -->
<svg version="1.1" id="Layer_1" xmlns="http://www.w3.org/2000/svg" xmlns:xlink="http://www.w3.org/1999/xlink" x="0px" y="0px"
	 viewBox="2.3 -0.6 100 100" enable-background="new 2.3 -0.6 100 100" xml:space="preserve">
<g>
	<g>
		<path fill="#7BD454" d="M52.3,99.4c-27.6,0-50-22.4-50-50c0-27.6,22.4-50,50-50c27.6,0,50,22.4,50,50
			C102.3,76.9,79.8,99.4,52.3,99.4L52.3,99.4z M52.3,1.6C25.9,1.6,4.5,23,4.5,49.4s21.4,47.8,47.8,47.8s47.8-21.4,47.8-47.8
			S78.6,1.6,52.3,1.6L52.3,1.6z"/>
	</g>
</g>
<g>
	<g>
		<path fill="#7BD454" d="M72.5,76.6H32.1c-2.3,0-4.1-1.9-4.1-4.1V43.1c0-0.3,0.1-0.6,0.4-0.8l23.3-19.8c0.4-0.4,1-0.4,1.4,0
			l23.1,19.8c0.2,0.2,0.4,0.5,0.4,0.8v29.4C76.6,74.8,74.7,76.6,72.5,76.6L72.5,76.6z M30.2,43.6v28.9c0,1.1,0.9,1.9,1.9,1.9h40.4
			c1.1,0,1.9-0.9,1.9-1.9V43.6l-22-18.9L30.2,43.6L30.2,43.6z"/>
	</g>
	<g>
		<path fill="#7BD454" d="M72.5,76.6H32.1c-1.7,0-3.2-1.1-3.9-2.7c-0.2-0.4,0-0.9,0.3-1.2l23-20.5c0.4-0.4,1.1-0.4,1.5,0l23,20.5
			c0.3,0.3,0.5,0.8,0.3,1.2C75.7,75.5,74.2,76.6,72.5,76.6L72.5,76.6z M30.7,73.8c0.4,0.4,0.9,0.6,1.4,0.6h40.4c0.5,0,1-0.2,1.4-0.6
			L52.3,54.5L30.7,73.8L30.7,73.8z"/>
	</g>
	<g>
		<path fill="#7BD454" d="M59.4,60.3c-0.3,0-0.6-0.1-0.8-0.4c-0.4-0.5-0.4-1.2,0.1-1.6l15.9-14.2c0.5-0.4,1.2-0.4,1.6,0.1
			c0.4,0.5,0.4,1.2-0.1,1.6L60.1,60C59.9,60.2,59.6,60.3,59.4,60.3L59.4,60.3z"/>
	</g>
	<g>
		<path fill="#7BD454" d="M45.3,60.4c-0.3,0-0.5-0.1-0.7-0.3l-16-14.3c-0.5-0.4-0.5-1.1-0.1-1.6c0.4-0.5,1.1-0.5,1.6-0.1l16,14.3
			c0.5,0.4,0.5,1.1,0.1,1.6C45.9,60.3,45.6,60.4,45.3,60.4L45.3,60.4z"/>
	</g>
</g>
</svg>
