<?xml version="1.0" encoding="utf-8"?>
<!-- Generator: Adobe Illustrator 16.0.4, SVG Export Plug-In . SVG Version: 6.00 Build 0)  -->
<!DOCTYPE svg PUBLIC "-//W3C//DTD SVG 1.1//EN" "http://www.w3.org/Graphics/SVG/1.1/DTD/svg11.dtd">
<svg version="1.1" id="Layer_4" xmlns="http://www.w3.org/2000/svg" xmlns:xlink="http://www.w3.org/1999/xlink" x="0px" y="0px"
	 width="30px" height="30px" viewBox="0 0 30 30" enable-background="new 0 0 30 30" xml:space="preserve">
<g>
	<path fill="#00F6FF" d="M15,0C6.729,0,0,6.729,0,15s6.729,15,15,15s15-6.729,15-15S23.271,0,15,0z M15,28.696
		C7.448,28.696,1.305,22.552,1.305,15S7.448,1.304,15,1.304S28.695,7.448,28.695,15S22.552,28.696,15,28.696z"/>
	<path fill="#00F6FF" d="M16.993,10.887c-0.641,0.634-1.148,1.376-1.525,2.23s-0.565,1.785-0.565,2.795
		c0,0.64,0.103,1.245,0.309,1.813c0.207,0.569,0.487,1.067,0.844,1.494c0.354,0.427,0.771,0.761,1.247,1.003
		s0.992,0.362,1.548,0.362c0.427,0,0.824-0.067,1.194-0.202s0.693-0.327,0.971-0.577c0.278-0.248,0.494-0.537,0.651-0.864
		c0.155-0.327,0.234-0.683,0.234-1.067c0-0.355-0.058-0.689-0.171-1.003c-0.114-0.312-0.274-0.583-0.48-0.811
		s-0.44-0.405-0.704-0.533c-0.263-0.128-0.544-0.192-0.842-0.192c-0.285,0-0.513,0.036-0.684,0.107
		c-0.17,0.071-0.323,0.153-0.458,0.246c-0.137,0.092-0.268,0.174-0.395,0.245c-0.129,0.071-0.286,0.106-0.471,0.106
		c-0.198,0-0.361-0.121-0.49-0.363c-0.127-0.241-0.192-0.526-0.192-0.853c0-0.555,0.129-1.095,0.385-1.622s0.604-1.013,1.046-1.462
		c0.439-0.448,0.955-0.846,1.546-1.195c0.59-0.348,1.227-0.615,1.91-0.8V8.7c-0.939,0.071-1.832,0.295-2.678,0.672
		C18.375,9.75,17.633,10.254,16.993,10.887z"/>
	<path fill="#00F6FF" d="M8.886,10.887c-0.641,0.634-1.148,1.376-1.526,2.23c-0.377,0.854-0.565,1.785-0.565,2.795
		c0,0.64,0.104,1.245,0.31,1.813c0.207,0.569,0.487,1.067,0.844,1.494c0.354,0.427,0.771,0.761,1.247,1.003s0.992,0.362,1.548,0.362
		c0.426,0,0.824-0.067,1.194-0.202c0.369-0.135,0.693-0.327,0.971-0.577c0.277-0.248,0.494-0.537,0.651-0.864
		c0.155-0.327,0.234-0.683,0.234-1.067c0-0.355-0.058-0.689-0.171-1.003c-0.115-0.312-0.274-0.583-0.48-0.811
		s-0.44-0.405-0.704-0.533c-0.263-0.128-0.544-0.192-0.842-0.192c-0.286,0-0.513,0.036-0.684,0.107
		c-0.17,0.071-0.323,0.153-0.458,0.246c-0.137,0.092-0.268,0.174-0.396,0.245s-0.285,0.106-0.47,0.106
		c-0.198,0-0.361-0.121-0.49-0.363c-0.128-0.241-0.192-0.526-0.192-0.853c0-0.555,0.129-1.095,0.385-1.622s0.604-1.013,1.046-1.462
		c0.439-0.448,0.955-0.846,1.546-1.195c0.59-0.348,1.227-0.615,1.91-0.8V8.7c-0.939,0.071-1.832,0.295-2.678,0.672
		C10.268,9.75,9.525,10.254,8.886,10.887z"/>
</g>
</svg>
