<?xml version="1.0" encoding="utf-8"?>
<!-- Generator: Adobe Illustrator 18.1.0, SVG Export Plug-In . SVG Version: 6.00 Build 0)  -->
<svg version="1.1" id="Layer_1" xmlns="http://www.w3.org/2000/svg" xmlns:xlink="http://www.w3.org/1999/xlink" x="0px" y="0px"
	 viewBox="3.2 -0.6 100 100" enable-background="new 3.2 -0.6 100 100" xml:space="preserve">
<g>
	<g>
		<path fill="#7BD454" d="M53.2,99.4c-27.6,0-50-22.4-50-50c0-27.6,22.4-50,50-50c27.6,0,50,22.4,50,50
			C103.2,77,80.8,99.4,53.2,99.4L53.2,99.4z M53.2,1.6C26.8,1.6,5.4,23.1,5.4,49.4c0,26.3,21.4,47.8,47.8,47.8S101,75.8,101,49.4
			C101,23.1,79.5,1.6,53.2,1.6L53.2,1.6z"/>
	</g>
</g>
<g>
	<g>
		<path fill="#7BD454" d="M37,75.2c-0.5,0-0.9-0.3-1.1-0.8l-7.9-26.7c-0.2-0.6,0.2-1.2,0.8-1.4l13.4-3.9c0.3-0.1,0.6,0,0.8,0.1
			c0.3,0.1,0.5,0.4,0.5,0.7l7.9,26.7c0.1,0.3,0.1,0.6-0.1,0.8c-0.1,0.3-0.4,0.5-0.7,0.5l-13.4,3.9C37.2,75.2,37.1,75.2,37,75.2
			L37,75.2z M30.5,48.2l7.2,24.5L49,69.4l-7.2-24.5L30.5,48.2L30.5,48.2z"/>
	</g>
	<g>
		<path fill="#7BD454" d="M66.4,64.6c-0.6,0-1.1,0-1.6-0.1c-1.3-0.2-3.4-0.3-5.8-0.5l-3.5-0.3c-3.8-0.3-6.1,0-7.2,0.2
			c-0.6,0.1-1.2-0.2-1.3-0.8l-4.8-16.2c-0.1-0.4,0-0.9,0.4-1.2c3-2.4,8.2-8.1,9.9-11.1c1-3.2,0.6-7.3,0.5-7.7
			c-0.1-0.7,0.1-1.3,0.6-1.8c1.2-1.4,3.9-1.4,4-1.4c0.8,0,1.7,0.4,2.4,1.2c1.6,1.8,2.4,5.1,2.1,9.1c0,0.5-0.1,1.1-0.2,1.7
			c-0.1,0.3-0.1,0.7-0.1,1.1c-0.1,0.8-0.1,1.5-0.1,2.1c0.3,0.5,3.3,1.3,9.7,1.3l0.9,0c3.5,0,6.3,2.8,6.3,6.2c0,1.5-0.5,2.9-1.5,4.1
			C77,51,77,51.6,77,52.2c-0.1,1.5-0.8,3-2.1,3.9c0,0.2,0,0.4,0,0.5c-0.1,1.9-1.3,3.7-3,4.5c-0.1,0.3-0.1,0.5-0.2,0.8
			C71,63.7,69.1,64.6,66.4,64.6L66.4,64.6z M52.3,61.3c1,0,2.2,0.1,3.4,0.2l3.4,0.3c2.4,0.2,4.5,0.4,5.8,0.6c0.4,0,0.9,0.1,1.4,0.1
			c0.6,0,2.8-0.1,3.2-1.2c0.1-0.3,0.2-0.6,0.2-1c0-0.4,0.3-0.8,0.7-0.9c1.3-0.4,2.1-1.6,2.2-2.9c0-0.2,0-0.5,0-0.7
			c-0.1-0.5,0.1-0.9,0.5-1.2c0.9-0.5,1.5-1.5,1.6-2.6c0-0.5-0.1-1-0.3-1.5c-0.2-0.4-0.1-0.9,0.3-1.3c0.9-0.8,1.3-1.8,1.3-3
			c0-2.2-1.8-4-4-4c0,0-0.4,0-1,0c-4.2,0-9.6-0.4-11.3-2c-0.5-0.6-0.6-1.1-0.6-1.5c0-0.7,0-1.4,0.1-2.3c0.1-0.4,0.1-0.8,0.2-1.2
			c0.1-0.5,0.2-1.1,0.2-1.5c0.3-3.9-0.6-6.4-1.5-7.4c-0.3-0.3-0.5-0.5-0.7-0.5c-0.8,0-2.2,0.4-2.3,0.7c0.1,0.5,0.5,5.1-0.7,8.9
			c-1.8,3.3-6.7,8.8-9.9,11.5l4.3,14.6C49.9,61.4,51,61.3,52.3,61.3L52.3,61.3z"/>
	</g>
</g>
</svg>
