<?xml version="1.0" encoding="utf-8"?>
<!-- Generator: Adobe Illustrator 18.1.0, SVG Export Plug-In . SVG Version: 6.00 Build 0)  -->
<svg version="1.1" id="Layer_1" xmlns="http://www.w3.org/2000/svg" xmlns:xlink="http://www.w3.org/1999/xlink" x="0px" y="0px"
	 viewBox="2.4 -0.6 100 100" enable-background="new 2.4 -0.6 100 100" xml:space="preserve">
<g>
	<g>
		<path fill="#7BD454" d="M52.4,99.4c-27.6,0-50-22.4-50-50c0-27.6,22.4-50,50-50c27.6,0,50,22.4,50,50
			C102.4,77,79.9,99.4,52.4,99.4L52.4,99.4z M52.4,1.7C26,1.7,4.6,23.1,4.6,49.4c0,26.3,21.4,47.8,47.8,47.8s47.8-21.4,47.8-47.8
			C100.1,23.1,78.7,1.7,52.4,1.7L52.4,1.7z"/>
	</g>
</g>
<g>
	<g>
		<path fill="#7BD454" d="M76.6,74.8H28.1c-0.6,0-1.1-0.5-1.1-1.1V25.2c0-0.6,0.5-1.1,1.1-1.1c0.6,0,1.1,0.5,1.1,1.1v47.4h47.4
			c0.6,0,1.1,0.5,1.1,1.1C77.7,74.3,77.2,74.8,76.6,74.8L76.6,74.8z"/>
	</g>
	<g>
		<path fill="#7BD454" d="M44.3,66.9h-8.2c-0.6,0-1.1-0.5-1.1-1.1V54.3c0-0.6,0.5-1.1,1.1-1.1h8.2c0.6,0,1.1,0.5,1.1,1.1v11.5
			C45.4,66.4,44.9,66.9,44.3,66.9L44.3,66.9z M37.2,64.7h6v-9.3h-6V64.7L37.2,64.7z"/>
	</g>
	<g>
		<path fill="#7BD454" d="M76,66.9h-8.2c-0.6,0-1.1-0.5-1.1-1.1V25.2c0-0.6,0.5-1.1,1.1-1.1H76c0.6,0,1.1,0.5,1.1,1.1v40.6
			C77.1,66.4,76.6,66.9,76,66.9L76,66.9z M68.9,64.7h6V26.3h-6V64.7L68.9,64.7z"/>
	</g>
	<g>
		<path fill="#7BD454" d="M60.1,66.9h-8.2c-0.6,0-1.1-0.5-1.1-1.1V40.1c0-0.6,0.5-1.1,1.1-1.1h8.2c0.6,0,1.1,0.5,1.1,1.1v25.7
			C61.2,66.4,60.8,66.9,60.1,66.9L60.1,66.9z M53.1,64.7h6V41.2h-6V64.7L53.1,64.7z"/>
	</g>
</g>
</svg>
