<?xml version="1.0" encoding="utf-8"?>
<!-- Generator: Adobe Illustrator 16.0.4, SVG Export Plug-In . SVG Version: 6.00 Build 0)  -->
<!DOCTYPE svg PUBLIC "-//W3C//DTD SVG 1.1//EN" "http://www.w3.org/Graphics/SVG/1.1/DTD/svg11.dtd">
<svg version="1.1" id="Layer_1" xmlns="http://www.w3.org/2000/svg" xmlns:xlink="http://www.w3.org/1999/xlink" x="0px" y="0px"
	 width="50px" height="50px" viewBox="0 0 50 50" enable-background="new 0 0 50 50" xml:space="preserve">
<g>
	<path fill="#FFFFFF" d="M25,0C11.215,0,0,11.215,0,25s11.215,25,25,25s25-11.215,25-25S38.785,0,25,0z"/>
	<path fill="#FDB515" d="M32.752,16.825c-0.016-0.03-2.001-2.212-5.43-2.853v-1.298c0-0.481-0.192-0.908-0.471-1.256
		c-0.375-0.465-0.924-0.781-1.568-0.781c-0.671,0-1.237,0.347-1.609,0.851c-0.25,0.337-0.425,0.732-0.425,1.187v1.307
		c-3.149,0.701-5.295,3.169-5.295,6.284c0,1.13,0.308,2.018,0.786,2.769c0.461,0.722,1.105,1.295,1.838,1.78
		c0,0,1.683,0.949,3.385,1.617c1.063,0.418,2.051,0.82,2.788,1.297c0.763,0.493,1.254,1.069,1.254,1.849
		c0,0.998-0.526,1.688-1.254,2.116c-0.589,0.346-1.308,0.522-2.006,0.522c-0.642,0-1.37-0.222-2.067-0.511
		c-1.385-0.574-2.632-1.437-2.749-1.525c-0.893-0.698-2.107-0.449-2.722,0.412c-0.489,0.683-0.436,1.576,0.041,2.236
		c0.016,0.03,2.001,2.212,5.43,2.853v1.298c0,0.481,0.192,0.907,0.471,1.256c0.375,0.465,0.924,0.781,1.567,0.781
		c0.672,0,1.238-0.347,1.61-0.851c0.25-0.337,0.425-0.734,0.425-1.187v-1.307c3.149-0.701,5.295-3.169,5.295-6.286
		c0-1.129-0.308-2.018-0.785-2.767c-0.462-0.725-1.106-1.295-1.837-1.78h0.023c-1.073-0.675-2.288-1.176-3.41-1.618
		c-1.06-0.423-2.051-0.821-2.788-1.298c-0.763-0.492-1.254-1.067-1.254-1.85c0-0.996,0.526-1.688,1.254-2.113
		c0.588-0.346,1.308-0.522,2.006-0.522c0.64,0,1.37,0.222,2.067,0.511c1.385,0.574,2.632,1.435,2.749,1.525
		c0.893,0.698,2.107,0.446,2.722-0.414C33.282,18.376,33.229,17.485,32.752,16.825z"/>
</g>
</svg>
