<?xml version="1.0" encoding="utf-8"?>
<!-- Generator: Adobe Illustrator 16.0.4, SVG Export Plug-In . SVG Version: 6.00 Build 0)  -->
<!DOCTYPE svg PUBLIC "-//W3C//DTD SVG 1.1//EN" "http://www.w3.org/Graphics/SVG/1.1/DTD/svg11.dtd">
<svg version="1.1" id="Layer_1" xmlns="http://www.w3.org/2000/svg" xmlns:xlink="http://www.w3.org/1999/xlink" x="0px" y="0px"
	 width="37px" height="37px" viewBox="0 0 37 37" enable-background="new 0 0 37 37" xml:space="preserve">
<circle fill="#2BABE2" cx="18.5" cy="18.502" r="14.667"/>
<g>
	<path fill="#FFFFFF" d="M18.5,37C8.299,37,0,28.701,0,18.5C0,8.299,8.299,0,18.5,0S37,8.299,37,18.5C37,28.701,28.701,37,18.5,37z
		 M18.5,4C10.505,4,4,10.505,4,18.5C4,26.496,10.505,33,18.5,33S33,26.496,33,18.5C33,10.505,26.495,4,18.5,4z"/>
</g>
<g>
	<path fill="#FFFFFF" d="M25.25,9.25H11.751c-0.528,0-0.959,0.43-0.959,0.958v16.583c0,0.529,0.431,0.959,0.959,0.959h13.498
		c0.528,0,0.959-0.43,0.959-0.959V10.208C26.208,9.68,25.778,9.25,25.25,9.25z M24.29,25.831H12.711V11.169h11.574L24.29,25.831z"/>
	<path fill="#FFFFFF" d="M14.764,15.446h7.47c0.516,0,0.873-0.494,0.873-0.938c0-0.442-0.357-0.934-0.873-0.934h-7.47
		c-0.513,0-0.871,0.492-0.871,0.934C13.893,14.952,14.251,15.446,14.764,15.446z"/>
	<path fill="#FFFFFF" d="M14.734,19.337h7.53c0.539,0,0.978-0.422,0.978-0.941c0-0.52-0.438-0.943-0.978-0.943h-7.53
		c-0.538,0-0.977,0.423-0.977,0.943C13.758,18.916,14.196,19.337,14.734,19.337z"/>
	<path fill="#FFFFFF" d="M14.734,23.224h7.53c0.539,0,0.978-0.424,0.978-0.943s-0.438-0.942-0.978-0.942h-7.53
		c-0.538,0-0.977,0.423-0.977,0.942S14.196,23.224,14.734,23.224z"/>
</g>
</svg>
