<?xml version="1.0" encoding="utf-8"?>
<!-- Generator: Adobe Illustrator 16.0.4, SVG Export Plug-In . SVG Version: 6.00 Build 0)  -->
<!DOCTYPE svg PUBLIC "-//W3C//DTD SVG 1.1//EN" "http://www.w3.org/Graphics/SVG/1.1/DTD/svg11.dtd">
<svg version="1.1" id="Layer_1" xmlns="http://www.w3.org/2000/svg" xmlns:xlink="http://www.w3.org/1999/xlink" x="0px" y="0px"
	 width="50px" height="50px" viewBox="0 0 50 50" enable-background="new 0 0 50 50" xml:space="preserve">
<g>
	<path fill="#FFFFFF" d="M25,0C11.215,0,0,11.215,0,25s11.215,25,25,25s25-11.215,25-25S38.785,0,25,0z"/>
	<g>
		<g>
			<path fill="#892269" d="M30.372,12.119c-1.508-0.94-3.288-1.481-5.214-1.481c-5.74,0-10.338,4.493-10.338,10.225
				c0,5.566,4.598,10.16,10.124,10.16c5.636,0,10.235-4.486,10.235-10.16c0-3.288-1.538-6.27-3.96-8.15 M28.828,16.692
				c1.084,1.052,1.752,2.535,1.752,4.17c0,3.218-2.385,5.674-5.636,5.674c-3.141,0-5.526-2.602-5.526-5.674
				c0-1.521,0.52-2.902,1.589-3.972c0.969-1.034,2.523-1.76,3.938-1.76c1.156,0,2.216,0.345,3.098,0.934"/>
			<path fill="#892269" d="M25,32.597c-4.223,0-7.82,2.669-9.19,6.419h18.379C32.819,35.266,29.226,32.597,25,32.597z"/>
		</g>
	</g>
</g>
</svg>
