<?xml version="1.0" encoding="utf-8"?>
<!-- Generator: Adobe Illustrator 16.0.4, SVG Export Plug-In . SVG Version: 6.00 Build 0)  -->
<!DOCTYPE svg PUBLIC "-//W3C//DTD SVG 1.1//EN" "http://www.w3.org/Graphics/SVG/1.1/DTD/svg11.dtd">
<svg version="1.1" id="Layer_1" xmlns="http://www.w3.org/2000/svg" xmlns:xlink="http://www.w3.org/1999/xlink" x="0px" y="0px"
	 width="37px" height="37px" viewBox="0 0 37 37" enable-background="new 0 0 37 37" xml:space="preserve">
<g>
	<circle fill="#EF3D38" cx="18.496" cy="18.502" r="14.667"/>
	<g>
		<path fill="#FFFFFF" d="M18.5,37C8.299,37,0,28.701,0,18.5C0,8.299,8.299,0,18.5,0S37,8.299,37,18.5C37,28.701,28.701,37,18.5,37z
			 M18.5,4C10.505,4,4,10.505,4,18.5C4,26.496,10.505,33,18.5,33S33,26.496,33,18.5C33,10.505,26.495,4,18.5,4z"/>
	</g>
	<path fill="#FFFFFF" d="M24.001,17.011h-4.023v-6.436c0-0.731-0.594-1.325-1.326-1.325c-0.73,0-1.323,0.593-1.323,1.325v7.69
		c0,0.564,0.356,1.039,0.854,1.229c0.184,0.097,0.385,0.165,0.607,0.165h5.212c0.732,0,1.325-0.593,1.325-1.324
		S24.733,17.011,24.001,17.011z"/>
</g>
</svg>
