<?xml version="1.0" encoding="utf-8"?>
<!-- Generator: Adobe Illustrator 16.0.4, SVG Export Plug-In . SVG Version: 6.00 Build 0)  -->
<!DOCTYPE svg PUBLIC "-//W3C//DTD SVG 1.1//EN" "http://www.w3.org/Graphics/SVG/1.1/DTD/svg11.dtd">
<svg version="1.1" id="Layer_1" xmlns="http://www.w3.org/2000/svg" xmlns:xlink="http://www.w3.org/1999/xlink" x="0px" y="0px"
	 width="50px" height="50px" viewBox="0 0 50 50" enable-background="new 0 0 50 50" xml:space="preserve">
<g>
	<path fill="#FFFFFF" d="M25,0C11.215,0,0,11.215,0,25s11.215,25,25,25s25-11.215,25-25S38.785,0,25,0z"/>
	<path fill="#EF3D38" d="M33.661,22.728h-6.268V12.702c0-1.141-0.925-2.064-2.065-2.064c-1.139,0-2.061,0.924-2.061,2.064v11.979
		c0,0.879,0.554,1.618,1.328,1.916c0.287,0.15,0.6,0.258,0.946,0.258h8.119c1.142,0,2.063-0.924,2.063-2.064
		C35.725,23.651,34.803,22.728,33.661,22.728z"/>
</g>
</svg>
