<?xml version="1.0" encoding="utf-8"?>
<!-- Generator: Adobe Illustrator 16.0.4, SVG Export Plug-In . SVG Version: 6.00 Build 0)  -->
<!DOCTYPE svg PUBLIC "-//W3C//DTD SVG 1.1//EN" "http://www.w3.org/Graphics/SVG/1.1/DTD/svg11.dtd">
<svg version="1.1" id="Layer_1" xmlns="http://www.w3.org/2000/svg" xmlns:xlink="http://www.w3.org/1999/xlink" x="0px" y="0px"
	 width="50px" height="50px" viewBox="0 0 50 50" enable-background="new 0 0 50 50" xml:space="preserve">
<g>
	<path fill="#FFFFFF" d="M25,0C11.215,0,0,11.215,0,25s11.215,25,25,25s25-11.215,25-25S38.785,0,25,0z"/>
	<g>
		<path fill="#2BABE2" d="M35.354,10.638H14.647c-0.811,0-1.471,0.659-1.471,1.468v25.439c0,0.812,0.66,1.472,1.471,1.472h20.705
			c0.811,0,1.471-0.66,1.471-1.472V12.105C36.823,11.297,36.164,10.638,35.354,10.638z M33.883,36.072H16.12v-22.49h17.755
			L33.883,36.072z"/>
		<path fill="#2BABE2" d="M19.269,20.143h11.458c0.791,0,1.339-0.758,1.339-1.438c0-0.679-0.548-1.431-1.339-1.431H19.269
			c-0.786,0-1.337,0.752-1.337,1.431C17.932,19.385,18.482,20.143,19.269,20.143z"/>
		<path fill="#2BABE2" d="M19.224,26.112h11.552c0.827,0,1.5-0.649,1.5-1.443c0-0.799-0.673-1.448-1.5-1.448H19.224
			c-0.826,0-1.499,0.649-1.499,1.448C17.725,25.463,18.397,26.112,19.224,26.112z"/>
		<path fill="#2BABE2" d="M19.224,32.073h11.552c0.827,0,1.5-0.649,1.5-1.447c0-0.796-0.673-1.444-1.5-1.444H19.224
			c-0.826,0-1.499,0.648-1.499,1.444C17.725,31.424,18.397,32.073,19.224,32.073z"/>
	</g>
</g>
</svg>
