<?xml version="1.0" encoding="utf-8"?>
<!-- Generator: Adobe Illustrator 16.0.4, SVG Export Plug-In . SVG Version: 6.00 Build 0)  -->
<!DOCTYPE svg PUBLIC "-//W3C//DTD SVG 1.1//EN" "http://www.w3.org/Graphics/SVG/1.1/DTD/svg11.dtd">
<svg version="1.1" id="Layer_1" xmlns="http://www.w3.org/2000/svg" xmlns:xlink="http://www.w3.org/1999/xlink" x="0px" y="0px"
	 width="37px" height="37px" viewBox="0 0 37 37" enable-background="new 0 0 37 37" xml:space="preserve">
<g>
	<circle fill="#FDB515" cx="18.5" cy="18.502" r="14.667"/>
	<g>
		<path fill="#FFFFFF" d="M18.5,37C8.299,37,0,28.701,0,18.5C0,8.299,8.299,0,18.5,0S37,8.299,37,18.5C37,28.701,28.701,37,18.5,37z
			 M18.5,4C10.505,4,4,10.505,4,18.5C4,26.496,10.505,33,18.5,33S33,26.496,33,18.5C33,10.505,26.495,4,18.5,4z"/>
	</g>
	<path fill="#FFFFFF" d="M23.496,13.238c-0.01-0.019-1.289-1.426-3.499-1.838v-0.837c0-0.31-0.124-0.583-0.304-0.808
		c-0.241-0.3-0.596-0.504-1.011-0.504c-0.433,0-0.798,0.224-1.037,0.548c-0.161,0.217-0.274,0.473-0.274,0.764v0.843
		c-2.029,0.451-3.412,2.042-3.412,4.05c0,0.728,0.198,1.301,0.507,1.784c0.297,0.466,0.712,0.835,1.184,1.148
		c0,0,1.085,0.611,2.182,1.042c0.686,0.27,1.322,0.53,1.798,0.837c0.491,0.317,0.808,0.688,0.808,1.192
		c0,0.643-0.339,1.088-0.808,1.362c-0.38,0.223-0.843,0.337-1.293,0.337c-0.413,0-0.883-0.143-1.333-0.329
		c-0.893-0.37-1.696-0.926-1.771-0.983c-0.575-0.449-1.358-0.289-1.754,0.267c-0.315,0.44-0.281,1.015,0.026,1.44
		c0.01,0.02,1.289,1.426,3.499,1.839v0.837c0,0.311,0.124,0.584,0.304,0.809c0.241,0.3,0.596,0.504,1.011,0.504
		c0.433,0,0.798-0.224,1.037-0.548c0.161-0.218,0.274-0.474,0.274-0.765v-0.843c2.029-0.452,3.412-2.042,3.412-4.051
		c0-0.728-0.198-1.301-0.506-1.784c-0.298-0.466-0.713-0.834-1.184-1.147h0.015c-0.691-0.435-1.475-0.757-2.197-1.042
		c-0.684-0.273-1.322-0.529-1.798-0.836c-0.491-0.317-0.808-0.689-0.808-1.191c0-0.644,0.339-1.088,0.808-1.363
		c0.38-0.223,0.843-0.336,1.293-0.336c0.413,0,0.883,0.143,1.333,0.329c0.893,0.37,1.696,0.926,1.771,0.983
		c0.575,0.45,1.358,0.289,1.754-0.266C23.838,14.239,23.804,13.665,23.496,13.238z"/>
</g>
</svg>
