<?xml version="1.0" encoding="utf-8"?>
<!-- Generator: Adobe Illustrator 16.0.4, SVG Export Plug-In . SVG Version: 6.00 Build 0)  -->
<!DOCTYPE svg PUBLIC "-//W3C//DTD SVG 1.1//EN" "http://www.w3.org/Graphics/SVG/1.1/DTD/svg11.dtd">
<svg version="1.1" id="Layer_1" xmlns="http://www.w3.org/2000/svg" xmlns:xlink="http://www.w3.org/1999/xlink" x="0px" y="0px"
	 width="37px" height="37px" viewBox="0 0 37 37" enable-background="new 0 0 37 37" xml:space="preserve">
<g>
	<circle fill="#892269" cx="18.5" cy="18.502" r="14.667"/>
	<g>
		<path fill="#FFFFFF" d="M18.5,37C8.299,37,0,28.701,0,18.5C0,8.299,8.299,0,18.5,0S37,8.299,37,18.5C37,28.701,28.701,37,18.5,37z
			 M18.5,4C10.505,4,4,10.505,4,18.5C4,26.496,10.505,33,18.5,33S33,26.496,33,18.5C33,10.505,26.495,4,18.5,4z"/>
	</g>
	<g>
		<g>
			<path fill="#FFFFFF" d="M21.965,10.207C20.992,9.6,19.844,9.25,18.603,9.25c-3.703,0-6.668,2.899-6.668,6.596
				c0,3.589,2.965,6.552,6.529,6.552c3.635,0,6.602-2.894,6.602-6.552c0-2.123-0.992-4.044-2.554-5.258 M20.969,13.156
				c0.699,0.677,1.13,1.634,1.13,2.69c0,2.074-1.538,3.659-3.635,3.659c-2.025,0-3.564-1.677-3.564-3.659
				c0-0.981,0.336-1.873,1.025-2.564c0.624-0.666,1.627-1.133,2.539-1.133c0.746,0,1.43,0.222,1.998,0.602"/>
			<path fill="#FFFFFF" d="M18.5,23.414c-2.724,0-5.044,1.721-5.928,4.139h11.854C23.543,25.134,21.226,23.414,18.5,23.414z"/>
		</g>
	</g>
</g>
</svg>
